M48
;Layer_Color=9474304
;FILE_FORMAT=2:4
INCH,TZ
;TYPE=PLATED
T1F00S00C0.0039
T2F00S00C0.0059
;TYPE=NON_PLATED
%
T01
X5670Y1660
X6232Y1400
X6731Y1939
Y2077
Y2215
Y2353
X6593Y2491
X6731Y2628
X6869Y2766
X6869Y2904
X7007
X7145
X7282
X7420
X7558
X7696
Y2766
Y2628
Y2491
Y2353
Y2076
X7558Y1939
X7420Y1802
X7007Y1939
X6869
X6470Y2260
X6366Y2994
X6731Y2904
X8270Y3020
X8630Y3160
X8410Y3860
X8393Y1642
X7993Y1832
X8083Y1952
X7510Y1302
X12411Y3238
X3700Y4715
Y4912
T02
X4040Y1731
X3939Y3356
X3457Y3539
X3872Y4471
Y5306
X4249Y5227
X4609
X5002
X5396
X5396Y5857
X5790
X6183
Y5227
X6971Y5287
X7365
X7758
X8152
X8546Y5267
X8939Y5227
X9333
Y5857
X9633
Y6487
X9333
X8939
X8546
Y5857
X8152
X7758
Y6487
Y7117
Y7747
X7365
X6971
Y7117
X6971Y6487
X6577
X6183
X6183Y7117
Y7747
X5396
X5039
X4609
Y7117
Y6487
Y5857
X3872Y5896
Y6487
Y6881
Y7078
Y7274
Y7471
Y7668
Y8503
X3428Y9007
X2945Y9190
X2689
X2470Y10380
X2260Y10308
X2270Y8090
X2224Y7352
X2916Y6875
X3270Y7028
X2729Y6054
X5396Y6487
Y7117
X5691Y8503
X4904
X6479
X7463
X8054
X8250
X8447
X8644
X8841
X9038
X9235
X9431
X9628
X9500Y8741
X10100
X10069Y8503
X10391Y8387
X10471Y7655
X10709
X10947
X11185
X11422Y7642
X11653Y7585
X11868Y7483
X12058Y7340
X12226Y7172
X12395Y7004
X12563Y6836
X12751
X12779Y6363
X12542
X12359Y6515
X12193Y6686
X12025Y6854
X11857Y7022
X11671Y7170
X11451Y7261
X11215Y7287
X10977
X10739
X10502
X10389Y7124
X10430Y6900
X10369Y6537
X10603Y6540
X10590Y6040
X10369Y6093
X10069
Y6487
Y6684
Y7078
Y7274
Y7668
Y7865
X9333Y7747
Y7117
X8546
Y7747
X8300Y8741
X7780Y10020
X10610Y9100
X13320Y9250
X13594Y10600
X14990Y10450
Y10200
Y9950
Y9700
Y9450
Y9200
Y8950
Y8700
X13696Y6793
X13393Y6782
X13491Y6314
X13570Y6090
X13576Y5852
Y5614
Y5376
Y5139
Y4901
Y4663
Y4425
Y4187
X13558Y3950
X13701Y3306
Y3069
X14372Y3079
Y3329
Y3579
X14370Y3780
X14372Y2829
X14165Y2714
Y2476
Y1922
Y1684
Y1447
Y1209
X13876Y1150
X13638
X13400
X13150Y1200
X13200Y1600
Y1800
X13438Y1600
X12413Y1610
X12423Y1149
X12443Y699
X12203Y489
X11963Y699
X12053Y2649
X12425Y2869
X12199Y3415
X12070Y3614
X11990Y3838
X11968Y4075
Y4313
Y4551
Y4788
Y5026
Y5264
Y5502
Y5740
X11900Y6020
X12345Y6006
X12375Y5771
Y5533
Y5295
Y5057
Y4819
Y4582
Y4344
Y4106
X12406Y3870
X12522Y3663
X12687Y3465
X12884Y3258
X13250Y3300
X12894Y3661
X13983Y4477
Y4715
Y4952
Y5190
Y5428
Y5666
Y5904
X13973Y6141
X13917Y6372
X13802Y6580
X12234Y6217
X12061Y6381
X11892Y6548
X11580Y5610
X10069Y5306
Y4471
X9628
X9038
X8946Y3988
X8667Y4261
X8477Y4271
X7860Y4190
X6873Y4471
X6676Y4471
X5888
X5101
X5180Y3880
X5500Y3980
X5320Y3090
X6971Y5857
X8939
X14616Y2165
X1575Y3805
X1330Y4830
X550Y9180
X540Y10580
X1430Y11050
X1620Y10960
X1410Y12210
X1814Y12205
X2050Y11450
X1768Y10784
X3050Y11470
X2140Y13740
X2380Y14390
X1980Y14960
X2830Y15820
X2870Y16630
X3740Y15940
X4040Y13760
X4327Y13390
X4900Y13250
X6090Y13440
X7220Y13790
X7770Y12610
X7470Y12160
X6850Y15200
X5190Y14770
X10020Y14133
X10220Y11250
X14211Y11220
X14990Y11200
Y10950
Y10700
X14300Y12100
X13900Y14300
X13360Y16700
X12710Y16090
X13420Y17930
X13940Y18170
X15060Y17560
X15400Y16140
X11370Y18210
M30
