M48
;Layer_Color=9474304
;FILE_FORMAT=2:4
INCH,TZ
;TYPE=PLATED
T1F00S00C0.0039
T2F00S00C0.0059
;TYPE=NON_PLATED
%
T01
X5958Y4560
X6210Y4850
X5101Y13594
X4823Y13566
Y13836
X4890Y14663
Y14900
X4733
X4575
Y15057
Y15215
Y15372
X4733
X4890
X5047
Y15215
Y15057
Y14900
X4361Y16456
X4121
X4064Y16289
X3931Y16176
X3881Y16456
X3641
Y16826
X3881
X4361Y16826
X4601
T02
X4610Y910
X4921Y2067
X5217Y2264
X6360Y2460
X7140Y3140
X7640Y3750
X7634Y5240
X7020Y5430
X6530Y5490
X6780Y5860
X6170Y5990
X6160Y6530
X6990Y6510
X5470Y6328
Y6140
X5140Y5030
X4370Y4310
X4570Y3797
X3820Y3140
X2100Y3480
X2570Y5090
X3950Y5330
X2401Y6600
X2120Y9680
X2130Y10200
X4300Y10290
X5280Y10540
X5040Y9780
X5520Y9700
X5830Y9890
X6053Y8751
X6447Y7982
X7628Y8356
X7824Y8500
X8123
X7974Y8340
X8280
X8440Y8500
X10120Y8420
X11010
X11520Y9870
X11800
X13880Y9480
X14260Y9730
X13840Y10411
X15128Y9469
Y9272
Y9075
X14459Y5138
X14458Y4853
X14200Y4550
X13577Y4850
X13720Y5830
X13662Y3280
X13424Y3282
X13498Y2875
X13290Y2900
X13083Y2839
X12910Y3080
X12805Y2675
X13213Y2449
X13276Y2220
X13280Y1970
X14108Y1855
Y1617
Y1379
Y1141
X14050Y911
X14108Y2093
Y2330
Y2568
Y2806
X14052Y3037
X13889Y3211
X11737Y4600
Y4850
Y5100
X10210Y4860
X9870Y5614
X9590Y5580
X9900Y6180
X10060Y6050
X8590Y5390
X7215Y9425
X7650Y9880
Y10080
Y10280
X9270
X4810Y8340
X12293Y1139
X12223Y959
X12710Y820
X12523Y379
X12033Y409
X1580Y9180
X1520Y13200
X1590Y13430
X1650Y13710
X1740Y13950
X2090Y14110
X2026Y13310
X2800Y13430
X3080Y12540
X4300Y12650
X4410Y14220
X4691Y14206
X4690Y14010
X7030Y14100
Y14290
X6950Y14600
X6940Y15420
X8070Y15290
X7844Y14969
X7890Y14340
X8384Y14332
X8629Y14342
X8591Y14809
X8786Y14786
Y14994
X9256Y14811
X9200Y15420
Y15890
X8880Y15870
X8672Y16403
X8656Y16865
X8980Y17100
X9031Y17615
X9370Y17600
X9410Y16870
X9499Y16398
X9940Y16570
X10310Y16730
X10680Y16620
X11330
X11760Y16470
X12420Y16270
X12406Y15365
X13070Y15500
X13230Y15330
X13400Y15010
X13010Y14230
X13090Y14030
X14020Y14033
X14040Y13840
X14081Y13650
X14100Y15930
X14140Y16370
X13820Y16750
X13820Y17800
X14140Y18480
X14030Y19200
X11380Y19290
X10870Y17130
X9880Y17160
X10330Y16070
X10090Y15580
X9690Y15690
X9646Y14488
X9910Y14180
X10040Y14020
X10300
X10480Y14520
X11570Y14510
X11693Y14367
X11690Y14657
X11570Y14804
X11690Y14951
X10906Y15365
X10880Y15560
X11090Y16170
X12180Y17240
X12680Y17030
X11270Y13650
X9197Y12953
Y12638
X7150Y10980
X6110Y10930
X6250Y10680
X4960Y10930
X4220Y10850
X2770Y10690
X2040Y10640
X2680Y15700
X3180Y16660
X2530Y18210
X4700Y18560
X5250Y17170
X5620Y16690
X8281Y16115
X13530Y11120
X13600Y10930
X13790Y10910
X13770Y10660
X17501Y15081
X17860Y15081
M30
