M48
;Layer_Color=9474304
;FILE_FORMAT=2:4
INCH,TZ
;TYPE=PLATED
T2F00S00C0.0059
T3F00S00C0.0120
T5F00S00C0.0354
;TYPE=NON_PLATED
T6F00S00C0.0335
T7F00S00C0.0354
T8F00S00C0.0402
T9F00S00C0.1181
%
T02
X1906Y365
X2656
X2281Y1115
X2656Y1865
X3250Y2410
X3208Y3210
X2610Y3160
X2580Y3810
X2770Y4070
X2640Y4510
X2720Y4960
X2620Y5360
X2840Y5600
X3020Y5720
X3270Y5730
X3585Y5897
X4249Y5857
X4249Y6487
X4249Y7117
Y7747
X3450Y7550
X3420Y7940
X3410Y8570
X3585Y8503
X2820Y8330
X2850Y7720
X2730Y6760
X2830Y6440
X2491Y6371
X2283Y6080
X2090Y6130
X2110Y7073
X2382Y7077
X2402Y8553
X2110Y8600
X1930Y8540
X2830Y8980
X3030Y9730
X3040Y9970
X3500Y10002
X3800Y9900
X4000Y9750
X4670Y9790
X4580Y9350
X4820Y8730
X5060Y8710
X5355Y8750
X5475Y8246
X5908
X6105
X5679Y7992
X5640Y7747
X5790Y7117
X5790Y6487
X6170Y6790
X6577Y7117
Y7747
X6644Y8002
X7677Y8159
X7560Y8790
X6470Y9160
X6211Y9144
X6260Y8957
X6350Y9620
X6180Y9710
X6220Y10020
X6410Y9930
X6670Y9490
X5970Y10250
X5680Y10227
X5510Y10320
X7540Y10500
X8052Y7747
Y7117
Y6487
X7365
Y5857
X6577
X5921Y5575
X5730Y5570
X5396Y5562
X5730Y5227
X5769Y4831
X5820Y4260
X6220Y4240
X6412
X6609
X6900Y4040
X7310
X7520
X7750Y3990
X7930Y3930
Y3740
X7920Y3540
X7920Y3344
X8420Y3422
X8690Y3340
Y3630
Y3820
X9220Y3930
X9432Y4045
X9348Y4222
X9537Y4242
X9980Y4134
X10130Y3900
X10000Y3700
X10156Y3365
X10213Y3200
X10473
X10723
X10973
X10906Y3365
X11223Y3200
X11473
X11723
Y2950
Y2700
Y2450
Y2200
Y1950
Y1700
Y1450
Y1200
Y950
Y700
Y450
Y241
X12878Y527
X13050Y363
X13263Y256
X13496Y210
X13734Y209
X13972
X14209
X14447
X14685
X14990Y211
X14870Y390
X14728Y574
X14491
X14253
X14015
X13777
X13539Y575
X13310Y638
X13169Y738
X13281Y1400
X12961Y1390
X12764
Y1587
X12961
X13050Y1951
X12863
X12675
X12433Y1949
X12243Y1757
X12245Y2153
X12273Y2340
Y2684
X12153Y2899
X12764Y2497
Y2340
X12961
Y2497
X13281Y2684
X13701Y2752
Y2514
Y2276
Y2039
Y1801
Y1563
X14656Y1865
X14990Y1950
Y1700
Y1450
Y1200
Y950
Y700
Y2200
Y2450
Y2700
Y2950
Y3200
Y3450
Y3700
Y3950
Y4200
Y4450
Y4700
Y4950
Y5200
Y5450
Y5700
Y5950
Y6200
Y6450
Y6700
Y6950
Y7200
Y7450
Y7700
Y7950
Y8200
Y8450
X14656Y7865
X13950Y7950
Y7700
Y7450
Y7200
X14281Y7115
X13615Y7045
X13559Y8189
X13809
X13309
X13059
X12809
X12559
X12300Y8200
X12320Y8460
X12150Y8000
Y7750
Y7500
X11656Y7865
X11640Y7030
X10870
X9633Y7117
Y7747
X9090Y8240
X8939Y7117
X7365
X7230Y4890
X7189Y4701
X7376Y4711
X7590Y4800
X7750Y4700
X7910Y4800
X8064Y4691
X6670Y4960
X6480
X6493Y3662
Y3452
X6463Y3132
X5900Y3100
X5924Y2834
X5311
X5528Y2340
X5498Y1581
X5820Y1570
X6010Y910
X6270Y993
X6989Y1098
X7003Y1292
X7037Y1632
X7224
X7411
X7598
X7990Y1610
X7760Y1290
X8382Y1322
X8650Y1170
X8739Y1664
X8656Y1865
X8669Y2141
X8905Y2169
X8967Y1821
X8917Y1545
X9094Y1368
X9691Y1460
X9921
X10000Y1700
Y1950
Y2200
Y2450
Y2700
Y2950
X9750Y2570
X9258Y2387
X9365Y2175
X9532Y1912
X9540Y1674
X9469Y1024
X9721Y1030
X10000Y700
Y450
X9990Y299
X9650Y290
X9406Y365
X8990Y240
Y760
X9281Y830
X9060Y2519
X8825Y2553
X8583Y2541
X8280Y2560
X8386Y2874
X8560Y3000
X9190Y2930
X9380Y2890
X8137Y2119
X7280Y2350
X6951Y2371
X7066Y3494
X7067Y3688
X5281Y3554
X5060Y4270
X4380Y4060
Y3440
X4890Y2510
X5281Y1115
X7350Y830
X7220Y240
X7720Y410
X12643Y1049
X12444Y1400
X13173Y3079
X13100Y3900
Y4450
X12550
Y4000
X12650Y5130
X12630Y5420
X12756Y5866
X13100Y5150
X14281Y5615
X14646Y4606
X14592Y3969
X14292Y4119
X13722Y3629
X14656Y3365
X11120Y3810
Y4360
X10860Y4600
Y4850
Y5100
X10850Y5520
X10400Y5550
X10389Y5316
X9633Y5227
X10340Y4400
X11360Y8460
X13120Y8430
X13660Y9280
X14700Y9780
X12510Y10250
X12175Y10157
X11910Y10270
X11526Y10610
X5098Y7992
X5002Y7117
X5002Y6487
Y5857
X1220Y6506
Y6978
Y7687
X1339Y8179
X630Y8307
X394Y7270
X384Y6230
X167Y5187
X960Y4610
X930Y4000
X1100Y3160
X406Y3365
Y1865
X400Y1130
X406Y365
X1156
X1500Y2410
X1531Y2615
X1260Y9705
X1257Y9961
X1570Y10730
X1500Y11800
X781Y11615
X310Y11700
X406Y12365
X730Y13030
X280Y13350
X406Y13865
X270Y14230
X400Y14970
X420Y16060
X960Y16070
X1530Y15970
X1531Y17615
X781
X300Y17090
X406Y18365
X781Y19115
X500Y19500
X1500
X1410Y14240
X820Y13760
X1490Y12790
X2390Y13050
X3136Y14216
Y14766
X3106Y15166
X3090Y15890
X3170Y16060
X3160Y16250
X3450Y17130
X4130Y17320
X4120Y16840
X4770Y17640
X5281Y17615
X5330Y18070
X5656Y18365
X5000Y18386
X3760Y18460
X3781Y19115
X3710Y19630
X3020Y19660
X3031Y19115
X3160Y18870
X2420Y18590
X2700Y17820
X6031Y17615
X6460Y17540
X6406Y16865
X6781Y16115
X6600Y15380
X6640Y14190
X5920Y14245
Y14075
X5730
X5730Y14245
X5750Y13750
X5510Y12760
X6130Y12890
X6480Y12490
X6880Y12920
X6980Y11900
X6940Y10780
X8320Y10890
X8656Y10865
X9170Y10740
X9407Y11795
X8730Y12428
X8680Y12988
X8153Y13067
X7980Y12780
X8160Y12388
X7985Y12075
X8140Y14340
X8290Y14870
X7840Y14780
X7480Y14530
X7695Y15940
Y16901
X7180Y17270
X7130Y18070
X7450Y18550
X8090Y18610
X8190Y19200
X8500Y19600
X7500
X6500
X6781Y19115
X6320Y18930
X6031Y19115
X5500Y19600
X4500
X6406Y18365
X8130Y17930
X8423Y17381
Y16421
X8433Y15460
X9671Y15421
X9660Y14780
X10120Y14380
X12430Y14420
X12370Y14060
X13020Y14430
X12670Y14940
X13860Y15140
X13850Y15470
X14380Y15590
X14990Y15850
X14080Y16170
X13440Y16420
X13070Y16430
X12429Y16637
X12031Y17615
X12720Y17760
X12406Y18365
X12800Y18600
X13030Y18750
X12845Y19205
X12250Y19260
X12500Y19600
X13400Y19680
X14000Y19500
X14030Y19200
X14300Y19150
X14340Y19680
X15050Y19660
X15040Y19150
X11900Y18500
X11540Y19660
X10500Y19640
X9618Y19600
X9360Y18900
X9380Y18430
X9284Y18126
X10010Y17970
X9671Y17421
X5860Y15950
X5660
X5389Y15896
Y16076
X5280Y15690
X3744Y14716
X3674Y13970
X3980Y14010
X4156Y12365
X4450Y11800
X4220Y11240
X3570Y11950
X5180Y11930
X10591Y11181
X11230Y10680
X12156Y11181
X12580Y13180
X13540Y13350
X14240Y12890
X14990Y12950
Y13200
Y13450
Y12700
Y12450
Y12200
Y11950
Y11700
Y11450
T03
X14685Y9006
Y9341
T05
X2854Y1437
X3642
Y2224
X2854
X4429Y2224
Y1437
X4990Y11400
Y12400
X5990Y12400
Y11400
X6990Y11400
Y12400
X3590Y12400
X2590
Y11400
X3590
X10620Y12047
X11407
Y12835
X12195
X12982
Y12047
X12195
X13770
Y12835
X10620Y12835
T06
X1220Y6142
X1220Y7323
T07
X974Y14260
Y16937
T08
X937Y3573
Y5073
T09
X1378Y1378
Y18543
X15071Y14685
M30
