G04*
G04 #@! TF.GenerationSoftware,Altium Limited,Altium Designer,21.0.9 (235)*
G04*
G04 Layer_Color=8421504*
%FSLAX24Y24*%
%MOIN*%
G70*
G04*
G04 #@! TF.SameCoordinates,7913F74A-1B9B-402C-A4C5-A7CF04877313*
G04*
G04*
G04 #@! TF.FilePolarity,Positive*
G04*
G01*
G75*
%ADD23O,0.0091X0.0098*%
%ADD24O,0.0098X0.0091*%
G04:AMPARAMS|DCode=25|XSize=33.5mil|YSize=33.5mil|CornerRadius=4.2mil|HoleSize=0mil|Usage=FLASHONLY|Rotation=180.000|XOffset=0mil|YOffset=0mil|HoleType=Round|Shape=RoundedRectangle|*
%AMROUNDEDRECTD25*
21,1,0.0335,0.0251,0,0,180.0*
21,1,0.0251,0.0335,0,0,180.0*
1,1,0.0084,-0.0125,0.0125*
1,1,0.0084,0.0125,0.0125*
1,1,0.0084,0.0125,-0.0125*
1,1,0.0084,-0.0125,-0.0125*
%
%ADD25ROUNDEDRECTD25*%
%ADD26R,0.0106X0.0118*%
%ADD27R,0.0118X0.0106*%
%ADD28R,0.0551X0.0433*%
%ADD29R,0.0315X0.0295*%
%ADD30R,0.0295X0.0315*%
%ADD31R,0.0197X0.0256*%
%ADD32R,0.0236X0.0197*%
%ADD33R,0.0098X0.0098*%
%ADD34R,0.0394X0.0413*%
%ADD35R,0.0413X0.0866*%
%ADD36R,0.0276X0.0256*%
%ADD37R,0.0472X0.0394*%
%ADD38R,0.0394X0.0197*%
%ADD39C,0.0079*%
%ADD40R,0.0315X0.0295*%
%ADD41R,0.0228X0.0197*%
%ADD42R,0.1083X0.0551*%
%ADD43R,0.1083X0.0547*%
%ADD44R,0.0394X0.0236*%
%ADD45R,0.0276X0.0354*%
%ADD46R,0.0236X0.0118*%
%ADD47R,0.1142X0.0177*%
%ADD48R,0.0748X0.0177*%
%ADD49R,0.0236X0.0236*%
%ADD50R,0.0276X0.0295*%
%ADD51R,0.0197X0.0551*%
%ADD52R,0.0256X0.0472*%
%ADD53R,0.0945X0.0177*%
%ADD54R,0.0315X0.0315*%
%ADD55R,0.0118X0.0118*%
%ADD56R,0.0213X0.0118*%
%ADD57R,0.0118X0.0213*%
%ADD58R,0.0213X0.0213*%
%ADD59R,0.1181X0.1181*%
%ADD60R,0.1181X0.0787*%
%ADD61R,0.0197X0.0236*%
%ADD62R,0.0098X0.0079*%
%ADD63R,0.0256X0.0197*%
%ADD64R,0.0374X0.0335*%
G04:AMPARAMS|DCode=65|XSize=11.8mil|YSize=10.6mil|CornerRadius=0mil|HoleSize=0mil|Usage=FLASHONLY|Rotation=135.000|XOffset=0mil|YOffset=0mil|HoleType=Round|Shape=Rectangle|*
%AMROTATEDRECTD65*
4,1,4,0.0079,-0.0004,0.0004,-0.0079,-0.0079,0.0004,-0.0004,0.0079,0.0079,-0.0004,0.0*
%
%ADD65ROTATEDRECTD65*%

D23*
X13195Y2684D02*
D03*
Y2507D02*
D03*
Y2330D02*
D03*
Y2153D02*
D03*
X12530Y2684D02*
D03*
X12530Y2507D02*
D03*
X12530Y2330D02*
D03*
Y2153D02*
D03*
D24*
X12705Y2751D02*
D03*
X12863D02*
D03*
X13020D02*
D03*
Y2086D02*
D03*
X12863D02*
D03*
X12705D02*
D03*
D25*
X12863Y2419D02*
D03*
D26*
X6342Y3970D02*
D03*
X6118D02*
D03*
X5678D02*
D03*
X5902D02*
D03*
X4445Y8830D02*
D03*
X4221D02*
D03*
X9051Y1555D02*
D03*
X9276D02*
D03*
X14170Y4369D02*
D03*
X14395Y4369D02*
D03*
X12564Y6575D02*
D03*
X12789D02*
D03*
X13352D02*
D03*
X13577D02*
D03*
X7381Y1169D02*
D03*
X7606Y1169D02*
D03*
X8112Y1169D02*
D03*
X7888D02*
D03*
X8527Y1466D02*
D03*
X8302D02*
D03*
X10662Y4600D02*
D03*
X10438D02*
D03*
X10662Y4850D02*
D03*
X10438D02*
D03*
X10662Y5100D02*
D03*
X10438D02*
D03*
X8059Y2353D02*
D03*
X8283D02*
D03*
X6041Y1582D02*
D03*
X6266D02*
D03*
X12193Y929D02*
D03*
X12417D02*
D03*
X9499Y1250D02*
D03*
X9723D02*
D03*
X5862Y1820D02*
D03*
X5638D02*
D03*
X5862Y2340D02*
D03*
X5638D02*
D03*
X8489Y2353D02*
D03*
X8713D02*
D03*
D27*
X2945Y9415D02*
D03*
Y9190D02*
D03*
X2689Y9415D02*
D03*
Y9190D02*
D03*
X2916Y6650D02*
D03*
Y6875D02*
D03*
X3457Y3765D02*
D03*
Y3540D02*
D03*
X3201Y3765D02*
D03*
Y3540D02*
D03*
X13070Y5629D02*
D03*
Y5853D02*
D03*
X13935Y2671D02*
D03*
Y2447D02*
D03*
X9281Y1262D02*
D03*
Y1038D02*
D03*
X8386Y2135D02*
D03*
Y1911D02*
D03*
X8970Y968D02*
D03*
Y1192D02*
D03*
X12193Y1381D02*
D03*
Y1157D02*
D03*
X12633Y707D02*
D03*
X12633Y931D02*
D03*
X12243Y2161D02*
D03*
Y1937D02*
D03*
X7303Y3349D02*
D03*
Y3574D02*
D03*
X7774Y3349D02*
D03*
Y3574D02*
D03*
X9941Y1262D02*
D03*
Y1038D02*
D03*
D28*
X3939Y3948D02*
D03*
Y3357D02*
D03*
X3428Y9597D02*
D03*
Y9007D02*
D03*
D29*
X3270Y7028D02*
D03*
Y6497D02*
D03*
X14037Y3535D02*
D03*
Y3004D02*
D03*
X17920Y1746D02*
D03*
Y1214D02*
D03*
X6633Y816D02*
D03*
Y1347D02*
D03*
D30*
X2729Y6054D02*
D03*
X3260D02*
D03*
X7619Y792D02*
D03*
X7088D02*
D03*
X6156Y1240D02*
D03*
X5624D02*
D03*
X6157Y2684D02*
D03*
X5625D02*
D03*
X5625Y3604D02*
D03*
X6157D02*
D03*
X5625Y3144D02*
D03*
X6157D02*
D03*
D31*
X3949Y8908D02*
D03*
Y9282D02*
D03*
X13935Y1806D02*
D03*
Y1432D02*
D03*
X13071Y6565D02*
D03*
Y6191D02*
D03*
D32*
X14350Y2168D02*
D03*
X13956D02*
D03*
D33*
X13780Y3886D02*
D03*
X13937Y3886D02*
D03*
X14094Y3886D02*
D03*
X13780Y4043D02*
D03*
X13937Y4043D02*
D03*
X14094Y4043D02*
D03*
D34*
X13071Y6998D02*
D03*
D35*
X13652Y7598D02*
D03*
X12490Y7598D02*
D03*
D36*
X9694Y3988D02*
D03*
X8946D02*
D03*
X9694Y2827D02*
D03*
X8946D02*
D03*
D37*
X2244Y5748D02*
D03*
Y6732D02*
D03*
Y7717D02*
D03*
D38*
X6170Y1861D02*
D03*
Y2295D02*
D03*
D39*
X7696Y1802D02*
D03*
X7558D02*
D03*
X7420D02*
D03*
X7282D02*
D03*
X7145D02*
D03*
X7007D02*
D03*
X6869D02*
D03*
X6731D02*
D03*
X6593D02*
D03*
X7558Y1939D02*
D03*
X7420D02*
D03*
X7282D02*
D03*
X7145D02*
D03*
X7007D02*
D03*
X6869D02*
D03*
X6731D02*
D03*
X6593D02*
D03*
X7420Y2077D02*
D03*
X7282D02*
D03*
X7145D02*
D03*
X7007D02*
D03*
X6869D02*
D03*
X6731D02*
D03*
X6593D02*
D03*
X7558Y2215D02*
D03*
X7420D02*
D03*
X7282D02*
D03*
X7145D02*
D03*
X7007D02*
D03*
X6869D02*
D03*
X6731D02*
D03*
X6593D02*
D03*
X7834Y2353D02*
D03*
X7696D02*
D03*
X7558D02*
D03*
X7420D02*
D03*
X7282D02*
D03*
X7145D02*
D03*
X7007D02*
D03*
X6869D02*
D03*
X6731D02*
D03*
X6593D02*
D03*
X7834Y2491D02*
D03*
X7696D02*
D03*
X7558D02*
D03*
X7420D02*
D03*
X7282D02*
D03*
X7145D02*
D03*
X7007D02*
D03*
X6869D02*
D03*
X6731D02*
D03*
X6593D02*
D03*
X7834Y2628D02*
D03*
X7696D02*
D03*
X7558D02*
D03*
X7420D02*
D03*
X7282D02*
D03*
X7145D02*
D03*
X7007D02*
D03*
X6869D02*
D03*
X6731D02*
D03*
X6593D02*
D03*
X7834Y2766D02*
D03*
X7696D02*
D03*
X7420D02*
D03*
X7282D02*
D03*
X7145D02*
D03*
X7007D02*
D03*
X6869D02*
D03*
X6731D02*
D03*
X6593D02*
D03*
X7834Y2904D02*
D03*
X7696D02*
D03*
X7558D02*
D03*
X7420D02*
D03*
X7282D02*
D03*
X7145D02*
D03*
X7007D02*
D03*
X6869D02*
D03*
X6731D02*
D03*
X6593D02*
D03*
X7834Y3042D02*
D03*
X7696D02*
D03*
X7558D02*
D03*
X7420D02*
D03*
X7282D02*
D03*
X7145D02*
D03*
X7007D02*
D03*
X6869D02*
D03*
X6731D02*
D03*
X7834Y1802D02*
D03*
X7696Y2077D02*
D03*
X7834D02*
D03*
X6593Y3042D02*
D03*
D40*
X10881Y5887D02*
D03*
Y6694D02*
D03*
X11629D02*
D03*
Y5887D02*
D03*
D41*
X10799Y6290D02*
D03*
X11712D02*
D03*
D42*
X12589Y9173D02*
D03*
Y10748D02*
D03*
X9931Y9173D02*
D03*
D43*
Y10748D02*
D03*
D44*
X10272Y824D02*
D03*
Y1336D02*
D03*
X11453Y824D02*
D03*
Y1336D02*
D03*
D45*
X9671Y17421D02*
D03*
Y16421D02*
D03*
Y15421D02*
D03*
X8423Y17381D02*
D03*
Y16421D02*
D03*
Y15460D02*
D03*
D46*
X7695Y16901D02*
D03*
Y15940D02*
D03*
D47*
X8147Y18230D02*
D03*
Y13830D02*
D03*
D48*
X10057Y18230D02*
D03*
Y13830D02*
D03*
D49*
X10982Y18141D02*
D03*
D50*
X11691Y18033D02*
D03*
D51*
X12852Y17287D02*
D03*
Y15554D02*
D03*
D52*
X12429Y16637D02*
D03*
D53*
X12084Y13830D02*
D03*
D54*
X9333Y7747D02*
D03*
Y5227D02*
D03*
Y6487D02*
D03*
Y5857D02*
D03*
Y7117D02*
D03*
X8546Y5227D02*
D03*
Y6487D02*
D03*
Y5857D02*
D03*
Y7117D02*
D03*
Y7747D02*
D03*
X6971Y5227D02*
D03*
Y6487D02*
D03*
Y5857D02*
D03*
Y7117D02*
D03*
Y7747D02*
D03*
X7758Y5227D02*
D03*
Y6487D02*
D03*
Y5857D02*
D03*
Y7117D02*
D03*
Y7747D02*
D03*
X6183Y5227D02*
D03*
Y6487D02*
D03*
Y5857D02*
D03*
Y7117D02*
D03*
Y7747D02*
D03*
X5396D02*
D03*
Y7117D02*
D03*
Y5857D02*
D03*
Y6487D02*
D03*
Y5227D02*
D03*
X4609D02*
D03*
Y6487D02*
D03*
Y5857D02*
D03*
Y7117D02*
D03*
Y7747D02*
D03*
D55*
X8644Y4774D02*
D03*
X8447D02*
D03*
X8841D02*
D03*
X8250D02*
D03*
X6282D02*
D03*
X6676D02*
D03*
X6479D02*
D03*
X6872D02*
D03*
X5298D02*
D03*
X4904D02*
D03*
X5101D02*
D03*
X4707D02*
D03*
X8644Y8200D02*
D03*
X8447D02*
D03*
X8841D02*
D03*
X8250D02*
D03*
X6282D02*
D03*
X6676D02*
D03*
X6479D02*
D03*
X6872D02*
D03*
X5298D02*
D03*
X4904D02*
D03*
X5101D02*
D03*
X4707D02*
D03*
D56*
X3872Y4715D02*
D03*
X10069Y6093D02*
D03*
X3872Y8259D02*
D03*
Y8062D02*
D03*
Y7865D02*
D03*
Y7668D02*
D03*
Y7471D02*
D03*
Y7274D02*
D03*
Y7078D02*
D03*
Y6881D02*
D03*
Y6684D02*
D03*
Y6487D02*
D03*
Y6290D02*
D03*
Y6093D02*
D03*
Y5896D02*
D03*
Y5700D02*
D03*
Y5503D02*
D03*
Y5306D02*
D03*
Y5109D02*
D03*
Y4912D02*
D03*
X10069Y4715D02*
D03*
Y4912D02*
D03*
Y5109D02*
D03*
Y5306D02*
D03*
Y5503D02*
D03*
Y5700D02*
D03*
Y5896D02*
D03*
Y6290D02*
D03*
Y6487D02*
D03*
Y6684D02*
D03*
Y6881D02*
D03*
Y7078D02*
D03*
Y7274D02*
D03*
Y7471D02*
D03*
Y7668D02*
D03*
Y7865D02*
D03*
Y8062D02*
D03*
Y8259D02*
D03*
D57*
X9825Y4471D02*
D03*
X4117D02*
D03*
X4313D02*
D03*
X4510D02*
D03*
X4707D02*
D03*
X4904D02*
D03*
X5101D02*
D03*
X5298D02*
D03*
X5494D02*
D03*
X5691D02*
D03*
X5888D02*
D03*
X6085D02*
D03*
X6282D02*
D03*
X6479D02*
D03*
X6676D02*
D03*
X6872D02*
D03*
X7069D02*
D03*
X7266D02*
D03*
X7463D02*
D03*
X7660D02*
D03*
X7857D02*
D03*
X8054D02*
D03*
X8250D02*
D03*
X8447D02*
D03*
X8644D02*
D03*
X8841D02*
D03*
X9038D02*
D03*
X9235D02*
D03*
X9431D02*
D03*
X9628D02*
D03*
X9825Y8503D02*
D03*
X9628D02*
D03*
X9431D02*
D03*
X9235D02*
D03*
X9038D02*
D03*
X8841D02*
D03*
X8644D02*
D03*
X8447D02*
D03*
X8250D02*
D03*
X8054D02*
D03*
X7857D02*
D03*
X7660D02*
D03*
X7463D02*
D03*
X7266D02*
D03*
X7069D02*
D03*
X6872D02*
D03*
X6676D02*
D03*
X6479D02*
D03*
X6282D02*
D03*
X6085D02*
D03*
X5888D02*
D03*
X5691D02*
D03*
X5494D02*
D03*
X5298D02*
D03*
X5101D02*
D03*
X4904D02*
D03*
X4707D02*
D03*
X4510D02*
D03*
X4313D02*
D03*
X4117D02*
D03*
D58*
X10069Y4471D02*
D03*
X3872D02*
D03*
X10069Y8503D02*
D03*
X3872D02*
D03*
D59*
X19193Y11417D02*
D03*
Y787D02*
D03*
D60*
Y1969D02*
D03*
Y10236D02*
D03*
Y6102D02*
D03*
D61*
X18300Y1283D02*
D03*
Y1677D02*
D03*
D62*
X9065Y1821D02*
D03*
Y1978D02*
D03*
X9262Y1821D02*
D03*
Y1978D02*
D03*
X9163Y2136D02*
D03*
D63*
X6594Y402D02*
D03*
X6968D02*
D03*
D64*
X8635Y324D02*
D03*
Y776D02*
D03*
X8065Y776D02*
D03*
X8065Y324D02*
D03*
D65*
X8324Y3060D02*
D03*
X8483Y3218D02*
D03*
M02*
