G04*
G04 #@! TF.GenerationSoftware,Altium Limited,Altium Designer,21.0.9 (235)*
G04*
G04 Layer_Color=16711935*
%FSLAX24Y24*%
%MOIN*%
G70*
G04*
G04 #@! TF.SameCoordinates,7913F74A-1B9B-402C-A4C5-A7CF04877313*
G04*
G04*
G04 #@! TF.FilePolarity,Negative*
G04*
G01*
G75*
%ADD66C,0.0240*%
%ADD67C,0.0454*%
%ADD68C,0.0651*%
%ADD69R,0.0166X0.0178*%
%ADD70R,0.0146X0.0157*%
%ADD71R,0.0157X0.0146*%
%ADD73R,0.0375X0.0355*%
%ADD74R,0.0355X0.0375*%
%ADD76R,0.0296X0.0257*%
%ADD80R,0.0178X0.0166*%
%ADD111C,0.0139*%
%ADD112R,0.0441X0.0441*%
%ADD113R,0.0146X0.0138*%
%ADD114R,0.0138X0.0146*%
%ADD117C,0.0611*%
%ADD118R,0.0611X0.0611*%
%ADD119C,0.0395*%
%ADD120C,0.0462*%
%ADD121O,0.0690X0.0414*%
%ADD122C,0.1181*%
%ADD123C,0.0354*%
%ADD124R,0.0651X0.0651*%
%ADD156C,0.0138*%
%ADD219C,0.0132*%
%ADD220C,0.0336*%
%ADD221R,0.0157X0.0232*%
%ADD222R,0.0157X0.0244*%
%ADD223R,0.0631X0.0277*%
%ADD224R,0.0631X0.0277*%
%ADD225O,0.0287X0.0118*%
%ADD226O,0.0118X0.0287*%
%ADD227R,0.0257X0.0493*%
%ADD228R,0.0198X0.0651*%
%ADD229R,0.0336X0.0651*%
%ADD230R,0.0926X0.0926*%
%ADD231R,0.0217X0.0158*%
%ADD232R,0.0217X0.0336*%
%ADD233R,0.0355X0.0651*%
%ADD234R,0.0316X0.0158*%
%ADD235R,0.0859X0.0359*%
%ADD236R,0.0682X0.0477*%
%ADD237R,0.0918X0.0296*%
%ADD238R,0.0611X0.0690*%
%ADD239R,0.0670X0.0808*%
%ADD240R,0.0592X0.0217*%
%ADD241R,0.0690X0.0454*%
%ADD242R,0.0296X0.0277*%
%ADD243R,0.0316X0.0395*%
%ADD244C,0.0787*%
%ADD245R,0.0296X0.1084*%
%ADD246R,0.0157X0.0354*%
%ADD247C,0.0143*%
%ADD248R,0.0165X0.0362*%
%ADD249R,0.0411X0.0165*%
%ADD250R,0.0236X0.0236*%
%ADD251R,0.0670X0.0296*%
%ADD252R,0.0769X0.0532*%
%ADD253R,0.0769X0.0454*%
%ADD254R,0.0138X0.0246*%
%ADD255R,0.0202X0.0158*%
%ADD256R,0.0540X0.0420*%
%ADD257R,0.0460X0.0360*%
%ADD258R,0.0406X0.0323*%
%ADD259R,0.0260X0.0209*%
%ADD260R,0.0277X0.0296*%
%ADD261R,0.0454X0.0769*%
%ADD262R,0.0477X0.0682*%
%ADD263R,0.0296X0.0918*%
G36*
X13509Y8101D02*
X13513Y8099D01*
X13518Y8098D01*
X13522Y8095D01*
X13525Y8092D01*
X13528Y8089D01*
X13531Y8085D01*
X13533Y8080D01*
X13534Y8076D01*
X13534Y8071D01*
Y7638D01*
X13534Y7633D01*
X13533Y7628D01*
X13531Y7624D01*
X13529Y7622D01*
X13528Y7620D01*
X13525Y7617D01*
X13092Y7183D01*
X13089Y7180D01*
X13085Y7178D01*
X13080Y7176D01*
X13076Y7175D01*
X13071Y7175D01*
X12638D01*
X12633Y7175D01*
X12629Y7176D01*
X12624Y7178D01*
X12620Y7180D01*
X12617Y7183D01*
X12613Y7187D01*
X12611Y7191D01*
X12609Y7195D01*
X12608Y7200D01*
X12608Y7205D01*
Y8071D01*
X12608Y8076D01*
X12609Y8080D01*
X12611Y8085D01*
X12613Y8089D01*
X12617Y8092D01*
X12620Y8095D01*
X12624Y8098D01*
X12629Y8099D01*
X12633Y8101D01*
X12638Y8101D01*
X13504D01*
X13509Y8101D01*
D02*
G37*
G36*
Y10542D02*
X13513Y10540D01*
X13518Y10539D01*
X13522Y10536D01*
X13525Y10533D01*
X13528Y10530D01*
X13531Y10525D01*
X13533Y10521D01*
X13534Y10517D01*
X13534Y10512D01*
Y9646D01*
X13534Y9641D01*
X13533Y9636D01*
X13531Y9632D01*
X13528Y9628D01*
X13525Y9624D01*
X13522Y9621D01*
X13518Y9619D01*
X13513Y9617D01*
X13509Y9616D01*
X13504Y9616D01*
X12638D01*
X12633Y9616D01*
X12629Y9617D01*
X12624Y9619D01*
X12620Y9621D01*
X12617Y9624D01*
X12613Y9628D01*
X12611Y9632D01*
X12609Y9636D01*
X12608Y9641D01*
X12608Y9646D01*
Y10512D01*
X12608Y10517D01*
X12609Y10521D01*
X12611Y10525D01*
X12613Y10530D01*
X12617Y10533D01*
X12620Y10536D01*
X12624Y10539D01*
X12629Y10540D01*
X12633Y10542D01*
X12638Y10542D01*
X13504D01*
X13509Y10542D01*
D02*
G37*
D66*
X5961Y5900D02*
G03*
X5961Y5900I-110J0D01*
G01*
X5939D02*
G03*
X5939Y5900I-110J0D01*
G01*
X13091Y5512D02*
G03*
X13091Y5512I-110J0D01*
G01*
X13113D02*
G03*
X13113Y5512I-110J0D01*
G01*
X13694D02*
G03*
X13694Y5512I-110J0D01*
G01*
X3710Y13041D02*
G03*
X3710Y13041I-110J0D01*
G01*
Y13019D02*
G03*
X3710Y13019I-110J0D01*
G01*
X2910Y13029D02*
G03*
X2910Y13029I-110J0D01*
G01*
X7289Y4329D02*
G03*
X7289Y4329I-110J0D01*
G01*
Y4351D02*
G03*
X7289Y4351I-110J0D01*
G01*
X9089Y4329D02*
G03*
X9089Y4329I-110J0D01*
G01*
Y4351D02*
G03*
X9089Y4351I-110J0D01*
G01*
X11660Y13499D02*
G03*
X11660Y13499I-110J0D01*
G01*
X12210D02*
G03*
X12210Y13499I-110J0D01*
G01*
X7739Y4351D02*
G03*
X7739Y4351I-110J0D01*
G01*
Y4329D02*
G03*
X7739Y4329I-110J0D01*
G01*
X8189Y4351D02*
G03*
X8189Y4351I-110J0D01*
G01*
Y4329D02*
G03*
X8189Y4329I-110J0D01*
G01*
X8639Y4351D02*
G03*
X8639Y4351I-110J0D01*
G01*
Y4329D02*
G03*
X8639Y4329I-110J0D01*
G01*
D67*
X5197Y8307D02*
D03*
X5787Y8307D02*
D03*
X6378Y8307D02*
D03*
X5217Y2224D02*
D03*
X1850Y13000D02*
D03*
X10620Y13500D02*
D03*
X1100Y13000D02*
D03*
X350D02*
D03*
X5217Y1437D02*
D03*
X3930Y7140D02*
D03*
X11506Y4259D02*
D03*
Y4850D02*
D03*
Y5440D02*
D03*
D68*
X2756Y16142D02*
D03*
Y16929D02*
D03*
X2590Y12400D02*
D03*
X3590D02*
D03*
X6990Y12400D02*
D03*
X5990Y12400D02*
D03*
X4990Y12400D02*
D03*
D69*
X4823Y13836D02*
D03*
X4599D02*
D03*
X8638Y14110D02*
D03*
X8862D02*
D03*
X4618Y10570D02*
D03*
X4842D02*
D03*
X5088Y10050D02*
D03*
X5312D02*
D03*
X5312Y10300D02*
D03*
X5088Y10300D02*
D03*
X10662Y5100D02*
D03*
X10438D02*
D03*
X10662Y4850D02*
D03*
X10438D02*
D03*
X10662Y4600D02*
D03*
X10438D02*
D03*
X14076Y5430D02*
D03*
X14300Y5430D02*
D03*
X8198Y8010D02*
D03*
X8422D02*
D03*
X13460Y1219D02*
D03*
X13685D02*
D03*
X14192Y10659D02*
D03*
X13968D02*
D03*
X14192Y10929D02*
D03*
X13968D02*
D03*
X14192Y11199D02*
D03*
X13968D02*
D03*
X4823Y13596D02*
D03*
X4599D02*
D03*
X3472Y16900D02*
D03*
X3248D02*
D03*
X4562Y14050D02*
D03*
X4338D02*
D03*
X13382Y900D02*
D03*
X13606D02*
D03*
X12265Y759D02*
D03*
X12040D02*
D03*
X2528Y9860D02*
D03*
X2752D02*
D03*
X9452Y15660D02*
D03*
X9228D02*
D03*
X7208Y5220D02*
D03*
X7432D02*
D03*
D70*
X9338Y15010D02*
D03*
X9562D02*
D03*
X6358Y6660D02*
D03*
X6582D02*
D03*
D71*
X9660Y16878D02*
D03*
Y17102D02*
D03*
X3550Y8107D02*
D03*
Y8332D02*
D03*
D73*
X5771Y15430D02*
D03*
Y15962D02*
D03*
D74*
X2464Y9440D02*
D03*
X2996D02*
D03*
X6816Y10350D02*
D03*
X6284D02*
D03*
X3386Y14266D02*
D03*
X3917D02*
D03*
X3917Y14716D02*
D03*
X3386D02*
D03*
Y15166D02*
D03*
X3917D02*
D03*
X4776Y15986D02*
D03*
X5307D02*
D03*
X6398Y14156D02*
D03*
X5866D02*
D03*
D76*
X5118Y14215D02*
D03*
X5512D02*
D03*
X4803Y14410D02*
D03*
X4410D02*
D03*
D80*
X9447Y14085D02*
D03*
Y14309D02*
D03*
X7224Y8281D02*
D03*
Y8057D02*
D03*
X6801Y8774D02*
D03*
Y8549D02*
D03*
X4588Y8832D02*
D03*
Y9056D02*
D03*
X4361Y16681D02*
D03*
Y16456D02*
D03*
X5051Y13818D02*
D03*
Y13594D02*
D03*
X12033Y1087D02*
D03*
Y1311D02*
D03*
X3840Y10248D02*
D03*
Y10472D02*
D03*
X3881Y16456D02*
D03*
Y16681D02*
D03*
X11330Y16218D02*
D03*
Y16442D02*
D03*
X6310Y5568D02*
D03*
Y5792D02*
D03*
X6082Y9294D02*
D03*
Y9518D02*
D03*
X12634Y15786D02*
D03*
Y15562D02*
D03*
X14178Y15786D02*
D03*
Y15562D02*
D03*
X12630Y19062D02*
D03*
Y18838D02*
D03*
X14178Y19349D02*
D03*
Y19573D02*
D03*
X3370Y16682D02*
D03*
Y16458D02*
D03*
X3641Y16681D02*
D03*
Y16456D02*
D03*
X4121Y16456D02*
D03*
Y16681D02*
D03*
X4601Y16456D02*
D03*
Y16681D02*
D03*
X10680Y16442D02*
D03*
Y16218D02*
D03*
X13463Y1661D02*
D03*
Y1437D02*
D03*
X13824Y991D02*
D03*
X13824Y767D02*
D03*
X12243Y1541D02*
D03*
Y1317D02*
D03*
X12483Y761D02*
D03*
X12483Y537D02*
D03*
X12243Y1981D02*
D03*
Y1757D02*
D03*
X13010Y15292D02*
D03*
Y15068D02*
D03*
X13660Y15292D02*
D03*
Y15068D02*
D03*
X13880Y9302D02*
D03*
Y9078D02*
D03*
X5270Y6112D02*
D03*
Y5888D02*
D03*
Y6582D02*
D03*
Y6358D02*
D03*
X8150Y12199D02*
D03*
X8150Y11974D02*
D03*
X8150Y12907D02*
D03*
X8150Y12683D02*
D03*
X9940Y16149D02*
D03*
X9940Y16373D02*
D03*
X2110Y6532D02*
D03*
Y6308D02*
D03*
D111*
X5973Y5900D02*
D03*
X5707D02*
D03*
X12859Y5512D02*
D03*
X13125D02*
D03*
X13460D02*
D03*
X13706D02*
D03*
X3600Y13163D02*
D03*
Y12897D02*
D03*
X2800Y13153D02*
D03*
Y12907D02*
D03*
X7179Y4207D02*
D03*
Y4473D02*
D03*
X8979Y4207D02*
D03*
Y4473D02*
D03*
X11550Y13623D02*
D03*
Y13377D02*
D03*
X12100D02*
D03*
Y13623D02*
D03*
X7629Y4473D02*
D03*
Y4207D02*
D03*
X8079Y4473D02*
D03*
Y4207D02*
D03*
X8529Y4473D02*
D03*
Y4207D02*
D03*
D112*
X12863Y1489D02*
D03*
D113*
X12705Y1821D02*
D03*
X12863D02*
D03*
X13020D02*
D03*
Y1156D02*
D03*
X12863D02*
D03*
X12705D02*
D03*
D114*
X12530Y1223D02*
D03*
X12530Y1400D02*
D03*
X12530Y1577D02*
D03*
Y1755D02*
D03*
X13195D02*
D03*
Y1577D02*
D03*
Y1400D02*
D03*
Y1223D02*
D03*
D117*
X2854Y2224D02*
D03*
X3642D02*
D03*
X4429Y1437D02*
D03*
X3642D02*
D03*
X2854D02*
D03*
X11407Y12835D02*
D03*
X12195D02*
D03*
X12982D02*
D03*
X13770Y12047D02*
D03*
X12982D02*
D03*
X12195D02*
D03*
X11407D02*
D03*
X10620D02*
D03*
Y12835D02*
D03*
D118*
X4429Y2224D02*
D03*
X13770Y12835D02*
D03*
D119*
X1220Y7323D02*
D03*
X1220Y6142D02*
D03*
D120*
X937Y3573D02*
D03*
Y5073D02*
D03*
D121*
X571Y8661D02*
D03*
Y11260D02*
D03*
D122*
X15071Y14685D02*
D03*
X1378Y18543D02*
D03*
Y1378D02*
D03*
D123*
X974Y14260D02*
D03*
Y16937D02*
D03*
D124*
X2590Y11400D02*
D03*
X3590D02*
D03*
X6990Y11400D02*
D03*
X5990Y11400D02*
D03*
X4990Y11400D02*
D03*
D156*
X8791Y16227D02*
D03*
X8987D02*
D03*
X9184D02*
D03*
X9381D02*
D03*
X8889Y16398D02*
D03*
X9283D02*
D03*
X8791Y16569D02*
D03*
X8987D02*
D03*
X9184D02*
D03*
X9381D02*
D03*
D219*
X6969Y8071D02*
D03*
Y8228D02*
D03*
X6811Y8071D02*
D03*
Y8228D02*
D03*
D220*
X5118Y7726D02*
D03*
X5906D02*
D03*
D221*
X6777Y6082D02*
D03*
X6580D02*
D03*
X6383D02*
D03*
X6777Y6378D02*
D03*
X6580D02*
D03*
D222*
X6383Y6380D02*
D03*
D223*
X3013Y7346D02*
D03*
Y8094D02*
D03*
X2167D02*
D03*
Y7720D02*
D03*
D224*
X2167Y7346D02*
D03*
D225*
X9032Y14654D02*
D03*
Y14811D02*
D03*
Y14969D02*
D03*
Y15126D02*
D03*
X8068D02*
D03*
Y14969D02*
D03*
Y14811D02*
D03*
Y14654D02*
D03*
X5958Y4674D02*
D03*
Y4831D02*
D03*
Y4989D02*
D03*
Y5146D02*
D03*
X6922D02*
D03*
Y4989D02*
D03*
Y4831D02*
D03*
Y4674D02*
D03*
D226*
X8786Y15215D02*
D03*
X8629D02*
D03*
X8471D02*
D03*
X8314D02*
D03*
Y14565D02*
D03*
X8471Y14565D02*
D03*
X8629D02*
D03*
X8786D02*
D03*
X6676Y4585D02*
D03*
X6519D02*
D03*
X6361D02*
D03*
X6204D02*
D03*
Y5235D02*
D03*
X6361D02*
D03*
X6519D02*
D03*
X6676D02*
D03*
D227*
X11630Y17127D02*
D03*
X11130D02*
D03*
X10630D02*
D03*
X10130D02*
D03*
X11630Y19293D02*
D03*
X11130D02*
D03*
X10630D02*
D03*
X10130D02*
D03*
D228*
X11561Y18584D02*
D03*
Y17836D02*
D03*
X10199D02*
D03*
Y18584D02*
D03*
D229*
X10630Y17836D02*
D03*
Y18584D02*
D03*
X11130Y17836D02*
D03*
Y18584D02*
D03*
D230*
X10630Y7638D02*
D03*
X10630Y10079D02*
D03*
D231*
X4102Y10649D02*
D03*
Y10471D02*
D03*
D232*
X4378Y10560D02*
D03*
D233*
X14685Y9173D02*
D03*
D234*
X15108Y9469D02*
D03*
Y9272D02*
D03*
Y9075D02*
D03*
Y8878D02*
D03*
X14262Y9469D02*
D03*
Y9272D02*
D03*
Y9075D02*
D03*
Y8878D02*
D03*
D235*
X2037Y4823D02*
D03*
X3238Y3323D02*
D03*
Y3823D02*
D03*
Y4323D02*
D03*
Y4823D02*
D03*
Y5323D02*
D03*
X2037Y3323D02*
D03*
Y3823D02*
D03*
Y4323D02*
D03*
Y5323D02*
D03*
D236*
X14583Y18613D02*
D03*
Y16291D02*
D03*
D237*
X14465Y18161D02*
D03*
Y17806D02*
D03*
Y17098D02*
D03*
Y16743D02*
D03*
Y17452D02*
D03*
D238*
X1535Y8701D02*
D03*
Y11220D02*
D03*
D239*
X571Y10433D02*
D03*
Y9488D02*
D03*
D240*
X1624Y10472D02*
D03*
Y10217D02*
D03*
Y9449D02*
D03*
Y9705D02*
D03*
Y9961D02*
D03*
D241*
X1526Y16583D02*
D03*
Y14614D02*
D03*
Y15598D02*
D03*
X423D02*
D03*
Y14614D02*
D03*
Y16583D02*
D03*
D242*
X13547Y17800D02*
D03*
X13153D02*
D03*
X6577Y15380D02*
D03*
X6183D02*
D03*
X13153Y16750D02*
D03*
X13547D02*
D03*
X13153Y18500D02*
D03*
X13547D02*
D03*
X13153Y17450D02*
D03*
X13547D02*
D03*
X13153Y18150D02*
D03*
X13547D02*
D03*
X13153Y17100D02*
D03*
X13547D02*
D03*
D243*
X14852Y10463D02*
D03*
Y11033D02*
D03*
X14518D02*
D03*
Y10463D02*
D03*
D244*
X19173Y13937D02*
D03*
X787Y2559D02*
D03*
X2402Y19291D02*
D03*
D245*
X4000Y4528D02*
D03*
X5496D02*
D03*
D246*
X4551Y5433D02*
D03*
X4748D02*
D03*
X4945D02*
D03*
X5142D02*
D03*
X4354D02*
D03*
D247*
X4418Y14743D02*
D03*
X4575D02*
D03*
X4733D02*
D03*
X4890D02*
D03*
X5047D02*
D03*
X5205D02*
D03*
X4418Y14900D02*
D03*
X4575D02*
D03*
X4733D02*
D03*
X4890D02*
D03*
X5047D02*
D03*
X5205D02*
D03*
X4418Y15057D02*
D03*
X4575D02*
D03*
X5047D02*
D03*
X5205D02*
D03*
X4418Y15215D02*
D03*
X4575D02*
D03*
X5047D02*
D03*
X5205D02*
D03*
X4418Y15372D02*
D03*
X4575D02*
D03*
X4733D02*
D03*
X4890D02*
D03*
X5047D02*
D03*
X5205D02*
D03*
X4418Y15530D02*
D03*
X4575D02*
D03*
X4733D02*
D03*
X4890D02*
D03*
X5047D02*
D03*
X5205D02*
D03*
D248*
X13407Y14732D02*
D03*
X13210D02*
D03*
X13013D02*
D03*
Y13728D02*
D03*
X13210D02*
D03*
X13407D02*
D03*
X11077Y14878D02*
D03*
X10880D02*
D03*
X10683D02*
D03*
Y15882D02*
D03*
X10880D02*
D03*
X11077D02*
D03*
D249*
X12703Y14624D02*
D03*
Y14427D02*
D03*
Y14230D02*
D03*
Y14033D02*
D03*
Y13836D02*
D03*
X13717D02*
D03*
Y14033D02*
D03*
Y14230D02*
D03*
Y14427D02*
D03*
Y14624D02*
D03*
X11387Y15774D02*
D03*
Y15577D02*
D03*
Y15380D02*
D03*
Y15183D02*
D03*
Y14986D02*
D03*
X10373D02*
D03*
Y15183D02*
D03*
Y15380D02*
D03*
Y15577D02*
D03*
Y15774D02*
D03*
D250*
X9409Y12008D02*
D03*
Y12323D02*
D03*
Y12638D02*
D03*
Y12953D02*
D03*
X8465D02*
D03*
Y12638D02*
D03*
Y12323D02*
D03*
Y12008D02*
D03*
D251*
X3150Y17818D02*
D03*
Y18606D02*
D03*
Y18212D02*
D03*
D252*
X4675Y19235D02*
D03*
Y17188D02*
D03*
D253*
X6401Y16501D02*
D03*
Y15793D02*
D03*
D254*
X14275Y4853D02*
D03*
X14078D02*
D03*
X13881D02*
D03*
X14275Y5138D02*
D03*
X14078D02*
D03*
X13881D02*
D03*
D255*
X3645Y6590D02*
D03*
X3975D02*
D03*
D256*
X9685Y9143D02*
D03*
Y10543D02*
D03*
D257*
X9687Y8224D02*
D03*
X8860Y8598D02*
D03*
Y7850D02*
D03*
D258*
X11112Y10994D02*
D03*
Y11368D02*
D03*
X12707D02*
D03*
Y10994D02*
D03*
X5360Y9387D02*
D03*
Y9013D02*
D03*
X13406Y15743D02*
D03*
Y16117D02*
D03*
Y19018D02*
D03*
Y19392D02*
D03*
D259*
X10740Y11437D02*
D03*
Y11181D02*
D03*
Y10925D02*
D03*
X11484D02*
D03*
Y11181D02*
D03*
Y11437D02*
D03*
X13079D02*
D03*
Y11181D02*
D03*
Y10925D02*
D03*
X12335D02*
D03*
Y11181D02*
D03*
Y11437D02*
D03*
X5732Y9456D02*
D03*
Y9200D02*
D03*
Y8944D02*
D03*
X4988D02*
D03*
Y9200D02*
D03*
Y9456D02*
D03*
X13034Y15674D02*
D03*
Y15930D02*
D03*
Y16186D02*
D03*
X13778D02*
D03*
Y15930D02*
D03*
Y15674D02*
D03*
X13034Y18949D02*
D03*
Y19205D02*
D03*
Y19461D02*
D03*
X13778D02*
D03*
Y19205D02*
D03*
Y18949D02*
D03*
D260*
X3210Y13463D02*
D03*
Y13857D02*
D03*
X5340Y13353D02*
D03*
Y13747D02*
D03*
D261*
X5750Y14778D02*
D03*
X6458D02*
D03*
D262*
X18671Y14587D02*
D03*
X16348D02*
D03*
D263*
X17510Y14468D02*
D03*
X18219D02*
D03*
X17864D02*
D03*
X17156D02*
D03*
X16801D02*
D03*
M02*
