G04*
G04 #@! TF.GenerationSoftware,Altium Limited,Altium Designer,21.0.9 (235)*
G04*
G04 Layer_Color=16711935*
%FSLAX24Y24*%
%MOIN*%
G70*
G04*
G04 #@! TF.SameCoordinates,7913F74A-1B9B-402C-A4C5-A7CF04877313*
G04*
G04*
G04 #@! TF.FilePolarity,Positive*
G04*
G01*
G75*
%ADD12C,0.0100*%
%ADD156C,0.0138*%
%ADD158C,0.0118*%
D12*
X11833Y-192D02*
X11775Y-133D01*
X11658D01*
X11600Y-192D01*
Y-425D01*
X11658Y-483D01*
X11775D01*
X11833Y-425D01*
X12008Y-250D02*
X12125D01*
X12183Y-308D01*
Y-483D01*
X12008D01*
X11950Y-425D01*
X12008Y-367D01*
X12183D01*
X12300Y-600D02*
Y-250D01*
X12475D01*
X12533Y-308D01*
Y-425D01*
X12475Y-483D01*
X12300D01*
X12650Y-600D02*
Y-250D01*
X12825D01*
X12883Y-308D01*
Y-425D01*
X12825Y-483D01*
X12650D01*
X13174D02*
X13058D01*
X13000Y-425D01*
Y-308D01*
X13058Y-250D01*
X13174D01*
X13233Y-308D01*
Y-367D01*
X13000D01*
X13583Y-133D02*
Y-483D01*
X13408D01*
X13349Y-425D01*
Y-308D01*
X13408Y-250D01*
X13583D01*
X14049D02*
X14166Y-483D01*
X14282Y-250D01*
X14399Y-483D02*
X14516D01*
X14457D01*
Y-250D01*
X14399D01*
X14749D02*
X14866D01*
X14924Y-308D01*
Y-483D01*
X14749D01*
X14691Y-425D01*
X14749Y-367D01*
X14924D01*
X15041Y-483D02*
X15216D01*
X15274Y-425D01*
X15216Y-367D01*
X15099D01*
X15041Y-308D01*
X15099Y-250D01*
X15274D01*
X15740Y-133D02*
Y-483D01*
X15915D01*
X15974Y-425D01*
Y-367D01*
Y-308D01*
X15915Y-250D01*
X15740D01*
X16149Y-483D02*
X16265D01*
X16323Y-425D01*
Y-308D01*
X16265Y-250D01*
X16149D01*
X16090Y-308D01*
Y-425D01*
X16149Y-483D01*
X16498Y-192D02*
Y-250D01*
X16440D01*
X16557D01*
X16498D01*
Y-425D01*
X16557Y-483D01*
X16790Y-192D02*
Y-250D01*
X16732D01*
X16848D01*
X16790D01*
Y-425D01*
X16848Y-483D01*
X17082D02*
X17198D01*
X17256Y-425D01*
Y-308D01*
X17198Y-250D01*
X17082D01*
X17023Y-308D01*
Y-425D01*
X17082Y-483D01*
X17373D02*
Y-250D01*
X17431D01*
X17490Y-308D01*
Y-483D01*
Y-308D01*
X17548Y-250D01*
X17606Y-308D01*
Y-483D01*
D156*
X4691Y14206D02*
D03*
X12444Y1400D02*
D03*
X13281D02*
D03*
X5769Y4831D02*
D03*
X6600Y15380D02*
D03*
X5920Y14245D02*
D03*
Y14075D02*
D03*
X5730Y14245D02*
D03*
X5730Y14075D02*
D03*
X3744Y14716D02*
D03*
D03*
X5389Y15896D02*
D03*
X5660Y15950D02*
D03*
X5860D02*
D03*
X7050Y4830D02*
D03*
X5389Y16076D02*
D03*
X12243Y1757D02*
D03*
X15128Y9469D02*
D03*
Y9272D02*
D03*
Y9075D02*
D03*
D158*
X5101Y13594D02*
D03*
X3641Y16456D02*
D03*
X3881D02*
D03*
X4121Y16456D02*
D03*
X4361D02*
D03*
X4890Y14900D02*
D03*
X4733D02*
D03*
X4575D02*
D03*
Y15057D02*
D03*
Y15215D02*
D03*
Y15372D02*
D03*
X4733D02*
D03*
X4890D02*
D03*
X5047D02*
D03*
Y15215D02*
D03*
Y15057D02*
D03*
Y14900D02*
D03*
X4890Y14663D02*
D03*
X4823Y13836D02*
D03*
Y13566D02*
D03*
M02*
