G04*
G04 #@! TF.GenerationSoftware,Altium Limited,Altium Designer,21.0.9 (235)*
G04*
G04 Layer_Color=128*
%FSLAX24Y24*%
%MOIN*%
G70*
G04*
G04 #@! TF.SameCoordinates,7913F74A-1B9B-402C-A4C5-A7CF04877313*
G04*
G04*
G04 #@! TF.FilePolarity,Positive*
G04*
G01*
G75*
%ADD23O,0.0091X0.0098*%
%ADD24O,0.0098X0.0091*%
G04:AMPARAMS|DCode=25|XSize=33.5mil|YSize=33.5mil|CornerRadius=4.2mil|HoleSize=0mil|Usage=FLASHONLY|Rotation=180.000|XOffset=0mil|YOffset=0mil|HoleType=Round|Shape=RoundedRectangle|*
%AMROUNDEDRECTD25*
21,1,0.0335,0.0251,0,0,180.0*
21,1,0.0251,0.0335,0,0,180.0*
1,1,0.0084,-0.0125,0.0125*
1,1,0.0084,0.0125,0.0125*
1,1,0.0084,0.0125,-0.0125*
1,1,0.0084,-0.0125,-0.0125*
%
%ADD25ROUNDEDRECTD25*%
%ADD26R,0.0106X0.0118*%
%ADD27R,0.0118X0.0106*%
%ADD29R,0.0315X0.0295*%
%ADD30R,0.0295X0.0315*%
%ADD32R,0.0236X0.0197*%
%ADD157C,0.0098*%
%ADD167C,0.0093*%
%ADD169R,0.0118X0.0193*%
%ADD170R,0.0118X0.0205*%
%ADD171R,0.0571X0.0217*%
%ADD172R,0.0571X0.0217*%
%ADD175R,0.0197X0.0433*%
%ADD176R,0.0138X0.0591*%
%ADD177R,0.0276X0.0591*%
%ADD178R,0.0866X0.0866*%
%ADD179R,0.0157X0.0098*%
%ADD180R,0.0157X0.0276*%
%ADD181R,0.0295X0.0591*%
%ADD182R,0.0256X0.0098*%
%ADD183R,0.0799X0.0299*%
%ADD184R,0.0622X0.0417*%
%ADD185R,0.0858X0.0236*%
%ADD186R,0.0551X0.0630*%
%ADD187R,0.0610X0.0748*%
%ADD188R,0.0531X0.0157*%
%ADD189R,0.0630X0.0394*%
%ADD190R,0.0236X0.0217*%
%ADD191R,0.0256X0.0335*%
%ADD192R,0.0236X0.1024*%
%ADD193R,0.0118X0.0315*%
%ADD194C,0.0083*%
%ADD195R,0.0364X0.0118*%
%ADD196R,0.0157X0.0157*%
%ADD197R,0.0610X0.0236*%
%ADD198R,0.0709X0.0472*%
%ADD199R,0.0709X0.0394*%
%ADD200R,0.0098X0.0207*%
%ADD201R,0.0142X0.0098*%
%ADD202R,0.0480X0.0360*%
%ADD203R,0.0400X0.0300*%
%ADD204R,0.0362X0.0280*%
%ADD205R,0.0217X0.0165*%
%ADD206R,0.0217X0.0236*%
%ADD207R,0.0394X0.0709*%
%ADD208R,0.0417X0.0622*%
%ADD209R,0.0236X0.0858*%
%ADD264O,0.0787X0.0591*%
%ADD265O,0.0240X0.0071*%
%ADD266O,0.0071X0.0240*%
G36*
X13504Y7638D02*
X13071Y7205D01*
X12638D01*
Y8071D01*
X13504D01*
Y7638D01*
D02*
G37*
G36*
Y9646D02*
X12638D01*
Y10512D01*
X13504D01*
Y9646D01*
D02*
G37*
D23*
X12530Y1755D02*
D03*
Y1577D02*
D03*
X12530Y1400D02*
D03*
X12530Y1223D02*
D03*
X13195Y1755D02*
D03*
Y1577D02*
D03*
Y1400D02*
D03*
Y1223D02*
D03*
D24*
X12705Y1821D02*
D03*
X12863D02*
D03*
X13020D02*
D03*
Y1156D02*
D03*
X12863D02*
D03*
X12705D02*
D03*
D25*
X12863Y1489D02*
D03*
D26*
X4823Y13836D02*
D03*
X4599D02*
D03*
X8638Y14110D02*
D03*
X8862D02*
D03*
X9338Y15010D02*
D03*
X9562D02*
D03*
X6358Y6660D02*
D03*
X6582D02*
D03*
X4618Y10570D02*
D03*
X4842D02*
D03*
X5088Y10050D02*
D03*
X5312D02*
D03*
X5312Y10300D02*
D03*
X5088Y10300D02*
D03*
X10662Y5100D02*
D03*
X10438D02*
D03*
X10662Y4850D02*
D03*
X10438D02*
D03*
X10662Y4600D02*
D03*
X10438D02*
D03*
X14076Y5430D02*
D03*
X14300Y5430D02*
D03*
X8198Y8010D02*
D03*
X8422D02*
D03*
X13460Y1219D02*
D03*
X13685D02*
D03*
X14192Y10659D02*
D03*
X13968D02*
D03*
X14192Y10929D02*
D03*
X13968D02*
D03*
X14192Y11199D02*
D03*
X13968D02*
D03*
X4823Y13596D02*
D03*
X4599D02*
D03*
X3472Y16900D02*
D03*
X3248D02*
D03*
X4562Y14050D02*
D03*
X4338D02*
D03*
X13382Y900D02*
D03*
X13606D02*
D03*
X12265Y759D02*
D03*
X12040D02*
D03*
X2528Y9860D02*
D03*
X2752D02*
D03*
X9452Y15660D02*
D03*
X9228D02*
D03*
X7208Y5220D02*
D03*
X7432D02*
D03*
D27*
X9447Y14085D02*
D03*
Y14309D02*
D03*
X7224Y8281D02*
D03*
Y8057D02*
D03*
X6801Y8774D02*
D03*
Y8549D02*
D03*
X4588Y8832D02*
D03*
Y9056D02*
D03*
X4361Y16681D02*
D03*
Y16456D02*
D03*
X5051Y13818D02*
D03*
Y13594D02*
D03*
X12033Y1087D02*
D03*
Y1311D02*
D03*
X9660Y16878D02*
D03*
Y17102D02*
D03*
X3550Y8107D02*
D03*
Y8332D02*
D03*
X3840Y10248D02*
D03*
Y10472D02*
D03*
X3881Y16456D02*
D03*
Y16681D02*
D03*
X11330Y16218D02*
D03*
Y16442D02*
D03*
X6310Y5568D02*
D03*
Y5792D02*
D03*
X6082Y9294D02*
D03*
Y9518D02*
D03*
X12634Y15786D02*
D03*
Y15562D02*
D03*
X14178Y15786D02*
D03*
Y15562D02*
D03*
X12630Y19062D02*
D03*
Y18838D02*
D03*
X14178Y19349D02*
D03*
Y19573D02*
D03*
X3370Y16682D02*
D03*
Y16458D02*
D03*
X3641Y16681D02*
D03*
Y16456D02*
D03*
X4121Y16456D02*
D03*
Y16681D02*
D03*
X4601Y16456D02*
D03*
Y16681D02*
D03*
X10680Y16442D02*
D03*
Y16218D02*
D03*
X13463Y1661D02*
D03*
Y1437D02*
D03*
X13824Y991D02*
D03*
X13824Y767D02*
D03*
X12243Y1541D02*
D03*
Y1317D02*
D03*
X12483Y761D02*
D03*
X12483Y537D02*
D03*
X12243Y1981D02*
D03*
Y1757D02*
D03*
X13010Y15292D02*
D03*
Y15068D02*
D03*
X13660Y15292D02*
D03*
Y15068D02*
D03*
X13880Y9302D02*
D03*
Y9078D02*
D03*
X5270Y6112D02*
D03*
Y5888D02*
D03*
Y6582D02*
D03*
Y6358D02*
D03*
X8150Y12199D02*
D03*
X8150Y11974D02*
D03*
X8150Y12907D02*
D03*
X8150Y12683D02*
D03*
X9940Y16149D02*
D03*
X9940Y16373D02*
D03*
X2110Y6532D02*
D03*
Y6308D02*
D03*
D29*
X5771Y15430D02*
D03*
Y15962D02*
D03*
D30*
X2464Y9440D02*
D03*
X2996D02*
D03*
X6816Y10350D02*
D03*
X6284D02*
D03*
X3386Y14266D02*
D03*
X3917D02*
D03*
X3917Y14716D02*
D03*
X3386D02*
D03*
Y15166D02*
D03*
X3917D02*
D03*
X4776Y15986D02*
D03*
X5307D02*
D03*
X6398Y14156D02*
D03*
X5866D02*
D03*
D32*
X5118Y14215D02*
D03*
X5512D02*
D03*
X4803Y14410D02*
D03*
X4410D02*
D03*
D157*
X8791Y16227D02*
D03*
X8987D02*
D03*
X9184D02*
D03*
X9381D02*
D03*
X8889Y16398D02*
D03*
X9283D02*
D03*
X8791Y16569D02*
D03*
X8987D02*
D03*
X9184D02*
D03*
X9381D02*
D03*
D167*
X6969Y8071D02*
D03*
Y8228D02*
D03*
X6811Y8071D02*
D03*
Y8228D02*
D03*
D169*
X6777Y6082D02*
D03*
X6580D02*
D03*
X6383D02*
D03*
X6777Y6378D02*
D03*
X6580D02*
D03*
D170*
X6383Y6380D02*
D03*
D171*
X3013Y7346D02*
D03*
Y8094D02*
D03*
X2167D02*
D03*
Y7720D02*
D03*
D172*
X2167Y7346D02*
D03*
D175*
X11630Y17127D02*
D03*
X11130D02*
D03*
X10630D02*
D03*
X10130D02*
D03*
X11630Y19293D02*
D03*
X11130D02*
D03*
X10630D02*
D03*
X10130D02*
D03*
D176*
X11561Y18584D02*
D03*
Y17836D02*
D03*
X10199D02*
D03*
Y18584D02*
D03*
D177*
X10630Y17836D02*
D03*
Y18584D02*
D03*
X11130Y17836D02*
D03*
Y18584D02*
D03*
D178*
X10630Y7638D02*
D03*
X10630Y10079D02*
D03*
D179*
X4102Y10649D02*
D03*
Y10471D02*
D03*
D180*
X4378Y10560D02*
D03*
D181*
X14685Y9173D02*
D03*
D182*
X15108Y9469D02*
D03*
Y9272D02*
D03*
Y9075D02*
D03*
Y8878D02*
D03*
X14262Y9469D02*
D03*
Y9272D02*
D03*
Y9075D02*
D03*
Y8878D02*
D03*
D183*
X2037Y4823D02*
D03*
X3238Y3323D02*
D03*
Y3823D02*
D03*
Y4323D02*
D03*
Y4823D02*
D03*
Y5323D02*
D03*
X2037Y3323D02*
D03*
Y3823D02*
D03*
Y4323D02*
D03*
Y5323D02*
D03*
D184*
X14583Y18613D02*
D03*
Y16291D02*
D03*
D185*
X14465Y18161D02*
D03*
Y17806D02*
D03*
Y17098D02*
D03*
Y16743D02*
D03*
Y17452D02*
D03*
D186*
X1535Y8701D02*
D03*
Y11220D02*
D03*
D187*
X571Y10433D02*
D03*
Y9488D02*
D03*
D188*
X1624Y10472D02*
D03*
Y10217D02*
D03*
Y9449D02*
D03*
Y9705D02*
D03*
Y9961D02*
D03*
D189*
X1526Y16583D02*
D03*
Y14614D02*
D03*
Y15598D02*
D03*
X423D02*
D03*
Y14614D02*
D03*
Y16583D02*
D03*
D190*
X13547Y17800D02*
D03*
X13153D02*
D03*
X6577Y15380D02*
D03*
X6183D02*
D03*
X13153Y16750D02*
D03*
X13547D02*
D03*
X13153Y18500D02*
D03*
X13547D02*
D03*
X13153Y17450D02*
D03*
X13547D02*
D03*
X13153Y18150D02*
D03*
X13547D02*
D03*
X13153Y17100D02*
D03*
X13547D02*
D03*
D191*
X14852Y10463D02*
D03*
Y11033D02*
D03*
X14518D02*
D03*
Y10463D02*
D03*
D192*
X4000Y4528D02*
D03*
X5496D02*
D03*
D193*
X4551Y5433D02*
D03*
X4748D02*
D03*
X4945D02*
D03*
X5142D02*
D03*
X4354D02*
D03*
X13407Y14732D02*
D03*
X13210D02*
D03*
X13013D02*
D03*
Y13728D02*
D03*
X13210D02*
D03*
X13407D02*
D03*
X11077Y14878D02*
D03*
X10880D02*
D03*
X10683D02*
D03*
Y15882D02*
D03*
X10880D02*
D03*
X11077D02*
D03*
D194*
X4418Y14743D02*
D03*
X4575D02*
D03*
X4733D02*
D03*
X4890D02*
D03*
X5047D02*
D03*
X5205D02*
D03*
X4418Y14900D02*
D03*
X4575D02*
D03*
X4733D02*
D03*
X4890D02*
D03*
X5047D02*
D03*
X5205D02*
D03*
X4418Y15057D02*
D03*
X4575D02*
D03*
X5047D02*
D03*
X5205D02*
D03*
X4418Y15215D02*
D03*
X4575D02*
D03*
X5047D02*
D03*
X5205D02*
D03*
X4418Y15372D02*
D03*
X4575D02*
D03*
X4733D02*
D03*
X4890D02*
D03*
X5047D02*
D03*
X5205D02*
D03*
X4418Y15530D02*
D03*
X4575D02*
D03*
X4733D02*
D03*
X4890D02*
D03*
X5047D02*
D03*
X5205D02*
D03*
D195*
X12703Y14624D02*
D03*
Y14427D02*
D03*
Y14230D02*
D03*
Y14033D02*
D03*
Y13836D02*
D03*
X13717D02*
D03*
Y14033D02*
D03*
Y14230D02*
D03*
Y14427D02*
D03*
Y14624D02*
D03*
X11387Y15774D02*
D03*
Y15577D02*
D03*
Y15380D02*
D03*
Y15183D02*
D03*
Y14986D02*
D03*
X10373D02*
D03*
Y15183D02*
D03*
Y15380D02*
D03*
Y15577D02*
D03*
Y15774D02*
D03*
D196*
X9409Y12008D02*
D03*
Y12323D02*
D03*
Y12638D02*
D03*
Y12953D02*
D03*
X8465D02*
D03*
Y12638D02*
D03*
Y12323D02*
D03*
Y12008D02*
D03*
D197*
X3150Y17818D02*
D03*
Y18606D02*
D03*
Y18212D02*
D03*
D198*
X4675Y19235D02*
D03*
Y17188D02*
D03*
D199*
X6401Y16501D02*
D03*
Y15793D02*
D03*
D200*
X14275Y4853D02*
D03*
X14078D02*
D03*
X13881D02*
D03*
X14275Y5138D02*
D03*
X14078D02*
D03*
X13881D02*
D03*
D201*
X3645Y6590D02*
D03*
X3975D02*
D03*
D202*
X9685Y9143D02*
D03*
Y10543D02*
D03*
D203*
X9687Y8224D02*
D03*
X8860Y8598D02*
D03*
Y7850D02*
D03*
D204*
X11112Y10994D02*
D03*
Y11368D02*
D03*
X12707D02*
D03*
Y10994D02*
D03*
X5360Y9387D02*
D03*
Y9013D02*
D03*
X13406Y15743D02*
D03*
Y16117D02*
D03*
Y19018D02*
D03*
Y19392D02*
D03*
D205*
X10740Y11437D02*
D03*
Y11181D02*
D03*
Y10925D02*
D03*
X11484D02*
D03*
Y11181D02*
D03*
Y11437D02*
D03*
X13079D02*
D03*
Y11181D02*
D03*
Y10925D02*
D03*
X12335D02*
D03*
Y11181D02*
D03*
Y11437D02*
D03*
X5732Y9456D02*
D03*
Y9200D02*
D03*
Y8944D02*
D03*
X4988D02*
D03*
Y9200D02*
D03*
Y9456D02*
D03*
X13034Y15674D02*
D03*
Y15930D02*
D03*
Y16186D02*
D03*
X13778D02*
D03*
Y15930D02*
D03*
Y15674D02*
D03*
X13034Y18949D02*
D03*
Y19205D02*
D03*
Y19461D02*
D03*
X13778D02*
D03*
Y19205D02*
D03*
Y18949D02*
D03*
D206*
X3210Y13463D02*
D03*
Y13857D02*
D03*
X5340Y13353D02*
D03*
Y13747D02*
D03*
D207*
X5750Y14778D02*
D03*
X6458D02*
D03*
D208*
X18671Y14587D02*
D03*
X16348D02*
D03*
D209*
X17510Y14468D02*
D03*
X18219D02*
D03*
X17864D02*
D03*
X17156D02*
D03*
X16801D02*
D03*
D264*
X571Y11260D02*
D03*
Y8661D02*
D03*
D265*
X9032Y14654D02*
D03*
Y14811D02*
D03*
Y14969D02*
D03*
Y15126D02*
D03*
X8068D02*
D03*
Y14969D02*
D03*
Y14811D02*
D03*
Y14654D02*
D03*
X5958Y4674D02*
D03*
Y4831D02*
D03*
Y4989D02*
D03*
Y5146D02*
D03*
X6922D02*
D03*
Y4989D02*
D03*
Y4831D02*
D03*
Y4674D02*
D03*
D266*
X8786Y15215D02*
D03*
X8629D02*
D03*
X8471D02*
D03*
X8314D02*
D03*
Y14565D02*
D03*
X8471Y14565D02*
D03*
X8629D02*
D03*
X8786D02*
D03*
X6676Y4585D02*
D03*
X6519D02*
D03*
X6361D02*
D03*
X6204D02*
D03*
Y5235D02*
D03*
X6361D02*
D03*
X6519D02*
D03*
X6676D02*
D03*
M02*
