G04*
G04 #@! TF.GenerationSoftware,Altium Limited,Altium Designer,21.0.9 (235)*
G04*
G04 Layer_Physical_Order=1*
G04 Layer_Color=255*
%FSLAX24Y24*%
%MOIN*%
G70*
G04*
G04 #@! TF.SameCoordinates,7913F74A-1B9B-402C-A4C5-A7CF04877313*
G04*
G04*
G04 #@! TF.FilePolarity,Positive*
G04*
G01*
G75*
%ADD10C,0.0059*%
%ADD11C,0.0049*%
%ADD12C,0.0100*%
%ADD13C,0.0060*%
%ADD15C,0.0079*%
%ADD16C,0.0098*%
%ADD17C,0.0118*%
%ADD20C,0.0080*%
%ADD26R,0.0106X0.0118*%
%ADD27R,0.0118X0.0106*%
%ADD28R,0.0551X0.0433*%
%ADD29R,0.0315X0.0295*%
%ADD30R,0.0295X0.0315*%
%ADD31R,0.0197X0.0256*%
%ADD32R,0.0236X0.0197*%
%ADD33R,0.0098X0.0098*%
%ADD34R,0.0394X0.0413*%
%ADD35R,0.0413X0.0866*%
%ADD36R,0.0276X0.0256*%
%ADD37R,0.0472X0.0394*%
%ADD38R,0.0394X0.0197*%
%ADD39C,0.0079*%
%ADD40R,0.0315X0.0295*%
%ADD41R,0.0228X0.0197*%
%ADD42R,0.1083X0.0551*%
%ADD43R,0.1083X0.0547*%
%ADD44R,0.0394X0.0236*%
%ADD45R,0.0276X0.0354*%
%ADD46R,0.0236X0.0118*%
%ADD47R,0.1142X0.0177*%
%ADD48R,0.0748X0.0177*%
%ADD49R,0.0236X0.0236*%
%ADD50R,0.0276X0.0295*%
%ADD51R,0.0197X0.0551*%
%ADD52R,0.0256X0.0472*%
%ADD53R,0.0945X0.0177*%
%ADD54R,0.0315X0.0315*%
%ADD55R,0.0118X0.0118*%
%ADD56R,0.0213X0.0118*%
%ADD57R,0.0118X0.0213*%
%ADD58R,0.0213X0.0213*%
%ADD59R,0.1181X0.1181*%
%ADD60R,0.1181X0.0787*%
%ADD61R,0.0197X0.0236*%
%ADD62R,0.0098X0.0079*%
%ADD63R,0.0256X0.0197*%
%ADD64R,0.0374X0.0335*%
G04:AMPARAMS|DCode=65|XSize=11.8mil|YSize=10.6mil|CornerRadius=0mil|HoleSize=0mil|Usage=FLASHONLY|Rotation=135.000|XOffset=0mil|YOffset=0mil|HoleType=Round|Shape=Rectangle|*
%AMROTATEDRECTD65*
4,1,4,0.0079,-0.0004,0.0004,-0.0079,-0.0079,0.0004,-0.0004,0.0079,0.0079,-0.0004,0.0*
%
%ADD65ROTATEDRECTD65*%

%ADD122C,0.1181*%
%ADD123C,0.0354*%
%ADD125C,0.0057*%
%ADD126C,0.0394*%
%ADD127C,0.0591*%
%ADD128R,0.0394X0.0394*%
%ADD129R,0.0098X0.0091*%
%ADD130R,0.0091X0.0098*%
%ADD131R,0.0394X0.0394*%
%ADD132C,0.0197*%
%ADD133C,0.0120*%
%ADD134C,0.0077*%
%ADD135C,0.0300*%
%ADD136C,0.0065*%
%ADD137C,0.0150*%
%ADD138C,0.0180*%
%ADD139C,0.0200*%
%ADD140C,0.0070*%
%ADD141C,0.0250*%
%ADD142C,0.0235*%
%ADD143C,0.0230*%
%ADD144C,0.0090*%
%ADD145R,0.0760X0.0394*%
%ADD146R,0.0090X0.0230*%
%ADD147R,0.0270X0.0394*%
%ADD148R,0.0630X0.0492*%
%ADD149R,0.0079X0.0177*%
%ADD150C,0.0551*%
%ADD151R,0.0551X0.0551*%
%ADD152C,0.0335*%
%ADD153C,0.0402*%
%ADD154O,0.0630X0.0354*%
%ADD155R,0.0591X0.0591*%
%ADD156C,0.0138*%
%ADD157C,0.0098*%
%ADD158C,0.0118*%
%ADD159C,0.0240*%
G36*
X15177Y17441D02*
X15177Y17441D01*
X15177D01*
X15179Y17347D01*
X15184Y17254D01*
X15194Y17161D01*
X15208Y17068D01*
X15225Y16976D01*
X15246Y16885D01*
X15271Y16795D01*
X15299Y16706D01*
X15332Y16618D01*
X15367Y16531D01*
X15407Y16446D01*
X15450Y16363D01*
X15496Y16282D01*
X15545Y16203D01*
X15598Y16125D01*
X15654Y16050D01*
X15699Y15995D01*
X15676Y15945D01*
X15059Y15945D01*
Y15768D01*
X15005Y15766D01*
X14940Y15760D01*
X14876Y15750D01*
X14812Y15737D01*
X14749Y15719D01*
X14687Y15698D01*
X14626Y15673D01*
X14567Y15644D01*
X14511Y15612D01*
X14456Y15576D01*
X14403Y15538D01*
X14353Y15496D01*
X14305Y15451D01*
X14260Y15403D01*
X14218Y15353D01*
X14179Y15300D01*
X14144Y15245D01*
X14112Y15188D01*
X14083Y15130D01*
X14058Y15069D01*
X14037Y15007D01*
X14019Y14944D01*
X14005Y14880D01*
X13996Y14816D01*
X13990Y14750D01*
X13988Y14685D01*
X13990Y14620D01*
X13996Y14554D01*
X14005Y14490D01*
X14019Y14426D01*
X14037Y14363D01*
X14058Y14301D01*
X14083Y14240D01*
X14112Y14182D01*
X14144Y14125D01*
X14179Y14070D01*
X14218Y14017D01*
X14260Y13967D01*
X14305Y13919D01*
X14353Y13874D01*
X14403Y13832D01*
X14456Y13794D01*
X14511Y13758D01*
X14567Y13726D01*
X14626Y13697D01*
X14687Y13672D01*
X14749Y13651D01*
X14812Y13633D01*
X14876Y13620D01*
X14940Y13610D01*
X15005Y13604D01*
X15059Y13602D01*
X15059Y500D01*
X14972D01*
X14958Y512D01*
X14938Y524D01*
X14916Y533D01*
X14894Y539D01*
X14870Y540D01*
X14846Y539D01*
X14824Y533D01*
X14802Y524D01*
X14782Y512D01*
X14764Y496D01*
X14748Y478D01*
X14736Y458D01*
X14727Y436D01*
X14721Y414D01*
X14720Y390D01*
X14721Y366D01*
X14727Y344D01*
X14736Y322D01*
X14748Y302D01*
X14764Y284D01*
X14782Y268D01*
X14802Y256D01*
X14824Y247D01*
X14846Y241D01*
X14870Y240D01*
X14894Y241D01*
X14916Y247D01*
X14938Y256D01*
X14958Y268D01*
X14972Y280D01*
X15059D01*
Y138D01*
X11650D01*
Y3018D01*
X11650Y3068D01*
X11650Y3068D01*
X11600Y3068D01*
X10075Y3068D01*
X10075Y1535D01*
X9994D01*
Y1396D01*
X9801D01*
Y1390D01*
X9589D01*
Y1388D01*
X9445D01*
X9407Y1417D01*
Y1693D01*
X9390Y1703D01*
Y1839D01*
X9411D01*
Y1928D01*
X9390D01*
Y1939D01*
X9262D01*
Y2015D01*
X9293D01*
Y2028D01*
X9411D01*
Y2118D01*
X9293D01*
Y2256D01*
X9250D01*
X9248Y2261D01*
X9235Y2290D01*
X9218Y2318D01*
X9199Y2343D01*
X9178Y2367D01*
X9154Y2389D01*
X9128Y2408D01*
X9100Y2424D01*
X9071Y2438D01*
X9041Y2449D01*
X9010Y2457D01*
X8978Y2461D01*
X8946Y2463D01*
Y2463D01*
X8847D01*
Y2493D01*
X8579D01*
Y2491D01*
X8357D01*
Y2491D01*
X8193D01*
Y2493D01*
X8115D01*
X8096Y2539D01*
X8156Y2600D01*
X8485D01*
X8485Y2600D01*
X8504Y2601D01*
X8522Y2606D01*
X8539Y2613D01*
X8554Y2622D01*
X8568Y2634D01*
X8643Y2709D01*
X8643Y2709D01*
X8655Y2723D01*
X8658Y2728D01*
X8703Y2720D01*
X8708Y2717D01*
Y2599D01*
X8896D01*
Y2827D01*
X8996D01*
Y2599D01*
X9184D01*
Y2863D01*
X9234Y2867D01*
X9239Y2844D01*
X9248Y2823D01*
X9260Y2803D01*
X9275Y2785D01*
X9293Y2770D01*
X9313Y2758D01*
X9334Y2749D01*
X9357Y2744D01*
X9375Y2742D01*
X9380Y2739D01*
X9394Y2730D01*
X9410Y2723D01*
X9426Y2719D01*
X9443Y2718D01*
X9478D01*
Y2620D01*
X9911D01*
Y3033D01*
X9911Y3033D01*
X9911Y3053D01*
X9911Y3083D01*
Y3524D01*
X9943Y3550D01*
X9961Y3558D01*
X9977Y3554D01*
X10000Y3552D01*
X10023Y3554D01*
X10046Y3559D01*
X10067Y3568D01*
X10087Y3580D01*
X10105Y3595D01*
X10120Y3613D01*
X10132Y3633D01*
X10141Y3654D01*
X10146Y3677D01*
X10148Y3700D01*
X10146Y3723D01*
X10141Y3746D01*
X10132Y3767D01*
X10120Y3787D01*
X10105Y3805D01*
X10087Y3820D01*
X10067Y3832D01*
X10046Y3841D01*
X10023Y3846D01*
X10011Y3847D01*
X9911Y3948D01*
Y4195D01*
X9753D01*
X9719Y4241D01*
X9731Y4265D01*
X9787D01*
Y4286D01*
X9863D01*
Y4265D01*
X10276D01*
Y4425D01*
X10306Y4462D01*
X10794D01*
Y4462D01*
X10837Y4454D01*
X10860Y4452D01*
X10883Y4454D01*
X10906Y4459D01*
X10927Y4468D01*
X10947Y4480D01*
X10965Y4495D01*
X10980Y4513D01*
X10992Y4533D01*
X11001Y4554D01*
X11006Y4577D01*
X11008Y4600D01*
X11006Y4623D01*
X11001Y4646D01*
X10992Y4667D01*
X10980Y4687D01*
X10976Y4691D01*
X10965Y4707D01*
Y4743D01*
X10976Y4759D01*
X10980Y4763D01*
X10992Y4783D01*
X11001Y4804D01*
X11006Y4827D01*
X11008Y4850D01*
X11006Y4873D01*
X11001Y4896D01*
X10992Y4917D01*
X10980Y4937D01*
X10976Y4941D01*
X10965Y4957D01*
Y4993D01*
X10976Y5009D01*
X10980Y5013D01*
X10992Y5033D01*
X11001Y5054D01*
X11006Y5077D01*
X11008Y5100D01*
X11006Y5123D01*
X11001Y5146D01*
X10992Y5167D01*
X10980Y5187D01*
X10965Y5205D01*
X10947Y5220D01*
X10927Y5232D01*
X10906Y5241D01*
X10883Y5246D01*
X10860Y5248D01*
X10837Y5246D01*
X10794Y5238D01*
X10794Y5238D01*
X10306D01*
X10276Y5275D01*
Y5465D01*
X10254D01*
Y5934D01*
X10276D01*
Y6180D01*
X10603D01*
Y6111D01*
X10724D01*
Y6034D01*
X11039D01*
Y6546D01*
X10724D01*
Y6470D01*
X10603D01*
Y6400D01*
X10276D01*
Y6843D01*
X10254D01*
Y6919D01*
X10276D01*
Y7363D01*
X11254D01*
X11256Y7364D01*
X11312Y7362D01*
X11370Y7356D01*
X11428Y7347D01*
X11485Y7333D01*
X11541Y7316D01*
X11595Y7296D01*
X11648Y7272D01*
X11700Y7244D01*
X11750Y7213D01*
X11797Y7179D01*
X11842Y7142D01*
X11883Y7104D01*
X11885Y7102D01*
X12432Y6554D01*
Y6437D01*
X12894D01*
Y6006D01*
X12844Y5985D01*
X12843Y5986D01*
X12823Y5998D01*
X12802Y6007D01*
X12779Y6012D01*
X12756Y6014D01*
X12733Y6012D01*
X12710Y6007D01*
X12689Y5998D01*
X12669Y5986D01*
X12651Y5971D01*
X12636Y5953D01*
X12624Y5933D01*
X12615Y5912D01*
X12610Y5889D01*
X12608Y5866D01*
X12610Y5843D01*
X12615Y5820D01*
X12624Y5799D01*
X12636Y5779D01*
X12651Y5761D01*
X12669Y5746D01*
X12689Y5734D01*
X12710Y5725D01*
X12733Y5720D01*
X12756Y5718D01*
X12779Y5720D01*
X12802Y5725D01*
X12823Y5734D01*
X12824Y5735D01*
X12911D01*
Y5679D01*
X13070D01*
X13229D01*
Y5782D01*
X13208D01*
Y5984D01*
X13248D01*
Y6437D01*
X13520D01*
X13550Y6399D01*
X13578Y6357D01*
X13602Y6314D01*
X13623Y6268D01*
X13641Y6221D01*
X13654Y6173D01*
X13664Y6124D01*
X13670Y6074D01*
X13672Y6026D01*
X13672Y6024D01*
Y4171D01*
X13652D01*
Y4035D01*
X13630D01*
Y3936D01*
X13652D01*
Y3915D01*
X13780D01*
Y3836D01*
X13630D01*
Y3737D01*
X13793D01*
X13799Y3689D01*
X13799Y3689D01*
X13799Y2853D01*
X13797Y2803D01*
X13797D01*
Y2581D01*
X13795D01*
Y2348D01*
X13757D01*
Y2015D01*
X13756D01*
Y1510D01*
X13383D01*
X13370Y1522D01*
X13349Y1534D01*
X13328Y1543D01*
X13305Y1549D01*
X13281Y1551D01*
X13258Y1549D01*
X13235Y1543D01*
X13213Y1534D01*
X13193Y1522D01*
X13175Y1507D01*
X13160Y1489D01*
X13147Y1468D01*
X13138Y1447D01*
X13133Y1424D01*
X13131Y1400D01*
X13133Y1377D01*
X13138Y1354D01*
X13147Y1332D01*
X13160Y1312D01*
X13175Y1294D01*
X13193Y1279D01*
X13213Y1266D01*
X13235Y1257D01*
X13258Y1252D01*
X13281Y1250D01*
X13305Y1252D01*
X13328Y1257D01*
X13349Y1266D01*
X13370Y1279D01*
X13383Y1290D01*
X13756D01*
Y1223D01*
X14114D01*
Y1597D01*
Y1927D01*
X14132Y1970D01*
X14300D01*
Y2168D01*
Y2367D01*
X14132D01*
Y2348D01*
X14075D01*
Y2581D01*
X14073D01*
Y2777D01*
X14273D01*
Y3230D01*
X14273D01*
Y3306D01*
X14275D01*
Y3764D01*
X14275D01*
X14294Y3806D01*
X14301Y3813D01*
X14356Y3868D01*
X14484D01*
X14488Y3864D01*
X14505Y3849D01*
X14525Y3837D01*
X14547Y3828D01*
X14569Y3822D01*
X14592Y3821D01*
X14616Y3822D01*
X14638Y3828D01*
X14660Y3837D01*
X14679Y3849D01*
X14697Y3864D01*
X14712Y3882D01*
X14724Y3902D01*
X14733Y3923D01*
X14739Y3946D01*
X14741Y3969D01*
X14739Y3992D01*
X14733Y4015D01*
X14724Y4036D01*
X14712Y4056D01*
X14697Y4073D01*
X14679Y4089D01*
X14660Y4101D01*
X14638Y4110D01*
X14616Y4115D01*
X14592Y4117D01*
X14569Y4115D01*
X14547Y4110D01*
X14525Y4101D01*
X14505Y4089D01*
X14490Y4075D01*
X14313D01*
X14297Y4074D01*
X14294Y4073D01*
X14255Y4094D01*
X14244Y4106D01*
X14244Y4107D01*
Y4161D01*
X14244Y4193D01*
X14287Y4210D01*
X14345D01*
Y4369D01*
X14395D01*
Y4419D01*
X14548D01*
Y4434D01*
X14555Y4443D01*
X14598Y4466D01*
X14600Y4465D01*
X14622Y4460D01*
X14646Y4458D01*
X14669Y4460D01*
X14691Y4465D01*
X14713Y4474D01*
X14733Y4486D01*
X14750Y4502D01*
X14765Y4519D01*
X14778Y4539D01*
X14787Y4561D01*
X14792Y4583D01*
X14794Y4606D01*
X14792Y4629D01*
X14787Y4652D01*
X14778Y4674D01*
X14765Y4693D01*
X14750Y4711D01*
X14733Y4726D01*
X14713Y4738D01*
X14691Y4747D01*
X14669Y4753D01*
X14646Y4754D01*
X14622Y4753D01*
X14600Y4747D01*
X14578Y4738D01*
X14574Y4735D01*
X14370D01*
X14350Y4734D01*
X14330Y4729D01*
X14312Y4721D01*
X14294Y4711D01*
X14279Y4698D01*
X14088Y4507D01*
X14038D01*
Y4457D01*
X13934Y4352D01*
X13887Y4371D01*
Y6024D01*
X13887D01*
X13886Y6079D01*
X13880Y6135D01*
X13871Y6190D01*
X13858Y6245D01*
X13842Y6298D01*
X13822Y6350D01*
X13799Y6401D01*
X13773Y6451D01*
X13744Y6498D01*
X13711Y6544D01*
X13709Y6546D01*
Y6713D01*
X13346D01*
Y6998D01*
X13406D01*
Y7065D01*
X13602D01*
Y7598D01*
Y8131D01*
X13345D01*
Y8110D01*
X12797D01*
Y8131D01*
X12540D01*
Y7598D01*
Y7065D01*
X12736D01*
Y6998D01*
X12795D01*
Y6713D01*
X12579D01*
X12272Y7019D01*
X12292Y7065D01*
X12440D01*
Y7548D01*
X12183D01*
Y7173D01*
X12137Y7154D01*
X12037Y7255D01*
X12037Y7255D01*
X11992Y7297D01*
X11944Y7337D01*
X11895Y7375D01*
X11843Y7409D01*
X11790Y7441D01*
X11734Y7469D01*
X11678Y7495D01*
X11620Y7517D01*
X11560Y7536D01*
X11500Y7551D01*
X11439Y7564D01*
X11378Y7572D01*
X11316Y7577D01*
X11254Y7579D01*
Y7579D01*
X10276D01*
Y8024D01*
X10254D01*
Y8296D01*
X10276D01*
Y8709D01*
X9863D01*
Y8688D01*
X9787D01*
Y8709D01*
X8070D01*
X8050Y8755D01*
X8076Y8786D01*
X9648D01*
X9664Y8788D01*
X9680Y8791D01*
X9695Y8798D01*
X9709Y8806D01*
X9721Y8817D01*
X9723Y8819D01*
X10551D01*
Y9306D01*
X11969D01*
Y8819D01*
X13209D01*
Y9463D01*
X14234D01*
X14250Y9465D01*
X14266Y9468D01*
X14281Y9475D01*
X14295Y9483D01*
X14307Y9494D01*
X14913Y10100D01*
X14924Y10112D01*
X14932Y10126D01*
X14939Y10141D01*
X14942Y10157D01*
X14944Y10173D01*
Y13080D01*
X14942Y13096D01*
X14939Y13112D01*
X14932Y13127D01*
X14924Y13141D01*
X14913Y13153D01*
X13794Y14273D01*
Y18177D01*
X14103Y18487D01*
X14114Y18499D01*
X14122Y18513D01*
X14129Y18528D01*
X14132Y18544D01*
X14134Y18560D01*
Y19094D01*
X14135Y19095D01*
X14150Y19113D01*
X14162Y19133D01*
X14171Y19154D01*
X14176Y19177D01*
X14178Y19200D01*
X14176Y19223D01*
X14171Y19246D01*
X14162Y19267D01*
X14150Y19287D01*
X14135Y19305D01*
X14117Y19320D01*
X14097Y19332D01*
X14076Y19341D01*
X14053Y19346D01*
X14030Y19348D01*
X14007Y19346D01*
X13984Y19341D01*
X13963Y19332D01*
X13943Y19320D01*
X13925Y19305D01*
X13915Y19292D01*
X13903Y19286D01*
X13854Y19283D01*
X13703Y19433D01*
X13691Y19444D01*
X13677Y19452D01*
X13662Y19459D01*
X13646Y19462D01*
X13630Y19464D01*
X13000D01*
X12984Y19462D01*
X12968Y19459D01*
X12953Y19452D01*
X12939Y19444D01*
X12927Y19433D01*
X12846Y19353D01*
X12845Y19353D01*
X12822Y19351D01*
X12799Y19346D01*
X12778Y19337D01*
X12758Y19325D01*
X12740Y19310D01*
X12725Y19292D01*
X12713Y19272D01*
X12704Y19251D01*
X12699Y19228D01*
X12697Y19205D01*
X12699Y19182D01*
X12704Y19159D01*
X12713Y19138D01*
X12725Y19118D01*
X12740Y19100D01*
X12758Y19085D01*
X12778Y19073D01*
X12799Y19064D01*
X12822Y19059D01*
X12845Y19057D01*
X12868Y19059D01*
X12891Y19064D01*
X12912Y19073D01*
X12932Y19085D01*
X12950Y19100D01*
X12965Y19118D01*
X12977Y19138D01*
X12986Y19159D01*
X12991Y19182D01*
X12993Y19205D01*
X12993Y19206D01*
X13043Y19256D01*
X13122D01*
X13139Y19206D01*
X13135Y19204D01*
X13106Y19177D01*
X13080Y19149D01*
X13057Y19118D01*
X13037Y19084D01*
X13020Y19049D01*
X13007Y19013D01*
X12998Y18975D01*
X12994Y18948D01*
X13386D01*
Y18898D01*
X13436D01*
Y18505D01*
X13463Y18509D01*
X13501Y18519D01*
X13537Y18532D01*
X13572Y18549D01*
X13606Y18569D01*
X13637Y18592D01*
X13666Y18618D01*
X13692Y18647D01*
X13715Y18678D01*
X13726Y18697D01*
X13776Y18683D01*
Y18592D01*
X13518Y18334D01*
X13508Y18322D01*
X13499Y18308D01*
X13493Y18293D01*
X13489Y18277D01*
X13488Y18261D01*
Y16612D01*
X13482Y16601D01*
X13440Y16568D01*
X13417Y16566D01*
X13394Y16561D01*
X13373Y16552D01*
X13353Y16540D01*
X13335Y16525D01*
X13289Y16514D01*
X13275Y16522D01*
X13260Y16529D01*
X13244Y16532D01*
X13228Y16534D01*
X13176D01*
X13175Y16535D01*
X13157Y16550D01*
X13137Y16562D01*
X13116Y16571D01*
X13115Y16571D01*
X13098Y16621D01*
X13099Y16625D01*
X13262Y16789D01*
X13278Y16807D01*
X13291Y16828D01*
X13300Y16850D01*
X13305Y16874D01*
X13307Y16898D01*
Y17957D01*
X13305Y17981D01*
X13300Y18004D01*
X13291Y18027D01*
X13278Y18047D01*
X13262Y18066D01*
X11859Y19469D01*
X11841Y19485D01*
X11820Y19497D01*
X11798Y19507D01*
X11774Y19512D01*
X11750Y19514D01*
X9124D01*
X9100Y19512D01*
X9076Y19507D01*
X9054Y19497D01*
X9033Y19485D01*
X9015Y19469D01*
X8793Y19248D01*
X8770Y19256D01*
X8734Y19265D01*
X8698Y19270D01*
X8661Y19272D01*
X8625Y19270D01*
X8588Y19265D01*
X8553Y19256D01*
X8518Y19244D01*
X8485Y19228D01*
X8453Y19209D01*
X8424Y19187D01*
X8397Y19162D01*
X8372Y19135D01*
X8350Y19106D01*
X8331Y19074D01*
X8315Y19041D01*
X8314Y19038D01*
X8308Y19035D01*
X8287Y19022D01*
X8269Y19007D01*
X7981Y18719D01*
X7965Y18701D01*
X7953Y18680D01*
X7943Y18658D01*
X7938Y18634D01*
X7936Y18610D01*
X7938Y18586D01*
X7943Y18562D01*
X7953Y18540D01*
X7965Y18519D01*
X7981Y18501D01*
X7999Y18485D01*
X8020Y18473D01*
X8031Y18468D01*
X8021Y18418D01*
X7477D01*
Y18280D01*
X8147D01*
X8818D01*
Y18418D01*
X8159D01*
X8149Y18468D01*
X8160Y18473D01*
X8181Y18485D01*
X8199Y18501D01*
X8332Y18634D01*
X8397Y18633D01*
X8424Y18608D01*
X8453Y18586D01*
X8485Y18567D01*
X8518Y18552D01*
X8553Y18539D01*
X8588Y18530D01*
X8625Y18525D01*
X8661Y18523D01*
X8698Y18525D01*
X8734Y18530D01*
X8770Y18539D01*
X8805Y18552D01*
X8838Y18567D01*
X8869Y18586D01*
X8899Y18608D01*
X8926Y18633D01*
X8951Y18660D01*
X8973Y18690D01*
X8992Y18721D01*
X9007Y18754D01*
X9020Y18789D01*
X9029Y18825D01*
X9034Y18861D01*
X9036Y18898D01*
X9034Y18934D01*
X9029Y18971D01*
X9020Y19006D01*
X9011Y19030D01*
X9188Y19206D01*
X9551D01*
X9567Y19181D01*
X9572Y19156D01*
X9553Y19135D01*
X9531Y19106D01*
X9515Y19079D01*
X9360D01*
X9337Y19078D01*
X9314Y19073D01*
X9291Y19065D01*
X9270Y19055D01*
X9251Y19042D01*
X9233Y19027D01*
X9218Y19009D01*
X9205Y18990D01*
X9195Y18969D01*
X9187Y18946D01*
X9182Y18923D01*
X9181Y18900D01*
X9182Y18877D01*
X9187Y18854D01*
X9195Y18831D01*
X9205Y18810D01*
X9218Y18791D01*
X9233Y18773D01*
X9251Y18758D01*
X9270Y18745D01*
X9291Y18735D01*
X9314Y18727D01*
X9337Y18722D01*
X9360Y18721D01*
X9512D01*
X9531Y18690D01*
X9553Y18660D01*
X9578Y18633D01*
X9605Y18608D01*
X9634Y18586D01*
X9666Y18567D01*
X9699Y18552D01*
X9734Y18539D01*
X9769Y18530D01*
X9806Y18525D01*
X9843Y18523D01*
X9879Y18525D01*
X9916Y18530D01*
X9951Y18539D01*
X9986Y18552D01*
X10019Y18567D01*
X10051Y18586D01*
X10080Y18608D01*
X10107Y18633D01*
X10132Y18660D01*
X10154Y18690D01*
X10173Y18721D01*
X10188Y18754D01*
X10201Y18789D01*
X10210Y18825D01*
X10215Y18861D01*
X10217Y18898D01*
X10215Y18934D01*
X10210Y18971D01*
X10201Y19006D01*
X10188Y19041D01*
X10173Y19074D01*
X10154Y19106D01*
X10132Y19135D01*
X10113Y19156D01*
X10118Y19181D01*
X10134Y19206D01*
X11686D01*
X12999Y17893D01*
Y17662D01*
X12902D01*
Y17287D01*
Y16865D01*
X12902Y16865D01*
X12768Y16730D01*
X12752Y16712D01*
X12739Y16691D01*
X12730Y16669D01*
X12725Y16645D01*
X12723Y16621D01*
Y16323D01*
X12725Y16299D01*
X12730Y16275D01*
X12739Y16253D01*
X12752Y16232D01*
X12768Y16214D01*
X13002Y15980D01*
X12981Y15930D01*
X12902D01*
Y15554D01*
Y15179D01*
X13042D01*
X13051Y15179D01*
X13092Y15157D01*
Y13358D01*
X13094Y13334D01*
X13099Y13311D01*
X13109Y13288D01*
X13121Y13268D01*
X13137Y13249D01*
X13240Y13146D01*
X13207Y13109D01*
X13179Y13130D01*
X13150Y13148D01*
X13118Y13162D01*
X13085Y13174D01*
X13052Y13183D01*
X13017Y13188D01*
X12982Y13189D01*
X12948Y13188D01*
X12913Y13183D01*
X12879Y13174D01*
X12847Y13162D01*
X12815Y13148D01*
X12785Y13130D01*
X12757Y13109D01*
X12731Y13086D01*
X12708Y13060D01*
X12687Y13032D01*
X12669Y13002D01*
X12655Y12970D01*
X12643Y12938D01*
X12634Y12904D01*
X12629Y12869D01*
X12628Y12835D01*
X12629Y12800D01*
X12634Y12765D01*
X12643Y12732D01*
X12655Y12699D01*
X12669Y12667D01*
X12687Y12638D01*
X12708Y12610D01*
X12731Y12584D01*
X12757Y12560D01*
X12785Y12540D01*
X12815Y12522D01*
X12847Y12507D01*
X12879Y12495D01*
X12913Y12487D01*
X12948Y12482D01*
X12982Y12480D01*
X13017Y12482D01*
X13052Y12487D01*
X13085Y12495D01*
X13118Y12507D01*
X13150Y12522D01*
X13179Y12540D01*
X13207Y12560D01*
X13233Y12584D01*
X13257Y12610D01*
X13277Y12638D01*
X13295Y12667D01*
X13310Y12699D01*
X13322Y12732D01*
X13330Y12765D01*
X13335Y12800D01*
X13337Y12835D01*
X13335Y12869D01*
X13330Y12904D01*
X13322Y12938D01*
X13310Y12970D01*
X13295Y13002D01*
X13277Y13032D01*
X13257Y13060D01*
X13294Y13092D01*
X13415Y12971D01*
Y12480D01*
X14124D01*
Y13027D01*
X14170Y13046D01*
X14343Y12874D01*
Y10647D01*
X14293Y10633D01*
X14288Y10641D01*
X14266Y10671D01*
X14241Y10698D01*
X14214Y10723D01*
X14184Y10744D01*
X14153Y10763D01*
X14120Y10779D01*
X14085Y10791D01*
X14049Y10800D01*
X14013Y10806D01*
X13976Y10808D01*
X13940Y10806D01*
X13903Y10800D01*
X13868Y10791D01*
X13833Y10779D01*
X13800Y10763D01*
X13768Y10744D01*
X13739Y10723D01*
X13712Y10698D01*
X13687Y10671D01*
X13665Y10641D01*
X13646Y10610D01*
X13630Y10576D01*
X13618Y10542D01*
X13609Y10506D01*
X13604Y10470D01*
X13602Y10433D01*
X13604Y10396D01*
X13609Y10360D01*
X13618Y10324D01*
X13630Y10290D01*
X13646Y10257D01*
X13649Y10252D01*
X13559Y10163D01*
X12323D01*
X12321Y10181D01*
X12316Y10203D01*
X12307Y10225D01*
X12295Y10245D01*
X12280Y10262D01*
X12262Y10277D01*
X12242Y10289D01*
X12221Y10298D01*
X12198Y10304D01*
X12175Y10306D01*
X12152Y10304D01*
X12129Y10298D01*
X12108Y10289D01*
X12088Y10277D01*
X12070Y10262D01*
X12055Y10245D01*
X12043Y10225D01*
X12034Y10203D01*
X12029Y10181D01*
X12028Y10163D01*
X11762D01*
X11743Y10209D01*
X11796Y10261D01*
X11806Y10274D01*
X11815Y10288D01*
X11821Y10303D01*
X11825Y10318D01*
X11826Y10335D01*
Y10902D01*
X11901Y10977D01*
X11947Y10958D01*
Y10798D01*
X12539D01*
Y11124D01*
X12345D01*
X12326Y11138D01*
X12303Y11174D01*
X12304Y11181D01*
X12302Y11204D01*
X12296Y11227D01*
X12287Y11248D01*
X12275Y11268D01*
X12260Y11286D01*
X12243Y11301D01*
X12223Y11313D01*
X12201Y11322D01*
X12179Y11327D01*
X12156Y11329D01*
X12132Y11327D01*
X12110Y11322D01*
X12088Y11313D01*
X12068Y11301D01*
X12051Y11286D01*
X12050Y11285D01*
X11959D01*
X11942Y11283D01*
X11927Y11280D01*
X11912Y11273D01*
X11898Y11265D01*
X11885Y11254D01*
X11649Y11018D01*
X11639Y11006D01*
X11630Y10992D01*
X11624Y10977D01*
X11620Y10961D01*
X11619Y10945D01*
Y10785D01*
X11616Y10779D01*
X11572Y10751D01*
X11569Y10752D01*
X11549Y10757D01*
X11526Y10758D01*
X11502Y10757D01*
X11480Y10751D01*
X11458Y10742D01*
X11439Y10730D01*
X11421Y10715D01*
X11406Y10697D01*
X11394Y10677D01*
X11385Y10656D01*
X11379Y10633D01*
X11378Y10610D01*
X11379Y10587D01*
X11385Y10564D01*
X11394Y10543D01*
X11406Y10523D01*
X11421Y10506D01*
X11422Y10505D01*
Y10360D01*
X10765D01*
X10758Y10364D01*
X10746Y10379D01*
X10731Y10410D01*
X10732Y10417D01*
X10734Y10433D01*
Y11132D01*
X10733Y11141D01*
X10737Y11158D01*
X10739Y11181D01*
X10737Y11204D01*
X10732Y11227D01*
X10723Y11248D01*
X10711Y11268D01*
X10695Y11286D01*
X10678Y11301D01*
X10658Y11313D01*
X10636Y11322D01*
X10614Y11327D01*
X10591Y11329D01*
X10568Y11327D01*
X10545Y11322D01*
X10523Y11313D01*
X10504Y11301D01*
X10486Y11286D01*
X10471Y11268D01*
X10459Y11248D01*
X10450Y11227D01*
X10444Y11204D01*
X10443Y11181D01*
X10443Y11172D01*
X10422Y11138D01*
X10403Y11122D01*
X9968D01*
X9952Y11159D01*
X9952Y11172D01*
X9960Y11178D01*
X9996Y11215D01*
X10001Y11219D01*
X10006Y11224D01*
X10042Y11261D01*
X10052Y11272D01*
X10087Y11324D01*
X10091Y11331D01*
X10092Y11333D01*
X10117Y11369D01*
X10117Y11369D01*
X10124Y11383D01*
X10124Y11383D01*
X10169Y11490D01*
X10173Y11505D01*
X10182Y11548D01*
X10182Y11551D01*
X10184Y11558D01*
X10196Y11619D01*
X10197Y11635D01*
Y11686D01*
X10197Y11693D01*
X10197D01*
Y13071D01*
X10197D01*
X10197Y13078D01*
Y13129D01*
X10196Y13144D01*
X10184Y13206D01*
X10182Y13213D01*
X10182Y13216D01*
X10173Y13259D01*
X10169Y13273D01*
X10124Y13381D01*
X10124Y13381D01*
X10117Y13395D01*
X10117Y13395D01*
X10092Y13431D01*
X10091Y13433D01*
X10087Y13439D01*
X10052Y13491D01*
X10042Y13503D01*
X10006Y13540D01*
X10001Y13545D01*
X9996Y13549D01*
X9960Y13586D01*
X9953Y13591D01*
X9954Y13608D01*
X9969Y13641D01*
X10007D01*
Y13780D01*
X9583D01*
Y13743D01*
X9533Y13741D01*
X9528Y13741D01*
Y13741D01*
X8818D01*
Y13780D01*
X8147D01*
X7477D01*
Y13641D01*
X7872D01*
X7886Y13629D01*
X7903Y13591D01*
X7880Y13534D01*
X7875Y13519D01*
X7874Y13504D01*
Y13469D01*
X7873Y13465D01*
X7874Y13460D01*
Y13425D01*
X7874Y13422D01*
Y12394D01*
X7828Y12375D01*
X7192Y13011D01*
X7176Y13024D01*
X7159Y13035D01*
X7140Y13043D01*
X7120Y13048D01*
X7100Y13049D01*
X6952D01*
X6951Y13049D01*
X6945Y13064D01*
X6942Y13107D01*
X6958Y13121D01*
X6982Y13148D01*
X7004Y13178D01*
X7023Y13209D01*
X7039Y13243D01*
X7051Y13277D01*
X7060Y13313D01*
X7066Y13349D01*
X7067Y13386D01*
X7066Y13423D01*
X7060Y13459D01*
X7051Y13495D01*
X7039Y13529D01*
X7023Y13562D01*
X7004Y13594D01*
X6982Y13623D01*
X6958Y13651D01*
X6930Y13675D01*
X6901Y13697D01*
X6869Y13716D01*
X6836Y13732D01*
X6802Y13744D01*
X6766Y13753D01*
X6730Y13758D01*
X6693Y13760D01*
X6656Y13758D01*
X6620Y13753D01*
X6584Y13744D01*
X6576Y13741D01*
X6448Y13870D01*
X6432Y13884D01*
X6413Y13896D01*
X6393Y13906D01*
X6373Y13913D01*
X6351Y13918D01*
X6329Y13919D01*
X5826D01*
X4986Y14759D01*
X5428Y15201D01*
X6590D01*
X6613Y15202D01*
X6636Y15207D01*
X6659Y15215D01*
X6680Y15225D01*
X6699Y15238D01*
X6717Y15253D01*
X6732Y15271D01*
X6745Y15290D01*
X6755Y15311D01*
X6763Y15334D01*
X6768Y15357D01*
X6769Y15380D01*
X6768Y15403D01*
X6763Y15426D01*
X6755Y15449D01*
X6745Y15470D01*
X6732Y15489D01*
X6717Y15507D01*
X6699Y15522D01*
X6680Y15535D01*
X6659Y15545D01*
X6636Y15553D01*
X6613Y15558D01*
X6590Y15559D01*
X5354D01*
X5330Y15558D01*
X5307Y15553D01*
X5285Y15545D01*
X5264Y15535D01*
X5245Y15522D01*
X5227Y15507D01*
X4660Y14939D01*
X3788D01*
X3764Y14938D01*
X3741Y14933D01*
X3719Y14925D01*
X3698Y14915D01*
X3679Y14902D01*
X3661Y14887D01*
X3547Y14773D01*
X3532Y14755D01*
X3519Y14736D01*
X3508Y14715D01*
X3501Y14693D01*
X3496Y14670D01*
X3495Y14646D01*
Y13970D01*
X3496Y13947D01*
X3500Y13927D01*
X3500Y13921D01*
X3500Y13916D01*
X3478Y13875D01*
X3469Y13868D01*
X3469Y13868D01*
X3440Y13856D01*
X3412Y13841D01*
X3386Y13822D01*
X3362Y13801D01*
X3341Y13777D01*
X3323Y13751D01*
X3307Y13723D01*
X3295Y13694D01*
X3294Y13690D01*
X3019Y13415D01*
X3003Y13398D01*
X2993Y13382D01*
X2987Y13381D01*
X2943Y13407D01*
Y13600D01*
X2941Y13623D01*
X2937Y13646D01*
X2929Y13669D01*
X2919Y13690D01*
X2906Y13709D01*
X2890Y13727D01*
X2873Y13742D01*
X2856Y13753D01*
X2839Y13777D01*
X2818Y13801D01*
X2794Y13822D01*
X2768Y13841D01*
X2740Y13856D01*
X2711Y13868D01*
X2687Y13875D01*
X2687Y13875D01*
X2677Y13877D01*
X2660Y13879D01*
X2643Y13877D01*
X2627Y13873D01*
X2611Y13867D01*
X2596Y13858D01*
X2590Y13853D01*
X2584Y13858D01*
X2569Y13867D01*
X2553Y13873D01*
X2537Y13877D01*
X2520Y13879D01*
X2503Y13877D01*
X2493Y13875D01*
X2493Y13875D01*
X2469Y13868D01*
X2440Y13856D01*
X2412Y13841D01*
X2386Y13822D01*
X2362Y13801D01*
X2341Y13777D01*
X2323Y13751D01*
X2307Y13723D01*
X2295Y13694D01*
X2294Y13690D01*
X2110Y13506D01*
X2064Y13525D01*
Y14237D01*
X3522Y15695D01*
X3532Y15707D01*
X3541Y15721D01*
X3547Y15736D01*
X3551Y15752D01*
X3552Y15768D01*
Y16163D01*
X3551Y16180D01*
X3547Y16195D01*
X3541Y16210D01*
X3532Y16224D01*
X3522Y16237D01*
X3292Y16466D01*
X3280Y16477D01*
X3266Y16485D01*
X3251Y16491D01*
X3235Y16495D01*
X3219Y16496D01*
X3101D01*
X3085Y16495D01*
X3069Y16491D01*
X3054Y16485D01*
X3040Y16477D01*
X3028Y16466D01*
X2944Y16382D01*
X2933Y16370D01*
X2925Y16356D01*
X2919Y16341D01*
X2915Y16325D01*
X2914Y16309D01*
Y15963D01*
X2915Y15947D01*
X2919Y15931D01*
X2925Y15916D01*
X2933Y15902D01*
X2942Y15892D01*
X2942Y15890D01*
X2944Y15867D01*
X2949Y15844D01*
X2958Y15823D01*
X2970Y15803D01*
X2985Y15785D01*
X2983Y15728D01*
X1690Y14435D01*
X1679Y14422D01*
X1671Y14408D01*
X1665Y14393D01*
X1661Y14378D01*
X1659Y14361D01*
Y13474D01*
X1545D01*
X1539Y13495D01*
X1527Y13529D01*
X1511Y13562D01*
X1492Y13594D01*
X1471Y13623D01*
X1446Y13651D01*
X1419Y13675D01*
X1389Y13697D01*
X1358Y13716D01*
X1324Y13732D01*
X1290Y13744D01*
X1254Y13753D01*
X1218Y13758D01*
X1181Y13760D01*
X1144Y13758D01*
X1108Y13753D01*
X1072Y13744D01*
X1038Y13732D01*
X1005Y13716D01*
X973Y13697D01*
X944Y13675D01*
X916Y13651D01*
X892Y13623D01*
X870Y13594D01*
X851Y13562D01*
X835Y13529D01*
X823Y13495D01*
X814Y13459D01*
X808Y13423D01*
X807Y13386D01*
X808Y13349D01*
X814Y13313D01*
X823Y13277D01*
X835Y13243D01*
X851Y13209D01*
X870Y13178D01*
X892Y13148D01*
X916Y13121D01*
X944Y13096D01*
X973Y13074D01*
X1005Y13056D01*
X1038Y13040D01*
X1072Y13027D01*
X1108Y13019D01*
X1144Y13013D01*
X1181Y13011D01*
X1218Y13013D01*
X1254Y13019D01*
X1290Y13027D01*
X1324Y13040D01*
X1358Y13056D01*
X1389Y13074D01*
X1419Y13096D01*
X1446Y13121D01*
X1471Y13148D01*
X1492Y13178D01*
X1511Y13209D01*
X1527Y13243D01*
X1536Y13266D01*
X1659D01*
Y12399D01*
X1598Y12337D01*
X1587Y12325D01*
X1582Y12324D01*
X1543Y12327D01*
X1533Y12331D01*
X1527Y12348D01*
X1511Y12381D01*
X1492Y12413D01*
X1471Y12442D01*
X1446Y12470D01*
X1419Y12494D01*
X1389Y12516D01*
X1358Y12535D01*
X1324Y12551D01*
X1290Y12563D01*
X1254Y12572D01*
X1218Y12577D01*
X1181Y12579D01*
X1144Y12577D01*
X1108Y12572D01*
X1072Y12563D01*
X1038Y12551D01*
X1005Y12535D01*
X973Y12516D01*
X944Y12494D01*
X916Y12470D01*
X892Y12442D01*
X870Y12413D01*
X851Y12381D01*
X835Y12348D01*
X823Y12313D01*
X814Y12278D01*
X808Y12241D01*
X807Y12205D01*
X808Y12168D01*
X814Y12132D01*
X823Y12096D01*
X835Y12061D01*
X851Y12028D01*
X870Y11997D01*
X892Y11967D01*
X916Y11940D01*
X944Y11915D01*
X973Y11893D01*
X1005Y11874D01*
X1038Y11859D01*
X1072Y11846D01*
X1108Y11837D01*
X1144Y11832D01*
X1181Y11830D01*
X1218Y11832D01*
X1254Y11837D01*
X1290Y11846D01*
X1324Y11859D01*
X1358Y11874D01*
X1389Y11893D01*
X1419Y11915D01*
X1446Y11940D01*
X1471Y11967D01*
X1492Y11997D01*
X1511Y12028D01*
X1517Y12041D01*
X1567Y12030D01*
Y11419D01*
X1568Y11405D01*
Y11098D01*
X1553Y11092D01*
X1533Y11080D01*
X1515Y11065D01*
X1500Y11047D01*
X1488Y11027D01*
X1479Y11006D01*
X1474Y10983D01*
X1472Y10960D01*
X1474Y10937D01*
X1479Y10914D01*
X1488Y10893D01*
X1500Y10873D01*
X1515Y10855D01*
X1533Y10840D01*
X1553Y10828D01*
X1574Y10819D01*
X1597Y10814D01*
X1620Y10807D01*
X1620Y10784D01*
X1621Y10761D01*
X1627Y10738D01*
X1636Y10717D01*
X1648Y10697D01*
X1663Y10679D01*
X1661Y10622D01*
X1586Y10546D01*
X1572Y10548D01*
X1535Y10567D01*
X1534Y10586D01*
X1529Y10620D01*
X1521Y10654D01*
X1509Y10687D01*
X1494Y10718D01*
X1476Y10748D01*
X1455Y10776D01*
X1432Y10802D01*
X1406Y10825D01*
X1378Y10846D01*
X1348Y10864D01*
X1317Y10879D01*
X1284Y10891D01*
X1250Y10899D01*
X1216Y10904D01*
X1181Y10906D01*
X1146Y10904D01*
X1112Y10899D01*
X1078Y10891D01*
X1045Y10879D01*
X1014Y10864D01*
X984Y10846D01*
X956Y10825D01*
X930Y10802D01*
X907Y10776D01*
X886Y10748D01*
X868Y10718D01*
X853Y10687D01*
X842Y10654D01*
X833Y10620D01*
X828Y10586D01*
X826Y10551D01*
X828Y10516D01*
X833Y10482D01*
X842Y10448D01*
X853Y10415D01*
X868Y10384D01*
X886Y10354D01*
X907Y10326D01*
X930Y10300D01*
X956Y10277D01*
X984Y10256D01*
X1014Y10238D01*
X1045Y10223D01*
X1078Y10212D01*
X1112Y10203D01*
X1146Y10198D01*
X1165Y10197D01*
Y10050D01*
X1153Y10036D01*
X1143Y10019D01*
X1135Y10000D01*
X1131Y9981D01*
X1129Y9961D01*
X1131Y9941D01*
X1135Y9921D01*
X1143Y9902D01*
X1153Y9885D01*
X1167Y9870D01*
X1176Y9862D01*
X1180Y9834D01*
X1178Y9803D01*
X1177Y9803D01*
X1169Y9795D01*
X1156Y9780D01*
X1145Y9763D01*
X1138Y9744D01*
X1133Y9725D01*
X1133Y9721D01*
X1112Y9718D01*
X1078Y9710D01*
X1045Y9698D01*
X1014Y9683D01*
X984Y9665D01*
X956Y9644D01*
X930Y9621D01*
X907Y9595D01*
X886Y9567D01*
X868Y9537D01*
X853Y9506D01*
X842Y9473D01*
X833Y9439D01*
X828Y9405D01*
X826Y9370D01*
X828Y9335D01*
X833Y9301D01*
X842Y9267D01*
X853Y9234D01*
X868Y9203D01*
X886Y9173D01*
X907Y9145D01*
X930Y9119D01*
X956Y9096D01*
X984Y9075D01*
X1014Y9057D01*
X1045Y9042D01*
X1078Y9031D01*
X1112Y9022D01*
X1146Y9017D01*
X1181Y9015D01*
X1216Y9017D01*
X1250Y9022D01*
X1284Y9031D01*
X1317Y9042D01*
X1348Y9057D01*
X1378Y9075D01*
X1406Y9096D01*
X1409Y9098D01*
X1459Y9076D01*
Y8995D01*
X1017Y8553D01*
X1015Y8554D01*
X974Y8581D01*
X979Y8600D01*
X981Y8611D01*
X621D01*
Y8384D01*
X709D01*
X740Y8386D01*
X770Y8391D01*
X789Y8396D01*
X816Y8355D01*
X817Y8353D01*
X635Y8172D01*
X625Y8160D01*
X616Y8146D01*
X610Y8131D01*
X606Y8115D01*
X605Y8099D01*
Y5759D01*
X606Y5743D01*
X610Y5727D01*
X616Y5712D01*
X625Y5698D01*
X635Y5686D01*
X901Y5421D01*
X901Y5413D01*
X883Y5367D01*
X870Y5365D01*
X838Y5356D01*
X807Y5343D01*
X778Y5327D01*
X750Y5307D01*
X725Y5285D01*
X703Y5260D01*
X683Y5232D01*
X667Y5203D01*
X654Y5172D01*
X645Y5140D01*
X639Y5106D01*
X637Y5073D01*
X639Y5039D01*
X645Y5006D01*
X653Y4978D01*
X648Y4966D01*
X617Y4933D01*
X614Y4934D01*
X99D01*
Y6736D01*
X108Y6741D01*
X132Y6757D01*
X153Y6776D01*
X172Y6797D01*
X188Y6821D01*
X200Y6846D01*
X210Y6873D01*
X215Y6901D01*
X217Y6929D01*
X215Y6957D01*
X210Y6985D01*
X200Y7012D01*
X188Y7038D01*
X172Y7061D01*
X153Y7083D01*
X139Y7095D01*
X135Y7126D01*
X139Y7157D01*
X153Y7169D01*
X172Y7191D01*
X188Y7214D01*
X200Y7240D01*
X210Y7267D01*
X215Y7295D01*
X217Y7323D01*
X215Y7351D01*
X210Y7379D01*
X200Y7406D01*
X188Y7431D01*
X172Y7455D01*
X153Y7476D01*
X139Y7489D01*
X135Y7520D01*
X139Y7550D01*
X153Y7563D01*
X172Y7584D01*
X188Y7608D01*
X200Y7634D01*
X210Y7660D01*
X215Y7688D01*
X217Y7717D01*
X215Y7745D01*
X210Y7773D01*
X200Y7800D01*
X188Y7825D01*
X172Y7849D01*
X153Y7870D01*
X132Y7889D01*
X108Y7904D01*
X99Y7909D01*
Y19783D01*
X1921D01*
X1933Y19766D01*
X1943Y19733D01*
X1940Y19730D01*
X1933Y19716D01*
X1928Y19701D01*
X1927Y19685D01*
Y19038D01*
X1877Y19019D01*
X1865Y19031D01*
X1829Y19064D01*
X1791Y19095D01*
X1751Y19123D01*
X1708Y19148D01*
X1664Y19170D01*
X1619Y19189D01*
X1572Y19205D01*
X1525Y19217D01*
X1476Y19226D01*
X1427Y19231D01*
X1378Y19233D01*
X1329Y19231D01*
X1280Y19226D01*
X1231Y19217D01*
X1184Y19205D01*
X1137Y19189D01*
X1092Y19170D01*
X1048Y19148D01*
X1005Y19123D01*
X965Y19095D01*
X926Y19064D01*
X890Y19031D01*
X857Y18995D01*
X826Y18956D01*
X798Y18916D01*
X773Y18874D01*
X751Y18830D01*
X732Y18784D01*
X716Y18738D01*
X704Y18690D01*
X696Y18641D01*
X690Y18592D01*
X689Y18543D01*
X690Y18494D01*
X696Y18445D01*
X704Y18397D01*
X716Y18349D01*
X732Y18302D01*
X751Y18257D01*
X773Y18213D01*
X798Y18171D01*
X826Y18130D01*
X857Y18092D01*
X890Y18056D01*
X926Y18022D01*
X965Y17991D01*
X1005Y17963D01*
X1048Y17938D01*
X1092Y17916D01*
X1137Y17897D01*
X1184Y17882D01*
X1231Y17870D01*
X1280Y17861D01*
X1329Y17856D01*
X1378Y17854D01*
X1427Y17856D01*
X1476Y17861D01*
X1525Y17870D01*
X1572Y17882D01*
X1619Y17897D01*
X1664Y17916D01*
X1708Y17938D01*
X1751Y17963D01*
X1791Y17991D01*
X1829Y18022D01*
X1865Y18056D01*
X1899Y18092D01*
X1930Y18130D01*
X1958Y18171D01*
X1983Y18213D01*
X2005Y18257D01*
X2024Y18302D01*
X2039Y18349D01*
X2052Y18397D01*
X2060Y18445D01*
X2066Y18494D01*
X2067Y18543D01*
X2066Y18592D01*
X2060Y18641D01*
X2052Y18690D01*
X2039Y18738D01*
X2030Y18767D01*
X2057Y18817D01*
X2795D01*
X2811Y18818D01*
X2826Y18823D01*
X2840Y18830D01*
X2853Y18840D01*
X2863Y18853D01*
X2870Y18867D01*
X2875Y18882D01*
X2876Y18898D01*
Y19685D01*
X2875Y19701D01*
X2870Y19716D01*
X2863Y19730D01*
X2860Y19733D01*
X2870Y19766D01*
X2882Y19783D01*
X9256D01*
X9261Y19773D01*
X9277Y19750D01*
X9295Y19728D01*
X9317Y19710D01*
X9340Y19694D01*
X9366Y19681D01*
X9393Y19672D01*
X9420Y19667D01*
X9449Y19665D01*
X9477Y19667D01*
X9505Y19672D01*
X9532Y19681D01*
X9557Y19694D01*
X9581Y19710D01*
X9602Y19728D01*
X9615Y19743D01*
X9646Y19747D01*
X9676Y19743D01*
X9689Y19728D01*
X9710Y19710D01*
X9734Y19694D01*
X9759Y19681D01*
X9786Y19672D01*
X9814Y19667D01*
X9843Y19665D01*
X9871Y19667D01*
X9899Y19672D01*
X9926Y19681D01*
X9951Y19694D01*
X9975Y19710D01*
X9996Y19728D01*
X10009Y19743D01*
X10039Y19747D01*
X10070Y19743D01*
X10083Y19728D01*
X10104Y19710D01*
X10128Y19694D01*
X10153Y19681D01*
X10180Y19672D01*
X10208Y19667D01*
X10236Y19665D01*
X10265Y19667D01*
X10292Y19672D01*
X10319Y19681D01*
X10345Y19694D01*
X10368Y19710D01*
X10390Y19728D01*
X10408Y19750D01*
X10424Y19773D01*
X10429Y19783D01*
X15177D01*
Y17441D01*
D02*
G37*
G36*
X3707Y13784D02*
X3732Y13767D01*
X3761Y13738D01*
X3782Y13715D01*
X3805Y13676D01*
X3816Y13639D01*
X3814Y13552D01*
X3804Y13524D01*
X3771Y13470D01*
X3738Y13438D01*
X3702Y13415D01*
X3662Y13403D01*
X3642Y13410D01*
X3630Y13431D01*
X3630Y13770D01*
X3660Y13799D01*
X3707Y13784D01*
D02*
G37*
G36*
X2707D02*
X2732Y13767D01*
X2761Y13738D01*
X2782Y13715D01*
X2805Y13676D01*
X2816Y13639D01*
X2814Y13552D01*
X2804Y13524D01*
X2771Y13470D01*
X2738Y13438D01*
X2702Y13415D01*
X2662Y13403D01*
X2642Y13410D01*
X2630Y13431D01*
X2630Y13770D01*
X2660Y13799D01*
X2707Y13784D01*
D02*
G37*
G36*
X3538Y13790D02*
X3550Y13769D01*
X3550Y13430D01*
X3520Y13401D01*
X3473Y13416D01*
X3448Y13433D01*
X3419Y13462D01*
X3398Y13485D01*
X3375Y13524D01*
X3364Y13561D01*
X3366Y13648D01*
X3376Y13676D01*
X3409Y13730D01*
X3442Y13762D01*
X3478Y13785D01*
X3518Y13797D01*
X3538Y13790D01*
D02*
G37*
G36*
X2538D02*
X2550Y13769D01*
X2550Y13430D01*
X2520Y13401D01*
X2473Y13416D01*
X2448Y13433D01*
X2419Y13462D01*
X2398Y13485D01*
X2375Y13524D01*
X2364Y13561D01*
X2366Y13648D01*
X2376Y13676D01*
X2409Y13730D01*
X2442Y13762D01*
X2478Y13785D01*
X2518Y13797D01*
X2538Y13790D01*
D02*
G37*
G36*
X3890Y13855D02*
X3911Y13845D01*
X3934Y13837D01*
X3957Y13832D01*
X3980Y13831D01*
X4813D01*
X5153Y13492D01*
X5145Y13459D01*
X5139Y13423D01*
X5137Y13386D01*
X5139Y13349D01*
X5145Y13313D01*
X5153Y13277D01*
X5166Y13243D01*
X5182Y13209D01*
X5200Y13178D01*
X5222Y13148D01*
X5247Y13121D01*
X5274Y13096D01*
X5304Y13074D01*
X5335Y13056D01*
X5369Y13040D01*
X5403Y13027D01*
X5439Y13019D01*
X5475Y13013D01*
X5512Y13011D01*
X5549Y13013D01*
X5585Y13019D01*
X5621Y13027D01*
X5655Y13040D01*
X5688Y13056D01*
X5720Y13074D01*
X5749Y13096D01*
X5777Y13121D01*
X5801Y13148D01*
X5823Y13178D01*
X5842Y13209D01*
X5858Y13243D01*
X5870Y13277D01*
X5879Y13313D01*
X5884Y13349D01*
X5886Y13386D01*
X5884Y13423D01*
X5879Y13459D01*
X5870Y13495D01*
X5858Y13529D01*
X5857Y13531D01*
X5889Y13581D01*
X6259D01*
X6337Y13502D01*
X6335Y13495D01*
X6326Y13459D01*
X6320Y13423D01*
X6318Y13386D01*
X6320Y13349D01*
X6326Y13313D01*
X6335Y13277D01*
X6347Y13243D01*
X6363Y13209D01*
X6382Y13178D01*
X6403Y13148D01*
X6428Y13121D01*
X6455Y13096D01*
X6485Y13074D01*
X6516Y13056D01*
X6550Y13040D01*
X6584Y13027D01*
X6620Y13019D01*
X6656Y13013D01*
X6693Y13011D01*
X6705Y13012D01*
X6709Y13010D01*
X6739Y12968D01*
X6739Y12966D01*
X6734Y12943D01*
X6732Y12920D01*
X6734Y12897D01*
X6739Y12874D01*
X6748Y12853D01*
X6760Y12833D01*
X6775Y12815D01*
X6793Y12800D01*
X6813Y12788D01*
X6816Y12787D01*
X6819Y12733D01*
X6813Y12730D01*
X6782Y12711D01*
X6752Y12689D01*
X6725Y12665D01*
X6701Y12638D01*
X6679Y12608D01*
X6660Y12577D01*
X6644Y12543D01*
X6632Y12509D01*
X6623Y12473D01*
X6617Y12437D01*
X6616Y12400D01*
X6617Y12363D01*
X6623Y12327D01*
X6632Y12291D01*
X6644Y12257D01*
X6660Y12223D01*
X6679Y12192D01*
X6701Y12162D01*
X6725Y12135D01*
X6752Y12111D01*
X6782Y12089D01*
X6813Y12070D01*
X6847Y12054D01*
X6881Y12042D01*
X6917Y12033D01*
X6953Y12027D01*
X6990Y12026D01*
X7027Y12027D01*
X7063Y12033D01*
X7099Y12042D01*
X7133Y12054D01*
X7167Y12070D01*
X7198Y12089D01*
X7228Y12111D01*
X7255Y12135D01*
X7279Y12162D01*
X7301Y12192D01*
X7320Y12223D01*
X7336Y12257D01*
X7348Y12291D01*
X7357Y12327D01*
X7363Y12363D01*
X7364Y12400D01*
X7364Y12403D01*
X7413Y12424D01*
X7817Y12021D01*
X7832Y12008D01*
X7849Y11997D01*
X7863Y11992D01*
X7865Y11988D01*
X7874Y11978D01*
Y11342D01*
X7874Y11338D01*
Y11304D01*
X7873Y11299D01*
X7874Y11295D01*
Y11260D01*
X7875Y11245D01*
X7880Y11230D01*
X7910Y11157D01*
X7917Y11144D01*
X7927Y11132D01*
X7951Y11107D01*
X7954Y11104D01*
X7958Y11101D01*
X7982Y11076D01*
X7994Y11067D01*
X8008Y11059D01*
X8080Y11029D01*
X8095Y11025D01*
X8110Y11023D01*
X8150Y11023D01*
Y11023D01*
X9290D01*
Y10798D01*
X9931D01*
Y10698D01*
X9290D01*
Y10458D01*
X8838D01*
X8837Y10470D01*
X8832Y10506D01*
X8823Y10542D01*
X8811Y10576D01*
X8795Y10610D01*
X8776Y10641D01*
X8754Y10671D01*
X8729Y10698D01*
X8702Y10723D01*
X8673Y10744D01*
X8641Y10763D01*
X8608Y10779D01*
X8573Y10791D01*
X8538Y10800D01*
X8501Y10806D01*
X8465Y10808D01*
X8428Y10806D01*
X8392Y10800D01*
X8356Y10791D01*
X8321Y10779D01*
X8288Y10763D01*
X8257Y10744D01*
X8227Y10723D01*
X8200Y10698D01*
X8175Y10671D01*
X8153Y10641D01*
X8134Y10610D01*
X8119Y10576D01*
X8106Y10542D01*
X8097Y10506D01*
X8092Y10470D01*
X8090Y10433D01*
X8092Y10396D01*
X8097Y10360D01*
X8106Y10324D01*
X8119Y10290D01*
X8134Y10257D01*
X8153Y10225D01*
X8175Y10196D01*
X8200Y10168D01*
X8227Y10144D01*
X8257Y10122D01*
X8288Y10103D01*
X8299Y10098D01*
X8313Y10041D01*
X8151Y9880D01*
X7366D01*
X6287Y10959D01*
X6306Y11005D01*
X6385D01*
Y11350D01*
X5990D01*
X5595D01*
Y11135D01*
X5385D01*
Y11350D01*
X4990D01*
X4595D01*
Y11135D01*
X3964D01*
Y11774D01*
X3469D01*
X3325Y11919D01*
Y12069D01*
X3375Y12094D01*
X3382Y12089D01*
X3413Y12070D01*
X3447Y12054D01*
X3481Y12042D01*
X3517Y12033D01*
X3553Y12027D01*
X3590Y12026D01*
X3627Y12027D01*
X3663Y12033D01*
X3699Y12042D01*
X3733Y12054D01*
X3767Y12070D01*
X3798Y12089D01*
X3828Y12111D01*
X3855Y12135D01*
X3879Y12162D01*
X3901Y12192D01*
X3920Y12223D01*
X3936Y12257D01*
X3948Y12291D01*
X3957Y12327D01*
X3963Y12363D01*
X3964Y12400D01*
X3963Y12437D01*
X3957Y12473D01*
X3948Y12509D01*
X3938Y12536D01*
X3941Y12550D01*
X3943Y12574D01*
X3943Y12574D01*
Y13214D01*
X3993Y13225D01*
X4000Y13209D01*
X4019Y13178D01*
X4041Y13148D01*
X4066Y13121D01*
X4093Y13096D01*
X4123Y13074D01*
X4154Y13056D01*
X4187Y13040D01*
X4222Y13027D01*
X4258Y13019D01*
X4294Y13013D01*
X4331Y13011D01*
X4367Y13013D01*
X4404Y13019D01*
X4439Y13027D01*
X4474Y13040D01*
X4507Y13056D01*
X4539Y13074D01*
X4568Y13096D01*
X4595Y13121D01*
X4620Y13148D01*
X4642Y13178D01*
X4661Y13209D01*
X4677Y13243D01*
X4689Y13277D01*
X4698Y13313D01*
X4703Y13349D01*
X4705Y13386D01*
X4703Y13423D01*
X4698Y13459D01*
X4689Y13495D01*
X4677Y13529D01*
X4661Y13562D01*
X4642Y13594D01*
X4620Y13623D01*
X4595Y13651D01*
X4568Y13675D01*
X4539Y13697D01*
X4507Y13716D01*
X4474Y13732D01*
X4439Y13744D01*
X4404Y13753D01*
X4367Y13758D01*
X4331Y13760D01*
X4294Y13758D01*
X4258Y13753D01*
X4222Y13744D01*
X4187Y13732D01*
X4154Y13716D01*
X4123Y13697D01*
X4093Y13675D01*
X4066Y13651D01*
X4041Y13623D01*
X4019Y13594D01*
X4000Y13562D01*
X3993Y13546D01*
X3943Y13557D01*
Y13600D01*
X3941Y13623D01*
X3937Y13646D01*
X3929Y13669D01*
X3919Y13690D01*
X3906Y13709D01*
X3890Y13727D01*
X3873Y13742D01*
X3856Y13753D01*
X3839Y13777D01*
X3822Y13796D01*
X3813Y13815D01*
X3832Y13847D01*
X3888Y13857D01*
X3890Y13855D01*
D02*
G37*
G36*
X3019Y11718D02*
X3216Y11521D01*
Y11135D01*
X2964D01*
Y11706D01*
X2968Y11709D01*
X3014Y11723D01*
X3019Y11718D01*
D02*
G37*
G36*
X2216Y11521D02*
Y11038D01*
X2059Y10881D01*
X2046Y10879D01*
X2005Y10890D01*
X2001Y10893D01*
X1994Y10904D01*
X1984Y10916D01*
X1973Y10927D01*
Y11695D01*
X2008Y11713D01*
X2023Y11714D01*
X2216Y11521D01*
D02*
G37*
G36*
X18996Y10827D02*
X17618D01*
Y11220D01*
X18996D01*
Y10827D01*
D02*
G37*
G36*
Y10236D02*
X17618D01*
Y10630D01*
X18996D01*
Y10236D01*
D02*
G37*
G36*
X6222Y10313D02*
X6203Y10266D01*
X6161D01*
X6145Y10265D01*
X6129Y10261D01*
X6114Y10255D01*
X6100Y10247D01*
X6088Y10236D01*
X6026Y10175D01*
X5871D01*
X5857Y10184D01*
X5828Y10225D01*
X5828Y10227D01*
X5826Y10250D01*
X5821Y10273D01*
X5812Y10294D01*
X5800Y10314D01*
X5785Y10332D01*
X5767Y10347D01*
X5747Y10359D01*
X5726Y10368D01*
X5703Y10373D01*
X5680Y10375D01*
X5657Y10373D01*
X5649Y10371D01*
X5642Y10387D01*
X5630Y10407D01*
X5615Y10425D01*
X5597Y10440D01*
X5577Y10452D01*
X5556Y10461D01*
X5533Y10466D01*
X5510Y10468D01*
X5509Y10468D01*
X5391Y10586D01*
X5410Y10632D01*
X5902D01*
X6222Y10313D01*
D02*
G37*
G36*
X3049Y9781D02*
X3073Y9747D01*
Y9637D01*
X2908D01*
Y9696D01*
X2995Y9784D01*
X3049Y9781D01*
D02*
G37*
G36*
X6572Y9823D02*
X6932Y9463D01*
X6906Y9419D01*
X6892Y9423D01*
X6862Y9428D01*
X6831Y9430D01*
X6800Y9428D01*
X6769Y9423D01*
X6740Y9414D01*
X6711Y9402D01*
X6684Y9387D01*
X6659Y9369D01*
X6636Y9349D01*
X6615Y9326D01*
X6602Y9307D01*
X6589Y9299D01*
X6538Y9292D01*
X6537Y9292D01*
X6516Y9301D01*
X6493Y9306D01*
X6470Y9308D01*
X6469Y9308D01*
X6355Y9422D01*
X6373Y9474D01*
X6396Y9479D01*
X6417Y9488D01*
X6437Y9500D01*
X6455Y9515D01*
X6470Y9533D01*
X6482Y9553D01*
X6491Y9574D01*
X6496Y9597D01*
X6498Y9620D01*
X6496Y9643D01*
X6491Y9666D01*
X6482Y9687D01*
X6470Y9707D01*
X6455Y9725D01*
X6442Y9736D01*
X6443Y9757D01*
X6453Y9789D01*
X6456Y9789D01*
X6477Y9798D01*
X6497Y9810D01*
X6515Y9825D01*
X6572Y9823D01*
D02*
G37*
G36*
X5016Y9630D02*
X4997Y9584D01*
X4925D01*
X4908Y9583D01*
X4893Y9579D01*
X4877Y9573D01*
X4864Y9564D01*
X4851Y9554D01*
X4636Y9339D01*
X4626Y9327D01*
X4617Y9313D01*
X4611Y9298D01*
X4607Y9282D01*
X4606Y9266D01*
Y9065D01*
X4508Y8967D01*
X4302D01*
X4296Y8971D01*
X4275Y8980D01*
X4254Y8985D01*
X4232Y8987D01*
X4126D01*
Y9239D01*
X4131Y9261D01*
X4132Y9284D01*
X4131Y9308D01*
X4126Y9329D01*
Y9489D01*
X4001D01*
X3905Y9585D01*
X3888Y9600D01*
X3868Y9613D01*
X3848Y9623D01*
X3826Y9631D01*
X3803Y9635D01*
X3782Y9637D01*
Y9735D01*
X3800Y9752D01*
X3823Y9754D01*
X3846Y9759D01*
X3867Y9768D01*
X3887Y9780D01*
X3905Y9795D01*
X3920Y9813D01*
X3932Y9833D01*
X3937Y9845D01*
X4802D01*
X5016Y9630D01*
D02*
G37*
G36*
X4889Y8893D02*
X4919Y8884D01*
X4949Y8879D01*
X4957Y8879D01*
X4971Y8836D01*
X4971Y8828D01*
X4955Y8815D01*
X4940Y8797D01*
X4928Y8777D01*
X4919Y8756D01*
X4914Y8733D01*
X4912Y8710D01*
X4911Y8709D01*
X4774D01*
Y8801D01*
X4873Y8900D01*
X4889Y8893D01*
D02*
G37*
G36*
X2995Y9037D02*
X3052D01*
Y8734D01*
X3049Y8734D01*
X3019Y8725D01*
X2990Y8713D01*
X2978Y8707D01*
X2698Y8987D01*
X2718Y9037D01*
X2895D01*
Y9190D01*
X2995D01*
Y9037D01*
D02*
G37*
G36*
X3666Y8362D02*
X3544D01*
X3514Y8393D01*
Y8464D01*
X3515Y8465D01*
X3530Y8483D01*
X3542Y8503D01*
X3551Y8524D01*
X3556Y8547D01*
X3558Y8570D01*
X3556Y8593D01*
X3551Y8616D01*
X3542Y8637D01*
X3540Y8640D01*
X3560Y8684D01*
X3567Y8690D01*
X3666D01*
Y8362D01*
D02*
G37*
G36*
X2839Y8516D02*
X2836Y8495D01*
X2834Y8465D01*
X2836Y8434D01*
X2841Y8403D01*
X2850Y8373D01*
X2862Y8345D01*
X2877Y8318D01*
X2894Y8292D01*
X2915Y8269D01*
X2938Y8249D01*
X2963Y8231D01*
X2990Y8216D01*
X3007Y8209D01*
Y7990D01*
X3008Y7974D01*
X3012Y7958D01*
X3018Y7943D01*
X3026Y7929D01*
X3037Y7916D01*
X3149Y7804D01*
X3147Y7789D01*
X3127Y7755D01*
X3110Y7756D01*
X3079Y7755D01*
X3049Y7749D01*
X3019Y7741D01*
X2990Y7729D01*
X2963Y7714D01*
X2938Y7696D01*
X2915Y7675D01*
X2894Y7652D01*
X2877Y7627D01*
X2862Y7600D01*
X2855Y7584D01*
X2781D01*
Y8503D01*
X2790Y8512D01*
X2831Y8525D01*
X2839Y8516D01*
D02*
G37*
G36*
X1433Y8333D02*
Y7556D01*
X1396Y7536D01*
X1383Y7533D01*
X1362Y7548D01*
X1336Y7563D01*
X1308Y7574D01*
X1280Y7582D01*
X1250Y7587D01*
X1220Y7589D01*
X1191Y7587D01*
X1161Y7582D01*
X1133Y7574D01*
X1105Y7563D01*
X1079Y7548D01*
X1059Y7534D01*
X1042Y7538D01*
X1009Y7557D01*
Y7974D01*
X1387Y8352D01*
X1433Y8333D01*
D02*
G37*
G36*
X1396Y7110D02*
X1433Y7089D01*
Y6375D01*
X1396Y6355D01*
X1383Y6352D01*
X1362Y6367D01*
X1336Y6382D01*
X1308Y6393D01*
X1280Y6401D01*
X1250Y6406D01*
X1220Y6408D01*
X1191Y6406D01*
X1161Y6401D01*
X1133Y6393D01*
X1105Y6382D01*
X1079Y6367D01*
X1059Y6353D01*
X1042Y6357D01*
X1009Y6376D01*
Y7088D01*
X1042Y7108D01*
X1059Y7111D01*
X1079Y7097D01*
X1105Y7083D01*
X1133Y7072D01*
X1161Y7063D01*
X1191Y7058D01*
X1220Y7057D01*
X1250Y7058D01*
X1280Y7063D01*
X1308Y7072D01*
X1336Y7083D01*
X1362Y7097D01*
X1383Y7112D01*
X1396Y7110D01*
D02*
G37*
G36*
X2475Y8638D02*
Y8013D01*
X2294D01*
Y7717D01*
Y7420D01*
X2475D01*
Y7008D01*
X2294D01*
X2263Y7042D01*
X2257Y7058D01*
X2258Y7073D01*
X2256Y7096D01*
X2251Y7119D01*
X2242Y7140D01*
X2230Y7160D01*
X2215Y7178D01*
X2197Y7193D01*
X2177Y7205D01*
X2156Y7214D01*
X2133Y7219D01*
X2110Y7221D01*
X2087Y7219D01*
X2084Y7219D01*
X2042Y7244D01*
X2034Y7256D01*
Y7420D01*
X2194D01*
Y7717D01*
Y8013D01*
X2034D01*
Y8156D01*
X2326Y8448D01*
X2337Y8461D01*
X2345Y8475D01*
X2351Y8490D01*
X2355Y8505D01*
X2356Y8522D01*
Y8659D01*
X2355Y8675D01*
X2355Y8676D01*
Y8693D01*
X2401Y8712D01*
X2475Y8638D01*
D02*
G37*
G36*
X2862Y7361D02*
X2877Y7333D01*
X2894Y7308D01*
X2915Y7285D01*
X2938Y7265D01*
X2963Y7247D01*
X2990Y7232D01*
X3013Y7222D01*
Y7028D01*
X2966D01*
Y6875D01*
X2866D01*
Y7028D01*
X2781D01*
Y7377D01*
X2855D01*
X2862Y7361D01*
D02*
G37*
G36*
X3666Y7509D02*
Y7115D01*
Y6722D01*
X3687D01*
Y6646D01*
X3666D01*
Y6620D01*
X3620Y6601D01*
X3535Y6685D01*
X3506Y6723D01*
X3506Y6731D01*
X3528Y6781D01*
X3528D01*
Y6978D01*
X3270D01*
Y7078D01*
X3528D01*
Y7276D01*
X3364D01*
X3360Y7279D01*
X3339Y7326D01*
X3344Y7333D01*
X3359Y7361D01*
X3371Y7389D01*
X3379Y7419D01*
X3385Y7449D01*
X3386Y7480D01*
X3385Y7511D01*
X3379Y7542D01*
X3371Y7571D01*
X3359Y7600D01*
X3344Y7627D01*
X3332Y7644D01*
X3341Y7673D01*
X3356Y7694D01*
X3479D01*
X3495Y7695D01*
X3511Y7699D01*
X3526Y7705D01*
X3540Y7713D01*
X3552Y7724D01*
X3590Y7761D01*
X3666D01*
Y7509D01*
D02*
G37*
G36*
X3028Y6456D02*
X3034Y6454D01*
Y6290D01*
X3034D01*
Y5923D01*
X3026Y5920D01*
X2976Y5952D01*
Y6004D01*
X2779D01*
Y5796D01*
X2817D01*
X2819Y5746D01*
X2817Y5746D01*
X2794Y5741D01*
X2773Y5732D01*
X2753Y5720D01*
X2735Y5705D01*
X2720Y5687D01*
X2708Y5667D01*
X2699Y5646D01*
X2694Y5623D01*
X2692Y5600D01*
X2694Y5577D01*
X2699Y5554D01*
X2708Y5533D01*
X2720Y5513D01*
X2735Y5495D01*
X2753Y5480D01*
X2773Y5468D01*
X2794Y5459D01*
X2817Y5454D01*
X2840Y5452D01*
X2841Y5452D01*
X2887Y5407D01*
X2899Y5396D01*
X2913Y5388D01*
X2928Y5381D01*
X2944Y5378D01*
X2960Y5376D01*
X3666D01*
Y5203D01*
X3662Y5201D01*
X3648Y5193D01*
X3636Y5182D01*
X3469Y5016D01*
X2857D01*
X2852Y5027D01*
X2840Y5047D01*
X2825Y5065D01*
X2807Y5080D01*
X2787Y5092D01*
X2766Y5101D01*
X2743Y5106D01*
X2720Y5108D01*
X2697Y5106D01*
X2674Y5101D01*
X2653Y5092D01*
X2633Y5080D01*
X2615Y5065D01*
X2606Y5054D01*
X2588Y5047D01*
X2546Y5045D01*
X2542Y5047D01*
X2163Y5426D01*
X2182Y5472D01*
X2559D01*
Y5796D01*
X2679D01*
Y6054D01*
X2729D01*
Y6104D01*
X2976D01*
Y6311D01*
X2976D01*
X2958Y6354D01*
X2955Y6361D01*
X2962Y6373D01*
X2971Y6394D01*
X2976Y6417D01*
X2977Y6421D01*
X3012Y6451D01*
X3026Y6456D01*
X3028Y6456D01*
D02*
G37*
G36*
X3605Y5978D02*
X3624Y5971D01*
X3644Y5966D01*
X3664Y5964D01*
X3666D01*
Y5737D01*
X3666Y5737D01*
X3666D01*
X3666Y5737D01*
X3648Y5695D01*
X3637Y5684D01*
X3462D01*
X3452Y5689D01*
X3418Y5730D01*
X3416Y5753D01*
X3413Y5768D01*
X3425Y5792D01*
X3447Y5818D01*
X3487D01*
Y5984D01*
X3596D01*
X3605Y5978D01*
D02*
G37*
G36*
X1167Y4835D02*
X1182Y4824D01*
X1184Y4807D01*
X1189Y4784D01*
X1198Y4763D01*
X1210Y4743D01*
X1225Y4725D01*
X1226Y4724D01*
Y4576D01*
X1228Y4559D01*
X1231Y4543D01*
X1238Y4528D01*
X1246Y4515D01*
X1248Y4513D01*
X1245Y4507D01*
X1229Y4474D01*
X1216Y4439D01*
X1208Y4404D01*
X1202Y4367D01*
X1200Y4331D01*
X1202Y4294D01*
X1208Y4258D01*
X1216Y4222D01*
X1229Y4187D01*
X1245Y4154D01*
X1263Y4123D01*
X1285Y4093D01*
X1310Y4066D01*
X1337Y4041D01*
X1367Y4019D01*
X1398Y4000D01*
X1432Y3985D01*
X1466Y3972D01*
X1468Y3972D01*
X1477Y3950D01*
X1479Y3918D01*
X1470Y3910D01*
X1455Y3892D01*
X1443Y3872D01*
X1434Y3851D01*
X1429Y3828D01*
X1427Y3805D01*
X1429Y3782D01*
X1434Y3759D01*
X1439Y3748D01*
X1435Y3721D01*
X1420Y3688D01*
X1417Y3686D01*
X1398Y3677D01*
X1367Y3658D01*
X1337Y3636D01*
X1310Y3611D01*
X1286Y3585D01*
X1283Y3585D01*
X1235Y3600D01*
X1235Y3606D01*
X1229Y3640D01*
X1220Y3672D01*
X1207Y3703D01*
X1191Y3732D01*
X1171Y3760D01*
X1149Y3785D01*
X1124Y3807D01*
X1096Y3827D01*
X1067Y3843D01*
X1036Y3856D01*
X1004Y3865D01*
X971Y3871D01*
X937Y3873D01*
X903Y3871D01*
X870Y3865D01*
X838Y3856D01*
X807Y3843D01*
X778Y3827D01*
X763Y3816D01*
X724Y3831D01*
X713Y3841D01*
Y4805D01*
X724Y4815D01*
X763Y4829D01*
X778Y4819D01*
X807Y4803D01*
X838Y4790D01*
X870Y4781D01*
X903Y4775D01*
X937Y4773D01*
X971Y4775D01*
X1004Y4781D01*
X1036Y4790D01*
X1067Y4803D01*
X1096Y4819D01*
X1124Y4839D01*
X1133Y4847D01*
X1167Y4835D01*
D02*
G37*
G36*
X8141Y4240D02*
X8143Y4223D01*
X8147Y4206D01*
X8153Y4191D01*
X8162Y4176D01*
X8173Y4163D01*
X8513Y3824D01*
X8492Y3774D01*
X8210D01*
X8194Y3772D01*
X8178Y3769D01*
X8163Y3762D01*
X8149Y3754D01*
X8137Y3743D01*
X8128Y3734D01*
X8112Y3736D01*
X8077Y3754D01*
X8076Y3763D01*
X8071Y3786D01*
X8062Y3807D01*
X8050Y3827D01*
X8043Y3835D01*
X8050Y3843D01*
X8062Y3863D01*
X8071Y3884D01*
X8076Y3907D01*
X8078Y3930D01*
X8076Y3953D01*
X8071Y3976D01*
X8062Y3997D01*
X8050Y4017D01*
X8035Y4035D01*
X8017Y4050D01*
X7997Y4062D01*
X7976Y4071D01*
X7953Y4076D01*
X7930Y4078D01*
X7907Y4076D01*
X7884Y4071D01*
X7876Y4067D01*
X7870Y4077D01*
X7855Y4095D01*
X7837Y4110D01*
X7817Y4122D01*
X7796Y4131D01*
X7773Y4136D01*
X7750Y4138D01*
X7727Y4136D01*
X7704Y4131D01*
X7683Y4122D01*
X7661Y4112D01*
X7626Y4144D01*
X7625Y4145D01*
X7607Y4160D01*
X7587Y4172D01*
X7566Y4181D01*
X7543Y4186D01*
X7520Y4188D01*
X7497Y4186D01*
X7474Y4181D01*
X7453Y4172D01*
X7433Y4160D01*
X7415Y4145D01*
X7415D01*
X7397Y4160D01*
X7377Y4172D01*
X7356Y4181D01*
X7333Y4186D01*
X7310Y4188D01*
X7287Y4186D01*
X7264Y4181D01*
X7243Y4172D01*
X7223Y4160D01*
X7205Y4145D01*
X7190Y4127D01*
X7178Y4107D01*
X7169Y4086D01*
X7164Y4063D01*
X7162Y4040D01*
X7164Y4017D01*
X7169Y3994D01*
X7178Y3973D01*
X7190Y3953D01*
X7205Y3935D01*
X7223Y3920D01*
X7243Y3908D01*
X7264Y3899D01*
X7287Y3894D01*
X7310Y3892D01*
X7333Y3894D01*
X7356Y3899D01*
X7377Y3908D01*
X7386Y3914D01*
X7417Y3874D01*
X7363Y3819D01*
X7352Y3807D01*
X7344Y3793D01*
X7337Y3778D01*
X7334Y3762D01*
X7332Y3746D01*
Y3727D01*
X7144D01*
Y3677D01*
X7135Y3663D01*
X7094Y3639D01*
X7089Y3640D01*
X7066Y3642D01*
X7042Y3640D01*
X7042Y3640D01*
X6998Y3667D01*
X6992Y3677D01*
Y3760D01*
X6995Y3763D01*
X7016Y3786D01*
X7034Y3811D01*
X7049Y3838D01*
X7061Y3867D01*
X7069Y3897D01*
X7074Y3927D01*
X7076Y3958D01*
X7074Y3989D01*
X7069Y4019D01*
X7061Y4049D01*
X7049Y4078D01*
X7034Y4105D01*
X7031Y4109D01*
X7020Y4127D01*
X7005Y4145D01*
X6997Y4152D01*
X6995Y4153D01*
X6972Y4174D01*
X6947Y4192D01*
X6920Y4207D01*
X6891Y4219D01*
X6907Y4265D01*
X7031D01*
Y4286D01*
X7698D01*
Y4265D01*
X8016D01*
Y4286D01*
X8141D01*
Y4240D01*
D02*
G37*
G36*
X5852Y4219D02*
X5829Y4196D01*
X5818Y4183D01*
X5810Y4169D01*
X5804Y4154D01*
X5800Y4138D01*
X5799Y4129D01*
X5728D01*
Y3970D01*
X5628D01*
Y4144D01*
X5615Y4175D01*
X5687Y4247D01*
X5729Y4265D01*
X5729Y4265D01*
Y4265D01*
X5729Y4265D01*
X5833D01*
X5852Y4219D01*
D02*
G37*
G36*
X8519Y4261D02*
X8521Y4238D01*
X8526Y4216D01*
X8535Y4194D01*
X8547Y4174D01*
X8563Y4157D01*
X8580Y4141D01*
X8600Y4129D01*
X8621Y4120D01*
X8644Y4115D01*
X8667Y4113D01*
X8708Y4072D01*
Y4007D01*
X8658Y3987D01*
X8426Y4219D01*
X8445Y4265D01*
X8516D01*
X8519Y4261D01*
D02*
G37*
G36*
X3619Y4604D02*
X3637Y4592D01*
X3657Y4584D01*
X3666Y4582D01*
Y4265D01*
X3625Y4243D01*
X3585D01*
Y3903D01*
X3467D01*
X3462Y3902D01*
X3457Y3903D01*
X3133D01*
X2905Y4131D01*
X2902Y4137D01*
X2890Y4157D01*
X2875Y4175D01*
X2857Y4190D01*
X2837Y4202D01*
X2816Y4211D01*
X2793Y4216D01*
X2770Y4218D01*
X2747Y4216D01*
X2724Y4211D01*
X2703Y4202D01*
X2683Y4190D01*
X2665Y4175D01*
X2650Y4157D01*
X2638Y4137D01*
X2629Y4116D01*
X2624Y4093D01*
X2622Y4070D01*
X2624Y4047D01*
X2629Y4024D01*
X2638Y4003D01*
X2650Y3983D01*
X2665Y3965D01*
X2683Y3950D01*
X2703Y3938D01*
X2709Y3935D01*
X2899Y3746D01*
X2871Y3702D01*
X2865Y3705D01*
X2829Y3714D01*
X2793Y3719D01*
X2756Y3721D01*
X2719Y3719D01*
X2683Y3714D01*
X2647Y3705D01*
X2613Y3692D01*
X2579Y3677D01*
X2548Y3658D01*
X2518Y3636D01*
X2514Y3632D01*
X2464Y3654D01*
Y4612D01*
X3609D01*
X3619Y4604D01*
D02*
G37*
G36*
X5351Y3781D02*
X5368Y3764D01*
X5377Y3756D01*
Y3654D01*
X5625D01*
Y3554D01*
X5377D01*
Y3347D01*
Y3194D01*
X5625D01*
Y3094D01*
X5377D01*
Y2942D01*
X5377D01*
Y2734D01*
X5625D01*
Y2634D01*
X5377D01*
Y2427D01*
X5485D01*
Y2390D01*
X5638D01*
Y2340D01*
X5688D01*
Y2181D01*
X5791D01*
Y2202D01*
X5894D01*
Y2117D01*
X6246D01*
X6275Y2082D01*
X6257Y2039D01*
X5894D01*
Y1965D01*
X5883Y1964D01*
X5867Y1960D01*
X5861Y1958D01*
X5791D01*
Y1979D01*
X5688D01*
Y1820D01*
X5638D01*
Y1784D01*
X5630Y1782D01*
X5612Y1774D01*
X5605Y1770D01*
X5485D01*
Y1661D01*
X5541D01*
X5542Y1660D01*
X5543Y1640D01*
X5548Y1620D01*
X5556Y1602D01*
X5566Y1585D01*
X5579Y1569D01*
X5595Y1556D01*
X5609Y1547D01*
X5610Y1542D01*
X5589Y1497D01*
X5377D01*
Y1290D01*
X5624D01*
X5872D01*
Y1350D01*
X5914Y1391D01*
X5926Y1391D01*
X5929Y1387D01*
Y1004D01*
X6064D01*
X6135Y932D01*
X6138Y926D01*
X6150Y906D01*
X6165Y888D01*
X6183Y873D01*
X6203Y861D01*
X6211Y858D01*
X6201Y808D01*
X3150D01*
X3130Y806D01*
X3112Y800D01*
X3095Y791D01*
X3080Y779D01*
X3067Y764D01*
X3058Y747D01*
X3053Y728D01*
X3051Y709D01*
Y138D01*
X99D01*
Y3712D01*
X614D01*
X617Y3712D01*
X648Y3680D01*
X653Y3668D01*
X645Y3640D01*
X639Y3606D01*
X637Y3573D01*
X639Y3539D01*
X645Y3506D01*
X654Y3474D01*
X667Y3443D01*
X683Y3413D01*
X703Y3386D01*
X725Y3361D01*
X750Y3339D01*
X778Y3319D01*
X807Y3303D01*
X838Y3290D01*
X870Y3281D01*
X903Y3275D01*
X937Y3273D01*
X971Y3275D01*
X1004Y3281D01*
X1036Y3290D01*
X1067Y3303D01*
X1096Y3319D01*
X1124Y3339D01*
X1149Y3361D01*
X1151Y3363D01*
X1194Y3349D01*
X1200Y3344D01*
X1202Y3310D01*
X1208Y3273D01*
X1216Y3238D01*
X1229Y3203D01*
X1245Y3170D01*
X1263Y3138D01*
X1285Y3109D01*
X1310Y3082D01*
X1337Y3057D01*
X1367Y3035D01*
X1398Y3016D01*
X1432Y3000D01*
X1466Y2988D01*
X1502Y2979D01*
X1538Y2974D01*
X1575Y2972D01*
X1611Y2974D01*
X1648Y2979D01*
X1683Y2988D01*
X1718Y3000D01*
X1751Y3016D01*
X1783Y3035D01*
X1812Y3057D01*
X1813Y3057D01*
X1863Y3035D01*
Y3027D01*
X1864Y3011D01*
X1868Y2995D01*
X1874Y2980D01*
X1882Y2966D01*
X1893Y2954D01*
X2340Y2507D01*
X2352Y2496D01*
X2366Y2488D01*
X2381Y2481D01*
X2397Y2478D01*
X2413Y2476D01*
X2538D01*
X2563Y2426D01*
X2559Y2421D01*
X2541Y2392D01*
X2527Y2360D01*
X2515Y2327D01*
X2506Y2294D01*
X2501Y2259D01*
X2500Y2224D01*
X2501Y2190D01*
X2506Y2155D01*
X2515Y2121D01*
X2527Y2089D01*
X2541Y2057D01*
X2559Y2027D01*
X2580Y1999D01*
X2603Y1974D01*
X2629Y1950D01*
X2657Y1929D01*
X2687Y1912D01*
X2719Y1897D01*
X2751Y1885D01*
X2785Y1876D01*
X2820Y1871D01*
X2854Y1870D01*
X2889Y1871D01*
X2924Y1876D01*
X2957Y1885D01*
X2990Y1897D01*
X3022Y1912D01*
X3051Y1929D01*
X3079Y1950D01*
X3105Y1974D01*
X3129Y1999D01*
X3149Y2027D01*
X3167Y2057D01*
X3182Y2089D01*
X3194Y2121D01*
X3202Y2155D01*
X3207Y2190D01*
X3209Y2224D01*
X3207Y2259D01*
X3202Y2294D01*
X3194Y2327D01*
X3182Y2360D01*
X3167Y2392D01*
X3149Y2421D01*
X3146Y2426D01*
X3171Y2476D01*
X3325D01*
X3350Y2426D01*
X3347Y2421D01*
X3329Y2392D01*
X3314Y2360D01*
X3302Y2327D01*
X3294Y2294D01*
X3289Y2259D01*
X3287Y2224D01*
X3289Y2190D01*
X3294Y2155D01*
X3302Y2121D01*
X3314Y2089D01*
X3329Y2057D01*
X3347Y2027D01*
X3368Y1999D01*
X3391Y1974D01*
X3417Y1950D01*
X3445Y1929D01*
X3474Y1912D01*
X3506Y1897D01*
X3539Y1885D01*
X3573Y1876D01*
X3607Y1871D01*
X3642Y1870D01*
X3677Y1871D01*
X3711Y1876D01*
X3745Y1885D01*
X3777Y1897D01*
X3809Y1912D01*
X3839Y1929D01*
X3867Y1950D01*
X3893Y1974D01*
X3916Y1999D01*
X3937Y2027D01*
X3955Y2057D01*
X3969Y2089D01*
X3981Y2121D01*
X3990Y2155D01*
X3995Y2190D01*
X3996Y2224D01*
X3995Y2259D01*
X3990Y2294D01*
X3981Y2327D01*
X3969Y2360D01*
X3955Y2392D01*
X3937Y2421D01*
X3933Y2426D01*
X3958Y2476D01*
X4075D01*
Y1870D01*
X4783D01*
Y2579D01*
X4621D01*
X4602Y2625D01*
X5087Y3111D01*
X5098Y3123D01*
X5106Y3137D01*
X5113Y3152D01*
X5117Y3168D01*
X5118Y3184D01*
Y3694D01*
X5141Y3718D01*
X5168Y3733D01*
X5180Y3732D01*
X5203Y3734D01*
X5226Y3739D01*
X5247Y3748D01*
X5267Y3760D01*
X5285Y3775D01*
X5285Y3776D01*
X5337Y3784D01*
X5351Y3781D01*
D02*
G37*
G36*
X4367Y4187D02*
X4379Y4176D01*
X4393Y4168D01*
X4408Y4161D01*
X4424Y4158D01*
X4440Y4156D01*
X4459D01*
X4517Y4098D01*
Y3390D01*
X4361Y3235D01*
X4315Y3254D01*
Y3307D01*
X3939D01*
Y3407D01*
X4315D01*
Y3674D01*
X4294D01*
Y4189D01*
X4344Y4210D01*
X4367Y4187D01*
D02*
G37*
G36*
X3507Y3387D02*
X3564D01*
Y3077D01*
X3355D01*
X3335Y3111D01*
X3331Y3127D01*
X3340Y3143D01*
X3349Y3164D01*
X3354Y3187D01*
X3356Y3210D01*
X3354Y3233D01*
X3349Y3256D01*
X3340Y3277D01*
X3328Y3297D01*
X3313Y3315D01*
X3295Y3330D01*
X3283Y3337D01*
X3285Y3363D01*
X3296Y3387D01*
X3407D01*
Y3540D01*
X3507D01*
Y3387D01*
D02*
G37*
G36*
X8963Y2242D02*
X8979Y2238D01*
X8995Y2231D01*
X9009Y2222D01*
X9022Y2212D01*
X9033Y2199D01*
X9033Y2199D01*
Y2118D01*
X8916D01*
Y2028D01*
X9033D01*
Y2015D01*
X9065D01*
Y1928D01*
X8916D01*
Y1871D01*
X9065D01*
Y1771D01*
X8916D01*
Y1714D01*
X8898D01*
Y1605D01*
X9051D01*
Y1505D01*
X8898D01*
Y1396D01*
X9071D01*
X9086Y1380D01*
X9068Y1345D01*
X9020D01*
Y1192D01*
X8970D01*
Y1142D01*
X8811D01*
Y1070D01*
X8811Y1070D01*
X8795Y1066D01*
X8780Y1060D01*
X8766Y1052D01*
X8754Y1041D01*
X8735Y1022D01*
X8612D01*
X8606Y1036D01*
X8598Y1050D01*
X8587Y1062D01*
X8489Y1160D01*
X8487Y1217D01*
X8502Y1235D01*
X8514Y1255D01*
X8523Y1276D01*
X8528Y1299D01*
X8529Y1307D01*
X8680D01*
Y1416D01*
X8527D01*
Y1516D01*
X8680D01*
Y1625D01*
X8537D01*
X8522Y1642D01*
X8520Y1662D01*
X8516Y1681D01*
X8508Y1700D01*
X8503Y1707D01*
X8514Y1738D01*
X8529Y1757D01*
X8545D01*
Y1861D01*
X8386D01*
Y1961D01*
X8545D01*
Y2064D01*
X8524D01*
Y2215D01*
X8579D01*
Y2213D01*
X8847D01*
Y2243D01*
X8946D01*
X8947Y2243D01*
X8963Y2242D01*
D02*
G37*
G36*
X8248Y2064D02*
X8227D01*
Y2055D01*
X8224Y2053D01*
X8177Y2039D01*
X8174Y2042D01*
X8159Y2055D01*
X8142Y2066D01*
X8123Y2074D01*
X8104Y2078D01*
X8083Y2080D01*
X8063Y2078D01*
X8044Y2074D01*
X8025Y2066D01*
X8022Y2064D01*
X8022Y2065D01*
Y2053D01*
X7858D01*
X7803Y2107D01*
Y2215D01*
X7964Y2215D01*
X7966Y2213D01*
X8193D01*
Y2215D01*
X8248D01*
Y2064D01*
D02*
G37*
G36*
X18996Y1575D02*
X17618D01*
Y1969D01*
X18996D01*
Y1575D01*
D02*
G37*
G36*
X5888Y1634D02*
Y1632D01*
X6041D01*
Y1532D01*
X5885D01*
X5872Y1497D01*
X5838Y1497D01*
X5751D01*
X5730Y1542D01*
X5731Y1547D01*
X5745Y1556D01*
X5761Y1569D01*
X5774Y1585D01*
X5782Y1598D01*
X5838Y1654D01*
X5888Y1634D01*
D02*
G37*
G36*
X7643Y1479D02*
X7649Y1464D01*
X7657Y1450D01*
X7668Y1437D01*
X7731Y1374D01*
X7719Y1320D01*
X7693Y1307D01*
X7666D01*
X7631Y1342D01*
X7624Y1360D01*
X7613Y1377D01*
X7600Y1392D01*
X7585Y1405D01*
X7568Y1416D01*
X7562Y1418D01*
X7552Y1440D01*
X7563Y1462D01*
X7586Y1485D01*
X7598Y1484D01*
X7622Y1485D01*
X7640Y1490D01*
X7643Y1479D01*
D02*
G37*
G36*
X18996Y984D02*
X17618D01*
Y1378D01*
X18996D01*
Y984D01*
D02*
G37*
G36*
X6929Y1342D02*
X6947Y1337D01*
X6966Y1336D01*
X7181D01*
X7228Y1328D01*
Y1219D01*
X7381D01*
Y1119D01*
X7228D01*
Y1049D01*
X7138D01*
Y792D01*
X7038D01*
Y1049D01*
X6912D01*
X6877Y1084D01*
X6877Y1174D01*
X6870Y1174D01*
Y1316D01*
X6896Y1336D01*
X6919Y1346D01*
X6929Y1342D01*
D02*
G37*
G36*
X15571Y591D02*
X18190D01*
Y197D01*
X15571Y197D01*
D01*
X15177D01*
Y984D01*
X15571D01*
Y591D01*
D02*
G37*
G36*
X9589Y1110D02*
X9782D01*
Y1088D01*
X9941D01*
Y1038D01*
X9991D01*
Y885D01*
X10075D01*
Y706D01*
Y206D01*
X10029Y175D01*
X10008Y178D01*
X9995Y193D01*
X9974Y212D01*
X9950Y227D01*
X9925Y240D01*
X9898Y249D01*
X9870Y255D01*
X9842Y256D01*
X9813Y255D01*
X9785Y249D01*
X9758Y240D01*
X9733Y227D01*
X9709Y212D01*
X9688Y193D01*
X9675Y178D01*
X9645Y174D01*
X9614Y178D01*
X9601Y193D01*
X9580Y212D01*
X9556Y227D01*
X9531Y240D01*
X9504Y249D01*
X9476Y255D01*
X9448Y256D01*
X9419Y255D01*
X9392Y249D01*
X9365Y240D01*
X9339Y227D01*
X9316Y212D01*
X9294Y193D01*
X9276Y171D01*
X9260Y148D01*
X9255Y138D01*
X8922D01*
Y274D01*
X8635D01*
Y374D01*
X8922D01*
Y591D01*
X8901D01*
Y836D01*
X9108D01*
Y840D01*
X9122Y885D01*
X9231D01*
Y1038D01*
X9281D01*
Y1088D01*
X9440D01*
Y1112D01*
X9589D01*
Y1110D01*
D02*
G37*
G36*
X7778Y509D02*
X7799D01*
Y138D01*
X6398D01*
Y224D01*
X7175D01*
Y283D01*
X7403D01*
X7422Y285D01*
X7426Y286D01*
X7440Y289D01*
X7450Y293D01*
X7457Y296D01*
X7473Y306D01*
X7487Y318D01*
X7689Y520D01*
X7696Y528D01*
X7702Y534D01*
X7711Y550D01*
X7713Y555D01*
X7778D01*
Y509D01*
D02*
G37*
%LPC*%
G36*
X5512Y19272D02*
X5475Y19270D01*
X5439Y19265D01*
X5403Y19256D01*
X5369Y19244D01*
X5335Y19228D01*
X5304Y19209D01*
X5274Y19187D01*
X5247Y19162D01*
X5222Y19135D01*
X5200Y19106D01*
X5182Y19074D01*
X5166Y19041D01*
X5153Y19006D01*
X5145Y18971D01*
X5139Y18934D01*
X5137Y18898D01*
X5139Y18861D01*
X5141Y18851D01*
X4838Y18548D01*
X4818Y18525D01*
X4801Y18500D01*
X4788Y18474D01*
X4779Y18445D01*
X4773Y18416D01*
X4771Y18386D01*
X4773Y18356D01*
X4779Y18326D01*
X4788Y18298D01*
X4801Y18271D01*
X4818Y18246D01*
X4838Y18224D01*
X4860Y18204D01*
X4885Y18187D01*
X4912Y18174D01*
X4941Y18164D01*
X4970Y18159D01*
X5000Y18157D01*
X5030Y18159D01*
X5059Y18164D01*
X5088Y18174D01*
X5115Y18187D01*
X5140Y18204D01*
X5162Y18224D01*
X5465Y18527D01*
X5475Y18525D01*
X5512Y18523D01*
X5549Y18525D01*
X5585Y18530D01*
X5621Y18539D01*
X5655Y18552D01*
X5688Y18567D01*
X5720Y18586D01*
X5749Y18608D01*
X5777Y18633D01*
X5801Y18660D01*
X5823Y18690D01*
X5842Y18721D01*
X5858Y18754D01*
X5870Y18789D01*
X5879Y18825D01*
X5884Y18861D01*
X5886Y18898D01*
X5884Y18934D01*
X5879Y18971D01*
X5870Y19006D01*
X5858Y19041D01*
X5842Y19074D01*
X5823Y19106D01*
X5801Y19135D01*
X5777Y19162D01*
X5749Y19187D01*
X5720Y19209D01*
X5688Y19228D01*
X5655Y19244D01*
X5621Y19256D01*
X5585Y19265D01*
X5549Y19270D01*
X5512Y19272D01*
D02*
G37*
G36*
X4331D02*
X4294Y19270D01*
X4258Y19265D01*
X4222Y19256D01*
X4187Y19244D01*
X4154Y19228D01*
X4123Y19209D01*
X4093Y19187D01*
X4066Y19162D01*
X4041Y19135D01*
X4019Y19106D01*
X4002Y19076D01*
X3727D01*
X3697Y19074D01*
X3668Y19068D01*
X3639Y19059D01*
X3612Y19046D01*
X3587Y19029D01*
X3565Y19009D01*
X2538Y17982D01*
X1368Y16812D01*
X1348Y16790D01*
X1331Y16765D01*
X1318Y16738D01*
X1309Y16709D01*
X1303Y16680D01*
X1301Y16650D01*
Y15970D01*
X1303Y15940D01*
X1309Y15911D01*
X1318Y15882D01*
X1331Y15855D01*
X1348Y15830D01*
X1368Y15808D01*
X1390Y15788D01*
X1415Y15771D01*
X1442Y15758D01*
X1471Y15749D01*
X1500Y15743D01*
X1530Y15741D01*
X1560Y15743D01*
X1589Y15749D01*
X1618Y15758D01*
X1645Y15771D01*
X1670Y15788D01*
X1692Y15808D01*
X1712Y15830D01*
X1729Y15855D01*
X1742Y15882D01*
X1751Y15911D01*
X1757Y15940D01*
X1759Y15970D01*
Y16555D01*
X2862Y17658D01*
X3822Y18618D01*
X4083D01*
X4093Y18608D01*
X4123Y18586D01*
X4154Y18567D01*
X4187Y18552D01*
X4222Y18539D01*
X4258Y18530D01*
X4294Y18525D01*
X4331Y18523D01*
X4367Y18525D01*
X4404Y18530D01*
X4439Y18539D01*
X4474Y18552D01*
X4507Y18567D01*
X4539Y18586D01*
X4568Y18608D01*
X4595Y18633D01*
X4620Y18660D01*
X4642Y18690D01*
X4661Y18721D01*
X4677Y18754D01*
X4689Y18789D01*
X4698Y18825D01*
X4703Y18861D01*
X4705Y18898D01*
X4703Y18934D01*
X4698Y18971D01*
X4689Y19006D01*
X4677Y19041D01*
X4661Y19074D01*
X4642Y19106D01*
X4620Y19135D01*
X4595Y19162D01*
X4568Y19187D01*
X4539Y19209D01*
X4507Y19228D01*
X4474Y19244D01*
X4439Y19256D01*
X4404Y19265D01*
X4367Y19270D01*
X4331Y19272D01*
D02*
G37*
G36*
X13336Y18848D02*
X12994D01*
X12998Y18820D01*
X13007Y18783D01*
X13020Y18746D01*
X13037Y18711D01*
X13057Y18678D01*
X13080Y18647D01*
X13106Y18618D01*
X13135Y18592D01*
X13166Y18569D01*
X13199Y18549D01*
X13234Y18532D01*
X13271Y18519D01*
X13309Y18509D01*
X13336Y18505D01*
Y18848D01*
D02*
G37*
G36*
X10531Y18418D02*
X10107D01*
Y18280D01*
X10531D01*
Y18418D01*
D02*
G37*
G36*
X10007D02*
X9583D01*
Y18280D01*
X10007D01*
Y18418D01*
D02*
G37*
G36*
X11200Y18359D02*
X11032D01*
Y18191D01*
X11200D01*
Y18359D01*
D02*
G37*
G36*
X10932D02*
X10764D01*
Y18191D01*
X10932D01*
Y18359D01*
D02*
G37*
G36*
X11928Y18280D02*
X11741D01*
Y18083D01*
X11928D01*
Y18280D01*
D02*
G37*
G36*
X11641D02*
X11453D01*
Y18083D01*
X11641D01*
Y18280D01*
D02*
G37*
G36*
X10531Y18180D02*
X10107D01*
Y18041D01*
X10531D01*
Y18180D01*
D02*
G37*
G36*
X10007D02*
X9583D01*
Y18041D01*
X10007D01*
Y18180D01*
D02*
G37*
G36*
X8818Y18180D02*
X8197D01*
Y18041D01*
X8818D01*
Y18180D01*
D02*
G37*
G36*
X8097D02*
X7477D01*
Y18041D01*
X8097D01*
Y18180D01*
D02*
G37*
G36*
X11200Y18091D02*
X11032D01*
Y17923D01*
X11200D01*
Y18091D01*
D02*
G37*
G36*
X10932D02*
X10764D01*
Y17923D01*
X10932D01*
Y18091D01*
D02*
G37*
G36*
X11928Y17983D02*
X11741D01*
Y17785D01*
X11928D01*
Y17983D01*
D02*
G37*
G36*
X11641D02*
X11453D01*
Y17785D01*
X11641D01*
Y17983D01*
D02*
G37*
G36*
X12802Y17662D02*
X12654D01*
Y17337D01*
X12802D01*
Y17662D01*
D02*
G37*
G36*
Y17237D02*
X12654D01*
Y16995D01*
X12640Y16963D01*
X12608Y16958D01*
X12582Y16965D01*
X12559Y16987D01*
Y17140D01*
X11279D01*
Y15200D01*
X12559D01*
Y16322D01*
X12636D01*
Y16869D01*
X12651Y16906D01*
X12654Y16911D01*
X12706Y16911D01*
X12802D01*
Y17237D01*
D02*
G37*
G36*
X974Y17213D02*
X944Y17211D01*
X913Y17206D01*
X883Y17198D01*
X855Y17186D01*
X828Y17171D01*
X802Y17153D01*
X779Y17132D01*
X759Y17109D01*
X741Y17084D01*
X726Y17057D01*
X714Y17028D01*
X705Y16998D01*
X700Y16968D01*
X698Y16937D01*
X700Y16906D01*
X705Y16876D01*
X714Y16846D01*
X726Y16817D01*
X741Y16790D01*
X759Y16765D01*
X779Y16742D01*
X802Y16721D01*
X828Y16703D01*
X855Y16688D01*
X883Y16676D01*
X913Y16668D01*
X944Y16663D01*
X974Y16661D01*
X1005Y16663D01*
X1036Y16668D01*
X1066Y16676D01*
X1094Y16688D01*
X1121Y16703D01*
X1147Y16721D01*
X1170Y16742D01*
X1190Y16765D01*
X1208Y16790D01*
X1223Y16817D01*
X1235Y16846D01*
X1244Y16876D01*
X1249Y16906D01*
X1250Y16937D01*
X1249Y16968D01*
X1244Y16998D01*
X1235Y17028D01*
X1223Y17057D01*
X1208Y17084D01*
X1190Y17109D01*
X1170Y17132D01*
X1147Y17153D01*
X1121Y17171D01*
X1094Y17186D01*
X1066Y17198D01*
X1036Y17206D01*
X1005Y17211D01*
X974Y17213D01*
D02*
G37*
G36*
X960Y16218D02*
X937Y16216D01*
X914Y16211D01*
X893Y16202D01*
X873Y16190D01*
X855Y16175D01*
X840Y16157D01*
X828Y16137D01*
X819Y16116D01*
X814Y16093D01*
X812Y16070D01*
X814Y16047D01*
X819Y16024D01*
X828Y16003D01*
X840Y15983D01*
X855Y15965D01*
X873Y15950D01*
X893Y15938D01*
X914Y15929D01*
X937Y15924D01*
X960Y15922D01*
X983Y15924D01*
X1006Y15929D01*
X1027Y15938D01*
X1047Y15950D01*
X1065Y15965D01*
X1080Y15983D01*
X1092Y16003D01*
X1101Y16024D01*
X1106Y16047D01*
X1108Y16070D01*
X1106Y16093D01*
X1101Y16116D01*
X1092Y16137D01*
X1080Y16157D01*
X1065Y16175D01*
X1047Y16190D01*
X1027Y16202D01*
X1006Y16211D01*
X983Y16216D01*
X960Y16218D01*
D02*
G37*
G36*
X12802Y15930D02*
X12654D01*
Y15604D01*
X12802D01*
Y15930D01*
D02*
G37*
G36*
Y15504D02*
X12654D01*
Y15179D01*
X12802D01*
Y15504D01*
D02*
G37*
G36*
X11139Y17800D02*
X7389D01*
Y15040D01*
X11139D01*
Y17800D01*
D02*
G37*
G36*
X7480Y14684D02*
X6980D01*
X6956Y14682D01*
X6932Y14677D01*
X6910Y14667D01*
X6889Y14655D01*
X6871Y14639D01*
X6531Y14299D01*
X6515Y14281D01*
X6503Y14260D01*
X6493Y14238D01*
X6488Y14214D01*
X6486Y14190D01*
X6488Y14166D01*
X6493Y14142D01*
X6503Y14120D01*
X6515Y14099D01*
X6531Y14081D01*
X6549Y14065D01*
X6570Y14053D01*
X6592Y14043D01*
X6616Y14038D01*
X6640Y14036D01*
X6664Y14038D01*
X6688Y14043D01*
X6710Y14053D01*
X6731Y14065D01*
X6749Y14081D01*
X7044Y14376D01*
X7480D01*
X7504Y14378D01*
X7528Y14383D01*
X7550Y14393D01*
X7571Y14405D01*
X7589Y14421D01*
X7605Y14439D01*
X7617Y14460D01*
X7627Y14482D01*
X7632Y14506D01*
X7634Y14530D01*
X7632Y14554D01*
X7627Y14578D01*
X7617Y14600D01*
X7605Y14621D01*
X7589Y14639D01*
X7571Y14655D01*
X7550Y14667D01*
X7528Y14677D01*
X7504Y14682D01*
X7480Y14684D01*
D02*
G37*
G36*
X974Y14536D02*
X944Y14534D01*
X913Y14529D01*
X883Y14520D01*
X855Y14509D01*
X828Y14494D01*
X802Y14476D01*
X779Y14455D01*
X759Y14432D01*
X741Y14407D01*
X726Y14380D01*
X714Y14351D01*
X705Y14321D01*
X700Y14291D01*
X698Y14260D01*
X700Y14229D01*
X705Y14198D01*
X714Y14169D01*
X726Y14140D01*
X741Y14113D01*
X759Y14088D01*
X779Y14065D01*
X802Y14044D01*
X828Y14026D01*
X855Y14011D01*
X883Y13999D01*
X913Y13991D01*
X944Y13986D01*
X974Y13984D01*
X1005Y13986D01*
X1036Y13991D01*
X1066Y13999D01*
X1094Y14011D01*
X1121Y14026D01*
X1147Y14044D01*
X1170Y14065D01*
X1190Y14088D01*
X1208Y14113D01*
X1223Y14140D01*
X1235Y14169D01*
X1244Y14198D01*
X1249Y14229D01*
X1250Y14260D01*
X1249Y14291D01*
X1244Y14321D01*
X1235Y14351D01*
X1223Y14380D01*
X1208Y14407D01*
X1190Y14432D01*
X1170Y14455D01*
X1147Y14476D01*
X1121Y14494D01*
X1094Y14509D01*
X1066Y14520D01*
X1036Y14529D01*
X1005Y14534D01*
X974Y14536D01*
D02*
G37*
G36*
X12657Y14019D02*
X12134D01*
Y13880D01*
X12657D01*
Y14019D01*
D02*
G37*
G36*
X8818D02*
X8197D01*
Y13880D01*
X8818D01*
Y14019D01*
D02*
G37*
G36*
X12034D02*
X11512D01*
Y13880D01*
X12034D01*
Y14019D01*
D02*
G37*
G36*
X8097D02*
X7477D01*
Y13880D01*
X8097D01*
Y14019D01*
D02*
G37*
G36*
X10531D02*
X10107D01*
Y13880D01*
X10531D01*
Y14019D01*
D02*
G37*
G36*
X10007D02*
X9583D01*
Y13880D01*
X10007D01*
Y14019D01*
D02*
G37*
G36*
X12657Y13780D02*
X12134D01*
Y13641D01*
X12657D01*
Y13780D01*
D02*
G37*
G36*
X12034D02*
X11512D01*
Y13641D01*
X12034D01*
Y13780D01*
D02*
G37*
G36*
X10531Y13780D02*
X10107D01*
Y13641D01*
X10531D01*
Y13780D01*
D02*
G37*
G36*
X12195Y13189D02*
X12160Y13188D01*
X12126Y13183D01*
X12092Y13174D01*
X12059Y13162D01*
X12028Y13148D01*
X11998Y13130D01*
X11970Y13109D01*
X11944Y13086D01*
X11921Y13060D01*
X11900Y13032D01*
X11882Y13002D01*
X11867Y12970D01*
X11855Y12938D01*
X11847Y12904D01*
X11842Y12869D01*
X11840Y12835D01*
X11842Y12800D01*
X11847Y12765D01*
X11855Y12732D01*
X11867Y12699D01*
X11882Y12667D01*
X11900Y12638D01*
X11921Y12610D01*
X11944Y12584D01*
X11970Y12560D01*
X11998Y12540D01*
X12028Y12522D01*
X12059Y12507D01*
X12092Y12495D01*
X12126Y12487D01*
X12160Y12482D01*
X12195Y12480D01*
X12230Y12482D01*
X12264Y12487D01*
X12298Y12495D01*
X12331Y12507D01*
X12362Y12522D01*
X12392Y12540D01*
X12420Y12560D01*
X12446Y12584D01*
X12469Y12610D01*
X12490Y12638D01*
X12508Y12667D01*
X12523Y12699D01*
X12534Y12732D01*
X12543Y12765D01*
X12548Y12800D01*
X12550Y12835D01*
X12548Y12869D01*
X12543Y12904D01*
X12534Y12938D01*
X12523Y12970D01*
X12508Y13002D01*
X12490Y13032D01*
X12469Y13060D01*
X12446Y13086D01*
X12420Y13109D01*
X12392Y13130D01*
X12362Y13148D01*
X12331Y13162D01*
X12298Y13174D01*
X12264Y13183D01*
X12230Y13188D01*
X12195Y13189D01*
D02*
G37*
G36*
X11407D02*
X11373Y13188D01*
X11338Y13183D01*
X11305Y13174D01*
X11272Y13162D01*
X11240Y13148D01*
X11210Y13130D01*
X11182Y13109D01*
X11157Y13086D01*
X11133Y13060D01*
X11113Y13032D01*
X11095Y13002D01*
X11080Y12970D01*
X11068Y12938D01*
X11060Y12904D01*
X11054Y12869D01*
X11053Y12835D01*
X11054Y12800D01*
X11060Y12765D01*
X11068Y12732D01*
X11080Y12699D01*
X11095Y12667D01*
X11113Y12638D01*
X11133Y12610D01*
X11157Y12584D01*
X11182Y12560D01*
X11210Y12540D01*
X11240Y12522D01*
X11272Y12507D01*
X11305Y12495D01*
X11338Y12487D01*
X11373Y12482D01*
X11407Y12480D01*
X11442Y12482D01*
X11477Y12487D01*
X11510Y12495D01*
X11543Y12507D01*
X11575Y12522D01*
X11605Y12540D01*
X11633Y12560D01*
X11658Y12584D01*
X11682Y12610D01*
X11702Y12638D01*
X11720Y12667D01*
X11735Y12699D01*
X11747Y12732D01*
X11755Y12765D01*
X11761Y12800D01*
X11762Y12835D01*
X11761Y12869D01*
X11755Y12904D01*
X11747Y12938D01*
X11735Y12970D01*
X11720Y13002D01*
X11702Y13032D01*
X11682Y13060D01*
X11658Y13086D01*
X11633Y13109D01*
X11605Y13130D01*
X11575Y13148D01*
X11543Y13162D01*
X11510Y13174D01*
X11477Y13183D01*
X11442Y13188D01*
X11407Y13189D01*
D02*
G37*
G36*
X10620D02*
X10585Y13188D01*
X10551Y13183D01*
X10517Y13174D01*
X10484Y13162D01*
X10453Y13148D01*
X10423Y13130D01*
X10395Y13109D01*
X10369Y13086D01*
X10346Y13060D01*
X10325Y13032D01*
X10307Y13002D01*
X10292Y12970D01*
X10281Y12938D01*
X10272Y12904D01*
X10267Y12869D01*
X10265Y12835D01*
X10267Y12800D01*
X10272Y12765D01*
X10281Y12732D01*
X10292Y12699D01*
X10307Y12667D01*
X10325Y12638D01*
X10346Y12610D01*
X10369Y12584D01*
X10395Y12560D01*
X10423Y12540D01*
X10453Y12522D01*
X10484Y12507D01*
X10517Y12495D01*
X10551Y12487D01*
X10585Y12482D01*
X10620Y12480D01*
X10655Y12482D01*
X10689Y12487D01*
X10723Y12495D01*
X10756Y12507D01*
X10787Y12522D01*
X10817Y12540D01*
X10845Y12560D01*
X10871Y12584D01*
X10894Y12610D01*
X10915Y12638D01*
X10933Y12667D01*
X10948Y12699D01*
X10960Y12732D01*
X10968Y12765D01*
X10973Y12800D01*
X10975Y12835D01*
X10973Y12869D01*
X10968Y12904D01*
X10960Y12938D01*
X10948Y12970D01*
X10933Y13002D01*
X10915Y13032D01*
X10894Y13060D01*
X10871Y13086D01*
X10845Y13109D01*
X10817Y13130D01*
X10787Y13148D01*
X10756Y13162D01*
X10723Y13174D01*
X10689Y13183D01*
X10655Y13188D01*
X10620Y13189D01*
D02*
G37*
G36*
X13820Y12420D02*
Y12097D01*
X14142D01*
X14139Y12121D01*
X14130Y12156D01*
X14117Y12191D01*
X14101Y12225D01*
X14082Y12256D01*
X14060Y12286D01*
X14036Y12313D01*
X14008Y12338D01*
X13979Y12360D01*
X13947Y12379D01*
X13914Y12395D01*
X13879Y12407D01*
X13843Y12416D01*
X13820Y12420D01*
D02*
G37*
G36*
X13720D02*
X13696Y12416D01*
X13661Y12407D01*
X13626Y12395D01*
X13592Y12379D01*
X13561Y12360D01*
X13531Y12338D01*
X13504Y12313D01*
X13479Y12286D01*
X13457Y12256D01*
X13438Y12225D01*
X13422Y12191D01*
X13410Y12156D01*
X13401Y12121D01*
X13397Y12097D01*
X13720D01*
Y12420D01*
D02*
G37*
G36*
X12982Y12402D02*
X12948Y12400D01*
X12913Y12395D01*
X12879Y12387D01*
X12847Y12375D01*
X12815Y12360D01*
X12785Y12342D01*
X12757Y12321D01*
X12731Y12298D01*
X12708Y12272D01*
X12687Y12244D01*
X12669Y12214D01*
X12655Y12183D01*
X12643Y12150D01*
X12634Y12116D01*
X12629Y12082D01*
X12628Y12047D01*
X12629Y12012D01*
X12634Y11978D01*
X12643Y11944D01*
X12655Y11911D01*
X12669Y11880D01*
X12687Y11850D01*
X12708Y11822D01*
X12731Y11796D01*
X12757Y11773D01*
X12785Y11752D01*
X12815Y11734D01*
X12847Y11719D01*
X12879Y11708D01*
X12913Y11699D01*
X12948Y11694D01*
X12982Y11692D01*
X13017Y11694D01*
X13052Y11699D01*
X13085Y11708D01*
X13118Y11719D01*
X13150Y11734D01*
X13179Y11752D01*
X13207Y11773D01*
X13233Y11796D01*
X13257Y11822D01*
X13277Y11850D01*
X13295Y11880D01*
X13310Y11911D01*
X13322Y11944D01*
X13330Y11978D01*
X13335Y12012D01*
X13337Y12047D01*
X13335Y12082D01*
X13330Y12116D01*
X13322Y12150D01*
X13310Y12183D01*
X13295Y12214D01*
X13277Y12244D01*
X13257Y12272D01*
X13233Y12298D01*
X13207Y12321D01*
X13179Y12342D01*
X13150Y12360D01*
X13118Y12375D01*
X13085Y12387D01*
X13052Y12395D01*
X13017Y12400D01*
X12982Y12402D01*
D02*
G37*
G36*
X12195D02*
X12160Y12400D01*
X12126Y12395D01*
X12092Y12387D01*
X12059Y12375D01*
X12028Y12360D01*
X11998Y12342D01*
X11970Y12321D01*
X11944Y12298D01*
X11921Y12272D01*
X11900Y12244D01*
X11882Y12214D01*
X11867Y12183D01*
X11855Y12150D01*
X11847Y12116D01*
X11842Y12082D01*
X11840Y12047D01*
X11842Y12012D01*
X11847Y11978D01*
X11855Y11944D01*
X11867Y11911D01*
X11882Y11880D01*
X11900Y11850D01*
X11921Y11822D01*
X11944Y11796D01*
X11970Y11773D01*
X11998Y11752D01*
X12028Y11734D01*
X12059Y11719D01*
X12092Y11708D01*
X12126Y11699D01*
X12160Y11694D01*
X12195Y11692D01*
X12230Y11694D01*
X12264Y11699D01*
X12298Y11708D01*
X12331Y11719D01*
X12362Y11734D01*
X12392Y11752D01*
X12420Y11773D01*
X12446Y11796D01*
X12469Y11822D01*
X12490Y11850D01*
X12508Y11880D01*
X12523Y11911D01*
X12534Y11944D01*
X12543Y11978D01*
X12548Y12012D01*
X12550Y12047D01*
X12548Y12082D01*
X12543Y12116D01*
X12534Y12150D01*
X12523Y12183D01*
X12508Y12214D01*
X12490Y12244D01*
X12469Y12272D01*
X12446Y12298D01*
X12420Y12321D01*
X12392Y12342D01*
X12362Y12360D01*
X12331Y12375D01*
X12298Y12387D01*
X12264Y12395D01*
X12230Y12400D01*
X12195Y12402D01*
D02*
G37*
G36*
X11407D02*
X11373Y12400D01*
X11338Y12395D01*
X11305Y12387D01*
X11272Y12375D01*
X11240Y12360D01*
X11210Y12342D01*
X11182Y12321D01*
X11157Y12298D01*
X11133Y12272D01*
X11113Y12244D01*
X11095Y12214D01*
X11080Y12183D01*
X11068Y12150D01*
X11060Y12116D01*
X11054Y12082D01*
X11053Y12047D01*
X11054Y12012D01*
X11060Y11978D01*
X11068Y11944D01*
X11080Y11911D01*
X11095Y11880D01*
X11113Y11850D01*
X11133Y11822D01*
X11157Y11796D01*
X11182Y11773D01*
X11210Y11752D01*
X11240Y11734D01*
X11272Y11719D01*
X11305Y11708D01*
X11338Y11699D01*
X11373Y11694D01*
X11407Y11692D01*
X11442Y11694D01*
X11477Y11699D01*
X11510Y11708D01*
X11543Y11719D01*
X11575Y11734D01*
X11605Y11752D01*
X11633Y11773D01*
X11658Y11796D01*
X11682Y11822D01*
X11702Y11850D01*
X11720Y11880D01*
X11735Y11911D01*
X11747Y11944D01*
X11755Y11978D01*
X11761Y12012D01*
X11762Y12047D01*
X11761Y12082D01*
X11755Y12116D01*
X11747Y12150D01*
X11735Y12183D01*
X11720Y12214D01*
X11702Y12244D01*
X11682Y12272D01*
X11658Y12298D01*
X11633Y12321D01*
X11605Y12342D01*
X11575Y12360D01*
X11543Y12375D01*
X11510Y12387D01*
X11477Y12395D01*
X11442Y12400D01*
X11407Y12402D01*
D02*
G37*
G36*
X10620D02*
X10585Y12400D01*
X10551Y12395D01*
X10517Y12387D01*
X10484Y12375D01*
X10453Y12360D01*
X10423Y12342D01*
X10395Y12321D01*
X10369Y12298D01*
X10346Y12272D01*
X10325Y12244D01*
X10307Y12214D01*
X10292Y12183D01*
X10281Y12150D01*
X10272Y12116D01*
X10267Y12082D01*
X10265Y12047D01*
X10267Y12012D01*
X10272Y11978D01*
X10281Y11944D01*
X10292Y11911D01*
X10307Y11880D01*
X10325Y11850D01*
X10346Y11822D01*
X10369Y11796D01*
X10395Y11773D01*
X10423Y11752D01*
X10453Y11734D01*
X10484Y11719D01*
X10517Y11708D01*
X10551Y11699D01*
X10585Y11694D01*
X10620Y11692D01*
X10655Y11694D01*
X10689Y11699D01*
X10723Y11708D01*
X10756Y11719D01*
X10787Y11734D01*
X10817Y11752D01*
X10845Y11773D01*
X10871Y11796D01*
X10894Y11822D01*
X10915Y11850D01*
X10933Y11880D01*
X10948Y11911D01*
X10960Y11944D01*
X10968Y11978D01*
X10973Y12012D01*
X10975Y12047D01*
X10973Y12082D01*
X10968Y12116D01*
X10960Y12150D01*
X10948Y12183D01*
X10933Y12214D01*
X10915Y12244D01*
X10894Y12272D01*
X10871Y12298D01*
X10845Y12321D01*
X10817Y12342D01*
X10787Y12360D01*
X10756Y12375D01*
X10723Y12387D01*
X10689Y12395D01*
X10655Y12400D01*
X10620Y12402D01*
D02*
G37*
G36*
X14142Y11997D02*
X13820D01*
Y11675D01*
X13843Y11678D01*
X13879Y11687D01*
X13914Y11700D01*
X13947Y11716D01*
X13979Y11735D01*
X14008Y11757D01*
X14036Y11781D01*
X14060Y11809D01*
X14082Y11838D01*
X14101Y11870D01*
X14117Y11903D01*
X14130Y11938D01*
X14139Y11974D01*
X14142Y11997D01*
D02*
G37*
G36*
X13720D02*
X13397D01*
X13401Y11974D01*
X13410Y11938D01*
X13422Y11903D01*
X13438Y11870D01*
X13457Y11838D01*
X13479Y11809D01*
X13504Y11781D01*
X13531Y11757D01*
X13561Y11735D01*
X13592Y11716D01*
X13626Y11700D01*
X13661Y11687D01*
X13696Y11678D01*
X13720Y11675D01*
Y11997D01*
D02*
G37*
G36*
X709Y11537D02*
X621D01*
Y11310D01*
X981D01*
X979Y11322D01*
X971Y11352D01*
X959Y11380D01*
X944Y11408D01*
X926Y11433D01*
X905Y11456D01*
X882Y11477D01*
X856Y11495D01*
X829Y11510D01*
X800Y11522D01*
X770Y11530D01*
X740Y11536D01*
X709Y11537D01*
D02*
G37*
G36*
X521D02*
X433D01*
X402Y11536D01*
X371Y11530D01*
X341Y11522D01*
X313Y11510D01*
X285Y11495D01*
X260Y11477D01*
X237Y11456D01*
X216Y11433D01*
X198Y11408D01*
X183Y11380D01*
X171Y11352D01*
X162Y11322D01*
X160Y11310D01*
X521D01*
Y11537D01*
D02*
G37*
G36*
X981Y11210D02*
X621D01*
Y10982D01*
X709D01*
X740Y10984D01*
X770Y10989D01*
X800Y10998D01*
X829Y11010D01*
X856Y11025D01*
X882Y11043D01*
X905Y11064D01*
X926Y11087D01*
X944Y11112D01*
X959Y11139D01*
X971Y11168D01*
X979Y11198D01*
X981Y11210D01*
D02*
G37*
G36*
X521D02*
X160D01*
X162Y11198D01*
X171Y11168D01*
X183Y11139D01*
X198Y11112D01*
X216Y11087D01*
X237Y11064D01*
X260Y11043D01*
X285Y11025D01*
X313Y11010D01*
X341Y10998D01*
X371Y10989D01*
X402Y10984D01*
X433Y10982D01*
X521D01*
Y11210D01*
D02*
G37*
G36*
X13230Y11124D02*
X12639D01*
Y10798D01*
X13230D01*
Y11124D01*
D02*
G37*
G36*
Y10698D02*
X12639D01*
Y10372D01*
X13230D01*
Y10698D01*
D02*
G37*
G36*
X12539D02*
X11947D01*
Y10372D01*
X12539D01*
Y10698D01*
D02*
G37*
G36*
X709Y8939D02*
X621D01*
Y8711D01*
X981D01*
X979Y8723D01*
X971Y8753D01*
X959Y8782D01*
X944Y8809D01*
X926Y8834D01*
X905Y8858D01*
X882Y8878D01*
X856Y8896D01*
X829Y8912D01*
X800Y8923D01*
X770Y8932D01*
X740Y8937D01*
X709Y8939D01*
D02*
G37*
G36*
X521D02*
X433D01*
X402Y8937D01*
X371Y8932D01*
X341Y8923D01*
X313Y8912D01*
X285Y8896D01*
X260Y8878D01*
X237Y8858D01*
X216Y8834D01*
X198Y8809D01*
X183Y8782D01*
X171Y8753D01*
X162Y8723D01*
X160Y8711D01*
X521D01*
Y8939D01*
D02*
G37*
G36*
Y8611D02*
X160D01*
X162Y8600D01*
X171Y8570D01*
X183Y8541D01*
X198Y8514D01*
X216Y8488D01*
X237Y8465D01*
X260Y8444D01*
X285Y8426D01*
X313Y8411D01*
X341Y8399D01*
X371Y8391D01*
X402Y8386D01*
X433Y8384D01*
X521D01*
Y8611D01*
D02*
G37*
G36*
X13958Y8131D02*
X13702D01*
Y7648D01*
X13958D01*
Y8131D01*
D02*
G37*
G36*
X12440Y8131D02*
X12183D01*
Y7648D01*
X12440D01*
Y8131D01*
D02*
G37*
G36*
X13958Y7548D02*
X13702D01*
Y7065D01*
X13958D01*
Y7548D01*
D02*
G37*
G36*
X13229Y5579D02*
X13120D01*
Y5476D01*
X13229D01*
Y5579D01*
D02*
G37*
G36*
X13020D02*
X12911D01*
Y5476D01*
X13020D01*
Y5579D01*
D02*
G37*
G36*
X14548Y4319D02*
X14445D01*
Y4210D01*
X14548D01*
Y4319D01*
D02*
G37*
G36*
X10680Y4132D02*
Y3790D01*
X11022D01*
X11018Y3817D01*
X11009Y3855D01*
X10996Y3892D01*
X10979Y3927D01*
X10959Y3960D01*
X10936Y3991D01*
X10910Y4020D01*
X10881Y4046D01*
X10850Y4069D01*
X10816Y4089D01*
X10781Y4106D01*
X10745Y4119D01*
X10707Y4128D01*
X10680Y4132D01*
D02*
G37*
G36*
X10580D02*
X10553Y4128D01*
X10515Y4119D01*
X10478Y4106D01*
X10443Y4089D01*
X10410Y4069D01*
X10379Y4046D01*
X10350Y4020D01*
X10324Y3991D01*
X10301Y3960D01*
X10281Y3927D01*
X10264Y3892D01*
X10251Y3855D01*
X10242Y3817D01*
X10238Y3790D01*
X10580D01*
Y4132D01*
D02*
G37*
G36*
X11022Y3690D02*
X10680D01*
Y3348D01*
X10707Y3352D01*
X10745Y3361D01*
X10781Y3375D01*
X10816Y3391D01*
X10850Y3411D01*
X10881Y3434D01*
X10910Y3460D01*
X10936Y3489D01*
X10959Y3520D01*
X10979Y3554D01*
X10996Y3589D01*
X11009Y3625D01*
X11018Y3663D01*
X11022Y3690D01*
D02*
G37*
G36*
X10580D02*
X10238D01*
X10242Y3663D01*
X10251Y3625D01*
X10264Y3589D01*
X10281Y3554D01*
X10301Y3520D01*
X10324Y3489D01*
X10350Y3460D01*
X10379Y3434D01*
X10410Y3411D01*
X10443Y3391D01*
X10478Y3375D01*
X10515Y3361D01*
X10553Y3352D01*
X10580Y3348D01*
Y3690D01*
D02*
G37*
G36*
X11787Y6546D02*
X11472D01*
Y6034D01*
X11787D01*
Y6111D01*
X11901D01*
X11924Y6094D01*
X11951Y6069D01*
X11976Y6042D01*
X11998Y6012D01*
X12017Y5980D01*
X12033Y5947D01*
X12046Y5912D01*
X12055Y5876D01*
X12060Y5839D01*
X12062Y5804D01*
X12062Y5802D01*
Y4050D01*
X12061D01*
X12063Y3991D01*
X12069Y3932D01*
X12079Y3873D01*
X12092Y3815D01*
X12110Y3758D01*
X12131Y3703D01*
X12155Y3649D01*
X12183Y3596D01*
X12215Y3546D01*
X12249Y3497D01*
X12287Y3451D01*
X12328Y3408D01*
X12328Y3408D01*
X12528Y3207D01*
X12502Y3163D01*
X12498Y3164D01*
X12462Y3172D01*
X12437Y3176D01*
X12425Y3177D01*
X12388Y3179D01*
Y3179D01*
X12153D01*
Y3179D01*
X12115Y3177D01*
X12104Y3175D01*
X12078Y3172D01*
X12041Y3162D01*
X12005Y3150D01*
X11971Y3134D01*
X11939Y3114D01*
X11909Y3092D01*
X11881Y3066D01*
X11855Y3038D01*
X11833Y3008D01*
X11813Y2976D01*
X11797Y2942D01*
X11785Y2906D01*
X11775Y2869D01*
X11771Y2843D01*
X11770Y2832D01*
X11768Y2794D01*
X11768D01*
Y1189D01*
X11768D01*
X11770Y1152D01*
X11772Y1140D01*
X11775Y1117D01*
X11784Y1081D01*
X11796Y1047D01*
X11812Y1014D01*
X11830Y983D01*
X11852Y954D01*
X11876Y927D01*
X11903Y903D01*
X11933Y881D01*
X11964Y862D01*
X11997Y847D01*
X12031Y834D01*
X12058Y828D01*
Y789D01*
X12474D01*
Y757D01*
X12633D01*
X12792D01*
Y860D01*
X12773D01*
Y974D01*
X12777Y980D01*
X12786Y1002D01*
X12791Y1025D01*
X12793Y1049D01*
X12791Y1072D01*
X12786Y1095D01*
X12777Y1117D01*
X12764Y1137D01*
X12749Y1155D01*
X12731Y1170D01*
X12711Y1183D01*
X12689Y1192D01*
X12666Y1197D01*
X12643Y1199D01*
X12619Y1197D01*
X12596Y1192D01*
X12574Y1183D01*
X12554Y1170D01*
X12536Y1155D01*
X12521Y1137D01*
X12509Y1117D01*
X12500Y1095D01*
X12494Y1072D01*
X12494Y1069D01*
X12352D01*
Y1107D01*
X12193D01*
Y1207D01*
X12352D01*
Y1223D01*
X12353Y1226D01*
X12396Y1256D01*
X12402Y1256D01*
X12421Y1252D01*
X12444Y1250D01*
X12468Y1252D01*
X12491Y1257D01*
X12512Y1266D01*
X12532Y1279D01*
X12550Y1294D01*
X12566Y1312D01*
X12578Y1332D01*
X12587Y1354D01*
X12593Y1377D01*
X12594Y1400D01*
X12593Y1424D01*
X12587Y1447D01*
X12578Y1468D01*
X12566Y1489D01*
X12550Y1507D01*
X12532Y1522D01*
X12512Y1534D01*
X12491Y1543D01*
X12468Y1549D01*
X12444Y1551D01*
X12421Y1549D01*
X12398Y1543D01*
X12376Y1534D01*
X12376Y1534D01*
X12360Y1527D01*
X12333Y1515D01*
X12333Y1515D01*
X12333Y1515D01*
X12197D01*
X12153Y1531D01*
Y1581D01*
X12153Y1582D01*
X12190Y1610D01*
X12203Y1614D01*
X12219Y1610D01*
X12243Y1608D01*
X12266Y1610D01*
X12288Y1616D01*
X12310Y1625D01*
X12330Y1637D01*
X12347Y1652D01*
X12362Y1669D01*
X12375Y1689D01*
X12383Y1711D01*
X12389Y1733D01*
X12389Y1738D01*
X12402Y1783D01*
X12402Y1783D01*
X12402Y1783D01*
Y1887D01*
X12313D01*
X12310Y1889D01*
X12288Y1897D01*
X12266Y1903D01*
X12243Y1905D01*
Y1987D01*
X12402D01*
Y2024D01*
X12491D01*
X12500Y2018D01*
X12529Y1975D01*
X12527Y1951D01*
X12529Y1928D01*
X12534Y1906D01*
X12543Y1884D01*
X12555Y1864D01*
X12570Y1847D01*
X12588Y1832D01*
X12608Y1820D01*
X12629Y1811D01*
X12652Y1805D01*
X12675Y1803D01*
X12698Y1805D01*
X12721Y1811D01*
X12742Y1820D01*
X12762Y1832D01*
X12769Y1837D01*
X12776Y1832D01*
X12795Y1820D01*
X12817Y1811D01*
X12839Y1805D01*
X12863Y1803D01*
X12886Y1805D01*
X12908Y1811D01*
X12930Y1820D01*
X12950Y1832D01*
X12956Y1837D01*
X12963Y1832D01*
X12983Y1820D01*
X13004Y1811D01*
X13027Y1805D01*
X13050Y1803D01*
X13073Y1805D01*
X13096Y1811D01*
X13117Y1820D01*
X13137Y1832D01*
X13155Y1847D01*
X13170Y1864D01*
X13182Y1884D01*
X13191Y1906D01*
X13196Y1928D01*
X13198Y1951D01*
X13196Y1975D01*
X13196Y1975D01*
X13224Y2019D01*
X13234Y2025D01*
X13319D01*
Y2539D01*
X13328Y2541D01*
X13349Y2550D01*
X13370Y2563D01*
X13387Y2578D01*
X13403Y2596D01*
X13415Y2616D01*
X13424Y2638D01*
X13430Y2661D01*
X13432Y2684D01*
X13430Y2708D01*
X13424Y2731D01*
X13415Y2753D01*
X13403Y2773D01*
X13387Y2791D01*
X13370Y2806D01*
X13349Y2818D01*
X13328Y2827D01*
X13305Y2833D01*
X13281Y2835D01*
X13258Y2833D01*
X13235Y2827D01*
X13213Y2818D01*
X13207Y2815D01*
X13150D01*
Y2878D01*
X13150Y2878D01*
X13150Y2878D01*
X13165Y2921D01*
X13173Y2928D01*
X13196Y2930D01*
X13219Y2936D01*
X13241Y2945D01*
X13261Y2957D01*
X13279Y2972D01*
X13294Y2990D01*
X13307Y3010D01*
X13316Y3032D01*
X13321Y3055D01*
X13323Y3079D01*
X13321Y3102D01*
X13316Y3125D01*
X13307Y3147D01*
X13294Y3167D01*
X13279Y3185D01*
X13261Y3200D01*
X13241Y3213D01*
X13219Y3222D01*
X13196Y3227D01*
X13173Y3229D01*
X13149Y3227D01*
X13126Y3222D01*
X13104Y3213D01*
X13084Y3200D01*
X13066Y3185D01*
X13051Y3167D01*
X13043Y3154D01*
X13033Y3149D01*
X13009Y3132D01*
X12987Y3112D01*
X12967Y3090D01*
X12965Y3087D01*
X12909Y3091D01*
X12908Y3092D01*
X12905Y3099D01*
X12881Y3142D01*
X12854Y3182D01*
X12824Y3221D01*
X12791Y3257D01*
X12790Y3257D01*
X12483Y3564D01*
X12481Y3565D01*
X12450Y3599D01*
X12419Y3638D01*
X12391Y3678D01*
X12366Y3720D01*
X12344Y3764D01*
X12325Y3810D01*
X12309Y3856D01*
X12297Y3904D01*
X12288Y3952D01*
X12283Y4001D01*
X12282Y4048D01*
X12282Y4050D01*
Y5802D01*
X12282D01*
X12280Y5849D01*
X12280Y5851D01*
X12274Y5895D01*
X12265Y5942D01*
X12253Y5987D01*
X12236Y6031D01*
X12217Y6073D01*
X12194Y6114D01*
X12168Y6154D01*
X12138Y6190D01*
X12107Y6225D01*
X12072Y6257D01*
X12035Y6286D01*
X11996Y6312D01*
X11955Y6335D01*
X11912Y6355D01*
X11907Y6357D01*
Y6470D01*
X11787D01*
Y6546D01*
D02*
G37*
G36*
X14568Y2367D02*
X14400D01*
Y2218D01*
X14568D01*
Y2367D01*
D02*
G37*
G36*
Y2118D02*
X14400D01*
Y1970D01*
X14568D01*
Y2118D01*
D02*
G37*
G36*
X12792Y657D02*
X12683D01*
Y553D01*
X12792D01*
Y657D01*
D02*
G37*
G36*
X12583D02*
X12474D01*
Y553D01*
X12583D01*
Y657D01*
D02*
G37*
%LPD*%
G36*
X12415Y2957D02*
X12442Y2952D01*
X12467Y2943D01*
X12492Y2931D01*
X12514Y2916D01*
X12535Y2898D01*
X12552Y2878D01*
X12561Y2865D01*
X12552Y2837D01*
X12534Y2815D01*
X12404D01*
X12404Y2815D01*
X12354Y2811D01*
X12341Y2818D01*
X12319Y2827D01*
X12296Y2833D01*
X12273Y2835D01*
X12249Y2833D01*
X12226Y2827D01*
X12204Y2818D01*
X12184Y2806D01*
X12166Y2791D01*
X12151Y2773D01*
X12139Y2753D01*
X12130Y2731D01*
X12124Y2708D01*
X12122Y2684D01*
X12124Y2661D01*
X12130Y2638D01*
X12132Y2611D01*
X12098Y2586D01*
X12072Y2572D01*
X12045Y2552D01*
X12038Y2546D01*
X11988Y2569D01*
Y2794D01*
X11988Y2796D01*
X11990Y2816D01*
X11994Y2837D01*
X12001Y2857D01*
X12010Y2877D01*
X12022Y2894D01*
X12036Y2911D01*
X12052Y2925D01*
X12070Y2937D01*
X12090Y2946D01*
X12110Y2953D01*
X12131Y2957D01*
X12151Y2959D01*
X12153Y2959D01*
X12388D01*
X12390Y2959D01*
X12415Y2957D01*
D02*
G37*
%LPC*%
G36*
X4990Y12774D02*
X4953Y12773D01*
X4917Y12767D01*
X4881Y12758D01*
X4847Y12746D01*
X4813Y12730D01*
X4782Y12711D01*
X4752Y12689D01*
X4725Y12665D01*
X4701Y12638D01*
X4679Y12608D01*
X4660Y12577D01*
X4644Y12543D01*
X4632Y12509D01*
X4623Y12473D01*
X4617Y12437D01*
X4616Y12400D01*
X4617Y12363D01*
X4623Y12327D01*
X4632Y12291D01*
X4644Y12257D01*
X4660Y12223D01*
X4679Y12192D01*
X4701Y12162D01*
X4725Y12135D01*
X4752Y12111D01*
X4782Y12089D01*
X4813Y12070D01*
X4847Y12054D01*
X4881Y12042D01*
X4917Y12033D01*
X4953Y12027D01*
X4990Y12026D01*
X5027Y12027D01*
X5063Y12033D01*
X5099Y12042D01*
X5133Y12054D01*
X5167Y12070D01*
X5198Y12089D01*
X5228Y12111D01*
X5255Y12135D01*
X5279Y12162D01*
X5301Y12192D01*
X5320Y12223D01*
X5336Y12257D01*
X5348Y12291D01*
X5357Y12327D01*
X5363Y12363D01*
X5364Y12400D01*
X5363Y12437D01*
X5357Y12473D01*
X5348Y12509D01*
X5336Y12543D01*
X5320Y12577D01*
X5301Y12608D01*
X5279Y12638D01*
X5255Y12665D01*
X5228Y12689D01*
X5198Y12711D01*
X5167Y12730D01*
X5133Y12746D01*
X5099Y12758D01*
X5063Y12767D01*
X5027Y12773D01*
X4990Y12774D01*
D02*
G37*
G36*
X5990Y12774D02*
X5953Y12773D01*
X5917Y12767D01*
X5881Y12758D01*
X5847Y12746D01*
X5813Y12730D01*
X5782Y12711D01*
X5752Y12689D01*
X5725Y12665D01*
X5701Y12638D01*
X5679Y12608D01*
X5660Y12577D01*
X5644Y12543D01*
X5632Y12509D01*
X5623Y12473D01*
X5617Y12437D01*
X5616Y12400D01*
X5617Y12363D01*
X5623Y12327D01*
X5632Y12291D01*
X5644Y12257D01*
X5660Y12223D01*
X5679Y12192D01*
X5701Y12162D01*
X5725Y12135D01*
X5752Y12111D01*
X5782Y12089D01*
X5813Y12070D01*
X5847Y12054D01*
X5881Y12042D01*
X5917Y12033D01*
X5953Y12027D01*
X5990Y12026D01*
X6027Y12027D01*
X6063Y12033D01*
X6099Y12042D01*
X6133Y12054D01*
X6167Y12070D01*
X6198Y12089D01*
X6228Y12111D01*
X6255Y12135D01*
X6279Y12162D01*
X6301Y12192D01*
X6320Y12223D01*
X6336Y12257D01*
X6348Y12291D01*
X6357Y12327D01*
X6363Y12363D01*
X6364Y12400D01*
X6363Y12437D01*
X6357Y12473D01*
X6348Y12509D01*
X6336Y12543D01*
X6320Y12577D01*
X6301Y12608D01*
X6279Y12638D01*
X6255Y12665D01*
X6228Y12689D01*
X6198Y12711D01*
X6167Y12730D01*
X6133Y12746D01*
X6099Y12758D01*
X6063Y12767D01*
X6027Y12773D01*
X5990Y12774D01*
D02*
G37*
G36*
X5385Y11795D02*
X5040D01*
Y11450D01*
X5385D01*
Y11795D01*
D02*
G37*
G36*
X4940D02*
X4595D01*
Y11450D01*
X4940D01*
Y11795D01*
D02*
G37*
G36*
X7385Y11795D02*
X7040D01*
Y11450D01*
X7385D01*
Y11795D01*
D02*
G37*
G36*
X6940D02*
X6595D01*
Y11450D01*
X6940D01*
Y11795D01*
D02*
G37*
G36*
X6385Y11795D02*
X6040D01*
Y11450D01*
X6385D01*
Y11795D01*
D02*
G37*
G36*
X5940D02*
X5595D01*
Y11450D01*
X5940D01*
Y11795D01*
D02*
G37*
G36*
X7385Y11350D02*
X7040D01*
Y11005D01*
X7385D01*
Y11350D01*
D02*
G37*
G36*
X6940D02*
X6595D01*
Y11005D01*
X6940D01*
Y11350D01*
D02*
G37*
G36*
X5588Y2290D02*
X5485D01*
Y2181D01*
X5588D01*
Y2290D01*
D02*
G37*
G36*
X5588Y1979D02*
X5485D01*
Y1870D01*
X5588D01*
Y1979D01*
D02*
G37*
G36*
X4429Y1792D02*
X4394Y1790D01*
X4360Y1785D01*
X4326Y1776D01*
X4293Y1765D01*
X4262Y1750D01*
X4232Y1732D01*
X4204Y1711D01*
X4178Y1688D01*
X4155Y1662D01*
X4134Y1634D01*
X4116Y1604D01*
X4101Y1573D01*
X4090Y1540D01*
X4081Y1506D01*
X4076Y1472D01*
X4074Y1437D01*
X4076Y1402D01*
X4081Y1368D01*
X4090Y1334D01*
X4101Y1301D01*
X4116Y1270D01*
X4134Y1240D01*
X4155Y1212D01*
X4178Y1186D01*
X4204Y1163D01*
X4232Y1142D01*
X4262Y1124D01*
X4293Y1109D01*
X4326Y1098D01*
X4360Y1089D01*
X4394Y1084D01*
X4429Y1082D01*
X4464Y1084D01*
X4498Y1089D01*
X4532Y1098D01*
X4565Y1109D01*
X4596Y1124D01*
X4626Y1142D01*
X4654Y1163D01*
X4680Y1186D01*
X4703Y1212D01*
X4724Y1240D01*
X4742Y1270D01*
X4757Y1301D01*
X4769Y1334D01*
X4777Y1368D01*
X4782Y1402D01*
X4784Y1437D01*
X4782Y1472D01*
X4777Y1506D01*
X4769Y1540D01*
X4757Y1573D01*
X4742Y1604D01*
X4724Y1634D01*
X4703Y1662D01*
X4680Y1688D01*
X4654Y1711D01*
X4626Y1732D01*
X4596Y1750D01*
X4565Y1765D01*
X4532Y1776D01*
X4498Y1785D01*
X4464Y1790D01*
X4429Y1792D01*
D02*
G37*
G36*
X3642D02*
X3607Y1790D01*
X3573Y1785D01*
X3539Y1776D01*
X3506Y1765D01*
X3474Y1750D01*
X3445Y1732D01*
X3417Y1711D01*
X3391Y1688D01*
X3368Y1662D01*
X3347Y1634D01*
X3329Y1604D01*
X3314Y1573D01*
X3302Y1540D01*
X3294Y1506D01*
X3289Y1472D01*
X3287Y1437D01*
X3289Y1402D01*
X3294Y1368D01*
X3302Y1334D01*
X3314Y1301D01*
X3329Y1270D01*
X3347Y1240D01*
X3368Y1212D01*
X3391Y1186D01*
X3417Y1163D01*
X3445Y1142D01*
X3474Y1124D01*
X3506Y1109D01*
X3539Y1098D01*
X3573Y1089D01*
X3607Y1084D01*
X3642Y1082D01*
X3677Y1084D01*
X3711Y1089D01*
X3745Y1098D01*
X3777Y1109D01*
X3809Y1124D01*
X3839Y1142D01*
X3867Y1163D01*
X3893Y1186D01*
X3916Y1212D01*
X3937Y1240D01*
X3955Y1270D01*
X3969Y1301D01*
X3981Y1334D01*
X3990Y1368D01*
X3995Y1402D01*
X3996Y1437D01*
X3995Y1472D01*
X3990Y1506D01*
X3981Y1540D01*
X3969Y1573D01*
X3955Y1604D01*
X3937Y1634D01*
X3916Y1662D01*
X3893Y1688D01*
X3867Y1711D01*
X3839Y1732D01*
X3809Y1750D01*
X3777Y1765D01*
X3745Y1776D01*
X3711Y1785D01*
X3677Y1790D01*
X3642Y1792D01*
D02*
G37*
G36*
X2854D02*
X2820Y1790D01*
X2785Y1785D01*
X2751Y1776D01*
X2719Y1765D01*
X2687Y1750D01*
X2657Y1732D01*
X2629Y1711D01*
X2603Y1688D01*
X2580Y1662D01*
X2559Y1634D01*
X2541Y1604D01*
X2527Y1573D01*
X2515Y1540D01*
X2506Y1506D01*
X2501Y1472D01*
X2500Y1437D01*
X2501Y1402D01*
X2506Y1368D01*
X2515Y1334D01*
X2527Y1301D01*
X2541Y1270D01*
X2559Y1240D01*
X2580Y1212D01*
X2603Y1186D01*
X2629Y1163D01*
X2657Y1142D01*
X2687Y1124D01*
X2719Y1109D01*
X2751Y1098D01*
X2785Y1089D01*
X2820Y1084D01*
X2854Y1082D01*
X2889Y1084D01*
X2924Y1089D01*
X2957Y1098D01*
X2990Y1109D01*
X3022Y1124D01*
X3051Y1142D01*
X3079Y1163D01*
X3105Y1186D01*
X3129Y1212D01*
X3149Y1240D01*
X3167Y1270D01*
X3182Y1301D01*
X3194Y1334D01*
X3202Y1368D01*
X3207Y1402D01*
X3209Y1437D01*
X3207Y1472D01*
X3202Y1506D01*
X3194Y1540D01*
X3182Y1573D01*
X3167Y1604D01*
X3149Y1634D01*
X3129Y1662D01*
X3105Y1688D01*
X3079Y1711D01*
X3051Y1732D01*
X3022Y1750D01*
X2990Y1765D01*
X2957Y1776D01*
X2924Y1785D01*
X2889Y1790D01*
X2854Y1792D01*
D02*
G37*
G36*
X5872Y1190D02*
X5674D01*
Y983D01*
X5872D01*
Y1190D01*
D02*
G37*
G36*
X5574D02*
X5377D01*
Y983D01*
X5574D01*
Y1190D01*
D02*
G37*
G36*
X1181Y3034D02*
X394D01*
X378Y3032D01*
X363Y3028D01*
X349Y3020D01*
X336Y3010D01*
X326Y2998D01*
X319Y2984D01*
X314Y2969D01*
X313Y2953D01*
Y2165D01*
X314Y2150D01*
X319Y2134D01*
X326Y2120D01*
X336Y2108D01*
X349Y2098D01*
X363Y2090D01*
X378Y2086D01*
X394Y2084D01*
X1160D01*
X1168Y2034D01*
X1137Y2024D01*
X1092Y2005D01*
X1048Y1983D01*
X1005Y1958D01*
X965Y1930D01*
X926Y1899D01*
X890Y1865D01*
X857Y1829D01*
X826Y1791D01*
X798Y1751D01*
X773Y1708D01*
X751Y1664D01*
X732Y1619D01*
X716Y1572D01*
X704Y1524D01*
X696Y1476D01*
X690Y1427D01*
X689Y1378D01*
X690Y1329D01*
X696Y1280D01*
X704Y1231D01*
X716Y1184D01*
X732Y1137D01*
X751Y1092D01*
X773Y1048D01*
X798Y1005D01*
X826Y965D01*
X857Y926D01*
X890Y890D01*
X926Y857D01*
X965Y826D01*
X1005Y798D01*
X1048Y773D01*
X1092Y751D01*
X1137Y732D01*
X1184Y716D01*
X1231Y704D01*
X1280Y696D01*
X1329Y690D01*
X1378Y689D01*
X1427Y690D01*
X1476Y696D01*
X1525Y704D01*
X1572Y716D01*
X1619Y732D01*
X1664Y751D01*
X1708Y773D01*
X1751Y798D01*
X1791Y826D01*
X1829Y857D01*
X1865Y890D01*
X1899Y926D01*
X1930Y965D01*
X1958Y1005D01*
X1983Y1048D01*
X2005Y1092D01*
X2024Y1137D01*
X2039Y1184D01*
X2052Y1231D01*
X2060Y1280D01*
X2066Y1329D01*
X2067Y1378D01*
X2066Y1427D01*
X2060Y1476D01*
X2052Y1524D01*
X2039Y1572D01*
X2024Y1619D01*
X2005Y1664D01*
X1983Y1708D01*
X1958Y1751D01*
X1930Y1791D01*
X1899Y1829D01*
X1865Y1865D01*
X1829Y1899D01*
X1791Y1930D01*
X1751Y1958D01*
X1708Y1983D01*
X1664Y2005D01*
X1619Y2024D01*
X1572Y2039D01*
X1525Y2052D01*
X1476Y2060D01*
X1427Y2066D01*
X1378Y2067D01*
X1329Y2066D01*
X1280Y2060D01*
X1272Y2059D01*
X1265Y2065D01*
X1238Y2108D01*
X1249Y2120D01*
X1256Y2134D01*
X1261Y2150D01*
X1262Y2165D01*
Y2953D01*
X1261Y2969D01*
X1256Y2984D01*
X1249Y2998D01*
X1238Y3010D01*
X1226Y3020D01*
X1212Y3028D01*
X1197Y3032D01*
X1181Y3034D01*
D02*
G37*
G36*
X8920Y1345D02*
X8811D01*
Y1242D01*
X8920D01*
Y1345D01*
D02*
G37*
G36*
X9891Y988D02*
X9782D01*
Y885D01*
X9891D01*
Y988D01*
D02*
G37*
G36*
X9440Y988D02*
X9331D01*
Y885D01*
X9440D01*
Y988D01*
D02*
G37*
%LPD*%
D10*
X5505Y7992D02*
X5679D01*
X5298Y8200D02*
X5505Y7992D01*
X5098Y7992D02*
X5101Y7994D01*
Y8200D01*
X6220Y4240D02*
Y4329D01*
X6282Y4391D01*
Y4471D01*
X6599Y4250D02*
Y4271D01*
X6479Y4391D02*
X6599Y4271D01*
X6479Y4391D02*
Y4471D01*
X9380Y2890D02*
X9443Y2827D01*
X9694D01*
Y3988D02*
X9717D01*
X10000Y3705D01*
Y3700D02*
Y3705D01*
D11*
X7266Y8324D02*
X7431Y8159D01*
X7677D01*
X6101Y8249D02*
X6282Y8430D01*
X5704Y8246D02*
X5888Y8430D01*
X5475Y8246D02*
X5704D01*
X6186Y8883D02*
X6260Y8957D01*
X5497Y8883D02*
X6186D01*
X5771Y9150D02*
X6190D01*
X5226Y9154D02*
X5497Y8883D01*
X4980Y9154D02*
X5226D01*
X5298Y8503D02*
Y8680D01*
X5355Y8738D02*
Y8750D01*
X5298Y8680D02*
X5355Y8738D01*
X8684Y3360D02*
X8690D01*
X5904Y8249D02*
X6085Y8430D01*
X5691Y4398D02*
Y4471D01*
X5357Y4064D02*
X5691Y4398D01*
X5494Y4341D02*
Y4471D01*
X5180Y4026D02*
X5494Y4341D01*
X5902Y4122D02*
X6085Y4305D01*
X5902Y3970D02*
Y4122D01*
X6085Y4305D02*
Y4471D01*
X5014Y3184D02*
Y4000D01*
X5298Y4283D01*
X5180Y3880D02*
Y4026D01*
X5298Y4283D02*
Y4471D01*
X5357Y3921D02*
Y4064D01*
Y3921D02*
X5441Y3837D01*
X6412Y4040D02*
Y4240D01*
X6342Y3970D02*
X6412Y4040D01*
X5902Y3970D02*
X6118D01*
X5441Y3837D02*
X5483D01*
X5484Y3836D02*
X6540D01*
X5483Y3837D02*
X5484Y3836D01*
X6540D02*
X6790Y3586D01*
X2677Y6813D02*
Y7480D01*
Y6813D02*
X2730Y6760D01*
X2579Y6459D02*
Y8681D01*
X2491Y6371D02*
X2579Y6459D01*
X2960Y5480D02*
X3850D01*
X2840Y5600D02*
X2960Y5480D01*
X3850D02*
X3872Y5503D01*
X3680Y5580D02*
X3800Y5700D01*
X3160Y5580D02*
X3680D01*
X3020Y5720D02*
X3160Y5580D01*
X3848Y9948D02*
X4845D01*
X3800Y9900D02*
X3848Y9948D01*
X3544Y10047D02*
X4886D01*
X3500Y10002D02*
X3544Y10047D01*
X3501Y8259D02*
X3872D01*
X3410Y8350D02*
Y8570D01*
Y8350D02*
X3501Y8259D01*
X3110Y7990D02*
Y8465D01*
Y7990D02*
X3303Y7797D01*
X3547Y7865D02*
X3872D01*
X3303Y7797D02*
X3479D01*
X3547Y7865D01*
X3542Y8062D02*
X3872D01*
X3420Y7940D02*
X3542Y8062D01*
X4925Y9481D02*
X5579D01*
X5906Y9154D01*
Y9154D02*
Y9154D01*
X4710Y9266D02*
X4925Y9481D01*
X4710Y9041D02*
Y9266D01*
X4710Y9022D02*
Y9041D01*
X4710Y9041D02*
X4710Y9041D01*
X4572Y8885D02*
X4710Y9022D01*
X4572Y8740D02*
Y8885D01*
X4671Y8613D02*
Y8844D01*
X4980Y9154D01*
X5101Y8503D02*
Y8669D01*
X5060Y8710D02*
Y8710D01*
Y8710D02*
X5101Y8669D01*
X2262Y3149D02*
Y4624D01*
X2065Y3068D02*
X2454Y2678D01*
X2360Y3190D02*
Y4665D01*
X2413Y2580D02*
X4410D01*
X2495Y2777D02*
X4328D01*
X2576Y2974D02*
X4247D01*
X1966Y3027D02*
X2413Y2580D01*
X2536Y2875D02*
X4288D01*
X2262Y3149D02*
X2536Y2875D01*
X2454Y2678D02*
X4369D01*
X2163Y3108D02*
X2495Y2777D01*
X1966Y3027D02*
Y4502D01*
X2065Y3068D02*
Y4542D01*
X2163Y3108D02*
Y4583D01*
X2360Y3190D02*
X2576Y2974D01*
X807Y5800D02*
X2065Y4542D01*
X906Y5841D02*
X2163Y4583D01*
X1635Y5390D02*
X2360Y4665D01*
X709Y5759D02*
X1966Y4502D01*
X1537Y5349D02*
X2262Y4624D01*
X4620Y3347D02*
Y4141D01*
X4288Y2875D02*
X4719Y3306D01*
X4369Y2678D02*
X4916Y3225D01*
X4410Y2580D02*
X5014Y3184D01*
X4328Y2777D02*
X4817Y3266D01*
X4247Y2974D02*
X4620Y3347D01*
X4719Y3306D02*
Y4182D01*
X4817Y3266D02*
Y4223D01*
X4916Y3225D02*
Y4459D01*
X1575Y3346D02*
Y3805D01*
X1330Y4576D02*
Y4830D01*
Y4576D02*
X1575Y4331D01*
X4673Y8537D02*
X4707Y8503D01*
X4673Y8537D02*
Y8611D01*
X4671Y8613D02*
X4673Y8611D01*
X4510Y8678D02*
X4572Y8740D01*
X4510Y8503D02*
Y8678D01*
X2055Y10173D02*
X2519Y10637D01*
X1771Y10784D02*
Y12162D01*
X1762Y10784D02*
X1766Y10788D01*
X2530Y4912D02*
X3512D01*
X2470Y10380D02*
Y10449D01*
Y10313D02*
Y10380D01*
X1771Y12162D02*
X1813Y12205D01*
X10581Y11181D02*
X10630Y11132D01*
X8194Y9776D02*
X8772Y10354D01*
X2547Y8992D02*
X3074Y8465D01*
X2547Y8992D02*
Y9833D01*
X2448Y8951D02*
X2677Y8722D01*
X2448Y8951D02*
Y9873D01*
X2350Y8910D02*
X2579Y8681D01*
X2350Y8910D02*
Y9914D01*
X2251Y8660D02*
Y9955D01*
X1930Y8199D02*
X2253Y8522D01*
Y8659D01*
X2251Y8660D02*
X2253Y8659D01*
X2859Y10145D02*
X4926D01*
X2547Y9833D02*
X2859Y10145D01*
X2153Y9996D02*
X2470Y10313D01*
X1562Y10376D02*
X1910Y10725D01*
X1661Y10336D02*
X2356Y11031D01*
X1759Y10295D02*
X2397Y10932D01*
X1858Y10254D02*
X2438Y10834D01*
X1956Y10213D02*
X2478Y10736D01*
X2251Y9955D02*
X2737Y10440D01*
X2350Y9914D02*
X2777Y10342D01*
X2448Y9873D02*
X2818Y10244D01*
X2153Y8708D02*
Y9996D01*
X2127Y8682D02*
X2153Y8708D01*
X2127Y8617D02*
Y8682D01*
X2110Y8600D02*
X2127Y8617D01*
X2055Y8749D02*
Y10173D01*
X1956Y8789D02*
Y10213D01*
X1858Y8830D02*
Y10254D01*
X1759Y8871D02*
Y10295D01*
X1661Y8912D02*
Y10336D01*
X1562Y8952D02*
Y10376D01*
X1930Y8624D02*
X2055Y8749D01*
X1635Y8468D02*
X1956Y8789D01*
X1537Y8509D02*
X1858Y8830D01*
X709Y8099D02*
X1562Y8952D01*
X807Y8058D02*
X1661Y8912D01*
X906Y8017D02*
X1759Y8871D01*
X2818Y10244D02*
X4967D01*
X2777Y10342D02*
X5008D01*
X2737Y10440D02*
X5049D01*
X2470Y10449D02*
X2560Y10539D01*
X5089D01*
X1869Y10884D02*
Y12058D01*
X1910Y10725D02*
Y10843D01*
X1869Y10884D02*
X1910Y10843D01*
X1672Y11033D02*
Y11418D01*
X1620Y10981D02*
X1672Y11033D01*
X1620Y10960D02*
Y10981D01*
X1762Y10784D02*
X1768D01*
X2677Y7480D02*
Y8722D01*
X5214Y9579D02*
X5970D01*
X4845Y9948D02*
X5214Y9579D01*
X5296Y9776D02*
X6090D01*
X4926Y10145D02*
X5296Y9776D01*
X5336Y9874D02*
X6354D01*
X4967Y10244D02*
X5336Y9874D01*
X5377Y9973D02*
X6173D01*
X5008Y10342D02*
X5377Y9973D01*
X5418Y10071D02*
X6069D01*
X5049Y10440D02*
X5418Y10071D01*
X5626Y10173D02*
X5680Y10227D01*
X5455Y10173D02*
X5626D01*
X5089Y10539D02*
X5455Y10173D01*
X4886Y10047D02*
X5255Y9677D01*
X6011D01*
X2519Y10637D02*
X5193D01*
X5510Y10320D01*
X5945Y10736D02*
X7200Y9481D01*
X2478Y10736D02*
X5945D01*
X5986Y10834D02*
X7241Y9579D01*
X2438Y10834D02*
X5986D01*
X6027Y10932D02*
X7282Y9677D01*
X2397Y10932D02*
X6027D01*
X6068Y11031D02*
X7323Y9776D01*
X2356Y11031D02*
X6068D01*
X14313Y3971D02*
X14590D01*
X14094Y3886D02*
X14228D01*
X14313Y3971D01*
X4707Y4333D02*
X4817Y4223D01*
X4510Y4391D02*
X4719Y4182D01*
X4502Y4260D02*
X4620Y4141D01*
X4313Y4387D02*
X4440Y4260D01*
X4502D01*
X1930Y5512D02*
Y8199D01*
X1733Y5430D02*
Y8281D01*
X1930Y8477D01*
Y8540D01*
X1832Y5471D02*
Y8240D01*
X2110Y8518D02*
Y8600D01*
X1832Y8240D02*
X2110Y8518D01*
X1930Y8540D02*
Y8624D01*
X13020Y1981D02*
X13050Y1951D01*
X13020Y1981D02*
Y2086D01*
X12705Y1981D02*
Y2086D01*
X12675Y1951D02*
X12705Y1981D01*
X12863Y1951D02*
Y2086D01*
X8102Y1401D02*
X8514Y989D01*
X7990Y1401D02*
X8102D01*
X7840Y1551D02*
Y1796D01*
Y1551D02*
X7990Y1401D01*
X8020Y1302D02*
X8350Y972D01*
X7950Y1302D02*
X8020D01*
X7741Y1511D02*
X7950Y1302D01*
X7741Y1511D02*
Y1734D01*
X7834Y1802D02*
X7840Y1796D01*
X7701Y1774D02*
X7741Y1734D01*
X7696Y1802D02*
X7701Y1796D01*
Y1774D02*
Y1796D01*
X8350Y580D02*
Y972D01*
X8480Y3564D02*
X8684Y3360D01*
X8264Y3564D02*
X8480D01*
X8420Y3352D02*
Y3422D01*
X8144Y3075D02*
X8420Y3352D01*
X8175Y3475D02*
X8264Y3564D01*
X8175Y3246D02*
Y3475D01*
X8129Y3200D02*
X8175Y3246D01*
X8210Y3670D02*
X8680D01*
X7947Y3156D02*
X8077Y3286D01*
Y3537D02*
X8210Y3670D01*
X8077Y3286D02*
Y3537D01*
X8045Y3116D02*
X8129Y3200D01*
Y3200D01*
X1575Y3225D02*
Y3346D01*
X2110Y6866D02*
X2244Y6732D01*
X2110Y6866D02*
Y7073D01*
X709Y5759D02*
Y8099D01*
X906Y5841D02*
Y8017D01*
X807Y5800D02*
Y8058D01*
X1537Y5349D02*
Y8509D01*
X1635Y5390D02*
Y8468D01*
X1832Y5471D02*
X2489Y4814D01*
X1930Y5512D02*
X2530Y4912D01*
X1733Y5430D02*
X2448Y4715D01*
X2677Y7480D02*
X3110D01*
X2489Y4814D02*
X3602D01*
X2448Y4715D02*
X3700D01*
X6824Y9160D02*
X6831Y9154D01*
X6470Y9160D02*
X6824D01*
X6162Y9468D02*
X6470Y9160D01*
X6081Y9468D02*
X6162D01*
X5970Y9579D02*
X6081Y9468D01*
X6840Y8880D02*
X6952D01*
X5581Y8683D02*
X6643D01*
X6840Y8880D01*
X7482Y8988D02*
X8520D01*
X7069Y8576D02*
X7482Y8988D01*
X7441Y9087D02*
X8479D01*
X7037Y8683D02*
X7441Y9087D01*
X6676Y8576D02*
X6881Y8781D01*
X6997D01*
X7401Y9185D02*
X8439D01*
X6997Y8781D02*
X7401Y9185D01*
X7356Y9284D02*
X8398D01*
X6952Y8880D02*
X7356Y9284D01*
X6980Y8683D02*
X7037D01*
X7069Y8576D02*
Y8579D01*
Y8503D02*
Y8576D01*
X5888Y8430D02*
Y8503D01*
X6085Y8430D02*
Y8503D01*
X6282Y8430D02*
Y8503D01*
X7660D02*
Y8690D01*
X7560Y8790D02*
X7660Y8690D01*
X6354Y9874D02*
X6410Y9930D01*
X6122Y9566D02*
X6277D01*
X6011Y9677D02*
X6122Y9566D01*
X6090Y9776D02*
X6156Y9710D01*
X6872Y8576D02*
X6980Y8683D01*
X6872Y8503D02*
Y8576D01*
X13410Y16420D02*
X13493Y16337D01*
X5529Y8631D02*
X5581Y8683D01*
X6277Y9566D02*
X6330Y9620D01*
X13540Y13350D02*
X14013D01*
X14446Y12917D01*
Y10336D02*
Y12917D01*
X14071Y9961D02*
X14446Y10336D01*
X13602Y10059D02*
X13976Y10433D01*
X12274Y10059D02*
X13602D01*
X12175Y10157D02*
X12274Y10059D01*
X8935Y9961D02*
X14071D01*
X8976Y9862D02*
X14111D01*
X9017Y9764D02*
X14152D01*
X9058Y9665D02*
X14193D01*
X9099Y9567D02*
X14234D01*
X14152Y9764D02*
X14643Y10255D01*
X8520Y8988D02*
X9099Y9567D01*
X8439Y9185D02*
X9017Y9764D01*
X14193Y9665D02*
X14742Y10214D01*
X8398Y9284D02*
X8976Y9862D01*
X14111D02*
X14545Y10296D01*
X8479Y9087D02*
X9058Y9665D01*
X8357Y9382D02*
X8935Y9961D01*
X14234Y9567D02*
X14840Y10173D01*
X14545Y10296D02*
Y12958D01*
X13395Y14108D02*
X14545Y12958D01*
X13395Y14108D02*
Y16263D01*
X9648Y8890D02*
X10168Y9410D01*
X8030Y8890D02*
X9648D01*
X7857Y8717D02*
X8030Y8890D01*
X7857Y8503D02*
Y8717D01*
X3709Y5109D02*
X3872D01*
X3512Y4912D02*
X3709Y5109D01*
X3602Y4814D02*
X3700Y4912D01*
Y4715D02*
X3872D01*
X3700Y4912D02*
X3872D01*
X3800Y5700D02*
X3872D01*
X13592Y14189D02*
X14742Y13039D01*
X13690Y14230D02*
X14840Y13080D01*
X13690Y14230D02*
Y18220D01*
X13592Y14189D02*
Y18261D01*
X13493Y14149D02*
X14643Y12999D01*
X13493Y14149D02*
Y16337D01*
X13070Y16430D02*
X13228D01*
X13395Y16263D01*
X13880Y18549D02*
Y19110D01*
X13630Y19360D02*
X13880Y19110D01*
X13000Y19360D02*
X13630D01*
X12845Y19205D02*
X13000Y19360D01*
X13592Y18261D02*
X13880Y18549D01*
X14030Y18560D02*
Y19200D01*
X13690Y18220D02*
X14030Y18560D01*
X1763Y12356D02*
Y13370D01*
X1197D02*
X1763D01*
X1960Y12149D02*
Y14280D01*
X1869Y12058D02*
X1960Y12149D01*
X1862Y12253D02*
Y14321D01*
X1814Y12205D02*
X1862Y12253D01*
X1671Y12264D02*
X1763Y12356D01*
Y13370D02*
Y14361D01*
X1671Y11419D02*
Y12264D01*
X1763Y14361D02*
X3233Y15831D01*
X1862Y14321D02*
X3350Y15809D01*
X7266Y8324D02*
Y8503D01*
X1671Y11419D02*
X1672Y11418D01*
X1960Y14280D02*
X3448Y15768D01*
X1181Y13386D02*
X1197Y13370D01*
X3448Y15768D02*
Y16163D01*
X3219Y16393D02*
X3448Y16163D01*
X3101Y16393D02*
X3219D01*
X3017Y15963D02*
X3090Y15890D01*
X3017Y15963D02*
Y16309D01*
X3101Y16393D01*
X14840Y10173D02*
Y13080D01*
X14742Y10214D02*
Y13039D01*
X5697Y1660D02*
X5899Y1861D01*
X6216Y2295D02*
X6571Y1939D01*
X6593D01*
X6180Y2340D02*
X6198Y2322D01*
X5862Y2340D02*
X6180D01*
X6170Y2295D02*
X6216D01*
X5899Y1861D02*
X6170D01*
X5670Y1660D02*
X5697D01*
X6470Y2260D02*
X6515Y2215D01*
X10630Y10433D02*
Y11132D01*
X8813Y10256D02*
X11504D01*
X11526Y10277D02*
Y10610D01*
X11504Y10256D02*
X11526Y10277D01*
X8854Y10157D02*
X11545D01*
X11959Y11181D02*
X12156D01*
X11722Y10945D02*
X11959Y11181D01*
X11722Y10335D02*
Y10945D01*
X11545Y10157D02*
X11722Y10335D01*
X8895Y10059D02*
X12077D01*
X12175Y10157D01*
X8772Y10354D02*
X10551D01*
X10630Y10433D01*
X8275Y9579D02*
X8854Y10157D01*
X7241Y9579D02*
X8275D01*
X8316Y9481D02*
X8895Y10059D01*
X7200Y9481D02*
X8316D01*
X7160Y9382D02*
X8357D01*
X7323Y9776D02*
X8194D01*
X7282Y9677D02*
X8235D01*
X8813Y10256D01*
X6379Y10163D02*
X7160Y9382D01*
X6161Y10163D02*
X6379D01*
X6069Y10071D02*
X6161Y10163D01*
X6173Y9973D02*
X6220Y10020D01*
X14643Y10255D02*
Y12999D01*
X7411Y1632D02*
Y1650D01*
Y1612D02*
Y1632D01*
X7558Y1688D02*
X7598Y1648D01*
X7558Y1688D02*
Y1802D01*
X7598Y1642D02*
Y1648D01*
X7282Y1779D02*
Y1802D01*
Y1779D02*
X7411Y1650D01*
X7007Y1662D02*
Y1802D01*
Y1662D02*
X7037Y1632D01*
X7145Y1726D02*
Y1802D01*
X7224Y1632D02*
Y1647D01*
X7145Y1726D02*
X7224Y1647D01*
X10168Y9410D02*
X12352D01*
X12589Y9173D01*
X6156Y9710D02*
X6180D01*
X6330Y9620D02*
X6350D01*
X5529Y8537D02*
Y8631D01*
X5494Y8503D02*
X5529Y8537D01*
X6515Y2215D02*
X6593D01*
X6790Y3377D02*
Y3586D01*
X6888Y3421D02*
Y3860D01*
Y3421D02*
X7145Y3165D01*
X6795Y3953D02*
X6888Y3860D01*
X4904Y4471D02*
X4916Y4459D01*
X7145Y3042D02*
Y3165D01*
X3233Y15831D02*
Y15997D01*
X3170Y16060D02*
X3233Y15997D01*
X3350Y15809D02*
Y16082D01*
X3160Y16250D02*
X3182D01*
X3350Y16082D01*
X8827Y968D02*
X8970D01*
X8798Y939D02*
X8827Y968D01*
X8798Y919D02*
Y939D01*
X8655Y776D02*
X8798Y919D01*
X8635Y776D02*
X8655D01*
X8514Y898D02*
X8635Y776D01*
X8514Y898D02*
Y989D01*
X8065Y324D02*
X8207Y466D01*
X8236D02*
X8350Y580D01*
X8207Y466D02*
X8236D01*
X10662Y5100D02*
X10860D01*
X10662Y4850D02*
X10860D01*
X10662Y4600D02*
X10860D01*
X6676Y8503D02*
Y8576D01*
X4510Y4391D02*
Y4471D01*
X4707Y4333D02*
Y4471D01*
X4313Y4387D02*
Y4471D01*
X7436Y3746D02*
X7680Y3990D01*
X7750D01*
X7827Y3839D02*
X7918Y3930D01*
X7534Y3691D02*
X7682Y3839D01*
X7827D01*
X7918Y3930D02*
X7930D01*
X7723Y3740D02*
X7930D01*
X7633Y3651D02*
X7723Y3740D01*
X7534Y3065D02*
Y3691D01*
X7436Y3134D02*
Y3746D01*
X7633Y3194D02*
Y3651D01*
X8144Y2913D02*
Y3075D01*
X10322Y4715D02*
X10438Y4600D01*
X10069Y4715D02*
X10322D01*
X10376Y4912D02*
X10438Y4850D01*
X10069Y4912D02*
X10376D01*
X10429Y5109D02*
X10438Y5100D01*
X10069Y5109D02*
X10429D01*
X8045Y2954D02*
Y3116D01*
X7534Y3065D02*
X7558Y3042D01*
X7007D02*
Y3160D01*
X6790Y3377D02*
X7007Y3160D01*
X7857Y2766D02*
X8045Y2954D01*
X7859Y2628D02*
X8144Y2913D01*
X7834Y2628D02*
X7859D01*
X7947Y2995D02*
Y3156D01*
X7856Y2904D02*
X7947Y2995D01*
X7633Y3194D02*
X7696Y3131D01*
X7420Y3042D02*
Y3118D01*
X7436Y3134D01*
X6571Y1939D02*
X6593D01*
X7696Y3042D02*
Y3131D01*
X7834Y2904D02*
X7856D01*
X7834Y2766D02*
X7857D01*
D12*
X2283Y5787D02*
Y6080D01*
X3270Y5730D02*
Y6095D01*
X3664Y6093D02*
X3872D01*
X3644Y6113D02*
X3664Y6093D01*
X3288Y6113D02*
X3644D01*
X3270Y6095D02*
X3288Y6113D01*
X14370Y4606D02*
X14646D01*
X13937Y4173D02*
X14370Y4606D01*
X13937Y4043D02*
Y4173D01*
X8660Y4050D02*
X8884D01*
X8946Y3988D01*
X7767Y1290D02*
X7888Y1169D01*
X7760Y1290D02*
X7767D01*
X8533Y3168D02*
X8604D01*
X8483Y3218D02*
X8533Y3168D01*
X7886Y3574D02*
X7920Y3540D01*
X7774Y3574D02*
X7886D01*
X6880Y12920D02*
X7100D01*
X7908Y12112D01*
X8423Y12780D02*
X8623Y12980D01*
X8673D01*
X8680Y12988D01*
X8160Y12780D02*
Y13087D01*
Y12388D02*
Y12720D01*
X7908Y12112D02*
X7978D01*
X7985Y12105D01*
X12243Y2151D02*
X12245Y2153D01*
X12530D01*
X6151Y3100D02*
X6157Y3094D01*
X5900Y3100D02*
X6151D01*
X7857Y4267D02*
Y4471D01*
X7189Y3688D02*
X7303Y3574D01*
X7067Y3688D02*
X7189D01*
X10287Y6093D02*
X10291Y6097D01*
X10287Y6093D02*
X10287Y6093D01*
X8483Y3218D02*
X8487D01*
D13*
X2660Y13431D02*
G03*
X2660Y13770I-44J170D01*
G01*
X2520D02*
G03*
X2520Y13431I44J-170D01*
G01*
X3660D02*
G03*
X3660Y13770I-44J170D01*
G01*
X3520D02*
G03*
X3520Y13431I44J-170D01*
G01*
X8644Y4297D02*
Y4471D01*
Y4297D02*
X8680Y4261D01*
X9432Y4065D02*
X9452D01*
X9075Y4286D02*
X9316Y4045D01*
X9432D01*
X8250Y4240D02*
X8671Y3820D01*
X8250Y4240D02*
Y4471D01*
X8671Y3820D02*
X8690D01*
X8941Y4286D02*
X9075D01*
X8841Y4385D02*
X8941Y4286D01*
X9308Y4262D02*
Y4314D01*
X9235Y4387D02*
X9308Y4314D01*
X9235Y4387D02*
Y4471D01*
X7069D02*
Y4581D01*
X7189Y4701D01*
X7266Y4471D02*
Y4552D01*
X7376Y4662D01*
Y4711D01*
X8054Y4681D02*
X8064Y4691D01*
X8054Y4471D02*
Y4681D01*
X7857Y4471D02*
X7866Y4481D01*
Y4607D01*
X7910Y4651D01*
Y4800D01*
X7660Y4610D02*
X7750Y4700D01*
X7660Y4471D02*
Y4610D01*
X7463Y4471D02*
Y4589D01*
X7590Y4716D02*
Y4800D01*
X7463Y4589D02*
X7590Y4716D01*
Y4800D02*
Y4810D01*
X8841Y4385D02*
Y4471D01*
D15*
X12756Y5866D02*
G03*
X12787Y5853I31J31D01*
G01*
X9431Y4368D02*
X9547Y4252D01*
X6247Y3004D02*
X6366D01*
X6157Y2664D02*
X6333Y2840D01*
X5945Y2836D02*
X6157Y2624D01*
X5820Y4260D02*
X5888Y4328D01*
Y4471D01*
X4810Y8700D02*
X4904Y8606D01*
X12787Y5853D02*
X13070D01*
X13071Y5854D01*
Y6191D01*
X7351Y1454D02*
X7507Y1298D01*
X7993Y1832D02*
X8302Y1523D01*
Y1466D02*
Y1523D01*
Y1412D02*
X8382Y1332D01*
X8302Y1412D02*
Y1466D01*
X9431Y4368D02*
Y4471D01*
X9882Y4213D02*
X9911Y4183D01*
X9793Y4213D02*
X9882D01*
X9730Y4276D02*
X9793Y4213D01*
X9729Y4276D02*
X9730D01*
X9678Y4328D02*
X9729Y4276D01*
X9678Y4328D02*
Y4328D01*
X9628Y4378D02*
X9678Y4328D01*
X9628Y4378D02*
Y4471D01*
X10069Y7865D02*
X10298D01*
X10069Y7668D02*
X10298D01*
X3644Y7078D02*
X3872D01*
X3644Y7274D02*
X3872D01*
X3644Y7471D02*
X3872D01*
X4904Y8503D02*
Y8606D01*
X5101Y4271D02*
Y4471D01*
X10069Y4242D02*
Y4471D01*
X10269D02*
X10340Y4400D01*
X10069Y4471D02*
X10269D01*
X10069Y8503D02*
Y8732D01*
X9628Y8503D02*
Y8732D01*
X9431Y8503D02*
Y8732D01*
X9235Y8503D02*
Y8732D01*
X9038Y8503D02*
Y8732D01*
X8841Y8503D02*
Y8732D01*
X8644Y8503D02*
Y8732D01*
X8054Y8705D02*
X8090Y8741D01*
X8054Y8503D02*
Y8705D01*
X8447Y8503D02*
Y8732D01*
X8250Y8503D02*
Y8732D01*
X3644Y7668D02*
X3872D01*
X5800Y1570D02*
X6030D01*
X6041Y1582D01*
X6407D02*
X6593Y1769D01*
X6266Y1582D02*
X6407D01*
X7770Y510D02*
X7771D01*
X7910Y648D01*
X7937D01*
X8065Y776D01*
X7888Y953D02*
Y1169D01*
Y953D02*
X7917Y924D01*
Y904D02*
Y924D01*
Y904D02*
X8045Y776D01*
X8065D01*
X7373Y872D02*
Y1171D01*
X7058Y782D02*
X7108Y732D01*
X7307Y806D02*
X7373Y872D01*
X7102Y806D02*
X7307D01*
X7088Y792D02*
X7102Y806D01*
X6869Y1551D02*
X6966Y1454D01*
X7507Y1298D02*
X7507D01*
X7592Y1214D01*
Y1185D02*
Y1214D01*
Y1185D02*
X7606Y1172D01*
X6966Y1454D02*
X7351D01*
X7606Y604D02*
Y1172D01*
X6593Y1769D02*
Y1802D01*
X8382Y1332D02*
Y1338D01*
X8353Y1368D02*
X8382Y1338D01*
X8083Y1952D02*
X8393Y1642D01*
X6869Y1551D02*
Y1802D01*
X6968Y402D02*
X7403D01*
X6594D02*
Y777D01*
X6633Y816D01*
X6650Y832D02*
Y850D01*
X6633Y816D02*
X6650Y832D01*
X6731Y1445D02*
Y1802D01*
X6633Y1347D02*
X6731Y1445D01*
X7403Y402D02*
X7606Y604D01*
X6333Y2840D02*
X6593D01*
Y2904D01*
Y2766D02*
Y2840D01*
X6157Y2624D02*
Y2664D01*
Y3094D02*
X6247Y3004D01*
X7915Y3349D02*
X7920Y3344D01*
X7774Y3349D02*
X7915D01*
X7794Y3216D02*
Y3334D01*
Y3216D02*
X7834Y3176D01*
Y3042D02*
Y3176D01*
X7420Y2215D02*
X7730D01*
X7732Y2214D02*
X7753D01*
X7834Y2133D01*
Y2077D02*
Y2133D01*
X8346Y1911D02*
X8386D01*
X8137Y2119D02*
X8346Y1911D01*
X7730Y2215D02*
X7732Y2214D01*
X7282Y3042D02*
Y3347D01*
X7115Y3514D02*
X7282Y3347D01*
D16*
X2830Y6440D02*
Y6555D01*
X2910Y6635D01*
X3404D02*
X3739Y6300D01*
X2910Y6635D02*
X3404D01*
X2900D02*
X2910D01*
Y6646D01*
X2914Y6650D01*
X2916D01*
X3585Y5897D02*
X3872D01*
X3585Y8503D02*
X3872D01*
X3585Y4471D02*
X3872D01*
X3739Y6300D02*
X3863D01*
X3872Y6290D01*
D17*
X4117Y3869D02*
Y4471D01*
X2770Y4070D02*
X3075Y3765D01*
X3457D01*
X3782Y3790D02*
X3939Y3948D01*
X3679Y3790D02*
X3782D01*
X3654Y3765D02*
X3679Y3790D01*
X3467Y3765D02*
X3654D01*
X6156Y1107D02*
X6270Y993D01*
X6156Y1107D02*
Y1240D01*
D20*
X3620Y6645D02*
X3778Y6487D01*
X3620Y6645D02*
Y6730D01*
X3778Y6487D02*
X3872D01*
X5500Y3980D02*
X5668D01*
X2689Y9051D02*
X2890Y8850D01*
X2990Y8970D02*
X3027Y9007D01*
X3428D01*
X2689Y9051D02*
Y9190D01*
X3270Y7200D02*
X3400Y7330D01*
X3270Y7028D02*
Y7200D01*
X2940Y7130D02*
X3168D01*
X3270Y7028D01*
X3546Y5306D02*
X3872D01*
X3201Y3489D02*
Y3540D01*
Y3489D02*
X3330Y3360D01*
X4444Y8776D02*
Y8834D01*
X4313Y8503D02*
X4329Y8519D01*
X4294Y8472D02*
X4324Y8503D01*
X4329Y8519D02*
Y8662D01*
X4444Y8834D02*
X4457Y8847D01*
X4329Y8662D02*
X4444Y8776D01*
X14094Y4043D02*
X14170Y4119D01*
X14292D01*
X13780Y3686D02*
Y3886D01*
X13722Y3629D02*
X13780Y3686D01*
X13071Y6565D02*
Y6575D01*
X12789D02*
X13353D01*
X13071D02*
Y6998D01*
X6920Y4250D02*
X7410D01*
X2457Y13600D02*
X2723D01*
X3457Y13600D02*
X3723D01*
X6873Y4297D02*
X6920Y4250D01*
X5869Y4452D02*
X5888Y4471D01*
X6873Y4297D02*
Y4471D01*
X6872Y4471D02*
X6873Y4471D01*
X8179Y3890D02*
X8209Y3860D01*
X8410D01*
X8447Y4334D02*
Y4471D01*
X6463Y3152D02*
X6573Y3042D01*
X6593D01*
X10069Y8503D02*
X10346D01*
X10287Y6093D02*
X10346D01*
X10069D02*
X10287D01*
X10069Y5896D02*
X10069Y5896D01*
X10069Y7274D02*
X10346D01*
X10069Y7078D02*
X10346D01*
X10069Y6684D02*
X10346D01*
X10069Y6487D02*
X10346D01*
X10069Y5306D02*
X10346D01*
D26*
X6342Y3970D02*
D03*
X6118D02*
D03*
X5678D02*
D03*
X5902D02*
D03*
X4445Y8830D02*
D03*
X4221D02*
D03*
X9051Y1555D02*
D03*
X9276D02*
D03*
X14170Y4369D02*
D03*
X14395Y4369D02*
D03*
X12564Y6575D02*
D03*
X12789D02*
D03*
X13352D02*
D03*
X13577D02*
D03*
X7381Y1169D02*
D03*
X7606Y1169D02*
D03*
X8112Y1169D02*
D03*
X7888D02*
D03*
X8527Y1466D02*
D03*
X8302D02*
D03*
X10662Y4600D02*
D03*
X10438D02*
D03*
X10662Y4850D02*
D03*
X10438D02*
D03*
X10662Y5100D02*
D03*
X10438D02*
D03*
X8059Y2353D02*
D03*
X8283D02*
D03*
X6041Y1582D02*
D03*
X6266D02*
D03*
X12193Y929D02*
D03*
X12417D02*
D03*
X9499Y1250D02*
D03*
X9723D02*
D03*
X5862Y1820D02*
D03*
X5638D02*
D03*
X5862Y2340D02*
D03*
X5638D02*
D03*
X8489Y2353D02*
D03*
X8713D02*
D03*
D27*
X2945Y9415D02*
D03*
Y9190D02*
D03*
X2689Y9415D02*
D03*
Y9190D02*
D03*
X2916Y6650D02*
D03*
Y6875D02*
D03*
X3457Y3765D02*
D03*
Y3540D02*
D03*
X3201Y3765D02*
D03*
Y3540D02*
D03*
X13070Y5629D02*
D03*
Y5853D02*
D03*
X13935Y2671D02*
D03*
Y2447D02*
D03*
X9281Y1262D02*
D03*
Y1038D02*
D03*
X8386Y2135D02*
D03*
Y1911D02*
D03*
X8970Y968D02*
D03*
Y1192D02*
D03*
X12193Y1381D02*
D03*
Y1157D02*
D03*
X12633Y707D02*
D03*
X12633Y931D02*
D03*
X12243Y2161D02*
D03*
Y1937D02*
D03*
X7303Y3349D02*
D03*
Y3574D02*
D03*
X7774Y3349D02*
D03*
Y3574D02*
D03*
X9941Y1262D02*
D03*
Y1038D02*
D03*
D28*
X3939Y3948D02*
D03*
Y3357D02*
D03*
X3428Y9597D02*
D03*
Y9007D02*
D03*
D29*
X3270Y7028D02*
D03*
Y6497D02*
D03*
X14037Y3535D02*
D03*
Y3004D02*
D03*
X17920Y1746D02*
D03*
Y1214D02*
D03*
X6633Y816D02*
D03*
Y1347D02*
D03*
D30*
X2729Y6054D02*
D03*
X3260D02*
D03*
X7619Y792D02*
D03*
X7088D02*
D03*
X6156Y1240D02*
D03*
X5624D02*
D03*
X6157Y2684D02*
D03*
X5625D02*
D03*
X5625Y3604D02*
D03*
X6157D02*
D03*
X5625Y3144D02*
D03*
X6157D02*
D03*
D31*
X3949Y8908D02*
D03*
Y9282D02*
D03*
X13935Y1806D02*
D03*
Y1432D02*
D03*
X13071Y6565D02*
D03*
Y6191D02*
D03*
D32*
X14350Y2168D02*
D03*
X13956D02*
D03*
D33*
X13780Y3886D02*
D03*
X13937Y3886D02*
D03*
X14094Y3886D02*
D03*
X13780Y4043D02*
D03*
X13937Y4043D02*
D03*
X14094Y4043D02*
D03*
D34*
X13071Y6998D02*
D03*
D35*
X13652Y7598D02*
D03*
X12490Y7598D02*
D03*
D36*
X9694Y3988D02*
D03*
X8946D02*
D03*
X9694Y2827D02*
D03*
X8946D02*
D03*
D37*
X2244Y5748D02*
D03*
Y6732D02*
D03*
Y7717D02*
D03*
D38*
X6170Y1861D02*
D03*
Y2295D02*
D03*
D39*
X7696Y1802D02*
D03*
X7558D02*
D03*
X7420D02*
D03*
X7282D02*
D03*
X7145D02*
D03*
X7007D02*
D03*
X6869D02*
D03*
X6731D02*
D03*
X6593D02*
D03*
X7558Y1939D02*
D03*
X7420D02*
D03*
X7282D02*
D03*
X7145D02*
D03*
X7007D02*
D03*
X6869D02*
D03*
X6731D02*
D03*
X6593D02*
D03*
X7420Y2077D02*
D03*
X7282D02*
D03*
X7145D02*
D03*
X7007D02*
D03*
X6869D02*
D03*
X6731D02*
D03*
X6593D02*
D03*
X7558Y2215D02*
D03*
X7420D02*
D03*
X7282D02*
D03*
X7145D02*
D03*
X7007D02*
D03*
X6869D02*
D03*
X6731D02*
D03*
X6593D02*
D03*
X7834Y2353D02*
D03*
X7696D02*
D03*
X7558D02*
D03*
X7420D02*
D03*
X7282D02*
D03*
X7145D02*
D03*
X7007D02*
D03*
X6869D02*
D03*
X6731D02*
D03*
X6593D02*
D03*
X7834Y2491D02*
D03*
X7696D02*
D03*
X7558D02*
D03*
X7420D02*
D03*
X7282D02*
D03*
X7145D02*
D03*
X7007D02*
D03*
X6869D02*
D03*
X6731D02*
D03*
X6593D02*
D03*
X7834Y2628D02*
D03*
X7696D02*
D03*
X7558D02*
D03*
X7420D02*
D03*
X7282D02*
D03*
X7145D02*
D03*
X7007D02*
D03*
X6869D02*
D03*
X6731D02*
D03*
X6593D02*
D03*
X7834Y2766D02*
D03*
X7696D02*
D03*
X7420D02*
D03*
X7282D02*
D03*
X7145D02*
D03*
X7007D02*
D03*
X6869D02*
D03*
X6731D02*
D03*
X6593D02*
D03*
X7834Y2904D02*
D03*
X7696D02*
D03*
X7558D02*
D03*
X7420D02*
D03*
X7282D02*
D03*
X7145D02*
D03*
X7007D02*
D03*
X6869D02*
D03*
X6731D02*
D03*
X6593D02*
D03*
X7834Y3042D02*
D03*
X7696D02*
D03*
X7558D02*
D03*
X7420D02*
D03*
X7282D02*
D03*
X7145D02*
D03*
X7007D02*
D03*
X6869D02*
D03*
X6731D02*
D03*
X7834Y1802D02*
D03*
X7696Y2077D02*
D03*
X7834D02*
D03*
X6593Y3042D02*
D03*
X2457Y13600D02*
D03*
X2723D02*
D03*
X3723Y13600D02*
D03*
X3457D02*
D03*
D40*
X10881Y5887D02*
D03*
Y6694D02*
D03*
X11629D02*
D03*
Y5887D02*
D03*
D41*
X10799Y6290D02*
D03*
X11712D02*
D03*
D42*
X12589Y9173D02*
D03*
Y10748D02*
D03*
X9931Y9173D02*
D03*
D43*
Y10748D02*
D03*
D44*
X10272Y824D02*
D03*
Y1336D02*
D03*
X11453Y824D02*
D03*
Y1336D02*
D03*
D45*
X9671Y17421D02*
D03*
Y16421D02*
D03*
Y15421D02*
D03*
X8423Y17381D02*
D03*
Y16421D02*
D03*
Y15460D02*
D03*
D46*
X7695Y16901D02*
D03*
Y15940D02*
D03*
D47*
X8147Y18230D02*
D03*
Y13830D02*
D03*
D48*
X10057Y18230D02*
D03*
Y13830D02*
D03*
D49*
X10982Y18141D02*
D03*
D50*
X11691Y18033D02*
D03*
D51*
X12852Y17287D02*
D03*
Y15554D02*
D03*
D52*
X12429Y16637D02*
D03*
D53*
X12084Y13830D02*
D03*
D54*
X9333Y7747D02*
D03*
Y5227D02*
D03*
Y6487D02*
D03*
Y5857D02*
D03*
Y7117D02*
D03*
X8546Y5227D02*
D03*
Y6487D02*
D03*
Y5857D02*
D03*
Y7117D02*
D03*
Y7747D02*
D03*
X6971Y5227D02*
D03*
Y6487D02*
D03*
Y5857D02*
D03*
Y7117D02*
D03*
Y7747D02*
D03*
X7758Y5227D02*
D03*
Y6487D02*
D03*
Y5857D02*
D03*
Y7117D02*
D03*
Y7747D02*
D03*
X6183Y5227D02*
D03*
Y6487D02*
D03*
Y5857D02*
D03*
Y7117D02*
D03*
Y7747D02*
D03*
X5396D02*
D03*
Y7117D02*
D03*
Y5857D02*
D03*
Y6487D02*
D03*
Y5227D02*
D03*
X4609D02*
D03*
Y6487D02*
D03*
Y5857D02*
D03*
Y7117D02*
D03*
Y7747D02*
D03*
D55*
X8644Y4774D02*
D03*
X8447D02*
D03*
X8841D02*
D03*
X8250D02*
D03*
X6282D02*
D03*
X6676D02*
D03*
X6479D02*
D03*
X6872D02*
D03*
X5298D02*
D03*
X4904D02*
D03*
X5101D02*
D03*
X4707D02*
D03*
X8644Y8200D02*
D03*
X8447D02*
D03*
X8841D02*
D03*
X8250D02*
D03*
X6282D02*
D03*
X6676D02*
D03*
X6479D02*
D03*
X6872D02*
D03*
X5298D02*
D03*
X4904D02*
D03*
X5101D02*
D03*
X4707D02*
D03*
D56*
X3872Y4715D02*
D03*
X10069Y6093D02*
D03*
X3872Y8259D02*
D03*
Y8062D02*
D03*
Y7865D02*
D03*
Y7668D02*
D03*
Y7471D02*
D03*
Y7274D02*
D03*
Y7078D02*
D03*
Y6881D02*
D03*
Y6684D02*
D03*
Y6487D02*
D03*
Y6290D02*
D03*
Y6093D02*
D03*
Y5896D02*
D03*
Y5700D02*
D03*
Y5503D02*
D03*
Y5306D02*
D03*
Y5109D02*
D03*
Y4912D02*
D03*
X10069Y4715D02*
D03*
Y4912D02*
D03*
Y5109D02*
D03*
Y5306D02*
D03*
Y5503D02*
D03*
Y5700D02*
D03*
Y5896D02*
D03*
Y6290D02*
D03*
Y6487D02*
D03*
Y6684D02*
D03*
Y6881D02*
D03*
Y7078D02*
D03*
Y7274D02*
D03*
Y7471D02*
D03*
Y7668D02*
D03*
Y7865D02*
D03*
Y8062D02*
D03*
Y8259D02*
D03*
D57*
X9825Y4471D02*
D03*
X4117D02*
D03*
X4313D02*
D03*
X4510D02*
D03*
X4707D02*
D03*
X4904D02*
D03*
X5101D02*
D03*
X5298D02*
D03*
X5494D02*
D03*
X5691D02*
D03*
X5888D02*
D03*
X6085D02*
D03*
X6282D02*
D03*
X6479D02*
D03*
X6676D02*
D03*
X6872D02*
D03*
X7069D02*
D03*
X7266D02*
D03*
X7463D02*
D03*
X7660D02*
D03*
X7857D02*
D03*
X8054D02*
D03*
X8250D02*
D03*
X8447D02*
D03*
X8644D02*
D03*
X8841D02*
D03*
X9038D02*
D03*
X9235D02*
D03*
X9431D02*
D03*
X9628D02*
D03*
X9825Y8503D02*
D03*
X9628D02*
D03*
X9431D02*
D03*
X9235D02*
D03*
X9038D02*
D03*
X8841D02*
D03*
X8644D02*
D03*
X8447D02*
D03*
X8250D02*
D03*
X8054D02*
D03*
X7857D02*
D03*
X7660D02*
D03*
X7463D02*
D03*
X7266D02*
D03*
X7069D02*
D03*
X6872D02*
D03*
X6676D02*
D03*
X6479D02*
D03*
X6282D02*
D03*
X6085D02*
D03*
X5888D02*
D03*
X5691D02*
D03*
X5494D02*
D03*
X5298D02*
D03*
X5101D02*
D03*
X4904D02*
D03*
X4707D02*
D03*
X4510D02*
D03*
X4313D02*
D03*
X4117D02*
D03*
D58*
X10069Y4471D02*
D03*
X3872D02*
D03*
X10069Y8503D02*
D03*
X3872D02*
D03*
D59*
X19193Y11417D02*
D03*
Y787D02*
D03*
D60*
Y1969D02*
D03*
Y10236D02*
D03*
Y6102D02*
D03*
D61*
X18300Y1283D02*
D03*
Y1677D02*
D03*
D62*
X9065Y1821D02*
D03*
Y1978D02*
D03*
X9262Y1821D02*
D03*
Y1978D02*
D03*
X9163Y2136D02*
D03*
D63*
X6594Y402D02*
D03*
X6968D02*
D03*
D64*
X8635Y324D02*
D03*
Y776D02*
D03*
X8065Y776D02*
D03*
X8065Y324D02*
D03*
D65*
X8324Y3060D02*
D03*
X8483Y3218D02*
D03*
D122*
X15071Y14685D02*
D03*
X1378Y18543D02*
D03*
Y1378D02*
D03*
D123*
X974Y14260D02*
D03*
Y16937D02*
D03*
D125*
X13780Y6024D02*
G03*
X13561Y6551I-746J0D01*
G01*
X11961Y7178D02*
G03*
X11254Y7471I-707J-707D01*
G01*
X12172Y4050D02*
G03*
X12405Y3486I798J0D01*
G01*
X12863Y2817D02*
G03*
X12713Y3179I-512J0D01*
G01*
X12172Y5802D02*
G03*
X11683Y6290I-488J0D01*
G01*
X15530Y380D02*
G03*
X15506Y390I-24J-24D01*
G01*
X9163Y2136D02*
G03*
X8946Y2353I-217J0D01*
G01*
X9499Y1250D02*
G03*
X9487Y1262I-12J0D01*
G01*
X12705Y2751D02*
G03*
X12388Y3069I-317J0D01*
G01*
X12153D02*
G03*
X11878Y2794I0J-274D01*
G01*
Y1189D02*
G03*
X12138Y929I260J0D01*
G01*
X12231Y2507D02*
G03*
X12043Y2319I0J-189D01*
G01*
X12212Y1400D02*
G03*
X12193Y1381I0J-19D01*
G01*
X12043Y1531D02*
G03*
X12193Y1381I150J0D01*
G01*
X13173Y3079D02*
G03*
X13020Y2926I0J-152D01*
G01*
X13780Y4039D02*
Y6024D01*
X13935Y1816D02*
Y2447D01*
X13577Y6575D02*
X13600Y6551D01*
X13937Y3556D02*
Y3886D01*
X10069Y7471D02*
X11254D01*
X11961Y7178D02*
X12564Y6575D01*
X13281Y1400D02*
X13935D01*
X13935Y2671D02*
Y2980D01*
X13937Y2982D01*
X12405Y3486D02*
X12713Y3179D01*
X12863Y2751D02*
Y2817D01*
X12172Y4050D02*
Y5802D01*
X14870Y390D02*
X15506D01*
X8713Y2353D02*
X8946D01*
X7834Y2353D02*
X8059D01*
X8391Y2353D02*
X8489D01*
X8286D02*
X8391D01*
X9723Y1250D02*
X10186D01*
X9262Y1278D02*
Y1821D01*
X9281Y1262D02*
X9487D01*
X9262Y1278D02*
X9277Y1262D01*
X9281D01*
X12417Y929D02*
X12637D01*
X12153Y3069D02*
X12388D01*
X11878Y1189D02*
Y2794D01*
X12138Y929D02*
X12193D01*
X12231Y2507D02*
X12530D01*
X12212Y1400D02*
X12444D01*
X12043Y1531D02*
Y2319D01*
X12273Y2330D02*
X12530D01*
X13020Y2751D02*
Y2926D01*
X10069Y6290D02*
X10799D01*
X12643Y934D02*
Y1049D01*
X12637Y929D02*
X12643Y934D01*
X13195Y2684D02*
X13281D01*
X12273D02*
X12530D01*
X8386Y2135D02*
Y2348D01*
D126*
X3110Y8465D02*
D03*
Y7480D02*
D03*
X6831Y9154D02*
D03*
X5906D02*
D03*
X4980D02*
D03*
X6800Y3958D02*
D03*
D127*
X2756Y3346D02*
D03*
X13976Y10433D02*
D03*
X8465D02*
D03*
X1181Y9370D02*
D03*
X6693Y13386D02*
D03*
X1575Y4331D02*
D03*
X1575Y3346D02*
D03*
X1181Y10551D02*
D03*
X1181Y12205D02*
D03*
X1181Y13386D02*
D03*
X5512Y13386D02*
D03*
X4331D02*
D03*
X13386Y18898D02*
D03*
X9843D02*
D03*
X5512D02*
D03*
X4331D02*
D03*
X8661D02*
D03*
X10630Y3740D02*
D03*
X2590Y12400D02*
D03*
X3590D02*
D03*
X6990Y12400D02*
D03*
X5990Y12400D02*
D03*
X4990Y12400D02*
D03*
D128*
X19173Y13937D02*
D03*
X12863Y2419D02*
D03*
X787Y2559D02*
D03*
D129*
X12705Y2751D02*
D03*
X12863D02*
D03*
X13020D02*
D03*
Y2086D02*
D03*
X12863D02*
D03*
X12705D02*
D03*
D130*
X13195Y2684D02*
D03*
Y2507D02*
D03*
Y2330D02*
D03*
Y2153D02*
D03*
X12530D02*
D03*
Y2330D02*
D03*
X12530Y2507D02*
D03*
X12530Y2684D02*
D03*
D131*
X2402Y19291D02*
D03*
D132*
X2730Y9459D02*
X3780D01*
X2930Y9970D02*
X3040D01*
X2730Y9770D02*
X2930Y9970D01*
X2730Y9459D02*
Y9770D01*
X3780Y9459D02*
X3955Y9284D01*
D133*
X4116Y8847D02*
X4232D01*
X4116Y8503D02*
Y8847D01*
X3955Y8901D02*
Y8930D01*
X4023Y8862D02*
X4038Y8847D01*
X3993Y8862D02*
X4023D01*
X3955Y8901D02*
X3993Y8862D01*
X4038Y8847D02*
X4116D01*
D134*
X8108Y2717D02*
X8485D01*
X7881Y2491D02*
X8108Y2717D01*
X8560Y2792D02*
Y3000D01*
X8485Y2717D02*
X8560Y2792D01*
X7834Y2491D02*
X7881D01*
D135*
X1530Y16650D02*
X2700Y17820D01*
X1530Y15970D02*
Y16650D01*
X4274Y18847D02*
X4331Y18791D01*
X2700Y17820D02*
X3727Y18847D01*
X4274D01*
X4331Y18791D02*
Y18898D01*
X5000Y18386D02*
X5512Y18898D01*
D136*
X6493Y3452D02*
X6551D01*
X6869Y3042D02*
Y3134D01*
X6551Y3452D02*
X6869Y3134D01*
X1181Y10453D02*
X1257Y10377D01*
Y9961D02*
Y10377D01*
X1260Y9449D02*
Y9705D01*
X1181Y9370D02*
X1260Y9449D01*
D137*
X13246Y13358D02*
Y15954D01*
Y13358D02*
X13770Y12835D01*
X11750Y19360D02*
X13153Y17957D01*
Y16898D02*
Y17957D01*
X12877Y16621D02*
X13153Y16898D01*
X12877Y16323D02*
Y16621D01*
Y16323D02*
X13246Y15954D01*
X7710Y12780D02*
X7980D01*
X8423D02*
X9407Y11795D01*
X8160Y12780D02*
X8423D01*
X7980D02*
X8160D01*
X8378Y18898D02*
X8661D01*
X8090Y18610D02*
X8378Y18898D01*
X6980Y14530D02*
X7480D01*
X6640Y14190D02*
X6980Y14530D01*
X8661Y18898D02*
X9124Y19360D01*
X11750D01*
D138*
X4740Y14766D02*
X5753Y13753D01*
X6329Y13750D02*
X6693Y13386D01*
X5750Y13750D02*
X6329D01*
D139*
X3146Y11844D02*
X3590Y11400D01*
X3146Y11844D02*
Y13289D01*
X3457Y13600D01*
X3590Y12400D02*
X3764Y12574D01*
Y13600D01*
X2764Y12574D02*
Y13600D01*
X2590Y12400D02*
X2764Y12574D01*
X2146Y13289D02*
X2457Y13600D01*
X2146Y11844D02*
Y13289D01*
Y11844D02*
X2590Y11400D01*
X4888Y14010D02*
X5512Y13386D01*
X3980Y14010D02*
X4888D01*
X3674Y14646D02*
X3744Y14716D01*
X3788Y14760D01*
X4740D01*
X5354Y15380D02*
X6590D01*
X4740Y14766D02*
X5354Y15380D01*
X4740Y14760D02*
Y14766D01*
X9840Y18900D02*
X9843Y18898D01*
X9360Y18900D02*
X9840D01*
X3674Y13970D02*
Y14646D01*
X5396Y7747D02*
X5442D01*
X6183D02*
Y7761D01*
D140*
X6431Y3299D02*
X6439Y3291D01*
X6430Y3299D02*
X6431D01*
X6340Y3388D02*
X6430Y3299D01*
X6340Y3388D02*
Y3390D01*
X6157Y3573D02*
X6340Y3390D01*
X6439Y3291D02*
X6525D01*
X6157Y3573D02*
Y3604D01*
X6525Y3291D02*
X6626Y3190D01*
X6731Y3042D02*
Y3085D01*
X6626Y3190D02*
X6731Y3085D01*
D141*
X7365Y5227D02*
X7758D01*
X8546Y7747D02*
X9333D01*
X8939Y7117D02*
X9333D01*
X8546D02*
X8939D01*
Y6487D02*
X9333D01*
X8546D02*
X8939D01*
X8052Y7747D02*
X8546D01*
X7758D02*
X8052D01*
X7365D02*
X7758D01*
X6971D02*
X7365D01*
Y7117D02*
X7758D01*
X6971D02*
X7365D01*
X6577Y7747D02*
X6971D01*
X6183D02*
X6577D01*
Y7117D02*
X6971D01*
X6183D02*
X6577D01*
X8052D02*
X8546D01*
X7758D02*
X8052D01*
Y6487D02*
X8546D01*
X7758D02*
X8052D01*
X7365D02*
X7758D01*
X6971D02*
X7365D01*
X6577D02*
X6971D01*
X6183D02*
X6577D01*
X5790Y7117D02*
X6183D01*
X5396D02*
X5790D01*
X5790Y6487D02*
X6183D01*
X5396D02*
X5790D01*
X5396Y7747D02*
X6183D01*
X4609D02*
X5396D01*
X5002Y7117D02*
X5396D01*
X4609D02*
X5002D01*
X5002Y6487D02*
X5396D01*
X4609D02*
X5002D01*
X8939Y5857D02*
X9333D01*
X8546D02*
X8939D01*
Y5227D02*
X9333D01*
X8546D02*
X8939D01*
X8152Y5857D02*
X8546D01*
X7758D02*
X8152D01*
X7365D02*
X7758D01*
X6971D02*
X7365D01*
X7758Y5227D02*
X8546D01*
X6577Y5857D02*
X6971D01*
X6183D02*
X6577D01*
X5790D02*
X6183D01*
X5396D02*
X5790D01*
X5002D02*
X5396D01*
X4609D02*
X5002D01*
X4609Y6487D02*
Y6487D01*
Y5857D02*
Y6487D01*
X5002Y5227D02*
X5396D01*
X4609D02*
X5002D01*
X6183D02*
X6971D01*
X5396D02*
X6183D01*
X5396Y7117D02*
Y7747D01*
X4309Y5227D02*
X4609D01*
X4309Y5857D02*
X4609D01*
X4309Y6487D02*
X4609Y6487D01*
X4309Y7117D02*
X4609D01*
X4309Y7747D02*
X4609D01*
Y7117D02*
Y7747D01*
X9333Y5227D02*
X9633D01*
X9333Y5857D02*
X9633D01*
X9333Y6487D02*
X9633D01*
X9333Y7117D02*
X9633D01*
X9333Y7747D02*
X9633D01*
X9333Y7117D02*
Y7747D01*
Y6487D02*
Y7117D01*
Y5857D02*
Y6487D01*
Y5227D02*
Y5857D01*
X8546Y7117D02*
Y7747D01*
Y6487D02*
Y7117D01*
Y5857D02*
Y6487D01*
Y5227D02*
Y5857D01*
X7758Y7117D02*
Y7747D01*
Y6487D02*
Y7117D01*
Y5857D02*
Y6487D01*
Y5227D02*
Y5857D01*
X6971Y7117D02*
Y7747D01*
Y6487D02*
Y7117D01*
Y5857D02*
Y6487D01*
X6183Y7117D02*
Y7747D01*
Y6487D02*
Y7117D01*
Y5857D02*
Y6487D01*
X5396D02*
Y7117D01*
Y5857D02*
Y6487D01*
Y5227D02*
Y5857D01*
X4609Y6487D02*
Y7117D01*
Y5227D02*
Y5857D01*
D142*
X6971Y5227D02*
X7365D01*
D143*
X6971D02*
Y5857D01*
X6183Y5227D02*
Y5857D01*
D144*
X8489Y2353D02*
X8494D01*
D145*
X18690Y394D02*
D03*
D146*
X11648Y1337D02*
D03*
Y825D02*
D03*
X10078D02*
D03*
D147*
X18195Y394D02*
D03*
D148*
X7145Y2422D02*
D03*
D149*
X7420Y2166D02*
D03*
D150*
X2854Y2224D02*
D03*
X3642D02*
D03*
X4429Y1437D02*
D03*
X3642D02*
D03*
X2854D02*
D03*
X11407Y12835D02*
D03*
X12195D02*
D03*
X12982D02*
D03*
X13770Y12047D02*
D03*
X12982D02*
D03*
X12195D02*
D03*
X11407D02*
D03*
X10620D02*
D03*
Y12835D02*
D03*
D151*
X4429Y2224D02*
D03*
X13770Y12835D02*
D03*
D152*
X1220Y7323D02*
D03*
X1220Y6142D02*
D03*
D153*
X937Y3573D02*
D03*
Y5073D02*
D03*
D154*
X571Y8661D02*
D03*
Y11260D02*
D03*
D155*
X2590Y11400D02*
D03*
X3590D02*
D03*
X6990Y11400D02*
D03*
X5990Y11400D02*
D03*
X4990Y11400D02*
D03*
D156*
X10120Y14380D02*
D03*
X8667Y4261D02*
D03*
X9220Y3930D02*
D03*
X7677Y8159D02*
D03*
X6644Y8002D02*
D03*
X6260Y8957D02*
D03*
X6211Y9144D02*
D03*
X5820Y4260D02*
D03*
X10069Y7668D02*
D03*
Y7865D02*
D03*
X3872Y7471D02*
D03*
Y7274D02*
D03*
Y7078D02*
D03*
Y6487D02*
D03*
X2830Y8980D02*
D03*
X2620Y5360D02*
D03*
X5500Y3980D02*
D03*
X6480Y4960D02*
D03*
X6412Y4240D02*
D03*
X2491Y6371D02*
D03*
X2283Y6080D02*
D03*
X2840Y5600D02*
D03*
X3020Y5720D02*
D03*
X2730Y6760D02*
D03*
X4000Y9750D02*
D03*
X3800Y9900D02*
D03*
X3500Y10002D02*
D03*
X2830Y6440D02*
D03*
X3420Y7940D02*
D03*
X3410Y8570D02*
D03*
X3040Y9970D02*
D03*
X4580Y9350D02*
D03*
X4820Y8730D02*
D03*
X2640Y4510D02*
D03*
X4380Y3440D02*
D03*
Y4060D02*
D03*
X2770Y4070D02*
D03*
X1575Y3805D02*
D03*
X2090Y6130D02*
D03*
X1330Y4830D02*
D03*
X2729Y6054D02*
D03*
X3270Y5730D02*
D03*
X5060Y8710D02*
D03*
X2689Y9190D02*
D03*
X2945D02*
D03*
X3585Y5897D02*
D03*
Y8503D02*
D03*
X3428Y9007D02*
D03*
X2916Y6875D02*
D03*
X3270Y7028D02*
D03*
X3939Y3356D02*
D03*
X3457Y3539D02*
D03*
X14646Y4606D02*
D03*
X14616Y2165D02*
D03*
X14370Y3780D02*
D03*
X13393Y6782D02*
D03*
X13491Y6314D02*
D03*
X13570Y6090D02*
D03*
X13576Y5852D02*
D03*
Y5614D02*
D03*
Y5376D02*
D03*
Y5139D02*
D03*
Y4901D02*
D03*
Y4663D02*
D03*
Y4425D02*
D03*
Y4187D02*
D03*
X13558Y3950D02*
D03*
X13983Y4477D02*
D03*
Y4715D02*
D03*
Y4952D02*
D03*
Y5190D02*
D03*
Y5428D02*
D03*
Y5666D02*
D03*
Y5904D02*
D03*
X13973Y6141D02*
D03*
X13917Y6372D02*
D03*
X13802Y6580D02*
D03*
X13696Y6793D02*
D03*
X13722Y3629D02*
D03*
X14592Y3969D02*
D03*
X14292Y4119D02*
D03*
X13100Y3900D02*
D03*
Y4450D02*
D03*
X12550Y4000D02*
D03*
Y4450D02*
D03*
X13100Y5150D02*
D03*
X11968Y5740D02*
D03*
Y5502D02*
D03*
Y5264D02*
D03*
Y5026D02*
D03*
Y4788D02*
D03*
Y4551D02*
D03*
Y4313D02*
D03*
Y4075D02*
D03*
X11990Y3838D02*
D03*
X12070Y3614D02*
D03*
X12199Y3415D02*
D03*
X12522Y3663D02*
D03*
X12406Y3870D02*
D03*
X12375Y4106D02*
D03*
Y4344D02*
D03*
Y4582D02*
D03*
Y4819D02*
D03*
Y5057D02*
D03*
Y5295D02*
D03*
Y5533D02*
D03*
Y5771D02*
D03*
X12345Y6006D02*
D03*
X12234Y6217D02*
D03*
X12061Y6381D02*
D03*
X11892Y6548D02*
D03*
X13809Y8189D02*
D03*
X13559D02*
D03*
X13309D02*
D03*
X13059D02*
D03*
X12809D02*
D03*
X12150Y8000D02*
D03*
Y7750D02*
D03*
Y7500D02*
D03*
X12300Y8200D02*
D03*
X12559Y8189D02*
D03*
X13950Y7950D02*
D03*
Y7700D02*
D03*
Y7450D02*
D03*
Y7200D02*
D03*
X13615Y7045D02*
D03*
X12751Y6836D02*
D03*
X12779Y6363D02*
D03*
X12226Y7172D02*
D03*
X10502Y7287D02*
D03*
X10739D02*
D03*
X10977D02*
D03*
X11215D02*
D03*
X11451Y7261D02*
D03*
X11671Y7170D02*
D03*
X11857Y7022D02*
D03*
X12025Y6854D02*
D03*
X12193Y6686D02*
D03*
X12359Y6515D02*
D03*
X12542Y6363D02*
D03*
X12563Y6836D02*
D03*
X12395Y7004D02*
D03*
X12058Y7340D02*
D03*
X11868Y7483D02*
D03*
X11653Y7585D02*
D03*
X11422Y7642D02*
D03*
X11185Y7655D02*
D03*
X10947D02*
D03*
X10709D02*
D03*
X10471D02*
D03*
X12756Y5866D02*
D03*
X13438Y1600D02*
D03*
X13876Y1150D02*
D03*
X13638D02*
D03*
X13701Y1563D02*
D03*
Y3306D02*
D03*
Y3069D02*
D03*
X14165Y2714D02*
D03*
Y2476D02*
D03*
Y1922D02*
D03*
Y1684D02*
D03*
Y1209D02*
D03*
X13701Y1801D02*
D03*
X13400Y1150D02*
D03*
X13150Y1200D02*
D03*
X13200Y1800D02*
D03*
X13250Y3300D02*
D03*
X14372Y3329D02*
D03*
Y2829D02*
D03*
X13701Y2752D02*
D03*
Y2514D02*
D03*
Y2276D02*
D03*
Y2039D02*
D03*
X2720Y4960D02*
D03*
X5730Y5570D02*
D03*
X5396Y5562D02*
D03*
X8140Y14340D02*
D03*
X9660Y14780D02*
D03*
X7840D02*
D03*
X8290Y14870D02*
D03*
X6170Y6790D02*
D03*
X6900Y4040D02*
D03*
X5060Y4270D02*
D03*
X1930Y8540D02*
D03*
X2110Y8600D02*
D03*
X10860Y4600D02*
D03*
Y4850D02*
D03*
Y5100D02*
D03*
X13050Y1951D02*
D03*
X12675D02*
D03*
X12863D02*
D03*
X13169Y738D02*
D03*
X8946Y3988D02*
D03*
X9190Y2930D02*
D03*
X9380Y2890D02*
D03*
X10000Y3700D02*
D03*
X7990Y1610D02*
D03*
X9750Y2570D02*
D03*
X9432Y4045D02*
D03*
X8690Y3630D02*
D03*
X8420Y3422D02*
D03*
X8386Y2874D02*
D03*
X9348Y4222D02*
D03*
X9537Y4242D02*
D03*
X1220Y6506D02*
D03*
X1339Y8179D02*
D03*
X2402Y8553D02*
D03*
X2270Y8090D02*
D03*
X2224Y7352D02*
D03*
X2382Y7077D02*
D03*
X2110Y7073D02*
D03*
X1620Y10960D02*
D03*
X4450Y11800D02*
D03*
X4220Y11240D02*
D03*
X1530Y15970D02*
D03*
X3160Y18870D02*
D03*
X2700Y17820D02*
D03*
X960Y16070D02*
D03*
X1220Y7687D02*
D03*
Y6978D02*
D03*
X630Y8307D02*
D03*
X6493Y3452D02*
D03*
X1257Y9961D02*
D03*
X6493Y3662D02*
D03*
X1260Y9705D02*
D03*
X14240Y12890D02*
D03*
X6670Y9490D02*
D03*
X6470Y9160D02*
D03*
X5679Y7992D02*
D03*
X5908Y8246D02*
D03*
X7560Y8790D02*
D03*
X5355Y8750D02*
D03*
X13540Y13350D02*
D03*
X9469Y1024D02*
D03*
X11900Y6020D02*
D03*
X12884Y3258D02*
D03*
X14728Y574D02*
D03*
X14491D02*
D03*
X14253D02*
D03*
X14015D02*
D03*
X13777D02*
D03*
X13539Y575D02*
D03*
X13310Y638D02*
D03*
X12878Y527D02*
D03*
X13050Y363D02*
D03*
X13263Y256D02*
D03*
X13496Y210D02*
D03*
X13734Y209D02*
D03*
X13972D02*
D03*
X14209D02*
D03*
X14447D02*
D03*
X14685D02*
D03*
X8583Y2541D02*
D03*
X8669Y2141D02*
D03*
X8905Y2169D02*
D03*
X9365Y2175D02*
D03*
X9258Y2387D02*
D03*
X9060Y2519D02*
D03*
X8825Y2553D02*
D03*
X13030Y18750D02*
D03*
X12800Y18600D02*
D03*
X13900Y14300D02*
D03*
X14300Y12100D02*
D03*
X14211Y11220D02*
D03*
X13594Y10600D02*
D03*
X10100Y8741D02*
D03*
X9500D02*
D03*
X8300D02*
D03*
X4670Y9790D02*
D03*
X6850Y15200D02*
D03*
X5190Y14770D02*
D03*
X7220Y13790D02*
D03*
X7470Y12160D02*
D03*
X7770Y12610D02*
D03*
X13940Y18170D02*
D03*
X15060Y17560D02*
D03*
X15400Y16140D02*
D03*
X3740Y15940D02*
D03*
X2870Y16630D02*
D03*
X2830Y15820D02*
D03*
X1980Y14960D02*
D03*
X540Y10580D02*
D03*
X550Y9180D02*
D03*
X1430Y11050D02*
D03*
X10220Y11250D02*
D03*
X7780Y10020D02*
D03*
X3050Y11470D02*
D03*
X2050Y11450D02*
D03*
X6090Y13440D02*
D03*
X4900Y13250D02*
D03*
X4040Y13760D02*
D03*
X2380Y14390D02*
D03*
X2140Y13740D02*
D03*
X13420Y17930D02*
D03*
X13360Y16700D02*
D03*
X12710Y16090D02*
D03*
X7220Y240D02*
D03*
X4040Y1731D02*
D03*
X7860Y4190D02*
D03*
X1490Y12790D02*
D03*
X730Y13030D02*
D03*
X820Y13760D02*
D03*
X270Y14230D02*
D03*
X1410Y14240D02*
D03*
X3760Y18460D02*
D03*
X3450Y17130D02*
D03*
X4130Y17320D02*
D03*
X4770Y17640D02*
D03*
X6460Y17540D02*
D03*
X7130Y18070D02*
D03*
X7180Y17270D02*
D03*
X8130Y17930D02*
D03*
X8190Y19200D02*
D03*
X13400Y19680D02*
D03*
X14300Y19150D02*
D03*
X15040D02*
D03*
X15050Y19660D02*
D03*
X12250Y19260D02*
D03*
X12720Y17760D02*
D03*
X12580Y13180D02*
D03*
X4890Y2510D02*
D03*
X3250Y2410D02*
D03*
X1100Y3160D02*
D03*
X930Y4000D02*
D03*
X960Y4610D02*
D03*
X3570Y11950D02*
D03*
X5180Y11930D02*
D03*
X5510Y12760D02*
D03*
X6130Y12890D02*
D03*
X6480Y12490D02*
D03*
X6980Y11900D02*
D03*
X6940Y10780D02*
D03*
X7540Y10500D02*
D03*
X8320Y10890D02*
D03*
X11230Y10680D02*
D03*
X13660Y9280D02*
D03*
X13120Y8430D02*
D03*
X12320Y8460D02*
D03*
X12650Y5130D02*
D03*
X11120Y4360D02*
D03*
X10130Y3900D02*
D03*
X11120Y3810D02*
D03*
X9980Y4134D02*
D03*
X8280Y2560D02*
D03*
X6010Y910D02*
D03*
X14656Y7865D02*
D03*
Y3365D02*
D03*
Y1865D02*
D03*
X14281Y7115D02*
D03*
Y5615D02*
D03*
X12406Y18365D02*
D03*
X12031Y17615D02*
D03*
X11656Y7865D02*
D03*
X10906Y3365D02*
D03*
X10156D02*
D03*
X9406Y365D02*
D03*
X8656Y10865D02*
D03*
Y1865D02*
D03*
X6781Y19115D02*
D03*
X6406Y18365D02*
D03*
Y16865D02*
D03*
X6781Y16115D02*
D03*
X6031Y19115D02*
D03*
X5656Y18365D02*
D03*
X6031Y17615D02*
D03*
X5281D02*
D03*
Y1115D02*
D03*
X4156Y12365D02*
D03*
X3781Y19115D02*
D03*
X3031D02*
D03*
X2656Y1865D02*
D03*
Y365D02*
D03*
X2281Y1115D02*
D03*
X1906Y365D02*
D03*
X1531Y17615D02*
D03*
Y2615D02*
D03*
X1156Y365D02*
D03*
X781Y19115D02*
D03*
X406Y18365D02*
D03*
X781Y17615D02*
D03*
X406Y13865D02*
D03*
Y12365D02*
D03*
X781Y11615D02*
D03*
X406Y3365D02*
D03*
Y1865D02*
D03*
Y365D02*
D03*
X6880Y12920D02*
D03*
X12370Y14060D02*
D03*
X13070Y16430D02*
D03*
X13440Y16420D02*
D03*
X12845Y19205D02*
D03*
X14030Y19200D02*
D03*
X2390Y13050D02*
D03*
X4327Y13390D02*
D03*
X8967Y1821D02*
D03*
X9094Y1368D02*
D03*
X8917Y1545D02*
D03*
X9540Y1674D02*
D03*
X9532Y1912D02*
D03*
X13020Y14430D02*
D03*
X6640Y14190D02*
D03*
X5750Y13750D02*
D03*
X8090Y18610D02*
D03*
X7480Y14530D02*
D03*
X6600Y15380D02*
D03*
X12430Y14420D02*
D03*
X9090Y8240D02*
D03*
X5970Y10250D02*
D03*
X1410Y12210D02*
D03*
X1814Y12205D02*
D03*
X5510Y10320D02*
D03*
X5475Y8246D02*
D03*
X13850Y15470D02*
D03*
X5528Y2340D02*
D03*
X5498Y1581D02*
D03*
X7980Y12780D02*
D03*
X11526Y10610D02*
D03*
X12175Y10157D02*
D03*
X10591Y11181D02*
D03*
X12156D02*
D03*
X7985Y12075D02*
D03*
X6220Y10020D02*
D03*
X6410Y9930D02*
D03*
X6270Y993D02*
D03*
X8650Y1170D02*
D03*
X7350Y830D02*
D03*
X7760Y1290D02*
D03*
X7720Y410D02*
D03*
X9650Y290D02*
D03*
X8990Y240D02*
D03*
Y760D02*
D03*
X9281Y830D02*
D03*
X9721Y1030D02*
D03*
X9921Y1460D02*
D03*
X9691D02*
D03*
X6180Y9710D02*
D03*
X6350Y9620D02*
D03*
X12670Y14940D02*
D03*
X7598Y1632D02*
D03*
X8730Y12428D02*
D03*
X8160Y12388D02*
D03*
X8680Y12988D02*
D03*
X9407Y11795D02*
D03*
X8153Y13067D02*
D03*
X6873Y4471D02*
D03*
X5180Y3880D02*
D03*
X11910Y10270D02*
D03*
X14990Y13200D02*
D03*
Y13450D02*
D03*
Y9200D02*
D03*
Y8950D02*
D03*
Y10200D02*
D03*
Y10700D02*
D03*
Y9950D02*
D03*
Y9700D02*
D03*
Y10450D02*
D03*
Y9450D02*
D03*
Y10950D02*
D03*
Y11200D02*
D03*
X5680Y10227D02*
D03*
X3170Y16060D02*
D03*
X2470Y10380D02*
D03*
X3160Y16250D02*
D03*
X1768Y10784D02*
D03*
X2260Y10308D02*
D03*
X9360Y18900D02*
D03*
X13860Y15140D02*
D03*
X12429Y16637D02*
D03*
X10069Y4471D02*
D03*
X10340Y4400D02*
D03*
X7037Y1632D02*
D03*
X8382Y1322D02*
D03*
X7224Y1632D02*
D03*
X7411D02*
D03*
X7003Y1292D02*
D03*
X6989Y1098D02*
D03*
X12425Y2869D02*
D03*
X12687Y3465D02*
D03*
X12894Y3661D02*
D03*
X11900Y18500D02*
D03*
X5280Y15690D02*
D03*
X12510Y10250D02*
D03*
X4120Y16840D02*
D03*
X5920Y14075D02*
D03*
Y14245D02*
D03*
X5730Y14075D02*
D03*
X5730Y14245D02*
D03*
X5660Y15950D02*
D03*
X5860D02*
D03*
X5330Y18070D02*
D03*
X3020Y19660D02*
D03*
X2420Y18590D02*
D03*
X420Y16060D02*
D03*
X400Y14970D02*
D03*
X1570Y10730D02*
D03*
X384Y6230D02*
D03*
X394Y7270D02*
D03*
X2820Y8330D02*
D03*
X3450Y7550D02*
D03*
X2850Y7720D02*
D03*
X400Y1130D02*
D03*
X10430Y6900D02*
D03*
X10400Y5550D02*
D03*
X10850Y5520D02*
D03*
X11580Y5610D02*
D03*
X11640Y7030D02*
D03*
X14372Y3579D02*
D03*
X10590Y6040D02*
D03*
X10603Y6540D02*
D03*
X11963Y699D02*
D03*
X12443D02*
D03*
X12423Y1149D02*
D03*
X12203Y489D02*
D03*
X12413Y1610D02*
D03*
X12053Y2649D02*
D03*
X13200Y1600D02*
D03*
X14372Y3079D02*
D03*
X14165Y1447D02*
D03*
X10870Y7030D02*
D03*
X12153Y2899D02*
D03*
X12630Y5420D02*
D03*
X14990Y15850D02*
D03*
Y11950D02*
D03*
Y12950D02*
D03*
Y12200D02*
D03*
Y12450D02*
D03*
Y12700D02*
D03*
Y11450D02*
D03*
Y11700D02*
D03*
Y8700D02*
D03*
Y8450D02*
D03*
Y6950D02*
D03*
Y7950D02*
D03*
Y7200D02*
D03*
Y7450D02*
D03*
Y8200D02*
D03*
Y7700D02*
D03*
Y6450D02*
D03*
Y6200D02*
D03*
Y5950D02*
D03*
Y6700D02*
D03*
Y4450D02*
D03*
Y5450D02*
D03*
Y4700D02*
D03*
Y4950D02*
D03*
Y5700D02*
D03*
Y5200D02*
D03*
Y3950D02*
D03*
Y3700D02*
D03*
Y3450D02*
D03*
Y4200D02*
D03*
Y1700D02*
D03*
Y211D02*
D03*
Y700D02*
D03*
Y950D02*
D03*
Y1200D02*
D03*
Y1450D02*
D03*
Y2700D02*
D03*
Y3200D02*
D03*
Y2450D02*
D03*
Y2200D02*
D03*
Y2950D02*
D03*
Y1950D02*
D03*
X10213Y3200D02*
D03*
X10473D02*
D03*
X10723D02*
D03*
X10973D02*
D03*
X11223D02*
D03*
X10000Y1700D02*
D03*
X9990Y299D02*
D03*
X10000Y450D02*
D03*
Y700D02*
D03*
Y2700D02*
D03*
Y2450D02*
D03*
Y2200D02*
D03*
Y2950D02*
D03*
Y1950D02*
D03*
X12273Y2340D02*
D03*
X12245Y2153D02*
D03*
X12243Y1757D02*
D03*
X12273Y2684D02*
D03*
X13173Y3079D02*
D03*
X12764Y1390D02*
D03*
X12961Y1587D02*
D03*
Y1390D02*
D03*
X12764Y1587D02*
D03*
Y2497D02*
D03*
X12961Y2340D02*
D03*
Y2497D02*
D03*
X12764Y2340D02*
D03*
X11723Y1950D02*
D03*
Y2950D02*
D03*
Y2200D02*
D03*
Y2450D02*
D03*
Y3200D02*
D03*
Y2700D02*
D03*
X11473Y3200D02*
D03*
X11723Y1450D02*
D03*
Y1200D02*
D03*
Y950D02*
D03*
Y700D02*
D03*
Y450D02*
D03*
Y241D02*
D03*
Y1700D02*
D03*
X12444Y1400D02*
D03*
X14870Y390D02*
D03*
X13281Y2684D02*
D03*
X13281Y1400D02*
D03*
X12643Y1049D02*
D03*
X12433Y1949D02*
D03*
X5000Y18386D02*
D03*
X3674Y13970D02*
D03*
X3980Y14010D02*
D03*
X3744Y14716D02*
D03*
X3090Y15890D02*
D03*
X3136Y14216D02*
D03*
Y14766D02*
D03*
X3106Y15166D02*
D03*
X2580Y3810D02*
D03*
X5900Y3100D02*
D03*
X3208Y3210D02*
D03*
X14700Y9780D02*
D03*
X5098Y7992D02*
D03*
X7930Y3930D02*
D03*
X8690Y3340D02*
D03*
X8560Y3000D02*
D03*
X7230Y4890D02*
D03*
X5769Y4831D02*
D03*
X7520Y4040D02*
D03*
X7310D02*
D03*
X7930Y3740D02*
D03*
X7750Y3990D02*
D03*
X6670Y4960D02*
D03*
X7910Y4800D02*
D03*
X7189Y4701D02*
D03*
X7376Y4711D02*
D03*
X7590Y4800D02*
D03*
X7750Y4700D02*
D03*
X8064Y4691D02*
D03*
X7920Y3540D02*
D03*
X5396Y5227D02*
D03*
X6676Y4471D02*
D03*
X5389Y15896D02*
D03*
Y16076D02*
D03*
X6105Y8246D02*
D03*
X14080Y16170D02*
D03*
X5921Y5575D02*
D03*
X8477Y4271D02*
D03*
X5039Y7747D02*
D03*
X5640D02*
D03*
X4249Y7117D02*
D03*
Y7747D02*
D03*
X4249Y6487D02*
D03*
X4249Y5857D02*
D03*
Y5227D02*
D03*
X5790Y7117D02*
D03*
X5002Y6487D02*
D03*
Y5857D02*
D03*
Y5227D02*
D03*
X7365Y5857D02*
D03*
Y6487D02*
D03*
Y7117D02*
D03*
Y7747D02*
D03*
Y5287D02*
D03*
X5002Y7117D02*
D03*
X10389Y7124D02*
D03*
X4609Y5227D02*
D03*
X4609Y5857D02*
D03*
Y6487D02*
D03*
Y7117D02*
D03*
Y7747D02*
D03*
X5396D02*
D03*
Y7117D02*
D03*
Y6487D02*
D03*
Y5857D02*
D03*
X6183Y5227D02*
D03*
Y5857D02*
D03*
X6183Y6487D02*
D03*
X6183Y7117D02*
D03*
Y7747D02*
D03*
X6971D02*
D03*
Y7117D02*
D03*
X6971Y6487D02*
D03*
X6971Y5857D02*
D03*
Y5287D02*
D03*
X7758D02*
D03*
Y5857D02*
D03*
Y6487D02*
D03*
Y7117D02*
D03*
Y7747D02*
D03*
X8546D02*
D03*
Y7117D02*
D03*
X8546Y6487D02*
D03*
Y5857D02*
D03*
X8546Y5267D02*
D03*
X9333Y5227D02*
D03*
Y5857D02*
D03*
Y6487D02*
D03*
Y7117D02*
D03*
Y7747D02*
D03*
X8152Y5287D02*
D03*
X9633Y7747D02*
D03*
Y7117D02*
D03*
X8939D02*
D03*
X9633Y6487D02*
D03*
X8939D02*
D03*
X5730Y5227D02*
D03*
X5790Y5857D02*
D03*
Y6487D02*
D03*
X6577Y7747D02*
D03*
Y7117D02*
D03*
Y6487D02*
D03*
Y5857D02*
D03*
X8052Y7747D02*
D03*
Y7117D02*
D03*
Y6487D02*
D03*
X8152Y5857D02*
D03*
X8939Y5227D02*
D03*
Y5857D02*
D03*
X3872Y5306D02*
D03*
X9633Y5227D02*
D03*
Y5857D02*
D03*
X10389Y5316D02*
D03*
X10369Y6093D02*
D03*
Y6537D02*
D03*
X10069Y8503D02*
D03*
X9628D02*
D03*
X9431D02*
D03*
X9235D02*
D03*
X9038D02*
D03*
X8841D02*
D03*
X8644D02*
D03*
X8447D02*
D03*
X8250D02*
D03*
X8054D02*
D03*
X7463D02*
D03*
X6479D02*
D03*
X5691D02*
D03*
X4904D02*
D03*
X3872D02*
D03*
Y7668D02*
D03*
Y6881D02*
D03*
Y5896D02*
D03*
Y4471D02*
D03*
X5888D02*
D03*
X9038D02*
D03*
X9628D02*
D03*
X10069Y5306D02*
D03*
Y6093D02*
D03*
Y6487D02*
D03*
Y6684D02*
D03*
Y7078D02*
D03*
Y7274D02*
D03*
X5101Y4471D02*
D03*
X3030Y9730D02*
D03*
X2610Y3160D02*
D03*
X280Y13350D02*
D03*
X5320Y3090D02*
D03*
X10610Y9100D02*
D03*
X11360Y8460D02*
D03*
X9170Y10740D02*
D03*
X10391Y8387D02*
D03*
X9671Y17421D02*
D03*
X8423Y17381D02*
D03*
X7695Y16901D02*
D03*
Y15940D02*
D03*
X6463Y3132D02*
D03*
X8739Y1664D02*
D03*
X8137Y2119D02*
D03*
X7920Y3344D02*
D03*
X7066Y3494D02*
D03*
X7067Y3688D02*
D03*
X7280Y2350D02*
D03*
X6951Y2371D02*
D03*
X8690Y3820D02*
D03*
X5311Y2834D02*
D03*
X5281Y3554D02*
D03*
X5924Y2834D02*
D03*
X6609Y4240D02*
D03*
X6220D02*
D03*
X14380Y15590D02*
D03*
X9671Y15421D02*
D03*
X8423Y16421D02*
D03*
X8433Y15460D02*
D03*
X7450Y18550D02*
D03*
X9284Y18126D02*
D03*
X9380Y18430D02*
D03*
X10010Y17970D02*
D03*
X11370Y18210D02*
D03*
X14340Y19680D02*
D03*
X14000Y19500D02*
D03*
X12500Y19600D02*
D03*
X11540Y19660D02*
D03*
X10500Y19640D02*
D03*
X9618Y19600D02*
D03*
X8500D02*
D03*
X7500D02*
D03*
X6500D02*
D03*
X5500D02*
D03*
X4500D02*
D03*
X3710Y19630D02*
D03*
X1500Y19500D02*
D03*
X500D02*
D03*
X5820Y1570D02*
D03*
X1500Y2410D02*
D03*
X167Y5187D02*
D03*
X1500Y11800D02*
D03*
X310Y11700D02*
D03*
X300Y17090D02*
D03*
X6320Y18930D02*
D03*
X10020Y14133D02*
D03*
X13320Y9250D02*
D03*
D157*
X7420Y1802D02*
D03*
X6869Y2904D02*
D03*
X5670Y1660D02*
D03*
X6731Y2628D02*
D03*
X6593Y2491D02*
D03*
X6232Y1400D02*
D03*
X6470Y2260D02*
D03*
X6869Y2766D02*
D03*
X7510Y1302D02*
D03*
X8410Y3860D02*
D03*
X8270Y3020D02*
D03*
X7993Y1832D02*
D03*
X8393Y1642D02*
D03*
X8083Y1952D02*
D03*
X7696Y2076D02*
D03*
X7558Y1939D02*
D03*
X6731D02*
D03*
X6869D02*
D03*
X7007D02*
D03*
X7696Y2491D02*
D03*
Y2766D02*
D03*
Y2904D02*
D03*
X7420D02*
D03*
X7282D02*
D03*
X7145D02*
D03*
X7007D02*
D03*
X6731Y2353D02*
D03*
X6366Y2994D02*
D03*
X7696Y2353D02*
D03*
X7558Y2904D02*
D03*
X7696Y2628D02*
D03*
X8630Y3160D02*
D03*
X6731Y2077D02*
D03*
Y2215D02*
D03*
Y2904D02*
D03*
D158*
X12411Y3238D02*
D03*
X3700Y4912D02*
D03*
Y4715D02*
D03*
D159*
X14685Y9341D02*
D03*
Y9006D02*
D03*
M02*
