G04*
G04 #@! TF.GenerationSoftware,Altium Limited,Altium Designer,21.0.9 (235)*
G04*
G04 Layer_Physical_Order=4*
G04 Layer_Color=16711680*
%FSLAX24Y24*%
%MOIN*%
G70*
G04*
G04 #@! TF.SameCoordinates,7913F74A-1B9B-402C-A4C5-A7CF04877313*
G04*
G04*
G04 #@! TF.FilePolarity,Positive*
G04*
G01*
G75*
%ADD10C,0.0059*%
%ADD11C,0.0049*%
%ADD12C,0.0100*%
%ADD13C,0.0060*%
%ADD15C,0.0079*%
%ADD16C,0.0098*%
%ADD17C,0.0118*%
%ADD20C,0.0080*%
%ADD21C,0.0050*%
%ADD26R,0.0106X0.0118*%
%ADD27R,0.0118X0.0106*%
%ADD29R,0.0315X0.0295*%
%ADD30R,0.0295X0.0315*%
%ADD32R,0.0236X0.0197*%
%ADD39C,0.0079*%
%ADD122C,0.1181*%
%ADD123C,0.0354*%
%ADD125C,0.0057*%
%ADD126C,0.0394*%
%ADD127C,0.0591*%
%ADD128R,0.0394X0.0394*%
%ADD129R,0.0098X0.0091*%
%ADD130R,0.0091X0.0098*%
%ADD132C,0.0197*%
%ADD135C,0.0300*%
%ADD136C,0.0065*%
%ADD137C,0.0150*%
%ADD139C,0.0200*%
%ADD144C,0.0090*%
%ADD150C,0.0551*%
%ADD151R,0.0551X0.0551*%
%ADD152C,0.0335*%
%ADD153C,0.0402*%
%ADD154O,0.0630X0.0354*%
%ADD155R,0.0591X0.0591*%
%ADD156C,0.0138*%
%ADD157C,0.0098*%
%ADD158C,0.0118*%
%ADD159C,0.0240*%
%ADD160C,0.0050*%
%ADD166C,0.0057*%
%ADD167C,0.0093*%
%ADD168C,0.0276*%
%ADD169R,0.0118X0.0193*%
%ADD170R,0.0118X0.0205*%
%ADD171R,0.0571X0.0217*%
%ADD172R,0.0571X0.0217*%
%ADD173O,0.0256X0.0087*%
%ADD174O,0.0087X0.0256*%
%ADD175R,0.0197X0.0433*%
%ADD176R,0.0138X0.0591*%
%ADD177R,0.0276X0.0591*%
%ADD178R,0.0866X0.0866*%
%ADD179R,0.0157X0.0098*%
%ADD180R,0.0157X0.0276*%
%ADD181R,0.0295X0.0591*%
%ADD182R,0.0256X0.0098*%
%ADD183R,0.0799X0.0299*%
%ADD184R,0.0622X0.0417*%
%ADD185R,0.0858X0.0236*%
%ADD186R,0.0551X0.0630*%
%ADD187R,0.0610X0.0748*%
%ADD188R,0.0531X0.0157*%
%ADD189R,0.0630X0.0394*%
%ADD190R,0.0236X0.0217*%
%ADD191R,0.0256X0.0335*%
%ADD192R,0.0236X0.1024*%
%ADD193R,0.0118X0.0315*%
%ADD194C,0.0083*%
%ADD195R,0.0364X0.0118*%
%ADD196R,0.0157X0.0157*%
%ADD197R,0.0610X0.0236*%
%ADD198R,0.0709X0.0472*%
%ADD199R,0.0709X0.0394*%
%ADD200R,0.0098X0.0207*%
%ADD201R,0.0142X0.0098*%
%ADD202R,0.0480X0.0360*%
%ADD203R,0.0400X0.0300*%
%ADD204R,0.0362X0.0280*%
%ADD205R,0.0217X0.0165*%
%ADD206R,0.0217X0.0236*%
%ADD207R,0.0394X0.0709*%
%ADD208R,0.0417X0.0622*%
%ADD209R,0.0236X0.0858*%
%ADD210C,0.0098*%
%ADD211C,0.0106*%
%ADD212R,0.0220X0.0060*%
G04:AMPARAMS|DCode=213|XSize=22mil|YSize=6mil|CornerRadius=0mil|HoleSize=0mil|Usage=FLASHONLY|Rotation=315.000|XOffset=0mil|YOffset=0mil|HoleType=Round|Shape=Rectangle|*
%AMROTATEDRECTD213*
4,1,4,-0.0099,0.0057,-0.0057,0.0099,0.0099,-0.0057,0.0057,-0.0099,-0.0099,0.0057,0.0*
%
%ADD213ROTATEDRECTD213*%

%ADD214R,0.0060X0.0220*%
%ADD215R,0.0550X0.1150*%
%ADD216R,0.0650X0.0850*%
%ADD217R,0.0593X0.0310*%
%ADD218R,0.0263X0.0371*%
G36*
X15177Y19039D02*
X15144Y19025D01*
X15127Y19023D01*
X15113Y19034D01*
X15096Y19045D01*
X15077Y19053D01*
X15058Y19057D01*
X15038Y19059D01*
X14200D01*
X14180Y19057D01*
X14160Y19053D01*
X14135Y19095D01*
X14150Y19113D01*
X14162Y19133D01*
X14171Y19154D01*
X14176Y19177D01*
X14178Y19200D01*
X14222Y19217D01*
X14316D01*
Y19420D01*
X14337D01*
Y19523D01*
X14178D01*
Y19573D01*
X14128D01*
Y19726D01*
X14019D01*
Y19680D01*
X13986Y19644D01*
X13828D01*
Y19461D01*
X13728D01*
Y19644D01*
X13570D01*
Y19611D01*
X13221D01*
Y19622D01*
X12847D01*
Y19590D01*
X12761D01*
X12741Y19588D01*
X12721Y19584D01*
X12702Y19576D01*
X12685Y19565D01*
X12670Y19552D01*
X12359Y19241D01*
X12346Y19226D01*
X12335Y19209D01*
X12327Y19190D01*
X12322Y19170D01*
X12321Y19150D01*
Y18600D01*
X12322Y18580D01*
X12327Y18560D01*
X12335Y18541D01*
X12346Y18524D01*
X12359Y18509D01*
X12683Y18184D01*
Y18088D01*
X12685Y18068D01*
X12689Y18048D01*
X12697Y18029D01*
X12708Y18012D01*
X12721Y17996D01*
X12956Y17761D01*
Y17263D01*
Y16913D01*
Y16563D01*
X12919Y16533D01*
X12914Y16532D01*
X12898Y16529D01*
X12883Y16522D01*
X12869Y16514D01*
X12857Y16503D01*
X12717Y16363D01*
X12706Y16351D01*
X12698Y16337D01*
X12691Y16322D01*
X12688Y16306D01*
X12686Y16290D01*
Y16063D01*
X12561Y15937D01*
X12550Y15925D01*
X12546Y15918D01*
X12496D01*
Y15715D01*
X12475D01*
Y15612D01*
X12634D01*
Y15562D01*
X12684D01*
Y15409D01*
X12793D01*
Y15409D01*
X12843Y15447D01*
X12850Y15446D01*
X12851Y15445D01*
Y15342D01*
X13010D01*
Y15242D01*
X12832D01*
X12830Y15237D01*
X12558D01*
X12538Y15236D01*
X12518Y15231D01*
X12499Y15223D01*
X12482Y15213D01*
X12467Y15199D01*
X12215Y14948D01*
X12169Y14967D01*
Y17047D01*
X12221Y17098D01*
X12226Y17099D01*
X12247Y17108D01*
X12267Y17120D01*
X12285Y17135D01*
X12300Y17153D01*
X12312Y17173D01*
X12321Y17194D01*
X12326Y17217D01*
X12328Y17240D01*
X12326Y17263D01*
X12321Y17286D01*
X12312Y17307D01*
X12300Y17327D01*
X12285Y17345D01*
X12267Y17360D01*
X12247Y17372D01*
X12226Y17381D01*
X12203Y17386D01*
X12180Y17388D01*
X12157Y17386D01*
X12134Y17381D01*
X12113Y17372D01*
X12093Y17360D01*
X12075Y17345D01*
X12060Y17327D01*
X12048Y17307D01*
X12039Y17286D01*
X12038Y17281D01*
X11949Y17191D01*
X11936Y17176D01*
X11925Y17159D01*
X11917Y17140D01*
X11912Y17120D01*
X11911Y17100D01*
Y16097D01*
X11865Y16078D01*
X11634Y16309D01*
X11618Y16322D01*
X11601Y16333D01*
X11582Y16341D01*
X11562Y16345D01*
X11542Y16347D01*
X11489D01*
Y16392D01*
X11330D01*
Y16442D01*
X11280D01*
Y16595D01*
X11171D01*
Y16495D01*
X11151Y16476D01*
X10927D01*
X10907Y16474D01*
X10889Y16470D01*
X10887Y16470D01*
X10845Y16495D01*
X10839Y16503D01*
Y16595D01*
X10730D01*
Y16442D01*
X10680D01*
Y16392D01*
X10521D01*
Y16289D01*
X10542D01*
Y16086D01*
X10545D01*
Y15933D01*
X10423D01*
Y15774D01*
X10323D01*
Y15933D01*
X10091D01*
X10049Y15952D01*
Y16017D01*
X10078D01*
Y16242D01*
X10078D01*
Y16505D01*
X10078D01*
X10086Y16547D01*
X10088Y16570D01*
X10086Y16593D01*
X10081Y16616D01*
X10072Y16637D01*
X10060Y16657D01*
X10045Y16675D01*
X10027Y16690D01*
X10007Y16702D01*
X9986Y16711D01*
X9983Y16712D01*
X9989Y16762D01*
X9990D01*
X10009Y16763D01*
X10027Y16767D01*
X10044Y16774D01*
X10060Y16784D01*
X10074Y16796D01*
X10106Y16829D01*
X10145Y16821D01*
X10165Y16783D01*
X10169Y16774D01*
X10164Y16753D01*
X10162Y16730D01*
X10164Y16707D01*
X10169Y16684D01*
X10178Y16663D01*
X10190Y16643D01*
X10205Y16625D01*
X10223Y16610D01*
X10243Y16598D01*
X10264Y16589D01*
X10287Y16584D01*
X10310Y16582D01*
X10333Y16584D01*
X10356Y16589D01*
X10377Y16598D01*
X10397Y16610D01*
X10415Y16625D01*
X10430Y16643D01*
X10430Y16643D01*
X10444Y16652D01*
X10457Y16663D01*
X10626Y16832D01*
X11807D01*
Y17444D01*
X11751D01*
X11709Y17462D01*
X11709Y17494D01*
Y18160D01*
X11709Y18210D01*
X11709Y18260D01*
Y18947D01*
X11709Y18958D01*
X11734Y18997D01*
X11807D01*
Y19609D01*
X10180D01*
Y19293D01*
X10130D01*
Y19243D01*
X9931D01*
Y18976D01*
X10009D01*
X10051Y18958D01*
X10051Y18926D01*
Y18260D01*
X10051Y18210D01*
X10051Y18160D01*
Y17473D01*
X10051Y17462D01*
X10025Y17423D01*
X9953D01*
Y17010D01*
X9941Y16998D01*
X9819D01*
Y17052D01*
X9660D01*
X9501D01*
Y17045D01*
X9500Y17043D01*
X9459Y17014D01*
X9451Y17012D01*
X9433Y17016D01*
X9410Y17018D01*
X9387Y17016D01*
X9364Y17011D01*
X9353Y17006D01*
X9323Y17020D01*
X9312Y17029D01*
X9311Y17083D01*
X9451Y17222D01*
X9501Y17202D01*
Y17152D01*
X9660D01*
X9819D01*
Y17255D01*
X9780D01*
X9765Y17286D01*
X9763Y17305D01*
X9776Y17316D01*
X9791Y17334D01*
X9803Y17353D01*
X9812Y17375D01*
X9817Y17397D01*
X9819Y17421D01*
X9817Y17444D01*
X9812Y17466D01*
X9803Y17488D01*
X9791Y17508D01*
X9776Y17525D01*
X9758Y17540D01*
X9738Y17553D01*
X9717Y17561D01*
X9694Y17567D01*
X9671Y17569D01*
X9648Y17567D01*
X9625Y17561D01*
X9604Y17553D01*
X9584Y17540D01*
X9583Y17540D01*
X9481D01*
X9462Y17538D01*
X9444Y17534D01*
X9426Y17527D01*
X9411Y17517D01*
X9396Y17505D01*
X9100Y17208D01*
X9088Y17194D01*
X9078Y17178D01*
X9071Y17161D01*
X9067Y17143D01*
X9065Y17124D01*
Y16973D01*
X9019Y16954D01*
X8569Y17403D01*
X8569Y17404D01*
X8564Y17427D01*
X8555Y17448D01*
X8543Y17468D01*
X8528Y17486D01*
X8510Y17501D01*
X8490Y17513D01*
X8469Y17522D01*
X8446Y17527D01*
X8423Y17529D01*
X8400Y17527D01*
X8377Y17522D01*
X8356Y17513D01*
X8336Y17501D01*
X8318Y17486D01*
X8303Y17468D01*
X8291Y17448D01*
X8282Y17427D01*
X8277Y17404D01*
X8275Y17381D01*
X8277Y17358D01*
X8282Y17335D01*
X8291Y17314D01*
X8303Y17294D01*
X8318Y17276D01*
X8336Y17261D01*
X8356Y17249D01*
X8377Y17240D01*
X8400Y17235D01*
X8401Y17235D01*
X8868Y16767D01*
Y16729D01*
X8850Y16711D01*
X8818Y16694D01*
X8811Y16696D01*
X8791Y16697D01*
X8770Y16696D01*
X8751Y16691D01*
X8744Y16688D01*
X8572D01*
X8553Y16687D01*
X8535Y16682D01*
X8518Y16675D01*
X8502Y16665D01*
X8487Y16653D01*
X8401Y16567D01*
X8400Y16567D01*
X8377Y16561D01*
X8356Y16553D01*
X8336Y16540D01*
X8318Y16525D01*
X8303Y16508D01*
X8291Y16488D01*
X8282Y16466D01*
X8277Y16444D01*
X8275Y16421D01*
X8277Y16397D01*
X8282Y16375D01*
X8291Y16353D01*
X8303Y16334D01*
X8318Y16316D01*
X8336Y16301D01*
X8356Y16289D01*
X8377Y16280D01*
X8400Y16274D01*
X8423Y16272D01*
X8446Y16274D01*
X8469Y16280D01*
X8490Y16289D01*
X8510Y16301D01*
X8528Y16316D01*
X8543Y16334D01*
X8555Y16353D01*
X8564Y16375D01*
X8569Y16397D01*
X8569Y16398D01*
X8621Y16450D01*
X8697D01*
X8710Y16441D01*
X8739Y16400D01*
X8739Y16398D01*
X8741Y16374D01*
X8747Y16352D01*
X8748Y16348D01*
X8732Y16341D01*
X8715Y16330D01*
X8700Y16317D01*
X8687Y16302D01*
X8676Y16285D01*
X8668Y16266D01*
X8666Y16256D01*
X7680Y15271D01*
X7634Y15290D01*
Y17936D01*
X8199Y18501D01*
X8215Y18519D01*
X8227Y18540D01*
X8237Y18562D01*
X8242Y18586D01*
X8244Y18610D01*
X8242Y18634D01*
X8237Y18658D01*
X8231Y18671D01*
X8243Y18699D01*
X8261Y18721D01*
X9360D01*
X9383Y18722D01*
X9406Y18727D01*
X9429Y18735D01*
X9450Y18745D01*
X9469Y18758D01*
X9487Y18773D01*
X9502Y18791D01*
X9515Y18810D01*
X9525Y18831D01*
X9533Y18854D01*
X9538Y18877D01*
X9539Y18900D01*
X9538Y18923D01*
X9533Y18946D01*
X9525Y18969D01*
X9515Y18990D01*
X9502Y19009D01*
X9487Y19027D01*
X9469Y19042D01*
X9450Y19055D01*
X9429Y19065D01*
X9406Y19073D01*
X9383Y19078D01*
X9360Y19079D01*
X7420D01*
X7397Y19078D01*
X7374Y19073D01*
X7351Y19065D01*
X7330Y19055D01*
X7311Y19042D01*
X7293Y19027D01*
X6623Y18357D01*
X6608Y18339D01*
X6595Y18320D01*
X6585Y18299D01*
X6577Y18276D01*
X6572Y18253D01*
X6571Y18230D01*
Y17409D01*
X5740D01*
X5717Y17408D01*
X5694Y17403D01*
X5671Y17395D01*
X5650Y17385D01*
X5631Y17372D01*
X5613Y17357D01*
X5158Y16902D01*
X5108Y16922D01*
Y17503D01*
X4501D01*
X4486Y17553D01*
X4494Y17558D01*
X4516Y17578D01*
X5162Y18224D01*
X5182Y18246D01*
X5199Y18271D01*
X5212Y18298D01*
X5221Y18326D01*
X5227Y18356D01*
X5229Y18386D01*
X5227Y18416D01*
X5221Y18445D01*
X5212Y18474D01*
X5199Y18500D01*
X5182Y18525D01*
X5162Y18548D01*
X5140Y18568D01*
X5115Y18584D01*
X5088Y18598D01*
X5059Y18607D01*
X5030Y18613D01*
X5000Y18615D01*
X4970Y18613D01*
X4941Y18607D01*
X4912Y18598D01*
X4885Y18584D01*
X4860Y18568D01*
X4838Y18548D01*
X4259Y17969D01*
X4040D01*
X4040Y17969D01*
X4010Y17967D01*
X3981Y17961D01*
X3952Y17952D01*
X3925Y17939D01*
X3900Y17922D01*
X3878Y17902D01*
X3629Y17653D01*
X3533D01*
Y18015D01*
Y18387D01*
X3555D01*
Y18556D01*
X3150D01*
X2744D01*
Y18387D01*
X2766D01*
Y18328D01*
X2619D01*
X2617Y18330D01*
X2597Y18342D01*
X2576Y18351D01*
X2553Y18356D01*
X2530Y18358D01*
X2507Y18356D01*
X2484Y18351D01*
X2463Y18342D01*
X2443Y18330D01*
X2425Y18315D01*
X2410Y18297D01*
X2398Y18277D01*
X2389Y18256D01*
X2384Y18233D01*
X2382Y18210D01*
X2384Y18187D01*
X2389Y18164D01*
X2398Y18143D01*
X2410Y18123D01*
X2425Y18105D01*
X2443Y18090D01*
X2463Y18078D01*
X2484Y18069D01*
X2507Y18064D01*
X2530Y18062D01*
X2553Y18064D01*
X2576Y18069D01*
X2594Y18023D01*
X2585Y18019D01*
X2560Y18002D01*
X2538Y17982D01*
X2518Y17960D01*
X2501Y17935D01*
X2488Y17908D01*
X2479Y17879D01*
X2473Y17850D01*
X2471Y17820D01*
X2473Y17790D01*
X2479Y17761D01*
X2488Y17732D01*
X2501Y17705D01*
X2503Y17703D01*
X2476Y17653D01*
X2384D01*
X2354Y17651D01*
X2325Y17645D01*
X2297Y17635D01*
X2270Y17622D01*
X2245Y17605D01*
X2222Y17586D01*
X1988Y17351D01*
X1968Y17329D01*
X1951Y17304D01*
X1938Y17277D01*
X1929Y17249D01*
X1923Y17219D01*
X1921Y17189D01*
Y16908D01*
X1919Y16858D01*
X1287D01*
X1249Y16906D01*
X1249Y16908D01*
X1250Y16937D01*
X1249Y16968D01*
X1244Y16998D01*
X1235Y17028D01*
X1223Y17057D01*
X1208Y17084D01*
X1190Y17109D01*
X1170Y17132D01*
X1147Y17153D01*
X1121Y17171D01*
X1094Y17186D01*
X1066Y17198D01*
X1036Y17206D01*
X1005Y17211D01*
X974Y17213D01*
X944Y17211D01*
X913Y17206D01*
X883Y17198D01*
X855Y17186D01*
X828Y17171D01*
X802Y17153D01*
X779Y17132D01*
X759Y17109D01*
X741Y17084D01*
X726Y17057D01*
X714Y17028D01*
X705Y16998D01*
X700Y16968D01*
X698Y16937D01*
X700Y16908D01*
X700Y16906D01*
X662Y16858D01*
X99D01*
Y19783D01*
X2218D01*
X2228Y19733D01*
X2201Y19722D01*
X2164Y19703D01*
X2129Y19680D01*
X2096Y19655D01*
X2066Y19627D01*
X2038Y19597D01*
X2013Y19564D01*
X1990Y19529D01*
X1971Y19492D01*
X1955Y19454D01*
X1943Y19414D01*
X1934Y19374D01*
X1929Y19333D01*
X1927Y19291D01*
X1929Y19250D01*
X1934Y19209D01*
X1943Y19168D01*
X1955Y19129D01*
X1971Y19091D01*
X1990Y19054D01*
X2013Y19019D01*
X2038Y18986D01*
X2066Y18956D01*
X2096Y18928D01*
X2129Y18902D01*
X2164Y18880D01*
X2201Y18861D01*
X2239Y18845D01*
X2279Y18833D01*
X2319Y18824D01*
X2360Y18818D01*
X2402Y18816D01*
X2443Y18818D01*
X2484Y18824D01*
X2524Y18833D01*
X2564Y18845D01*
X2602Y18861D01*
X2639Y18880D01*
X2674Y18902D01*
X2707Y18928D01*
X2737Y18956D01*
X2765Y18986D01*
X2791Y19019D01*
X2813Y19054D01*
X2832Y19091D01*
X2848Y19129D01*
X2860Y19168D01*
X2869Y19209D01*
X2875Y19250D01*
X2876Y19291D01*
X2875Y19333D01*
X2869Y19374D01*
X2860Y19414D01*
X2848Y19454D01*
X2832Y19492D01*
X2813Y19529D01*
X2791Y19564D01*
X2765Y19597D01*
X2737Y19627D01*
X2707Y19655D01*
X2674Y19680D01*
X2639Y19703D01*
X2602Y19722D01*
X2575Y19733D01*
X2585Y19783D01*
X9256D01*
X9261Y19773D01*
X9277Y19750D01*
X9295Y19728D01*
X9317Y19710D01*
X9340Y19694D01*
X9366Y19681D01*
X9393Y19672D01*
X9420Y19667D01*
X9449Y19665D01*
X9477Y19667D01*
X9505Y19672D01*
X9532Y19681D01*
X9557Y19694D01*
X9581Y19710D01*
X9602Y19728D01*
X9615Y19743D01*
X9646Y19747D01*
X9676Y19743D01*
X9689Y19728D01*
X9710Y19710D01*
X9734Y19694D01*
X9759Y19681D01*
X9786Y19672D01*
X9814Y19667D01*
X9843Y19665D01*
X9871Y19667D01*
X9899Y19672D01*
X9926Y19681D01*
X9951Y19694D01*
X9975Y19710D01*
X9996Y19728D01*
X10009Y19743D01*
X10039Y19747D01*
X10070Y19743D01*
X10083Y19728D01*
X10104Y19710D01*
X10128Y19694D01*
X10153Y19681D01*
X10180Y19672D01*
X10208Y19667D01*
X10236Y19665D01*
X10265Y19667D01*
X10292Y19672D01*
X10319Y19681D01*
X10345Y19694D01*
X10368Y19710D01*
X10390Y19728D01*
X10408Y19750D01*
X10424Y19773D01*
X10429Y19783D01*
X15177D01*
Y19039D01*
D02*
G37*
G36*
X13084Y18766D02*
X13089D01*
X13108Y18720D01*
X13074Y18687D01*
X12956D01*
Y18342D01*
X12955Y18341D01*
X12906Y18326D01*
X12904Y18329D01*
X12598Y18635D01*
X12619Y18685D01*
X12789D01*
Y18734D01*
X12826Y18766D01*
X12984D01*
Y18949D01*
X13084D01*
Y18766D01*
D02*
G37*
G36*
X7933Y18671D02*
X7371Y18109D01*
X7355Y18091D01*
X7343Y18070D01*
X7333Y18048D01*
X7328Y18024D01*
X7326Y18000D01*
Y16973D01*
X7280Y16954D01*
X6929Y17304D01*
Y18156D01*
X7494Y18721D01*
X7912D01*
X7933Y18671D01*
D02*
G37*
G36*
X4242Y17503D02*
Y16896D01*
X4238Y16889D01*
X4230Y16869D01*
X4225Y16848D01*
X4224Y16834D01*
X4171D01*
Y16681D01*
X4071D01*
Y16834D01*
X4019D01*
X4018Y16848D01*
X4013Y16869D01*
X4004Y16889D01*
X3993Y16907D01*
X3979Y16924D01*
X3963Y16938D01*
X3944Y16949D01*
X3924Y16958D01*
X3903Y16963D01*
X3881Y16964D01*
X3860Y16963D01*
X3839Y16958D01*
X3819Y16949D01*
X3800Y16938D01*
X3795Y16934D01*
X3779Y16924D01*
X3743D01*
X3727Y16934D01*
X3722Y16938D01*
X3704Y16949D01*
X3684Y16958D01*
X3663Y16963D01*
X3641Y16964D01*
X3604Y17007D01*
Y17038D01*
X3473D01*
X3405Y17106D01*
X3392Y17117D01*
X3379Y17125D01*
X3364Y17131D01*
X3348Y17135D01*
X3332Y17137D01*
X3114D01*
X3109Y17144D01*
X3137Y17194D01*
X3724D01*
X3754Y17196D01*
X3783Y17202D01*
X3811Y17212D01*
X3838Y17225D01*
X3863Y17242D01*
X3886Y17262D01*
X4135Y17511D01*
X4195D01*
X4242Y17503D01*
D02*
G37*
G36*
X13957Y16608D02*
Y16546D01*
X14011D01*
Y16442D01*
X14008Y16437D01*
X13999Y16416D01*
X13999Y16413D01*
X13987Y16370D01*
X13943Y16369D01*
X13828D01*
Y16236D01*
X13986D01*
Y16246D01*
X14032Y16264D01*
X14036Y16264D01*
X14053Y16250D01*
X14073Y16238D01*
X14094Y16229D01*
X14099Y16228D01*
X14136Y16191D01*
X14152Y16178D01*
X14169Y16168D01*
X14188Y16160D01*
X14194Y16158D01*
Y16104D01*
X14190Y16099D01*
X14146Y16071D01*
X14144Y16071D01*
X14123Y16076D01*
X14100Y16078D01*
X14077Y16076D01*
X14054Y16071D01*
X14033Y16062D01*
X13986Y16092D01*
Y16136D01*
X13778D01*
Y16186D01*
X13728D01*
Y16369D01*
X13631D01*
X13618Y16377D01*
X13588Y16419D01*
X13588Y16420D01*
X13586Y16443D01*
X13581Y16466D01*
X13572Y16487D01*
X13560Y16507D01*
X13555Y16513D01*
X13568Y16552D01*
X13577Y16563D01*
X13744D01*
Y16568D01*
X13752Y16579D01*
X13794Y16604D01*
X13797Y16604D01*
X13820Y16602D01*
X13843Y16604D01*
X13866Y16609D01*
X13887Y16618D01*
X13907Y16630D01*
X13907Y16630D01*
X13957Y16608D01*
D02*
G37*
G36*
X15147Y16116D02*
X15198Y16031D01*
X15222Y15995D01*
X15195Y15945D01*
X15059D01*
X15059Y15374D01*
X15022Y15373D01*
X14973Y15367D01*
X14924Y15359D01*
X14877Y15347D01*
X14830Y15331D01*
X14784Y15312D01*
X14740Y15290D01*
X14698Y15265D01*
X14658Y15237D01*
X14619Y15206D01*
X14583Y15173D01*
X14550Y15137D01*
X14519Y15098D01*
X14491Y15058D01*
X14466Y15015D01*
X14444Y14971D01*
X14425Y14926D01*
X14409Y14879D01*
X14397Y14832D01*
X14388Y14783D01*
X14383Y14734D01*
X14381Y14685D01*
X14383Y14636D01*
X14388Y14587D01*
X14397Y14538D01*
X14409Y14491D01*
X14425Y14444D01*
X14444Y14399D01*
X14466Y14355D01*
X14491Y14312D01*
X14519Y14272D01*
X14550Y14234D01*
X14583Y14198D01*
X14619Y14164D01*
X14658Y14133D01*
X14698Y14105D01*
X14740Y14080D01*
X14784Y14058D01*
X14830Y14039D01*
X14877Y14024D01*
X14924Y14011D01*
X14973Y14003D01*
X15022Y13997D01*
X15059Y13996D01*
X15059Y11280D01*
X14842D01*
X14758Y11364D01*
X14745Y11375D01*
X14731Y11384D01*
X14715Y11390D01*
X14698Y11394D01*
X14682Y11395D01*
X14682Y11395D01*
X14303D01*
X14282Y11445D01*
X14789Y11952D01*
X14799Y11964D01*
X14808Y11978D01*
X14814Y11993D01*
X14818Y12009D01*
X14819Y12025D01*
Y13542D01*
X14818Y13558D01*
X14814Y13574D01*
X14808Y13589D01*
X14799Y13603D01*
X14789Y13616D01*
X14114Y14290D01*
Y15409D01*
X14128D01*
Y15562D01*
X14178D01*
Y15612D01*
X14337D01*
Y15715D01*
X14316D01*
Y15918D01*
X14277D01*
X14255Y15966D01*
X14274Y15997D01*
X14284Y16003D01*
X14973D01*
Y16153D01*
X15126D01*
X15147Y16116D01*
D02*
G37*
G36*
X782Y15924D02*
X761Y15874D01*
X99D01*
Y16307D01*
X399D01*
X782Y15924D01*
D02*
G37*
G36*
X5968Y16226D02*
X5925Y16210D01*
X5821D01*
Y16090D01*
X5920D01*
Y15810D01*
X5530D01*
X5220Y15500D01*
X5205D01*
X5170Y15520D01*
X5160Y15530D01*
Y16090D01*
X5721D01*
Y16210D01*
X5555D01*
Y16244D01*
X5400D01*
X5373Y16294D01*
X5378Y16302D01*
X5968D01*
Y16226D01*
D02*
G37*
G36*
X10918Y15624D02*
X11126D01*
Y15439D01*
Y15242D01*
Y15124D01*
Y15114D01*
X10634D01*
Y15124D01*
Y15242D01*
Y15418D01*
X10655D01*
Y15527D01*
X10373D01*
Y15627D01*
X10655D01*
Y15646D01*
X10918D01*
Y15624D01*
D02*
G37*
G36*
X8399Y15031D02*
X8416Y15021D01*
X8433Y15014D01*
X8452Y15009D01*
X8471Y15008D01*
X8490Y15009D01*
X8509Y15014D01*
X8527Y15021D01*
X8540Y15029D01*
X8569Y15020D01*
X8589Y15011D01*
X8591Y15006D01*
X8591Y15005D01*
X8583Y14983D01*
X8568Y14955D01*
X8546Y14950D01*
X8524Y14941D01*
X8504Y14929D01*
X8487Y14913D01*
X8471Y14896D01*
X8459Y14876D01*
X8450Y14855D01*
X8445Y14832D01*
X8445Y14830D01*
X8387Y14773D01*
X8382Y14766D01*
X8336Y14772D01*
X8330Y14774D01*
X8296Y14811D01*
X8294Y14834D01*
X8289Y14856D01*
X8280Y14877D01*
X8269Y14896D01*
X8258Y14908D01*
X8261Y14913D01*
X8269Y14931D01*
X8273Y14950D01*
X8274Y14963D01*
X8279Y14973D01*
X8310Y15004D01*
X8320Y15008D01*
X8333Y15009D01*
X8352Y15014D01*
X8369Y15021D01*
X8386Y15031D01*
X8393Y15037D01*
X8399Y15031D01*
D02*
G37*
G36*
X13591Y15513D02*
X13881D01*
X13906Y15487D01*
Y14762D01*
X13846D01*
Y14943D01*
X13844Y14963D01*
X13840Y14983D01*
X13832Y15002D01*
X13821Y15019D01*
X13808Y15034D01*
X13798Y15045D01*
Y15139D01*
X13819D01*
Y15242D01*
X13660D01*
Y15292D01*
X13610D01*
Y15445D01*
X13501D01*
Y15358D01*
X13480Y15309D01*
X13320D01*
X13300Y15308D01*
X13280Y15303D01*
X13261Y15295D01*
X13244Y15284D01*
X13229Y15271D01*
X13215Y15258D01*
X13169Y15277D01*
Y15445D01*
X13169D01*
X13179Y15491D01*
X13242D01*
Y15524D01*
X13591D01*
Y15513D01*
D02*
G37*
G36*
X12779Y14976D02*
X12794Y14963D01*
X12811Y14953D01*
X12830Y14945D01*
X12850Y14940D01*
X12870Y14939D01*
X12872D01*
Y14936D01*
X12875D01*
Y14783D01*
X12753D01*
Y14624D01*
X12703D01*
Y14574D01*
X12421D01*
Y14477D01*
X12703D01*
Y14377D01*
X12421D01*
Y14268D01*
X12442D01*
Y13839D01*
X12330Y13727D01*
X12291D01*
X12277Y13739D01*
X12251Y13757D01*
X12223Y13773D01*
X12194Y13785D01*
X12163Y13794D01*
X12132Y13799D01*
X12113Y13800D01*
X12096Y13833D01*
X12093Y13851D01*
X12291Y14049D01*
X12304Y14064D01*
X12315Y14081D01*
X12323Y14100D01*
X12328Y14120D01*
X12329Y14140D01*
Y14697D01*
X12371Y14738D01*
X12421Y14718D01*
Y14674D01*
X12653D01*
Y14783D01*
X12486D01*
X12465Y14833D01*
X12612Y14979D01*
X12776D01*
X12779Y14976D01*
D02*
G37*
G36*
X9802Y16281D02*
X9802D01*
Y16017D01*
X9831D01*
Y14828D01*
X9639Y14636D01*
X9622Y14634D01*
X9600Y14629D01*
X9578Y14620D01*
X9559Y14608D01*
X9541Y14593D01*
X9526Y14575D01*
X9514Y14555D01*
X9505Y14534D01*
X9502Y14523D01*
X9452Y14529D01*
Y14605D01*
X9497Y14650D01*
X9509Y14664D01*
X9519Y14680D01*
X9526Y14697D01*
X9530Y14715D01*
X9532Y14733D01*
Y14851D01*
X9715D01*
Y14960D01*
X9562D01*
Y15010D01*
X9512D01*
Y15169D01*
X9409D01*
Y15148D01*
X9237D01*
X9233Y15164D01*
X9226Y15182D01*
X9216Y15198D01*
X9204Y15213D01*
X9192Y15222D01*
X9193Y15241D01*
X9195Y15250D01*
X9208Y15273D01*
X9223Y15274D01*
X9246Y15279D01*
X9267Y15288D01*
X9287Y15300D01*
X9305Y15315D01*
X9320Y15333D01*
X9332Y15353D01*
X9341Y15374D01*
X9346Y15397D01*
X9348Y15420D01*
X9346Y15443D01*
X9344Y15451D01*
X9364Y15487D01*
X9380Y15501D01*
X9402D01*
Y15660D01*
Y15819D01*
X9385D01*
X9376Y15824D01*
X9347Y15866D01*
X9346Y15869D01*
X9348Y15890D01*
X9346Y15913D01*
X9341Y15936D01*
X9332Y15957D01*
X9320Y15977D01*
X9318Y15979D01*
Y15994D01*
X9434Y16110D01*
X9439Y16112D01*
X9457Y16123D01*
X9472Y16136D01*
X9485Y16151D01*
X9495Y16168D01*
X9503Y16187D01*
X9508Y16207D01*
X9509Y16227D01*
X9508Y16247D01*
X9503Y16266D01*
X9495Y16285D01*
X9485Y16302D01*
X9472Y16317D01*
X9457Y16330D01*
X9439Y16341D01*
X9423Y16348D01*
X9425Y16352D01*
X9431Y16374D01*
X9432Y16398D01*
X9432Y16402D01*
X9460Y16441D01*
X9475Y16452D01*
X9802D01*
Y16281D01*
D02*
G37*
G36*
X1028Y14938D02*
X1050Y14918D01*
X1075Y14901D01*
X1102Y14888D01*
X1131Y14879D01*
X1132Y14878D01*
Y14545D01*
X1115Y14528D01*
X1082Y14514D01*
X1066Y14520D01*
X1036Y14529D01*
X1005Y14534D01*
X974Y14536D01*
X944Y14534D01*
X913Y14529D01*
X883Y14520D01*
X867Y14514D01*
X834Y14528D01*
X817Y14545D01*
Y14890D01*
X99D01*
Y15323D01*
X643D01*
X1028Y14938D01*
D02*
G37*
G36*
X7071Y16656D02*
Y14479D01*
X7030Y14438D01*
X7007Y14436D01*
X6984Y14431D01*
X6963Y14422D01*
X6947Y14412D01*
X6883D01*
X6872Y14411D01*
X6853Y14420D01*
X6825Y14445D01*
X6822Y14451D01*
Y15158D01*
X6820Y15174D01*
X6816Y15189D01*
X6808Y15202D01*
X6798Y15214D01*
X6786Y15224D01*
X6774Y15231D01*
Y15517D01*
X6834D01*
Y16068D01*
X6029D01*
Y16210D01*
X6072Y16226D01*
X6834D01*
Y16777D01*
X5968D01*
Y16558D01*
X5387D01*
X5368Y16605D01*
X5814Y17051D01*
X6676D01*
X7071Y16656D01*
D02*
G37*
G36*
X5474Y14413D02*
X5294D01*
Y14392D01*
X5167D01*
Y14559D01*
X5205Y14601D01*
X5227Y14602D01*
X5249Y14608D01*
X5269Y14616D01*
X5288Y14628D01*
X5305Y14642D01*
X5320Y14659D01*
X5331Y14678D01*
X5340Y14699D01*
X5345Y14720D01*
X5347Y14743D01*
X5365Y14762D01*
X5474D01*
Y14413D01*
D02*
G37*
G36*
X10014Y14632D02*
X10015Y14627D01*
X10019Y14611D01*
X10025Y14596D01*
X10033Y14582D01*
X10044Y14569D01*
X10248Y14365D01*
X10229Y14319D01*
X9960D01*
X9956Y14321D01*
X9933Y14326D01*
X9910Y14328D01*
X9887Y14326D01*
X9864Y14321D01*
X9843Y14312D01*
X9823Y14300D01*
X9805Y14285D01*
X9790Y14267D01*
X9778Y14247D01*
X9769Y14226D01*
X9764Y14203D01*
X9762Y14180D01*
X9764Y14157D01*
X9769Y14134D01*
X9778Y14113D01*
X9790Y14093D01*
X9805Y14075D01*
X9823Y14060D01*
X9843Y14048D01*
X9864Y14039D01*
X9887Y14034D01*
X9893Y14033D01*
X9892Y14020D01*
X9894Y13997D01*
X9899Y13974D01*
X9908Y13953D01*
X9920Y13933D01*
X9935Y13915D01*
X9953Y13900D01*
X9973Y13888D01*
X9994Y13879D01*
X9999Y13878D01*
X10119Y13759D01*
X10134Y13746D01*
X10151Y13735D01*
X10170Y13727D01*
X10190Y13722D01*
X10210Y13721D01*
X10381D01*
X10403Y13676D01*
X10403Y13671D01*
X10386Y13647D01*
X10371Y13620D01*
X10360Y13591D01*
X10351Y13561D01*
X10346Y13531D01*
X10344Y13500D01*
X10346Y13469D01*
X10351Y13439D01*
X10360Y13409D01*
X10371Y13380D01*
X10386Y13353D01*
X10404Y13328D01*
X10425Y13305D01*
X10448Y13284D01*
X10473Y13266D01*
X10500Y13251D01*
X10529Y13239D01*
X10539Y13185D01*
X10537Y13179D01*
X10517Y13174D01*
X10484Y13162D01*
X10453Y13148D01*
X10423Y13130D01*
X10395Y13109D01*
X10369Y13086D01*
X10346Y13060D01*
X10325Y13032D01*
X10307Y13002D01*
X10292Y12970D01*
X10281Y12938D01*
X10272Y12904D01*
X10267Y12869D01*
X10265Y12835D01*
X10267Y12800D01*
X10272Y12765D01*
X10281Y12732D01*
X10292Y12699D01*
X10296Y12692D01*
X10244Y12639D01*
X10197Y12659D01*
Y13071D01*
X10197D01*
X10197Y13078D01*
Y13129D01*
X10196Y13144D01*
X10184Y13206D01*
X10182Y13213D01*
X10182Y13216D01*
X10173Y13259D01*
X10169Y13273D01*
X10124Y13381D01*
X10124Y13381D01*
X10117Y13395D01*
X10117Y13395D01*
X10092Y13431D01*
X10091Y13433D01*
X10087Y13439D01*
X10052Y13491D01*
X10042Y13503D01*
X10006Y13540D01*
X10001Y13545D01*
X9996Y13549D01*
X9960Y13586D01*
X9948Y13595D01*
X9896Y13630D01*
X9890Y13634D01*
X9888Y13636D01*
X9851Y13660D01*
X9851Y13660D01*
X9838Y13667D01*
X9838Y13667D01*
X9730Y13712D01*
X9715Y13716D01*
X9672Y13725D01*
X9670Y13725D01*
X9663Y13727D01*
X9601Y13739D01*
X9586Y13741D01*
X9534D01*
X9528Y13741D01*
Y13741D01*
X9328D01*
X9307Y13791D01*
X9469Y13953D01*
X9585D01*
Y14273D01*
X9652Y14341D01*
X9669Y14342D01*
X9691Y14347D01*
X9713Y14356D01*
X9733Y14368D01*
X9750Y14383D01*
X9765Y14401D01*
X9778Y14421D01*
X9787Y14442D01*
X9792Y14465D01*
X9793Y14482D01*
X9970Y14658D01*
X10014Y14632D01*
D02*
G37*
G36*
X8213Y14407D02*
X8242Y14373D01*
X8238Y14355D01*
X8236Y14332D01*
X8237Y14321D01*
X8082Y14166D01*
X8040D01*
X8026Y14177D01*
X7999Y14216D01*
Y14240D01*
X8010Y14253D01*
X8022Y14273D01*
X8031Y14294D01*
X8036Y14317D01*
X8038Y14340D01*
X8036Y14361D01*
X8037Y14364D01*
X8066Y14406D01*
X8075Y14411D01*
X8210D01*
X8213Y14407D01*
D02*
G37*
G36*
X3138Y15223D02*
Y15216D01*
X3386D01*
Y15116D01*
X3138D01*
Y14909D01*
Y14766D01*
X3386D01*
Y14666D01*
X3138D01*
Y14459D01*
X3138D01*
Y14316D01*
X3386D01*
Y14216D01*
X3138D01*
Y14054D01*
X3029D01*
Y14939D01*
X3027Y14969D01*
X3021Y14998D01*
X3012Y15027D01*
X2999Y15054D01*
X2982Y15079D01*
X2962Y15101D01*
X2956Y15107D01*
X3092Y15242D01*
X3138Y15223D01*
D02*
G37*
G36*
X13248Y14474D02*
X13456D01*
Y13964D01*
X13273D01*
X13242Y14001D01*
X13237Y14014D01*
X13238Y14030D01*
X13236Y14053D01*
X13231Y14076D01*
X13222Y14097D01*
X13210Y14117D01*
X13195Y14135D01*
X13177Y14150D01*
X13157Y14162D01*
X13144Y14167D01*
X13151Y14184D01*
X13156Y14207D01*
X13158Y14230D01*
X13156Y14253D01*
X13151Y14276D01*
X13142Y14297D01*
X13130Y14317D01*
X13115Y14335D01*
X13097Y14350D01*
X13077Y14362D01*
X13056Y14371D01*
X13033Y14376D01*
X13010Y14378D01*
X12985Y14426D01*
Y14496D01*
X13248D01*
Y14474D01*
D02*
G37*
G36*
X2161Y14625D02*
Y13455D01*
X2121Y13434D01*
X2111Y13431D01*
X2094Y13442D01*
X2072Y13451D01*
X2050Y13456D01*
X2026Y13458D01*
X2003Y13456D01*
X1981Y13451D01*
X1959Y13442D01*
X1939Y13430D01*
X1922Y13415D01*
X1907Y13397D01*
X1894Y13377D01*
X1886Y13356D01*
X1880Y13333D01*
X1878Y13310D01*
X1843Y13276D01*
X1819Y13274D01*
X1789Y13269D01*
X1759Y13261D01*
X1730Y13249D01*
X1714Y13240D01*
X1691Y13242D01*
X1673Y13259D01*
X1677Y13310D01*
X1677Y13310D01*
X1695Y13325D01*
X1710Y13343D01*
X1722Y13363D01*
X1731Y13384D01*
X1736Y13407D01*
X1738Y13430D01*
X1736Y13453D01*
X1731Y13476D01*
X1722Y13497D01*
X1710Y13517D01*
X1695Y13535D01*
X1677Y13550D01*
X1657Y13562D01*
X1636Y13571D01*
X1613Y13576D01*
X1590Y13578D01*
X1567Y13576D01*
X1544Y13571D01*
X1523Y13562D01*
X1503Y13550D01*
X1485Y13535D01*
X1484Y13534D01*
X780D01*
X764Y13532D01*
X748Y13529D01*
X733Y13522D01*
X719Y13514D01*
X707Y13503D01*
X457Y13254D01*
X441Y13261D01*
X411Y13269D01*
X381Y13274D01*
X350Y13276D01*
X319Y13274D01*
X289Y13269D01*
X259Y13261D01*
X230Y13249D01*
X203Y13234D01*
X178Y13216D01*
X155Y13195D01*
X149Y13189D01*
X99Y13208D01*
Y14339D01*
X662D01*
X700Y14291D01*
X700Y14289D01*
X698Y14260D01*
X700Y14229D01*
X705Y14198D01*
X714Y14169D01*
X726Y14140D01*
X741Y14113D01*
X759Y14088D01*
X779Y14065D01*
X802Y14044D01*
X828Y14026D01*
X855Y14011D01*
X883Y13999D01*
X913Y13991D01*
X944Y13986D01*
X974Y13984D01*
X1005Y13986D01*
X1036Y13991D01*
X1066Y13999D01*
X1094Y14011D01*
X1121Y14026D01*
X1147Y14044D01*
X1170Y14065D01*
X1190Y14088D01*
X1208Y14113D01*
X1223Y14140D01*
X1235Y14169D01*
X1244Y14198D01*
X1249Y14229D01*
X1250Y14260D01*
X1249Y14289D01*
X1249Y14291D01*
X1287Y14339D01*
X1449D01*
Y14132D01*
X1450Y14115D01*
X1454Y14099D01*
X1461Y14083D01*
X1470Y14069D01*
X1481Y14056D01*
X1592Y13944D01*
X1594Y13927D01*
X1599Y13904D01*
X1608Y13883D01*
X1620Y13863D01*
X1635Y13845D01*
X1653Y13830D01*
X1673Y13818D01*
X1694Y13809D01*
X1717Y13804D01*
X1740Y13802D01*
X1763Y13804D01*
X1786Y13809D01*
X1807Y13818D01*
X1827Y13830D01*
X1845Y13845D01*
X1860Y13863D01*
X1872Y13883D01*
X1881Y13904D01*
X1886Y13927D01*
X1888Y13950D01*
X1886Y13973D01*
X1881Y13996D01*
X1872Y14017D01*
X1860Y14037D01*
X1845Y14055D01*
X1827Y14070D01*
X1807Y14082D01*
X1786Y14091D01*
X1763Y14096D01*
X1746Y14098D01*
X1666Y14177D01*
Y14339D01*
X1919D01*
Y14801D01*
X1965Y14820D01*
X2161Y14625D01*
D02*
G37*
G36*
X11626Y13705D02*
X11665Y13682D01*
X11688Y13661D01*
X11717Y13632D01*
X11734Y13607D01*
X11749Y13560D01*
X11720Y13530D01*
X11381D01*
X11360Y13542D01*
X11353Y13562D01*
X11365Y13602D01*
X11388Y13638D01*
X11420Y13671D01*
X11474Y13704D01*
X11502Y13714D01*
X11589Y13716D01*
X11626Y13705D01*
D02*
G37*
G36*
X12176D02*
X12215Y13682D01*
X12238Y13661D01*
X12267Y13632D01*
X12284Y13607D01*
X12299Y13560D01*
X12270Y13530D01*
X11931Y13530D01*
X11910Y13542D01*
X11903Y13562D01*
X11915Y13602D01*
X11938Y13638D01*
X11970Y13671D01*
X12024Y13704D01*
X12052Y13714D01*
X12139Y13716D01*
X12176Y13705D01*
D02*
G37*
G36*
X14316Y13377D02*
Y12190D01*
X14195Y12069D01*
X14153Y12081D01*
X14143Y12088D01*
X14139Y12121D01*
X14130Y12156D01*
X14117Y12191D01*
X14101Y12225D01*
X14082Y12256D01*
X14060Y12286D01*
X14036Y12313D01*
X14008Y12338D01*
X13979Y12360D01*
X13947Y12379D01*
X13914Y12395D01*
X13879Y12407D01*
X13843Y12416D01*
X13820Y12420D01*
Y12047D01*
X13770D01*
Y11997D01*
X13397D01*
X13401Y11974D01*
X13410Y11938D01*
X13422Y11903D01*
X13438Y11870D01*
X13457Y11838D01*
X13479Y11809D01*
X13504Y11781D01*
X13531Y11757D01*
X13561Y11735D01*
X13592Y11716D01*
X13626Y11700D01*
X13661Y11687D01*
X13696Y11678D01*
X13729Y11674D01*
X13736Y11664D01*
X13748Y11622D01*
X13457Y11331D01*
X13446Y11318D01*
X13438Y11304D01*
X13431Y11289D01*
X13428Y11273D01*
X13426Y11257D01*
Y11230D01*
X13420Y11224D01*
X13366Y11220D01*
X13331Y11254D01*
X13319Y11265D01*
X13305Y11273D01*
X13290Y11280D01*
X13274Y11283D01*
X13266Y11284D01*
Y11598D01*
X13217D01*
Y11782D01*
X13233Y11796D01*
X13257Y11822D01*
X13277Y11850D01*
X13295Y11880D01*
X13310Y11911D01*
X13322Y11944D01*
X13330Y11978D01*
X13335Y12012D01*
X13337Y12047D01*
X13335Y12082D01*
X13330Y12116D01*
X13322Y12150D01*
X13310Y12183D01*
X13295Y12214D01*
X13277Y12244D01*
X13257Y12272D01*
X13233Y12298D01*
X13207Y12321D01*
X13179Y12342D01*
X13150Y12360D01*
X13118Y12375D01*
X13085Y12387D01*
X13052Y12395D01*
X13017Y12400D01*
X12982Y12402D01*
X12948Y12400D01*
X12913Y12395D01*
X12879Y12387D01*
X12847Y12375D01*
X12815Y12360D01*
X12806Y12355D01*
X12757Y12374D01*
X12752Y12380D01*
X12749Y12405D01*
X12849Y12506D01*
X12879Y12495D01*
X12913Y12487D01*
X12948Y12482D01*
X12982Y12480D01*
X13017Y12482D01*
X13052Y12487D01*
X13085Y12495D01*
X13118Y12507D01*
X13150Y12522D01*
X13179Y12540D01*
X13207Y12560D01*
X13233Y12584D01*
X13257Y12610D01*
X13277Y12638D01*
X13295Y12667D01*
X13310Y12699D01*
X13322Y12732D01*
X13330Y12765D01*
X13335Y12800D01*
X13337Y12835D01*
X13335Y12869D01*
X13330Y12904D01*
X13322Y12938D01*
X13310Y12970D01*
X13295Y13002D01*
X13277Y13032D01*
X13257Y13060D01*
X13233Y13086D01*
X13207Y13109D01*
X13179Y13130D01*
X13150Y13148D01*
X13118Y13162D01*
X13085Y13174D01*
X13052Y13183D01*
X13017Y13188D01*
X12982Y13189D01*
X12948Y13188D01*
X12913Y13183D01*
X12879Y13174D01*
X12847Y13162D01*
X12815Y13148D01*
X12785Y13130D01*
X12757Y13109D01*
X12731Y13086D01*
X12708Y13060D01*
X12687Y13032D01*
X12669Y13002D01*
X12655Y12970D01*
X12643Y12938D01*
X12634Y12904D01*
X12629Y12869D01*
X12628Y12835D01*
X12629Y12800D01*
X12634Y12765D01*
X12643Y12732D01*
X12654Y12701D01*
X12491Y12539D01*
X12477Y12522D01*
X12465Y12504D01*
X12457Y12484D01*
X12452Y12463D01*
X12450Y12441D01*
Y12361D01*
X12400Y12336D01*
X12392Y12342D01*
X12362Y12360D01*
X12331Y12375D01*
X12298Y12387D01*
X12264Y12395D01*
X12230Y12400D01*
X12195Y12402D01*
X12160Y12400D01*
X12126Y12395D01*
X12092Y12387D01*
X12059Y12375D01*
X12028Y12360D01*
X12018Y12355D01*
X11970Y12374D01*
X11965Y12380D01*
X11961Y12405D01*
X12062Y12506D01*
X12092Y12495D01*
X12126Y12487D01*
X12160Y12482D01*
X12195Y12480D01*
X12230Y12482D01*
X12264Y12487D01*
X12298Y12495D01*
X12331Y12507D01*
X12362Y12522D01*
X12392Y12540D01*
X12420Y12560D01*
X12446Y12584D01*
X12469Y12610D01*
X12490Y12638D01*
X12508Y12667D01*
X12523Y12699D01*
X12534Y12732D01*
X12543Y12765D01*
X12548Y12800D01*
X12550Y12835D01*
X12548Y12869D01*
X12543Y12904D01*
X12534Y12938D01*
X12523Y12970D01*
X12508Y13002D01*
X12490Y13032D01*
X12469Y13060D01*
X12446Y13086D01*
X12420Y13109D01*
X12392Y13130D01*
X12362Y13148D01*
X12331Y13162D01*
X12298Y13174D01*
X12264Y13183D01*
X12250Y13185D01*
X12240Y13237D01*
X12251Y13243D01*
X12277Y13261D01*
X12301Y13282D01*
X12312Y13295D01*
X13403D01*
X13408Y13283D01*
X13420Y13263D01*
X13435Y13245D01*
X13443Y13239D01*
X13433Y13200D01*
X13426Y13189D01*
X13415D01*
Y12480D01*
X14124D01*
Y13189D01*
X13654D01*
X13647Y13200D01*
X13637Y13239D01*
X13645Y13245D01*
X13660Y13263D01*
X13672Y13283D01*
X13681Y13304D01*
X13686Y13327D01*
X13688Y13350D01*
X13728Y13393D01*
X13928D01*
X13944Y13394D01*
X13960Y13398D01*
X13975Y13404D01*
X13988Y13413D01*
X14001Y13423D01*
X14079Y13502D01*
X14081Y13502D01*
X14104Y13504D01*
X14127Y13509D01*
X14148Y13518D01*
X14165Y13528D01*
X14316Y13377D01*
D02*
G37*
G36*
X12269Y13470D02*
X12290Y13458D01*
X12297Y13438D01*
X12285Y13398D01*
X12262Y13362D01*
X12230Y13329D01*
X12176Y13296D01*
X12148Y13286D01*
X12061Y13284D01*
X12024Y13295D01*
X11985Y13318D01*
X11962Y13339D01*
X11933Y13368D01*
X11916Y13393D01*
X11901Y13440D01*
X11930Y13470D01*
X12269Y13470D01*
D02*
G37*
G36*
X11740Y13458D02*
X11747Y13438D01*
X11735Y13398D01*
X11712Y13362D01*
X11680Y13329D01*
X11626Y13296D01*
X11598Y13286D01*
X11511Y13284D01*
X11474Y13295D01*
X11435Y13318D01*
X11412Y13339D01*
X11383Y13368D01*
X11366Y13393D01*
X11351Y13440D01*
X11380Y13470D01*
X11719D01*
X11740Y13458D01*
D02*
G37*
G36*
X1205Y13276D02*
X1204Y13276D01*
X1184Y13263D01*
X1161Y13269D01*
X1131Y13274D01*
X1100Y13276D01*
X1069Y13274D01*
X1039Y13269D01*
X1009Y13261D01*
X980Y13249D01*
X953Y13234D01*
X928Y13216D01*
X905Y13195D01*
X884Y13172D01*
X866Y13147D01*
X851Y13120D01*
X839Y13091D01*
X831Y13061D01*
X826Y13031D01*
X824Y13000D01*
X826Y12969D01*
X831Y12939D01*
X839Y12909D01*
X851Y12880D01*
X866Y12853D01*
X884Y12828D01*
X905Y12805D01*
X928Y12784D01*
X953Y12766D01*
X980Y12751D01*
X1009Y12739D01*
X1039Y12731D01*
X1069Y12726D01*
X1100Y12724D01*
X1131Y12726D01*
X1161Y12731D01*
X1191Y12739D01*
X1220Y12751D01*
X1247Y12766D01*
X1272Y12784D01*
X1295Y12805D01*
X1316Y12828D01*
X1334Y12853D01*
X1349Y12880D01*
X1361Y12909D01*
X1369Y12939D01*
X1374Y12969D01*
X1376Y13000D01*
X1374Y13031D01*
X1372Y13046D01*
X1381Y13061D01*
X1381Y13061D01*
X1411Y13072D01*
X1438Y13077D01*
X1453Y13068D01*
X1474Y13059D01*
X1497Y13054D01*
X1520Y13052D01*
X1529Y13053D01*
X1543Y13046D01*
X1558Y13033D01*
X1575Y13010D01*
X1574Y13000D01*
X1576Y12969D01*
X1581Y12939D01*
X1589Y12909D01*
X1601Y12880D01*
X1616Y12853D01*
X1634Y12828D01*
X1655Y12805D01*
X1678Y12784D01*
X1703Y12766D01*
X1730Y12751D01*
X1759Y12739D01*
X1789Y12731D01*
X1819Y12726D01*
X1844Y12724D01*
X1855Y12715D01*
X1878Y12675D01*
X1874Y12664D01*
X1868Y12635D01*
X1866Y12605D01*
Y11635D01*
X1585D01*
Y11220D01*
Y10806D01*
X1911D01*
Y10812D01*
X1961Y10833D01*
X2235Y10559D01*
Y9618D01*
X1949D01*
Y10059D01*
X1969D01*
Y10294D01*
X1990D01*
Y10422D01*
X1624D01*
X1258D01*
Y10294D01*
X1280D01*
Y10137D01*
X1257Y10089D01*
X1237Y10087D01*
X1218Y10083D01*
X1199Y10075D01*
X1182Y10064D01*
X1167Y10051D01*
X1153Y10036D01*
X1143Y10019D01*
X1135Y10000D01*
X1131Y9981D01*
X1129Y9963D01*
X1022Y9856D01*
X976Y9875D01*
Y9959D01*
Y10383D01*
X166D01*
Y9959D01*
Y9538D01*
X571D01*
Y9488D01*
X621D01*
Y9014D01*
X888D01*
Y8935D01*
X882Y8928D01*
X838Y8907D01*
X829Y8912D01*
X800Y8923D01*
X770Y8932D01*
X740Y8937D01*
X709Y8939D01*
X621D01*
Y8661D01*
Y8384D01*
X709D01*
X740Y8386D01*
X770Y8391D01*
X800Y8399D01*
X829Y8411D01*
X838Y8416D01*
X882Y8395D01*
X888Y8388D01*
Y8258D01*
X615Y7985D01*
X604Y7971D01*
X595Y7955D01*
X590Y7938D01*
X588Y7920D01*
Y6020D01*
X590Y6002D01*
X595Y5985D01*
X604Y5969D01*
X615Y5955D01*
X1237Y5333D01*
Y5273D01*
X1228Y5266D01*
X1171Y5260D01*
X1149Y5285D01*
X1124Y5307D01*
X1096Y5327D01*
X1067Y5343D01*
X1036Y5356D01*
X1004Y5365D01*
X971Y5371D01*
X937Y5373D01*
X903Y5371D01*
X870Y5365D01*
X838Y5356D01*
X807Y5343D01*
X778Y5327D01*
X750Y5307D01*
X725Y5285D01*
X703Y5260D01*
X683Y5232D01*
X667Y5203D01*
X654Y5172D01*
X645Y5140D01*
X639Y5106D01*
X637Y5073D01*
X639Y5039D01*
X645Y5006D01*
X653Y4978D01*
X648Y4966D01*
X617Y4933D01*
X614Y4934D01*
X99D01*
Y6736D01*
X108Y6741D01*
X132Y6757D01*
X153Y6776D01*
X172Y6797D01*
X188Y6821D01*
X200Y6846D01*
X210Y6873D01*
X215Y6901D01*
X217Y6929D01*
X215Y6957D01*
X210Y6985D01*
X200Y7012D01*
X188Y7038D01*
X172Y7061D01*
X153Y7083D01*
X139Y7095D01*
X135Y7126D01*
X139Y7157D01*
X153Y7169D01*
X172Y7191D01*
X188Y7214D01*
X200Y7240D01*
X210Y7267D01*
X215Y7295D01*
X217Y7323D01*
X215Y7351D01*
X210Y7379D01*
X200Y7406D01*
X188Y7431D01*
X172Y7455D01*
X153Y7476D01*
X139Y7489D01*
X135Y7520D01*
X139Y7550D01*
X153Y7563D01*
X172Y7584D01*
X188Y7608D01*
X200Y7634D01*
X210Y7660D01*
X215Y7688D01*
X217Y7717D01*
X215Y7745D01*
X210Y7773D01*
X200Y7800D01*
X188Y7825D01*
X172Y7849D01*
X153Y7870D01*
X132Y7889D01*
X108Y7904D01*
X99Y7909D01*
Y12792D01*
X149Y12811D01*
X155Y12805D01*
X178Y12784D01*
X203Y12766D01*
X230Y12751D01*
X259Y12739D01*
X289Y12731D01*
X319Y12726D01*
X350Y12724D01*
X381Y12726D01*
X411Y12731D01*
X441Y12739D01*
X470Y12751D01*
X497Y12766D01*
X522Y12784D01*
X545Y12805D01*
X566Y12828D01*
X584Y12853D01*
X599Y12880D01*
X611Y12909D01*
X619Y12939D01*
X624Y12969D01*
X626Y13000D01*
X624Y13031D01*
X619Y13061D01*
X611Y13091D01*
X604Y13107D01*
X823Y13326D01*
X1182D01*
X1205Y13276D01*
D02*
G37*
G36*
X3676Y13245D02*
X3715Y13222D01*
X3738Y13201D01*
X3767Y13172D01*
X3784Y13147D01*
X3799Y13100D01*
X3770Y13070D01*
X3431Y13070D01*
X3410Y13082D01*
X3403Y13102D01*
X3415Y13142D01*
X3438Y13178D01*
X3470Y13211D01*
X3524Y13244D01*
X3552Y13254D01*
X3639Y13256D01*
X3676Y13245D01*
D02*
G37*
G36*
X2876Y13235D02*
X2915Y13212D01*
X2938Y13191D01*
X2967Y13162D01*
X2984Y13137D01*
X2999Y13090D01*
X2970Y13060D01*
X2631Y13060D01*
X2610Y13072D01*
X2603Y13092D01*
X2615Y13132D01*
X2638Y13168D01*
X2670Y13201D01*
X2724Y13234D01*
X2752Y13244D01*
X2839Y13246D01*
X2876Y13235D01*
D02*
G37*
G36*
X2969Y13000D02*
X2990Y12988D01*
X2997Y12968D01*
X2985Y12928D01*
X2962Y12892D01*
X2930Y12859D01*
X2876Y12826D01*
X2848Y12816D01*
X2761Y12814D01*
X2724Y12825D01*
X2685Y12848D01*
X2662Y12869D01*
X2633Y12898D01*
X2616Y12923D01*
X2601Y12970D01*
X2630Y13000D01*
X2969Y13000D01*
D02*
G37*
G36*
X3790Y12978D02*
X3797Y12958D01*
X3785Y12918D01*
X3762Y12882D01*
X3730Y12849D01*
X3676Y12816D01*
X3648Y12806D01*
X3561Y12804D01*
X3524Y12815D01*
X3485Y12838D01*
X3462Y12859D01*
X3433Y12888D01*
X3416Y12913D01*
X3401Y12960D01*
X3430Y12990D01*
X3769Y12990D01*
X3790Y12978D01*
D02*
G37*
G36*
X6289Y13062D02*
Y12953D01*
X6096Y12759D01*
X6063Y12767D01*
X6027Y12773D01*
X5990Y12774D01*
X5953Y12773D01*
X5917Y12767D01*
X5881Y12758D01*
X5847Y12746D01*
X5813Y12730D01*
X5782Y12711D01*
X5752Y12689D01*
X5725Y12665D01*
X5701Y12638D01*
X5679Y12608D01*
X5660Y12577D01*
X5644Y12543D01*
X5632Y12509D01*
X5623Y12473D01*
X5617Y12437D01*
X5616Y12400D01*
X5617Y12363D01*
X5623Y12327D01*
X5631Y12294D01*
X5373Y12037D01*
X5358Y12019D01*
X5345Y12000D01*
X5335Y11979D01*
X5327Y11956D01*
X5322Y11933D01*
X5321Y11910D01*
Y11795D01*
X5040D01*
Y11400D01*
Y11005D01*
X5101D01*
X5120Y10959D01*
X4869Y10708D01*
X4535D01*
Y10777D01*
X4281D01*
Y10798D01*
X4152D01*
Y10649D01*
X4052D01*
Y10798D01*
X3923D01*
Y10604D01*
X3702D01*
Y10401D01*
X3681D01*
Y10298D01*
X3840D01*
X3999D01*
Y10343D01*
X4077D01*
X4154Y10266D01*
X4159Y10244D01*
X4168Y10223D01*
X4180Y10203D01*
X4195Y10185D01*
X4213Y10170D01*
X4233Y10158D01*
X4244Y10153D01*
X4256Y10124D01*
X4258Y10097D01*
X4187Y10025D01*
X4171Y10007D01*
X4158Y9988D01*
X4148Y9967D01*
X4140Y9945D01*
X4136Y9922D01*
X4134Y9898D01*
Y8232D01*
X3709D01*
Y8282D01*
X3378D01*
X3377Y8281D01*
X2649D01*
Y7907D01*
X3276D01*
X3279Y7894D01*
X3288Y7873D01*
X3300Y7853D01*
X3315Y7835D01*
X3333Y7820D01*
X3353Y7808D01*
X3374Y7799D01*
X3397Y7794D01*
X3420Y7792D01*
X3443Y7794D01*
X3466Y7799D01*
X3487Y7808D01*
X3507Y7820D01*
X3525Y7835D01*
X3540Y7853D01*
X3552Y7873D01*
X3561Y7894D01*
X3566Y7917D01*
X3568Y7940D01*
X3612Y7976D01*
X3688D01*
Y7983D01*
X3910D01*
X3929Y7937D01*
X3424Y7432D01*
X3377Y7451D01*
Y7533D01*
X2649D01*
Y7159D01*
X3282D01*
Y7070D01*
X2921Y6709D01*
X2876Y6735D01*
X2876Y6737D01*
X2878Y6760D01*
X2876Y6783D01*
X2871Y6806D01*
X2862Y6827D01*
X2850Y6847D01*
X2835Y6865D01*
X2817Y6880D01*
X2797Y6892D01*
X2776Y6901D01*
X2753Y6906D01*
X2730Y6908D01*
X2707Y6906D01*
X2684Y6901D01*
X2663Y6892D01*
X2643Y6880D01*
X2625Y6865D01*
X2610Y6847D01*
X2598Y6827D01*
X2589Y6806D01*
X2584Y6783D01*
X2582Y6760D01*
X2584Y6737D01*
X2586Y6727D01*
X2583Y6719D01*
X2579Y6703D01*
X2578Y6687D01*
Y6549D01*
X2554Y6527D01*
X2528Y6514D01*
X2514Y6517D01*
X2491Y6519D01*
X2468Y6517D01*
X2445Y6512D01*
X2424Y6503D01*
X2404Y6491D01*
X2386Y6476D01*
X2371Y6458D01*
X2359Y6438D01*
X2350Y6417D01*
X2349Y6411D01*
X2248D01*
Y6664D01*
X2214D01*
Y6967D01*
X2215Y6968D01*
X2230Y6986D01*
X2242Y7006D01*
X2251Y7027D01*
X2256Y7050D01*
X2258Y7073D01*
X2256Y7096D01*
X2253Y7109D01*
X2267Y7136D01*
X2288Y7159D01*
X2531D01*
Y7512D01*
X2552D01*
Y7670D01*
X2167D01*
Y7770D01*
X2552D01*
Y7928D01*
X2531D01*
Y8281D01*
X2214D01*
Y8494D01*
X2215Y8495D01*
X2230Y8513D01*
X2242Y8533D01*
X2251Y8554D01*
X2256Y8577D01*
X2258Y8600D01*
X2256Y8623D01*
X2251Y8646D01*
X2242Y8667D01*
X2230Y8687D01*
X2215Y8705D01*
X2197Y8720D01*
X2177Y8732D01*
X2156Y8741D01*
X2133Y8746D01*
X2110Y8748D01*
X2087Y8746D01*
X2064Y8741D01*
X2043Y8732D01*
X2023Y8720D01*
X2005Y8705D01*
X1990Y8687D01*
X1984Y8677D01*
X1976Y8681D01*
X1953Y8686D01*
X1930Y8688D01*
X1911Y8706D01*
Y9116D01*
X1585D01*
Y8701D01*
Y8286D01*
X1663D01*
X1670Y8283D01*
X1680Y8273D01*
X1704Y8236D01*
X1704Y8233D01*
Y7522D01*
X1705Y7506D01*
X1709Y7490D01*
X1715Y7475D01*
X1724Y7462D01*
X1734Y7449D01*
X1803Y7381D01*
Y7159D01*
X1932D01*
X1953Y7136D01*
X1967Y7109D01*
X1964Y7096D01*
X1962Y7073D01*
X1964Y7050D01*
X1969Y7027D01*
X1978Y7006D01*
X1990Y6986D01*
X2005Y6968D01*
X2006Y6967D01*
Y6664D01*
X1972D01*
Y6219D01*
X1970Y6217D01*
X1958Y6197D01*
X1949Y6176D01*
X1944Y6153D01*
X1942Y6130D01*
X1944Y6107D01*
X1949Y6084D01*
X1958Y6063D01*
X1970Y6043D01*
X1985Y6025D01*
X2003Y6010D01*
X2023Y5998D01*
X2044Y5989D01*
X2067Y5984D01*
X2090Y5982D01*
X2113Y5984D01*
X2136Y5989D01*
X2157Y5998D01*
X2159Y5999D01*
X2163Y5993D01*
X2178Y5975D01*
X2196Y5960D01*
X2216Y5948D01*
X2237Y5939D01*
X2260Y5934D01*
X2283Y5932D01*
X2306Y5934D01*
X2329Y5939D01*
X2333Y5941D01*
X2357Y5944D01*
X2398Y5919D01*
X2398Y5919D01*
X2408Y5907D01*
X2594Y5721D01*
Y5541D01*
X2595Y5525D01*
X2599Y5509D01*
X2605Y5494D01*
X2613Y5480D01*
X2624Y5468D01*
X2661Y5430D01*
Y5128D01*
X2662Y5111D01*
X2666Y5097D01*
X2653Y5092D01*
X2633Y5080D01*
X2615Y5065D01*
X2600Y5047D01*
X2588Y5027D01*
X2579Y5006D01*
X2574Y4983D01*
X2572Y4960D01*
X2574Y4937D01*
X2579Y4914D01*
X2588Y4893D01*
X2600Y4873D01*
X2615Y4855D01*
X2633Y4840D01*
X2653Y4828D01*
X2674Y4819D01*
X2697Y4814D01*
X2720Y4812D01*
X2760Y4770D01*
Y4594D01*
X2760D01*
Y4551D01*
X2760D01*
Y4217D01*
X2747Y4216D01*
X2724Y4211D01*
X2703Y4202D01*
X2683Y4190D01*
X2665Y4175D01*
X2650Y4157D01*
X2638Y4137D01*
X2629Y4116D01*
X2624Y4093D01*
X2622Y4070D01*
X2624Y4047D01*
X2629Y4024D01*
X2638Y4003D01*
X2650Y3983D01*
X2665Y3965D01*
X2683Y3950D01*
X2703Y3938D01*
X2724Y3929D01*
X2747Y3924D01*
X2760Y3923D01*
Y3726D01*
X2573Y3540D01*
X2537Y3574D01*
Y3773D01*
X2037D01*
Y3873D01*
X2537D01*
Y4072D01*
X2537D01*
Y4073D01*
X2537D01*
Y4273D01*
X2037D01*
Y4373D01*
X2537D01*
Y4572D01*
X2537D01*
X2516Y4594D01*
Y5032D01*
X2537Y5073D01*
X2537Y5073D01*
X2537Y5073D01*
Y5273D01*
X2037D01*
Y5323D01*
X1987D01*
Y5572D01*
X1538D01*
Y5562D01*
X1488Y5542D01*
X1203Y5826D01*
X1217Y5867D01*
X1224Y5876D01*
X1250Y5877D01*
X1280Y5882D01*
X1308Y5890D01*
X1336Y5902D01*
X1362Y5916D01*
X1386Y5934D01*
X1409Y5954D01*
X1429Y5976D01*
X1446Y6000D01*
X1460Y6026D01*
X1472Y6054D01*
X1480Y6083D01*
X1485Y6112D01*
X1487Y6142D01*
X1485Y6172D01*
X1480Y6201D01*
X1472Y6230D01*
X1460Y6257D01*
X1446Y6283D01*
X1429Y6308D01*
X1409Y6330D01*
X1386Y6350D01*
X1362Y6367D01*
X1336Y6382D01*
X1308Y6393D01*
X1280Y6401D01*
X1250Y6406D01*
X1220Y6408D01*
X1191Y6406D01*
X1161Y6401D01*
X1133Y6393D01*
X1105Y6382D01*
X1079Y6367D01*
X1055Y6350D01*
X1032Y6330D01*
X1012Y6308D01*
X995Y6283D01*
X981Y6257D01*
X969Y6230D01*
X963Y6208D01*
X913Y6215D01*
Y7250D01*
X963Y7257D01*
X969Y7235D01*
X981Y7207D01*
X995Y7181D01*
X1012Y7157D01*
X1032Y7135D01*
X1055Y7115D01*
X1079Y7097D01*
X1105Y7083D01*
X1133Y7072D01*
X1161Y7063D01*
X1191Y7058D01*
X1220Y7057D01*
X1250Y7058D01*
X1280Y7063D01*
X1308Y7072D01*
X1336Y7083D01*
X1362Y7097D01*
X1386Y7115D01*
X1409Y7135D01*
X1429Y7157D01*
X1446Y7181D01*
X1460Y7207D01*
X1472Y7235D01*
X1480Y7264D01*
X1485Y7293D01*
X1487Y7323D01*
X1485Y7353D01*
X1480Y7382D01*
X1472Y7411D01*
X1460Y7438D01*
X1446Y7464D01*
X1429Y7489D01*
X1409Y7511D01*
X1386Y7531D01*
X1362Y7548D01*
X1336Y7563D01*
X1308Y7574D01*
X1280Y7582D01*
X1250Y7587D01*
X1220Y7589D01*
X1191Y7587D01*
X1161Y7582D01*
X1133Y7574D01*
X1105Y7563D01*
X1079Y7548D01*
X1055Y7531D01*
X1032Y7511D01*
X1012Y7489D01*
X995Y7464D01*
X981Y7438D01*
X969Y7411D01*
X963Y7389D01*
X913Y7396D01*
Y7823D01*
X1186Y8097D01*
X1197Y8110D01*
X1206Y8126D01*
X1211Y8144D01*
X1213Y8162D01*
Y8286D01*
X1485D01*
Y8701D01*
Y9116D01*
X1213D01*
Y9505D01*
X1261Y9537D01*
X1280Y9528D01*
Y9291D01*
X1523D01*
X1534Y9284D01*
X1555Y9273D01*
X1578Y9266D01*
X1601Y9261D01*
X1624Y9260D01*
X2238D01*
Y9204D01*
X2691D01*
Y9406D01*
X2692Y9410D01*
X2693Y9440D01*
Y9652D01*
X2698Y9657D01*
X2710Y9655D01*
X2748Y9634D01*
Y9490D01*
X2946D01*
Y9698D01*
X2905Y9701D01*
X2905Y9825D01*
X2946Y9847D01*
X2955Y9849D01*
X2973Y9838D01*
X2994Y9829D01*
X3017Y9824D01*
X3040Y9822D01*
X3063Y9824D01*
X3086Y9829D01*
X3107Y9838D01*
X3127Y9850D01*
X3145Y9865D01*
X3160Y9883D01*
X3172Y9903D01*
X3181Y9924D01*
X3186Y9947D01*
X3188Y9970D01*
X3186Y9993D01*
X3181Y10016D01*
X3172Y10037D01*
X3160Y10057D01*
X3145Y10075D01*
X3127Y10090D01*
X3107Y10102D01*
X3086Y10111D01*
X3063Y10116D01*
X3040Y10118D01*
X3017Y10116D01*
X2994Y10111D01*
X2973Y10102D01*
X2953Y10090D01*
X2935Y10075D01*
X2920Y10057D01*
X2908Y10037D01*
X2901Y10019D01*
X2802D01*
Y9860D01*
X2702D01*
Y10019D01*
X2693D01*
Y10655D01*
X2692Y10685D01*
X2686Y10714D01*
X2676Y10743D01*
X2663Y10770D01*
X2646Y10794D01*
X2626Y10817D01*
X2615Y10827D01*
X2462Y10980D01*
X2481Y11026D01*
X2964D01*
Y11774D01*
X2325D01*
Y12069D01*
X2375Y12094D01*
X2382Y12089D01*
X2413Y12070D01*
X2447Y12054D01*
X2481Y12042D01*
X2517Y12033D01*
X2553Y12027D01*
X2590Y12026D01*
X2627Y12027D01*
X2663Y12033D01*
X2699Y12042D01*
X2733Y12054D01*
X2767Y12070D01*
X2798Y12089D01*
X2828Y12111D01*
X2855Y12135D01*
X2879Y12162D01*
X2901Y12192D01*
X2920Y12223D01*
X2936Y12257D01*
X2948Y12291D01*
X2957Y12327D01*
X2963Y12363D01*
X2964Y12400D01*
X2963Y12437D01*
X2957Y12473D01*
X2948Y12509D01*
X2936Y12543D01*
X2920Y12577D01*
X2901Y12608D01*
X3004Y12711D01*
X3302D01*
X3320Y12676D01*
X3322Y12661D01*
X3301Y12638D01*
X3279Y12608D01*
X3260Y12577D01*
X3244Y12543D01*
X3232Y12509D01*
X3223Y12473D01*
X3217Y12437D01*
X3216Y12400D01*
X3217Y12363D01*
X3223Y12327D01*
X3232Y12291D01*
X3244Y12257D01*
X3260Y12223D01*
X3279Y12192D01*
X3301Y12162D01*
X3325Y12135D01*
X3352Y12111D01*
X3382Y12089D01*
X3413Y12070D01*
X3447Y12054D01*
X3481Y12042D01*
X3517Y12033D01*
X3553Y12027D01*
X3590Y12026D01*
X3627Y12027D01*
X3663Y12033D01*
X3699Y12042D01*
X3733Y12054D01*
X3767Y12070D01*
X3798Y12089D01*
X3828Y12111D01*
X3855Y12135D01*
X3879Y12162D01*
X3901Y12192D01*
X3920Y12223D01*
X3936Y12257D01*
X3948Y12291D01*
X3957Y12327D01*
X3963Y12363D01*
X3964Y12400D01*
X3963Y12437D01*
X3957Y12473D01*
X3948Y12509D01*
X3940Y12532D01*
X4254Y12846D01*
X5950D01*
X5974Y12848D01*
X5998Y12853D01*
X6020Y12863D01*
X6041Y12875D01*
X6059Y12891D01*
X6219Y13051D01*
X6235Y13069D01*
X6239Y13077D01*
X6289Y13062D01*
D02*
G37*
G36*
X6781Y13717D02*
Y13029D01*
X6775Y13025D01*
X6760Y13007D01*
X6748Y12987D01*
X6739Y12966D01*
X6734Y12943D01*
X6732Y12920D01*
X6734Y12897D01*
X6739Y12874D01*
X6748Y12853D01*
X6760Y12833D01*
X6775Y12815D01*
X6793Y12800D01*
X6813Y12788D01*
X6816Y12787D01*
X6819Y12733D01*
X6813Y12730D01*
X6782Y12711D01*
X6752Y12689D01*
X6725Y12665D01*
X6701Y12638D01*
X6679Y12608D01*
X6660Y12577D01*
X6644Y12543D01*
X6632Y12509D01*
X6623Y12473D01*
X6617Y12437D01*
X6616Y12400D01*
X6617Y12363D01*
X6623Y12327D01*
X6631Y12294D01*
X6373Y12037D01*
X6358Y12019D01*
X6345Y12000D01*
X6335Y11979D01*
X6327Y11956D01*
X6322Y11933D01*
X6321Y11910D01*
Y11795D01*
X6040D01*
Y11400D01*
Y11005D01*
X6321D01*
Y10850D01*
X6322Y10827D01*
X6327Y10804D01*
X6335Y10781D01*
X6345Y10760D01*
X6358Y10741D01*
X6373Y10723D01*
X6443Y10654D01*
X6424Y10607D01*
X6334D01*
Y10350D01*
X6284D01*
Y10300D01*
X6037D01*
Y10093D01*
X6066Y10055D01*
X6074Y10043D01*
X6074Y10043D01*
X6072Y10020D01*
X6074Y9997D01*
X6079Y9974D01*
X6088Y9953D01*
X6100Y9933D01*
X6115Y9915D01*
X6131Y9902D01*
X6133Y9878D01*
X6124Y9847D01*
X6113Y9842D01*
X6093Y9830D01*
X6075Y9815D01*
X6060Y9797D01*
X6048Y9777D01*
X6039Y9756D01*
X6034Y9733D01*
X6032Y9710D01*
X5990Y9671D01*
X5923D01*
Y9639D01*
X5782D01*
Y9456D01*
X5682D01*
Y9665D01*
X5667Y9689D01*
X5668Y9700D01*
X5666Y9723D01*
X5661Y9746D01*
X5652Y9767D01*
X5640Y9787D01*
X5625Y9805D01*
X5607Y9820D01*
X5587Y9832D01*
X5566Y9841D01*
X5543Y9846D01*
X5520Y9848D01*
X5497Y9846D01*
X5474Y9841D01*
X5453Y9832D01*
X5433Y9820D01*
X5415Y9805D01*
X5411Y9799D01*
X5408Y9799D01*
X5393Y9792D01*
X5379Y9784D01*
X5367Y9773D01*
X5287Y9693D01*
X5276Y9681D01*
X5268Y9667D01*
X5261Y9652D01*
X5258Y9636D01*
X5256Y9620D01*
Y9606D01*
X5175D01*
Y9617D01*
X4801D01*
Y9240D01*
X4756Y9206D01*
X4747Y9209D01*
Y9209D01*
X4638D01*
Y9056D01*
X4538D01*
Y9209D01*
X4493D01*
Y9824D01*
X4589Y9921D01*
X4956D01*
Y9912D01*
X5444D01*
Y10035D01*
X5478Y10070D01*
X5626D01*
X5643Y10071D01*
X5658Y10075D01*
X5670Y10080D01*
X5680Y10079D01*
X5703Y10081D01*
X5726Y10086D01*
X5747Y10095D01*
X5767Y10107D01*
X5785Y10122D01*
X5800Y10140D01*
X5812Y10160D01*
X5821Y10181D01*
X5826Y10204D01*
X5828Y10227D01*
X5826Y10250D01*
X5821Y10273D01*
X5812Y10294D01*
X5800Y10314D01*
X5785Y10332D01*
X5767Y10347D01*
X5747Y10359D01*
X5726Y10368D01*
X5703Y10373D01*
X5680Y10375D01*
X5657Y10373D01*
X5649Y10371D01*
X5642Y10387D01*
X5630Y10407D01*
X5615Y10425D01*
X5597Y10440D01*
X5577Y10452D01*
X5556Y10461D01*
X5533Y10466D01*
X5510Y10468D01*
X5487Y10466D01*
X5464Y10461D01*
X5443Y10452D01*
X5423Y10440D01*
X5421Y10438D01*
X5220D01*
Y10438D01*
X5171D01*
X5152Y10484D01*
X5627Y10958D01*
X5642Y10976D01*
X5655Y10995D01*
X5660Y11005D01*
X5940D01*
Y11400D01*
Y11795D01*
X5702D01*
X5689Y11845D01*
X5884Y12041D01*
X5917Y12033D01*
X5953Y12027D01*
X5990Y12026D01*
X6027Y12027D01*
X6063Y12033D01*
X6099Y12042D01*
X6133Y12054D01*
X6167Y12070D01*
X6198Y12089D01*
X6228Y12111D01*
X6255Y12135D01*
X6279Y12162D01*
X6301Y12192D01*
X6320Y12223D01*
X6336Y12257D01*
X6348Y12291D01*
X6357Y12327D01*
X6363Y12363D01*
X6364Y12400D01*
X6363Y12437D01*
X6357Y12473D01*
X6349Y12506D01*
X6595Y12752D01*
X6610Y12769D01*
X6623Y12789D01*
X6634Y12810D01*
X6641Y12832D01*
X6646Y12855D01*
X6647Y12878D01*
X6647Y12878D01*
Y13779D01*
X6697Y13800D01*
X6781Y13717D01*
D02*
G37*
G36*
X7257Y12078D02*
X7261Y12073D01*
Y11795D01*
X7040D01*
Y11400D01*
X6940D01*
Y11795D01*
X6702D01*
X6689Y11845D01*
X6884Y12041D01*
X6917Y12033D01*
X6953Y12027D01*
X6990Y12026D01*
X7027Y12027D01*
X7063Y12033D01*
X7099Y12042D01*
X7133Y12054D01*
X7167Y12070D01*
X7198Y12089D01*
X7211Y12098D01*
X7257Y12078D01*
D02*
G37*
G36*
X10118Y11281D02*
Y10964D01*
X10120Y10944D01*
X10124Y10925D01*
X10132Y10906D01*
X10143Y10889D01*
X10156Y10874D01*
X10307Y10723D01*
X10275Y10685D01*
X10256Y10698D01*
X10235Y10708D01*
X10213Y10716D01*
X10190Y10720D01*
X10166Y10722D01*
X10004D01*
Y10801D01*
X9366D01*
Y10488D01*
X9361Y10479D01*
X9316Y10453D01*
X9293Y10458D01*
X9270Y10459D01*
X9247Y10458D01*
X9224Y10453D01*
X9201Y10445D01*
X9180Y10435D01*
X9161Y10422D01*
X9143Y10407D01*
X9128Y10389D01*
X9115Y10370D01*
X9105Y10349D01*
X9097Y10326D01*
X9092Y10303D01*
X9091Y10280D01*
X9092Y10257D01*
X9097Y10234D01*
X9105Y10211D01*
X9115Y10190D01*
X9128Y10171D01*
X9143Y10153D01*
X9585Y9712D01*
Y9401D01*
X9366D01*
Y8884D01*
X9938D01*
X10181Y8640D01*
X10175Y8621D01*
X10156Y8595D01*
X10143Y8598D01*
X10120Y8599D01*
X10097Y8598D01*
X10074Y8593D01*
X10051Y8585D01*
X10030Y8575D01*
X10011Y8562D01*
X9993Y8547D01*
X9899Y8453D01*
X9408D01*
Y7995D01*
X9966D01*
Y8050D01*
X9970Y8051D01*
X9993Y8059D01*
X10014Y8069D01*
X10033Y8082D01*
X10051Y8097D01*
X10068Y8115D01*
X10118Y8094D01*
Y7126D01*
X11142D01*
Y8150D01*
X10848D01*
Y8260D01*
X10898Y8280D01*
X10901Y8278D01*
X10920Y8265D01*
X10941Y8255D01*
X10964Y8247D01*
X10987Y8242D01*
X11010Y8241D01*
X11033Y8242D01*
X11056Y8247D01*
X11079Y8255D01*
X11100Y8265D01*
X11119Y8278D01*
X11137Y8293D01*
X11152Y8311D01*
X11165Y8330D01*
X11175Y8351D01*
X11183Y8374D01*
X11188Y8397D01*
X11189Y8420D01*
X11188Y8443D01*
X11183Y8466D01*
X11175Y8489D01*
X11165Y8510D01*
X11152Y8529D01*
X11137Y8547D01*
X10809Y8874D01*
Y9567D01*
X11142D01*
Y10591D01*
X11000D01*
X10980Y10641D01*
X11115Y10776D01*
X11297D01*
Y10764D01*
X11401D01*
X11419Y10719D01*
X11420Y10714D01*
X11406Y10697D01*
X11394Y10677D01*
X11385Y10656D01*
X11379Y10633D01*
X11378Y10610D01*
X11379Y10587D01*
X11385Y10564D01*
X11394Y10543D01*
X11406Y10523D01*
X11421Y10506D01*
X11439Y10490D01*
X11458Y10478D01*
X11480Y10469D01*
X11502Y10464D01*
X11526Y10462D01*
X11549Y10464D01*
X11571Y10469D01*
X11593Y10478D01*
X11613Y10490D01*
X11630Y10506D01*
X11645Y10523D01*
X11658Y10543D01*
X11666Y10564D01*
X11672Y10587D01*
X11674Y10610D01*
X11674Y10612D01*
X11742Y10680D01*
X11752Y10692D01*
X11761Y10706D01*
X11767Y10721D01*
X11771Y10737D01*
X11772Y10748D01*
X11788Y10760D01*
X11818Y10772D01*
X11979Y10611D01*
X11996Y10597D01*
X12014Y10586D01*
X12034Y10577D01*
X12055Y10572D01*
X12077Y10570D01*
X12376D01*
X12395Y10524D01*
X12177Y10305D01*
X12175Y10306D01*
X12152Y10304D01*
X12129Y10298D01*
X12108Y10289D01*
X12088Y10277D01*
X12070Y10262D01*
X12055Y10245D01*
X12043Y10225D01*
X12034Y10203D01*
X12029Y10181D01*
X12027Y10157D01*
X12029Y10134D01*
X12034Y10112D01*
X12043Y10090D01*
X12055Y10070D01*
X12070Y10053D01*
X12088Y10038D01*
X12108Y10026D01*
X12129Y10017D01*
X12152Y10011D01*
X12175Y10009D01*
X12198Y10011D01*
X12221Y10017D01*
X12242Y10026D01*
X12262Y10038D01*
X12280Y10053D01*
X12295Y10070D01*
X12307Y10090D01*
X12316Y10112D01*
X12321Y10134D01*
X12323Y10157D01*
X12323Y10159D01*
X12512Y10348D01*
X12559Y10329D01*
Y9646D01*
X12560Y9630D01*
X12565Y9615D01*
X12572Y9602D01*
X12582Y9590D01*
X12594Y9580D01*
X12608Y9573D01*
X12622Y9568D01*
X12638Y9567D01*
X13399D01*
X13418Y9520D01*
X13254Y9356D01*
X12496D01*
X11942Y9911D01*
X11941Y9916D01*
X11932Y9937D01*
X11920Y9957D01*
X11905Y9975D01*
X11887Y9990D01*
X11867Y10002D01*
X11846Y10011D01*
X11823Y10016D01*
X11800Y10018D01*
X11777Y10016D01*
X11754Y10011D01*
X11733Y10002D01*
X11713Y9990D01*
X11695Y9975D01*
X11691Y9969D01*
X11668Y9964D01*
X11652D01*
X11629Y9969D01*
X11625Y9975D01*
X11607Y9990D01*
X11587Y10002D01*
X11566Y10011D01*
X11543Y10016D01*
X11520Y10018D01*
X11497Y10016D01*
X11474Y10011D01*
X11453Y10002D01*
X11433Y9990D01*
X11415Y9975D01*
X11400Y9957D01*
X11388Y9937D01*
X11379Y9916D01*
X11374Y9893D01*
X11372Y9870D01*
X11374Y9847D01*
X11379Y9824D01*
X11388Y9803D01*
X11400Y9783D01*
X11415Y9765D01*
X11433Y9750D01*
X11453Y9738D01*
X11474Y9729D01*
X11479Y9728D01*
X12221Y8986D01*
X12236Y8973D01*
X12254Y8963D01*
X12272Y8955D01*
X12292Y8950D01*
X12312Y8949D01*
X13742D01*
Y8946D01*
X13877D01*
X13880Y8946D01*
X14034D01*
Y8928D01*
X14262D01*
Y8878D01*
X14312D01*
Y8729D01*
X14490D01*
Y8778D01*
X14635D01*
Y9173D01*
Y9568D01*
X14490D01*
Y9618D01*
X14312D01*
Y9469D01*
X14212D01*
Y9618D01*
X14034D01*
Y9455D01*
X13930D01*
Y9302D01*
X13880D01*
Y9252D01*
X13721D01*
Y9207D01*
X13535D01*
X13516Y9253D01*
X13671Y9408D01*
X13721Y9388D01*
Y9352D01*
X13830D01*
Y9455D01*
X13789D01*
X13768Y9505D01*
X14083Y9821D01*
X14630D01*
X14650Y9822D01*
X14670Y9827D01*
X14689Y9835D01*
X14706Y9846D01*
X14721Y9859D01*
X14944Y10081D01*
X14957Y10096D01*
X14967Y10114D01*
X14975Y10132D01*
X14980Y10152D01*
X14981Y10172D01*
Y10217D01*
X15059D01*
X15059Y9645D01*
X15010Y9596D01*
X14902D01*
Y9568D01*
X14735D01*
Y9173D01*
Y8778D01*
X14902D01*
Y8750D01*
X15059D01*
X15059Y456D01*
X15009Y446D01*
X15004Y458D01*
X14992Y478D01*
X14976Y496D01*
X14958Y512D01*
X14938Y524D01*
X14916Y533D01*
X14894Y539D01*
X14870Y540D01*
X14846Y539D01*
X14824Y533D01*
X14802Y524D01*
X14782Y512D01*
X14768Y500D01*
X13550D01*
X13548Y500D01*
X13505Y502D01*
X13460Y507D01*
X13415Y516D01*
X13372Y528D01*
X13329Y544D01*
X13288Y563D01*
X13248Y585D01*
X13211Y610D01*
X13175Y638D01*
X13142Y669D01*
X13111Y702D01*
X13083Y738D01*
X13058Y776D01*
X13035Y815D01*
X13034Y818D01*
X13071Y850D01*
X13074Y851D01*
X13103Y833D01*
X13136Y818D01*
X13170Y806D01*
X13204Y797D01*
X13240Y792D01*
X13248Y792D01*
Y760D01*
X13665D01*
Y613D01*
X13774D01*
Y767D01*
X13824D01*
Y817D01*
X13983D01*
Y920D01*
X13983D01*
X13972Y969D01*
X13987Y992D01*
X13999Y1016D01*
X14008Y1041D01*
X14013Y1068D01*
X14015Y1094D01*
X14015D01*
Y2819D01*
X14015D01*
X14013Y2856D01*
X14011Y2868D01*
X14008Y2891D01*
X13999Y2927D01*
X13987Y2961D01*
X13971Y2994D01*
X13953Y3025D01*
X13931Y3054D01*
X13907Y3081D01*
X13880Y3105D01*
X13851Y3127D01*
X13820Y3145D01*
X13787Y3161D01*
X13753Y3173D01*
X13718Y3182D01*
X13694Y3185D01*
X13682Y3187D01*
X13645Y3189D01*
Y3189D01*
X13275D01*
X13261Y3200D01*
X13241Y3213D01*
X13219Y3222D01*
X13196Y3227D01*
X13173Y3229D01*
X13149Y3227D01*
X13126Y3222D01*
X13104Y3213D01*
X13084Y3200D01*
X13066Y3185D01*
X13051Y3167D01*
X13039Y3147D01*
X13030Y3125D01*
X13024Y3102D01*
X13022Y3079D01*
X13024Y3055D01*
X13030Y3032D01*
X13039Y3010D01*
X13051Y2990D01*
X13066Y2972D01*
X13084Y2957D01*
X13104Y2945D01*
X13126Y2936D01*
X13149Y2930D01*
X13173Y2928D01*
X13196Y2930D01*
X13219Y2936D01*
X13241Y2945D01*
X13261Y2957D01*
X13275Y2969D01*
X13645D01*
X13647Y2969D01*
X13669Y2967D01*
X13692Y2962D01*
X13713Y2953D01*
X13733Y2940D01*
X13751Y2925D01*
X13766Y2907D01*
X13779Y2887D01*
X13788Y2866D01*
X13793Y2843D01*
X13795Y2821D01*
X13795Y2819D01*
Y1378D01*
X13735D01*
Y1219D01*
X13635D01*
Y1378D01*
X13603D01*
Y1795D01*
X13573D01*
Y2329D01*
X13573D01*
X13571Y2370D01*
X13570Y2378D01*
X13566Y2412D01*
X13558Y2453D01*
X13547Y2493D01*
X13532Y2532D01*
X13515Y2570D01*
X13495Y2606D01*
X13471Y2641D01*
X13446Y2674D01*
X13431Y2689D01*
X13430Y2708D01*
X13424Y2731D01*
X13415Y2753D01*
X13403Y2773D01*
X13387Y2791D01*
X13370Y2806D01*
X13349Y2818D01*
X13328Y2827D01*
X13305Y2833D01*
X13281Y2835D01*
X13258Y2833D01*
X13235Y2827D01*
X13213Y2818D01*
X13193Y2806D01*
X13175Y2791D01*
X13160Y2773D01*
X13147Y2753D01*
X13138Y2731D01*
X13133Y2708D01*
X13131Y2684D01*
X13133Y2661D01*
X13138Y2638D01*
X13147Y2616D01*
X13160Y2596D01*
X13175Y2578D01*
X13193Y2563D01*
X13213Y2550D01*
X13235Y2541D01*
X13258Y2536D01*
X13274Y2535D01*
X13285Y2523D01*
X13305Y2494D01*
X13322Y2464D01*
X13335Y2431D01*
X13345Y2398D01*
X13351Y2364D01*
X13353Y2331D01*
X13353Y2329D01*
Y1919D01*
X13319Y1882D01*
X13235D01*
X13228Y1886D01*
X13198Y1927D01*
X13197Y1932D01*
X13198Y1951D01*
X13196Y1975D01*
X13191Y1997D01*
X13182Y2019D01*
X13170Y2039D01*
X13155Y2056D01*
X13137Y2071D01*
X13117Y2083D01*
X13096Y2092D01*
X13073Y2098D01*
X13064Y2098D01*
X12892Y2271D01*
X12880Y2281D01*
X12866Y2290D01*
X12851Y2296D01*
X12835Y2300D01*
X12819Y2301D01*
X12728D01*
X12725Y2304D01*
Y3051D01*
X13002Y3328D01*
X13013Y3340D01*
X13021Y3354D01*
X13028Y3369D01*
X13031Y3385D01*
X13033Y3401D01*
Y4662D01*
X13031Y4678D01*
X13028Y4694D01*
X13021Y4709D01*
X13013Y4723D01*
X13002Y4735D01*
X12716Y5022D01*
X12703Y5032D01*
X12689Y5041D01*
X12674Y5047D01*
X12658Y5051D01*
X12642Y5052D01*
X12638Y5052D01*
X11931D01*
X11885Y5099D01*
X11885Y5100D01*
X11883Y5123D01*
X11878Y5146D01*
X11869Y5167D01*
X11857Y5187D01*
X11842Y5205D01*
X11824Y5220D01*
X11804Y5232D01*
X11783Y5241D01*
X11766Y5245D01*
X11750Y5268D01*
X11748Y5275D01*
X11742Y5298D01*
X11754Y5321D01*
X11766Y5349D01*
X11775Y5379D01*
X11780Y5410D01*
X11782Y5440D01*
X11780Y5471D01*
X11775Y5502D01*
X11766Y5532D01*
X11754Y5560D01*
X11739Y5587D01*
X11733Y5596D01*
X11752Y5641D01*
X11758Y5646D01*
X12578D01*
X12683Y5541D01*
X12681Y5512D01*
X12683Y5480D01*
X12688Y5449D01*
X12697Y5418D01*
X12709Y5389D01*
X12725Y5361D01*
X12743Y5335D01*
X12764Y5311D01*
X12788Y5290D01*
X12814Y5271D01*
X12842Y5256D01*
X12872Y5244D01*
X12895Y5237D01*
X12895Y5237D01*
X12905Y5235D01*
X12922Y5233D01*
X12939Y5235D01*
X12956Y5239D01*
X12971Y5245D01*
X12986Y5254D01*
X12992Y5259D01*
X12998Y5254D01*
X13013Y5245D01*
X13029Y5239D01*
X13045Y5235D01*
X13062Y5233D01*
X13079Y5235D01*
X13089Y5237D01*
X13089Y5237D01*
X13113Y5244D01*
X13142Y5256D01*
X13170Y5271D01*
X13196Y5290D01*
X13220Y5311D01*
X13241Y5335D01*
X13259Y5361D01*
X13264Y5369D01*
X13271Y5372D01*
X13316Y5360D01*
Y4630D01*
X13318Y4614D01*
X13321Y4598D01*
X13328Y4583D01*
X13336Y4569D01*
X13347Y4557D01*
X13646Y4257D01*
X13658Y4247D01*
X13672Y4238D01*
X13687Y4232D01*
X13703Y4228D01*
X13719Y4227D01*
X14288D01*
X14467Y4047D01*
X14460Y4036D01*
X14452Y4015D01*
X14446Y3992D01*
X14444Y3969D01*
X14446Y3946D01*
X14452Y3923D01*
X14460Y3902D01*
X14473Y3882D01*
X14488Y3864D01*
X14505Y3849D01*
X14525Y3837D01*
X14547Y3828D01*
X14569Y3822D01*
X14592Y3821D01*
X14616Y3822D01*
X14638Y3828D01*
X14660Y3837D01*
X14679Y3849D01*
X14697Y3864D01*
X14712Y3882D01*
X14724Y3902D01*
X14733Y3923D01*
X14739Y3946D01*
X14741Y3969D01*
X14739Y3992D01*
X14733Y4015D01*
X14724Y4036D01*
X14712Y4056D01*
X14697Y4073D01*
X14694Y4076D01*
X14693Y4087D01*
X14689Y4103D01*
X14683Y4118D01*
X14675Y4131D01*
X14664Y4144D01*
X14404Y4404D01*
X14392Y4415D01*
X14378Y4423D01*
X14363Y4429D01*
X14347Y4433D01*
X14331Y4434D01*
X13762D01*
X13551Y4645D01*
X13563Y4696D01*
X13574Y4702D01*
X13577Y4702D01*
X13600Y4704D01*
X13623Y4709D01*
X13644Y4718D01*
X13664Y4730D01*
X13681Y4745D01*
X13682Y4746D01*
X13753D01*
Y4671D01*
X13929D01*
Y4649D01*
X14028D01*
Y4853D01*
X14128D01*
Y4649D01*
X14227D01*
Y4671D01*
X14403D01*
Y4671D01*
X14442Y4698D01*
X14442Y4698D01*
X14472Y4690D01*
X14505Y4652D01*
X14499Y4629D01*
X14498Y4606D01*
X14499Y4583D01*
X14505Y4561D01*
X14514Y4539D01*
X14526Y4519D01*
X14541Y4502D01*
X14559Y4486D01*
X14578Y4474D01*
X14600Y4465D01*
X14622Y4460D01*
X14646Y4458D01*
X14669Y4460D01*
X14691Y4465D01*
X14713Y4474D01*
X14733Y4486D01*
X14750Y4502D01*
X14765Y4519D01*
X14778Y4539D01*
X14787Y4561D01*
X14792Y4583D01*
X14794Y4606D01*
X14792Y4629D01*
X14787Y4652D01*
X14778Y4674D01*
X14765Y4693D01*
X14750Y4711D01*
X14733Y4726D01*
X14713Y4738D01*
X14691Y4747D01*
X14669Y4753D01*
X14646Y4754D01*
X14629Y4753D01*
X14615Y4765D01*
X14595Y4797D01*
X14599Y4807D01*
X14605Y4830D01*
X14606Y4853D01*
X14605Y4876D01*
X14599Y4898D01*
X14590Y4920D01*
X14578Y4940D01*
X14563Y4957D01*
X14554Y4965D01*
X14549Y4996D01*
X14555Y5026D01*
X14563Y5033D01*
X14578Y5051D01*
X14591Y5071D01*
X14600Y5092D01*
X14605Y5115D01*
X14607Y5138D01*
X14605Y5161D01*
X14600Y5184D01*
X14591Y5205D01*
X14578Y5225D01*
X14563Y5243D01*
X14546Y5258D01*
X14526Y5270D01*
X14504Y5279D01*
X14482Y5284D01*
X14459Y5286D01*
X14453Y5291D01*
Y5380D01*
X14300D01*
Y5430D01*
X14250D01*
Y5589D01*
X14200D01*
Y5734D01*
X14198Y5754D01*
X14194Y5773D01*
X14186Y5791D01*
X14176Y5807D01*
X14163Y5822D01*
X13848Y6138D01*
X13833Y6150D01*
X13816Y6161D01*
X13798Y6168D01*
X13779Y6173D01*
X13760Y6174D01*
X10140D01*
X10127Y6182D01*
X10106Y6191D01*
X10083Y6196D01*
X10060Y6198D01*
X10037Y6196D01*
X10014Y6191D01*
X9993Y6182D01*
X9973Y6170D01*
X9955Y6155D01*
X9940Y6137D01*
X9928Y6117D01*
X9919Y6096D01*
X9914Y6073D01*
X9912Y6050D01*
X9914Y6027D01*
X9919Y6004D01*
X9928Y5983D01*
X9940Y5963D01*
X9955Y5945D01*
X9959Y5886D01*
X9870Y5797D01*
X8781Y6886D01*
X8766Y6899D01*
X8748Y6909D01*
X8730Y6917D01*
X8710Y6922D01*
X8690Y6923D01*
X7979D01*
X7103Y7800D01*
X7091Y7810D01*
Y7925D01*
X7362D01*
Y8413D01*
X7091D01*
Y9650D01*
X7091Y9651D01*
X7119Y9690D01*
X7134Y9701D01*
X7300D01*
X7315Y9702D01*
X7330Y9707D01*
X7344Y9714D01*
X7356Y9724D01*
X7366Y9736D01*
X7373Y9750D01*
X7389Y9757D01*
X7390Y9757D01*
X7410Y9752D01*
X7430Y9751D01*
X7578D01*
X7583Y9748D01*
X7604Y9739D01*
X7627Y9734D01*
X7650Y9732D01*
X7665Y9733D01*
X7680Y9727D01*
X7715Y9696D01*
Y8912D01*
X7665Y8894D01*
X7665Y8895D01*
X7647Y8910D01*
X7627Y8922D01*
X7606Y8931D01*
X7583Y8936D01*
X7560Y8938D01*
X7537Y8936D01*
X7514Y8931D01*
X7493Y8922D01*
X7473Y8910D01*
X7455Y8895D01*
X7440Y8877D01*
X7428Y8857D01*
X7419Y8836D01*
X7414Y8813D01*
X7412Y8790D01*
X7414Y8767D01*
X7419Y8744D01*
X7428Y8723D01*
X7440Y8703D01*
X7455Y8685D01*
X7473Y8670D01*
X7493Y8658D01*
X7514Y8649D01*
X7537Y8644D01*
X7560Y8642D01*
X7583Y8644D01*
X7606Y8649D01*
X7627Y8658D01*
X7647Y8670D01*
X7665Y8685D01*
X7665Y8686D01*
X7715Y8668D01*
Y8600D01*
X7705Y8587D01*
X7692Y8567D01*
X7684Y8546D01*
X7678Y8523D01*
X7676Y8500D01*
X7678Y8477D01*
X7684Y8454D01*
X7692Y8433D01*
X7705Y8413D01*
X7720Y8395D01*
X7737Y8380D01*
X7757Y8368D01*
X7779Y8359D01*
X7801Y8354D01*
X7804Y8352D01*
X7811Y8322D01*
X7769Y8283D01*
X7759Y8283D01*
X7744Y8291D01*
X7723Y8300D01*
X7700Y8306D01*
X7677Y8308D01*
X7654Y8306D01*
X7631Y8300D01*
X7610Y8291D01*
X7590Y8279D01*
X7572Y8264D01*
X7557Y8246D01*
X7545Y8227D01*
X7536Y8205D01*
X7531Y8183D01*
X7529Y8159D01*
X7531Y8136D01*
X7536Y8114D01*
X7545Y8092D01*
X7557Y8072D01*
X7572Y8055D01*
X7590Y8040D01*
X7610Y8027D01*
X7631Y8019D01*
X7654Y8013D01*
X7677Y8011D01*
X7700Y8013D01*
X7723Y8019D01*
X7744Y8027D01*
X7764Y8040D01*
X7782Y8055D01*
X7783Y8056D01*
X7908D01*
X8027Y7937D01*
X8039Y7926D01*
X8053Y7918D01*
X8066Y7912D01*
Y7872D01*
X8441D01*
X8537Y7777D01*
X8549Y7766D01*
X8563Y7758D01*
X8578Y7751D01*
X8581Y7751D01*
Y7621D01*
X9139D01*
Y8079D01*
X8581D01*
X8554Y8117D01*
Y8148D01*
X8326D01*
X8320Y8198D01*
X8326Y8199D01*
X8347Y8208D01*
X8367Y8220D01*
X8385Y8235D01*
X8400Y8253D01*
X8412Y8273D01*
X8421Y8294D01*
X8426Y8317D01*
X8437Y8343D01*
X8463Y8354D01*
X8486Y8359D01*
X8507Y8368D01*
X8510Y8370D01*
X8560Y8348D01*
Y8348D01*
X8810D01*
Y8598D01*
Y8848D01*
X8560D01*
X8549Y8894D01*
Y10500D01*
X8548Y10517D01*
X8544Y10534D01*
X8537Y10550D01*
X8528Y10564D01*
X8517Y10577D01*
X8121Y10973D01*
X8142Y11023D01*
X8150Y11023D01*
Y11023D01*
X9528D01*
Y11023D01*
X9534Y11023D01*
X9586D01*
X9601Y11025D01*
X9662Y11037D01*
X9670Y11038D01*
X9672Y11039D01*
X9715Y11047D01*
X9730Y11052D01*
X9730Y11052D01*
X9838Y11096D01*
X9838Y11096D01*
X9851Y11104D01*
X9851Y11104D01*
X9888Y11128D01*
X9890Y11129D01*
X9896Y11134D01*
X9948Y11168D01*
X9960Y11178D01*
X9996Y11215D01*
X10001Y11219D01*
X10006Y11224D01*
X10042Y11261D01*
X10052Y11272D01*
X10068Y11297D01*
X10118Y11281D01*
D02*
G37*
G36*
X7002Y10980D02*
X7004Y10957D01*
X7009Y10934D01*
X7018Y10913D01*
X7021Y10908D01*
Y10760D01*
X7021Y10759D01*
X6994Y10720D01*
X6978Y10709D01*
X6894D01*
X6679Y10924D01*
Y11005D01*
X6954D01*
X7002Y10980D01*
D02*
G37*
G36*
X7664Y10477D02*
X7655Y10445D01*
X7643Y10428D01*
X7627Y10426D01*
X7604Y10421D01*
X7583Y10412D01*
X7578Y10409D01*
X7430D01*
X7429Y10409D01*
X7390Y10436D01*
X7379Y10452D01*
Y10630D01*
X7378Y10645D01*
X7373Y10660D01*
X7366Y10674D01*
X7356Y10686D01*
X7344Y10696D01*
X7330Y10703D01*
X7315Y10708D01*
X7292Y10727D01*
X7285Y10745D01*
X7294Y10776D01*
X7349Y10792D01*
X7664Y10477D01*
D02*
G37*
G36*
X13504Y9646D02*
X12638D01*
Y10512D01*
X13504D01*
Y9646D01*
D02*
G37*
G36*
X6561Y9822D02*
X6571Y9816D01*
Y9780D01*
X6572Y9765D01*
X6577Y9750D01*
X6584Y9736D01*
X6594Y9724D01*
X6606Y9714D01*
X6620Y9707D01*
X6635Y9702D01*
X6650Y9701D01*
X6791D01*
X6806Y9690D01*
X6833Y9651D01*
X6833Y9650D01*
Y8927D01*
X6642D01*
Y8824D01*
X6801D01*
Y8724D01*
X6642D01*
Y8653D01*
X6620D01*
X6604Y8652D01*
X6588Y8648D01*
X6573Y8642D01*
X6559Y8633D01*
X6547Y8623D01*
X6485Y8561D01*
X6469Y8568D01*
X6439Y8576D01*
X6409Y8581D01*
X6378Y8583D01*
X6347Y8581D01*
X6317Y8576D01*
X6287Y8568D01*
X6258Y8556D01*
X6231Y8541D01*
X6206Y8523D01*
X6183Y8502D01*
X6162Y8479D01*
X6144Y8454D01*
X6129Y8427D01*
X6117Y8398D01*
X6116Y8393D01*
X6105Y8394D01*
X6082Y8392D01*
X6059Y8386D01*
X6036Y8427D01*
X6021Y8454D01*
X6003Y8479D01*
X5983Y8502D01*
X5984Y8525D01*
X5996Y8557D01*
X6001Y8559D01*
X6015Y8568D01*
X6027Y8578D01*
X6052Y8603D01*
X6053Y8603D01*
X6076Y8605D01*
X6099Y8610D01*
X6120Y8619D01*
X6140Y8631D01*
X6158Y8646D01*
X6173Y8664D01*
X6185Y8684D01*
X6194Y8705D01*
X6199Y8728D01*
X6201Y8751D01*
X6200Y8769D01*
X6215Y8790D01*
X6225Y8799D01*
X6241Y8810D01*
X6260Y8809D01*
X6283Y8810D01*
X6306Y8816D01*
X6327Y8825D01*
X6347Y8837D01*
X6365Y8852D01*
X6380Y8870D01*
X6392Y8889D01*
X6401Y8911D01*
X6406Y8934D01*
X6408Y8957D01*
X6407Y8973D01*
X6408Y8977D01*
X6420Y8992D01*
X6447Y9014D01*
X6470Y9012D01*
X6493Y9014D01*
X6516Y9019D01*
X6537Y9028D01*
X6557Y9040D01*
X6575Y9055D01*
X6590Y9073D01*
X6602Y9093D01*
X6611Y9114D01*
X6616Y9137D01*
X6618Y9160D01*
X6616Y9183D01*
X6611Y9206D01*
X6602Y9227D01*
X6590Y9247D01*
X6575Y9265D01*
X6557Y9280D01*
X6537Y9292D01*
X6516Y9301D01*
X6493Y9306D01*
X6470Y9308D01*
X6447Y9306D01*
X6424Y9301D01*
X6403Y9292D01*
X6383Y9280D01*
X6365Y9265D01*
X6329Y9253D01*
X6300Y9261D01*
X6298Y9264D01*
X6278Y9276D01*
X6256Y9285D01*
X6234Y9290D01*
X6220Y9291D01*
Y9365D01*
X6241D01*
Y9455D01*
X6265Y9474D01*
X6291Y9485D01*
X6304Y9479D01*
X6327Y9474D01*
X6350Y9472D01*
X6373Y9474D01*
X6396Y9479D01*
X6417Y9488D01*
X6437Y9500D01*
X6455Y9515D01*
X6470Y9533D01*
X6482Y9553D01*
X6491Y9574D01*
X6496Y9597D01*
X6498Y9620D01*
X6496Y9643D01*
X6491Y9666D01*
X6482Y9687D01*
X6470Y9707D01*
X6455Y9725D01*
X6442Y9736D01*
X6443Y9757D01*
X6453Y9789D01*
X6456Y9789D01*
X6477Y9798D01*
X6497Y9810D01*
X6515Y9825D01*
X6521Y9833D01*
X6561Y9822D01*
D02*
G37*
G36*
X6685Y8201D02*
X6698Y8164D01*
X6692Y8157D01*
X6680Y8137D01*
X6673Y8121D01*
X6747D01*
X6754Y8117D01*
X6772Y8109D01*
X6791Y8104D01*
X6811Y8103D01*
Y8021D01*
X6673D01*
X6680Y8004D01*
X6692Y7985D01*
X6707Y7967D01*
X6725Y7952D01*
X6744Y7940D01*
X6766Y7931D01*
X6788Y7926D01*
X6811Y7924D01*
X6833Y7904D01*
Y7709D01*
X6835Y7688D01*
X6840Y7669D01*
X6847Y7650D01*
X6858Y7633D01*
X6871Y7617D01*
X6886Y7604D01*
X6904Y7594D01*
X6922Y7586D01*
X6942Y7581D01*
X6958Y7580D01*
X7717Y6820D01*
X7698Y6774D01*
X7378D01*
Y6776D01*
X7376Y6800D01*
X7371Y6824D01*
X7362Y6846D01*
X7349Y6867D01*
X7333Y6885D01*
X6747Y7471D01*
X6728Y7487D01*
X6708Y7500D01*
X6685Y7509D01*
X6662Y7515D01*
X6638Y7516D01*
X6070D01*
X6052Y7566D01*
X6059Y7573D01*
X6078Y7594D01*
X6093Y7618D01*
X6106Y7643D01*
X6115Y7670D01*
X6121Y7698D01*
X6123Y7726D01*
X6121Y7755D01*
X6115Y7783D01*
X6106Y7809D01*
X6093Y7835D01*
X6078Y7858D01*
X6059Y7880D01*
X6038Y7899D01*
X6014Y7914D01*
X5989Y7927D01*
X5962Y7936D01*
X5934Y7942D01*
X5906Y7943D01*
X5883Y7942D01*
X5839Y7986D01*
X5848Y8033D01*
X5850Y8038D01*
X5879Y8047D01*
X5907Y8058D01*
X5934Y8073D01*
X5960Y8091D01*
X5983Y8112D01*
X5995Y8126D01*
X6006Y8135D01*
X6018Y8126D01*
X6037Y8114D01*
X6059Y8105D01*
X6082Y8099D01*
X6105Y8097D01*
X6128Y8099D01*
X6150Y8105D01*
X6172Y8114D01*
X6178Y8117D01*
X6183Y8112D01*
X6206Y8091D01*
X6231Y8073D01*
X6258Y8058D01*
X6287Y8047D01*
X6317Y8038D01*
X6347Y8033D01*
X6378Y8031D01*
X6409Y8033D01*
X6439Y8038D01*
X6469Y8047D01*
X6498Y8058D01*
X6525Y8073D01*
X6550Y8091D01*
X6573Y8112D01*
X6594Y8135D01*
X6612Y8160D01*
X6627Y8187D01*
X6635Y8208D01*
X6685Y8201D01*
D02*
G37*
G36*
X4627Y8507D02*
X4639Y8496D01*
X4653Y8488D01*
X4668Y8481D01*
X4684Y8478D01*
X4700Y8476D01*
X4918D01*
X4939Y8452D01*
X4949Y8428D01*
X4948Y8427D01*
X4936Y8398D01*
X4928Y8369D01*
X4923Y8338D01*
X4921Y8307D01*
X4923Y8276D01*
X4928Y8246D01*
X4936Y8216D01*
X4948Y8187D01*
X4963Y8160D01*
X4981Y8135D01*
X4994Y8097D01*
X4979Y8079D01*
X4966Y8059D01*
X4958Y8038D01*
X4952Y8015D01*
X4950Y7992D01*
X4952Y7969D01*
X4958Y7946D01*
X4966Y7925D01*
X4979Y7905D01*
X4985Y7898D01*
X4965Y7880D01*
X4946Y7858D01*
X4930Y7835D01*
X4918Y7809D01*
X4915Y7801D01*
X4870Y7786D01*
X4858Y7787D01*
X4493Y8152D01*
Y8570D01*
X4543Y8591D01*
X4627Y8507D01*
D02*
G37*
G36*
X5408Y8114D02*
X5429Y8105D01*
X5452Y8099D01*
X5475Y8097D01*
X5498Y8099D01*
X5516Y8104D01*
X5527Y8095D01*
X5549Y8062D01*
X5547Y8059D01*
X5538Y8038D01*
X5533Y8015D01*
X5531Y7992D01*
X5533Y7969D01*
X5538Y7946D01*
X5547Y7925D01*
X5559Y7905D01*
X5574Y7887D01*
X5592Y7872D01*
X5612Y7860D01*
X5633Y7851D01*
X5656Y7846D01*
X5673Y7844D01*
X5706Y7812D01*
X5705Y7809D01*
X5696Y7783D01*
X5690Y7755D01*
X5689Y7726D01*
X5690Y7698D01*
X5696Y7670D01*
X5705Y7643D01*
X5718Y7618D01*
X5733Y7594D01*
X5752Y7573D01*
X5759Y7566D01*
X5741Y7516D01*
X5283D01*
X5264Y7566D01*
X5272Y7573D01*
X5290Y7594D01*
X5306Y7618D01*
X5319Y7643D01*
X5328Y7670D01*
X5333Y7698D01*
X5335Y7726D01*
X5333Y7755D01*
X5328Y7783D01*
X5319Y7809D01*
X5306Y7835D01*
X5290Y7858D01*
X5272Y7880D01*
X5250Y7899D01*
X5227Y7914D01*
X5226Y7917D01*
X5230Y7925D01*
X5239Y7946D01*
X5245Y7969D01*
X5247Y7992D01*
X5245Y8015D01*
X5244Y8017D01*
X5258Y8038D01*
X5288Y8047D01*
X5317Y8058D01*
X5344Y8073D01*
X5369Y8091D01*
X5392Y8112D01*
X5399Y8119D01*
X5408Y8114D01*
D02*
G37*
G36*
X4956Y7253D02*
X4974Y7237D01*
X4995Y7225D01*
X5017Y7216D01*
X5041Y7210D01*
X5065Y7208D01*
X6574D01*
X6938Y6843D01*
X6919Y6797D01*
X6714D01*
Y6798D01*
X6511D01*
Y6819D01*
X6408D01*
Y6660D01*
X6308D01*
Y6819D01*
X6205D01*
Y6717D01*
X6160Y6678D01*
X6137Y6676D01*
X6114Y6671D01*
X6100Y6665D01*
X5758Y7006D01*
X5746Y7017D01*
X5732Y7025D01*
X5717Y7031D01*
X5701Y7035D01*
X5685Y7036D01*
X4974D01*
X4957Y7035D01*
X4941Y7031D01*
X4926Y7025D01*
X4913Y7017D01*
X4900Y7006D01*
X3537Y5642D01*
X3526Y5630D01*
X3518Y5616D01*
X3511Y5601D01*
X3508Y5585D01*
X3506Y5569D01*
Y5551D01*
X3373D01*
X3368Y5558D01*
X3357Y5610D01*
X3375Y5625D01*
X3390Y5643D01*
X3402Y5663D01*
X3411Y5684D01*
X3416Y5707D01*
X3418Y5730D01*
X3416Y5753D01*
X3411Y5776D01*
X3402Y5797D01*
X3399Y5802D01*
Y6162D01*
X3699Y6462D01*
X3794D01*
Y6462D01*
X3826D01*
Y6462D01*
X3960D01*
X3975Y6461D01*
X3990Y6462D01*
X4125D01*
Y6718D01*
X4104D01*
Y6926D01*
X4125Y6945D01*
X4146Y6968D01*
X4164Y6993D01*
X4179Y7020D01*
X4191Y7049D01*
X4199Y7079D01*
X4204Y7109D01*
X4206Y7140D01*
X4204Y7171D01*
X4199Y7201D01*
X4191Y7231D01*
X4179Y7260D01*
X4164Y7287D01*
X4146Y7312D01*
X4125Y7335D01*
X4102Y7356D01*
X4077Y7374D01*
X4050Y7389D01*
X4021Y7401D01*
X3991Y7409D01*
X3961Y7414D01*
X3930Y7416D01*
X3914Y7415D01*
X3893Y7452D01*
X3891Y7463D01*
X4318Y7890D01*
X4956Y7253D01*
D02*
G37*
G36*
X6026Y6306D02*
X6038Y6296D01*
X6052Y6287D01*
X6067Y6281D01*
X6083Y6277D01*
X6099Y6276D01*
X6245D01*
Y6185D01*
X6230Y6181D01*
X6215Y6175D01*
X6201Y6166D01*
X6189Y6156D01*
X6171Y6138D01*
X6170Y6138D01*
X6147Y6136D01*
X6124Y6131D01*
X6103Y6122D01*
X6083Y6110D01*
X6070Y6099D01*
X6068Y6101D01*
X6044Y6122D01*
X6018Y6141D01*
X5990Y6156D01*
X5961Y6168D01*
X5937Y6175D01*
X5937Y6175D01*
X5927Y6177D01*
X5910Y6179D01*
X5893Y6177D01*
X5877Y6173D01*
X5861Y6167D01*
X5846Y6158D01*
X5840Y6153D01*
X5834Y6158D01*
X5819Y6167D01*
X5803Y6173D01*
X5787Y6177D01*
X5770Y6179D01*
X5753Y6177D01*
X5743Y6175D01*
X5743Y6175D01*
X5719Y6168D01*
X5690Y6156D01*
X5668Y6144D01*
X5640Y6151D01*
X5640Y6151D01*
X5615Y6169D01*
X5611Y6186D01*
X5602Y6207D01*
X5590Y6227D01*
X5584Y6234D01*
X5590Y6241D01*
X5602Y6261D01*
X5611Y6282D01*
X5616Y6305D01*
X5618Y6328D01*
X5616Y6351D01*
X5611Y6374D01*
X5602Y6395D01*
X5590Y6415D01*
X5575Y6433D01*
X5557Y6448D01*
X5537Y6460D01*
X5516Y6469D01*
X5493Y6474D01*
X5470Y6476D01*
X5429Y6517D01*
Y6532D01*
X5270D01*
X5111D01*
Y6429D01*
X5066Y6416D01*
X4855D01*
X4837Y6415D01*
X4819Y6411D01*
X4811Y6407D01*
X4802Y6404D01*
X4800Y6402D01*
X4768Y6442D01*
X5057Y6731D01*
X5111D01*
Y6632D01*
X5270D01*
X5429D01*
Y6731D01*
X5601D01*
X6026Y6306D01*
D02*
G37*
G36*
X7067Y6320D02*
Y5307D01*
X7064Y5300D01*
X7036Y5276D01*
X7017Y5268D01*
X7007Y5269D01*
X6838D01*
X6802Y5305D01*
X6799Y5314D01*
Y5319D01*
X6797Y5339D01*
X6793Y5357D01*
X6785Y5375D01*
X6775Y5391D01*
X6763Y5406D01*
X6748Y5418D01*
X6732Y5429D01*
X6714Y5436D01*
X6695Y5440D01*
X6677Y5466D01*
X6678Y5490D01*
X6678Y5490D01*
X6676Y5513D01*
X6671Y5536D01*
X6662Y5557D01*
X6650Y5577D01*
X6635Y5595D01*
X6617Y5610D01*
X6597Y5622D01*
X6576Y5631D01*
X6553Y5636D01*
X6530Y5638D01*
X6518Y5637D01*
X6488Y5657D01*
X6469Y5677D01*
X6469Y5677D01*
Y5742D01*
X6310D01*
Y5842D01*
X6469D01*
Y5886D01*
X6530D01*
Y6082D01*
X6630D01*
Y5861D01*
X6632Y5860D01*
X6634Y5837D01*
X6639Y5814D01*
X6648Y5793D01*
X6660Y5773D01*
X6675Y5755D01*
X6693Y5740D01*
X6713Y5728D01*
X6734Y5719D01*
X6757Y5714D01*
X6780Y5712D01*
X6803Y5714D01*
X6826Y5719D01*
X6847Y5728D01*
X6867Y5740D01*
X6885Y5755D01*
X6900Y5773D01*
X6912Y5793D01*
X6921Y5814D01*
X6926Y5837D01*
X6928Y5860D01*
X6926Y5883D01*
X6921Y5906D01*
X6915Y5921D01*
Y6275D01*
X6924Y6275D01*
X6940Y6279D01*
X6955Y6285D01*
X6969Y6294D01*
X6981Y6304D01*
X7017Y6341D01*
X7067Y6320D01*
D02*
G37*
G36*
X5800Y6070D02*
X5800Y5731D01*
X5788Y5710D01*
X5768Y5703D01*
X5728Y5715D01*
X5692Y5738D01*
X5659Y5770D01*
X5626Y5824D01*
X5616Y5852D01*
X5614Y5939D01*
X5625Y5976D01*
X5648Y6015D01*
X5669Y6038D01*
X5698Y6067D01*
X5723Y6084D01*
X5770Y6099D01*
X5800Y6070D01*
D02*
G37*
G36*
X5952Y6085D02*
X5988Y6062D01*
X6021Y6030D01*
X6054Y5976D01*
X6064Y5948D01*
X6066Y5861D01*
X6055Y5824D01*
X6032Y5785D01*
X6011Y5762D01*
X5982Y5733D01*
X5957Y5716D01*
X5910Y5701D01*
X5880Y5730D01*
X5880Y6069D01*
X5892Y6090D01*
X5912Y6097D01*
X5952Y6085D01*
D02*
G37*
G36*
X5111Y6041D02*
Y5938D01*
X5270D01*
X5429D01*
Y5951D01*
X5470Y5992D01*
X5493Y5994D01*
X5519Y5975D01*
X5532Y5960D01*
X5534Y5953D01*
X5531Y5932D01*
X5529Y5900D01*
X5531Y5870D01*
X5514Y5854D01*
X5503Y5841D01*
X5495Y5827D01*
X5489Y5812D01*
X5485Y5796D01*
X5484Y5780D01*
Y5594D01*
X5326Y5436D01*
X5280Y5455D01*
Y5669D01*
X5039D01*
X5038Y5679D01*
X5034Y5697D01*
X5027Y5714D01*
X5017Y5730D01*
X5005Y5744D01*
X4907Y5842D01*
Y6001D01*
X4957Y6052D01*
X5065D01*
X5111Y6041D01*
D02*
G37*
G36*
X4556Y6159D02*
X4555Y6157D01*
X4548Y6140D01*
X4543Y6122D01*
X4542Y6103D01*
Y5842D01*
X4444Y5744D01*
X4432Y5730D01*
X4422Y5714D01*
X4415Y5697D01*
X4411Y5679D01*
X4410Y5669D01*
X4217D01*
Y5440D01*
X4183Y5421D01*
X4167Y5417D01*
X4157Y5422D01*
X4142Y5429D01*
X4126Y5432D01*
X4110Y5434D01*
X4056D01*
X4055Y5435D01*
X4037Y5450D01*
X4017Y5462D01*
X3996Y5471D01*
X3973Y5476D01*
X3950Y5478D01*
X3944Y5478D01*
X3907Y5502D01*
X3894Y5520D01*
Y5567D01*
X4517Y6190D01*
X4556Y6159D01*
D02*
G37*
G36*
X13552Y5682D02*
X13552Y5343D01*
X13541Y5322D01*
X13521Y5315D01*
X13481Y5327D01*
X13445Y5350D01*
X13412Y5382D01*
X13379Y5436D01*
X13369Y5464D01*
X13367Y5551D01*
X13378Y5588D01*
X13401Y5627D01*
X13422Y5650D01*
X13451Y5679D01*
X13476Y5696D01*
X13523Y5711D01*
X13552Y5682D01*
D02*
G37*
G36*
X12952D02*
X12952Y5343D01*
X12940Y5322D01*
X12920Y5315D01*
X12880Y5327D01*
X12844Y5350D01*
X12811Y5382D01*
X12778Y5436D01*
X12768Y5464D01*
X12766Y5551D01*
X12777Y5588D01*
X12800Y5627D01*
X12821Y5650D01*
X12850Y5679D01*
X12876Y5696D01*
X12922Y5711D01*
X12952Y5682D01*
D02*
G37*
G36*
X13685Y5696D02*
X13721Y5674D01*
X13754Y5642D01*
X13787Y5588D01*
X13797Y5560D01*
X13799Y5473D01*
X13788Y5436D01*
X13765Y5397D01*
X13744Y5374D01*
X13715Y5345D01*
X13689Y5328D01*
X13643Y5313D01*
X13613Y5342D01*
X13613Y5681D01*
X13625Y5702D01*
X13645Y5709D01*
X13685Y5696D01*
D02*
G37*
G36*
X13104D02*
X13140Y5674D01*
X13173Y5642D01*
X13206Y5588D01*
X13216Y5560D01*
X13218Y5473D01*
X13207Y5436D01*
X13184Y5397D01*
X13163Y5374D01*
X13134Y5345D01*
X13109Y5328D01*
X13062Y5313D01*
X13032Y5342D01*
X13032Y5681D01*
X13044Y5702D01*
X13064Y5709D01*
X13104Y5696D01*
D02*
G37*
G36*
X9458Y5647D02*
X9449Y5626D01*
X9444Y5603D01*
X9442Y5580D01*
X9444Y5557D01*
X9447Y5544D01*
X9433Y5517D01*
X9412Y5494D01*
X8696D01*
X8695Y5495D01*
X8677Y5510D01*
X8657Y5522D01*
X8636Y5531D01*
X8613Y5536D01*
X8590Y5538D01*
X8567Y5536D01*
X8544Y5531D01*
X8523Y5522D01*
X8503Y5510D01*
X8485Y5495D01*
X8470Y5477D01*
X8458Y5457D01*
X8449Y5436D01*
X8444Y5413D01*
X8442Y5390D01*
X8444Y5367D01*
X8449Y5344D01*
X8458Y5323D01*
X8470Y5303D01*
X8485Y5285D01*
X8503Y5270D01*
X8523Y5258D01*
X8544Y5249D01*
X8567Y5244D01*
X8590Y5242D01*
X8613Y5244D01*
X8636Y5249D01*
X8657Y5258D01*
X8677Y5270D01*
X8695Y5285D01*
X8696Y5286D01*
X9848D01*
X9864Y5288D01*
X9880Y5291D01*
X9895Y5298D01*
X9909Y5306D01*
X9921Y5317D01*
X10251Y5646D01*
X11253D01*
X11259Y5641D01*
X11278Y5596D01*
X11272Y5587D01*
X11257Y5560D01*
X11245Y5532D01*
X11237Y5502D01*
X11231Y5471D01*
X11230Y5440D01*
X11231Y5410D01*
X11237Y5379D01*
X11245Y5349D01*
X11257Y5321D01*
X11266Y5304D01*
X11255Y5273D01*
X11239Y5254D01*
X10910D01*
X10894Y5252D01*
X10878Y5249D01*
X10874Y5247D01*
X10860Y5248D01*
X10837Y5246D01*
X10794Y5238D01*
X10794Y5238D01*
X10591D01*
Y5259D01*
X10488D01*
Y5100D01*
X10438D01*
Y5050D01*
X10285D01*
Y4941D01*
Y4900D01*
X10438D01*
Y4800D01*
X10285D01*
Y4691D01*
Y4650D01*
X10438D01*
Y4600D01*
X10488D01*
Y4441D01*
X10591D01*
Y4462D01*
X10794D01*
Y4462D01*
X10837Y4454D01*
X10860Y4452D01*
X10874Y4453D01*
X10878Y4451D01*
X10894Y4448D01*
X10910Y4446D01*
X11239D01*
X11256Y4426D01*
X11267Y4396D01*
X11257Y4379D01*
X11245Y4350D01*
X11237Y4321D01*
X11231Y4290D01*
X11230Y4259D01*
X11231Y4228D01*
X11237Y4198D01*
X11245Y4168D01*
X11257Y4140D01*
X11272Y4112D01*
X11290Y4087D01*
X11311Y4064D01*
X11334Y4044D01*
X11359Y4026D01*
X11386Y4011D01*
X11415Y3999D01*
X11444Y3990D01*
X11475Y3985D01*
X11506Y3983D01*
X11537Y3985D01*
X11567Y3990D01*
X11597Y3999D01*
X11626Y4011D01*
X11653Y4026D01*
X11678Y4044D01*
X11701Y4064D01*
X11722Y4087D01*
X11739Y4112D01*
X11754Y4140D01*
X11766Y4168D01*
X11775Y4198D01*
X11780Y4228D01*
X11782Y4259D01*
X11780Y4290D01*
X11775Y4321D01*
X11766Y4350D01*
X11754Y4379D01*
X11742Y4402D01*
X11747Y4424D01*
X11751Y4433D01*
X11766Y4455D01*
X11783Y4459D01*
X11804Y4468D01*
X11824Y4480D01*
X11842Y4495D01*
X11857Y4513D01*
X11869Y4533D01*
X11878Y4554D01*
X11883Y4577D01*
X11885Y4600D01*
X11885Y4601D01*
X11931Y4648D01*
X12518D01*
X12628Y4537D01*
Y3526D01*
X12351Y3249D01*
X12341Y3236D01*
X12332Y3222D01*
X12326Y3207D01*
X12322Y3191D01*
X12321Y3175D01*
Y2878D01*
X12315Y2868D01*
X12273Y2835D01*
X12249Y2833D01*
X12226Y2827D01*
X12204Y2818D01*
X12184Y2806D01*
X12171Y2795D01*
X12134Y2793D01*
X12095Y2787D01*
X12056Y2777D01*
X12019Y2764D01*
X11983Y2747D01*
X11948Y2726D01*
X11916Y2703D01*
X11887Y2676D01*
X11860Y2646D01*
X11836Y2614D01*
X11816Y2580D01*
X11799Y2544D01*
X11785Y2507D01*
X11776Y2468D01*
X11771Y2437D01*
X11770Y2429D01*
X11768Y2389D01*
X11768D01*
Y1019D01*
X11768Y1019D01*
X11770Y985D01*
X11772Y970D01*
X11772Y970D01*
X11772Y970D01*
X11775Y951D01*
X11783Y918D01*
X11794Y886D01*
X11809Y855D01*
X11826Y826D01*
X11838Y811D01*
X11838Y811D01*
X11838Y811D01*
X11847Y799D01*
X11869Y774D01*
X11870Y774D01*
X11906Y737D01*
Y619D01*
X12324D01*
Y587D01*
X12642D01*
Y690D01*
X12623D01*
Y850D01*
X12642Y897D01*
X12666Y900D01*
X12666Y900D01*
X12670Y901D01*
X12689Y906D01*
X12711Y915D01*
X12718Y919D01*
X12726Y919D01*
X12756Y910D01*
X12773Y898D01*
X12780Y871D01*
X12795Y821D01*
X12813Y772D01*
X12835Y725D01*
X12859Y679D01*
X12887Y634D01*
X12917Y592D01*
X12950Y552D01*
X12986Y513D01*
X13024Y478D01*
X13064Y445D01*
X13107Y414D01*
X13151Y387D01*
X13197Y362D01*
X13245Y341D01*
X13294Y322D01*
X13344Y307D01*
X13394Y295D01*
X13446Y287D01*
X13498Y282D01*
X13550Y280D01*
Y280D01*
X14768D01*
X14782Y268D01*
X14802Y256D01*
X14824Y247D01*
X14846Y241D01*
X14870Y240D01*
X14894Y241D01*
X14916Y247D01*
X14938Y256D01*
X14958Y268D01*
X14976Y284D01*
X14992Y302D01*
X15004Y322D01*
X15009Y334D01*
X15059Y324D01*
X15059Y138D01*
X11650D01*
Y3018D01*
X11650Y3068D01*
X11650Y3068D01*
X11600Y3068D01*
X10125Y3068D01*
X10075Y3068D01*
X10075Y3018D01*
X10075Y706D01*
Y206D01*
X10029Y175D01*
X10008Y178D01*
X9995Y193D01*
X9974Y212D01*
X9950Y227D01*
X9925Y240D01*
X9898Y249D01*
X9870Y255D01*
X9842Y256D01*
X9813Y255D01*
X9785Y249D01*
X9758Y240D01*
X9733Y227D01*
X9709Y212D01*
X9688Y193D01*
X9675Y178D01*
X9645Y174D01*
X9614Y178D01*
X9601Y193D01*
X9580Y212D01*
X9556Y227D01*
X9531Y240D01*
X9504Y249D01*
X9476Y255D01*
X9448Y256D01*
X9419Y255D01*
X9392Y249D01*
X9365Y240D01*
X9339Y227D01*
X9316Y212D01*
X9294Y193D01*
X9276Y171D01*
X9260Y148D01*
X9255Y138D01*
X6398D01*
Y709D01*
X6396Y728D01*
X6391Y747D01*
X6381Y764D01*
X6369Y779D01*
X6354Y791D01*
X6337Y800D01*
X6326Y803D01*
X6319Y829D01*
X6323Y855D01*
X6337Y861D01*
X6357Y873D01*
X6375Y888D01*
X6390Y906D01*
X6395Y915D01*
X6520D01*
X6937Y497D01*
X6954Y483D01*
X6972Y472D01*
X6992Y463D01*
X7014Y458D01*
X7035Y457D01*
X7655D01*
X7676Y458D01*
X7698Y463D01*
X7718Y472D01*
X7736Y483D01*
X7753Y497D01*
X8443Y1188D01*
X8449Y1190D01*
X8469Y1202D01*
X8487Y1217D01*
X8502Y1235D01*
X8514Y1255D01*
X8523Y1276D01*
X8528Y1299D01*
X8530Y1322D01*
X8528Y1345D01*
X8523Y1368D01*
X8514Y1389D01*
X8502Y1409D01*
X8487Y1427D01*
X8469Y1442D01*
X8449Y1454D01*
X8428Y1463D01*
X8405Y1468D01*
X8382Y1470D01*
X8359Y1468D01*
X8336Y1463D01*
X8315Y1454D01*
X8295Y1442D01*
X8277Y1427D01*
X8262Y1409D01*
X8250Y1389D01*
X8248Y1383D01*
X7598Y733D01*
X7092D01*
X6675Y1151D01*
X6658Y1165D01*
X6640Y1176D01*
X6620Y1184D01*
X6599Y1190D01*
X6577Y1191D01*
X6317D01*
X6238Y1270D01*
Y2638D01*
X6237Y2660D01*
X6231Y2681D01*
X6223Y2701D01*
X6212Y2719D01*
X6198Y2736D01*
X6068Y2865D01*
X6064Y2880D01*
X6056Y2902D01*
X6043Y2921D01*
X6028Y2939D01*
X6022Y2944D01*
X6013Y2972D01*
X6016Y3009D01*
X6020Y3013D01*
X6032Y3033D01*
X6041Y3054D01*
X6046Y3077D01*
X6048Y3100D01*
X6046Y3123D01*
X6041Y3146D01*
X6032Y3167D01*
X6020Y3187D01*
X6019Y3188D01*
X6041Y3238D01*
X6200D01*
X6218Y3240D01*
X6235Y3245D01*
X6251Y3254D01*
X6265Y3265D01*
X6352Y3352D01*
X6403Y3361D01*
X6418Y3348D01*
X6435Y3337D01*
X6454Y3330D01*
X6473Y3325D01*
X6493Y3323D01*
X6514Y3325D01*
X6533Y3330D01*
X6552Y3337D01*
X6569Y3348D01*
X6584Y3361D01*
X6597Y3376D01*
X6608Y3393D01*
X6616Y3412D01*
X6620Y3432D01*
X6622Y3452D01*
X6620Y3472D01*
X6616Y3491D01*
X6608Y3510D01*
X6597Y3527D01*
X6584Y3542D01*
Y3571D01*
X6597Y3586D01*
X6608Y3603D01*
X6616Y3622D01*
X6620Y3642D01*
X6622Y3662D01*
X6620Y3682D01*
X6616Y3701D01*
X6608Y3720D01*
X6597Y3737D01*
X6584Y3752D01*
X6569Y3765D01*
X6552Y3776D01*
X6533Y3784D01*
X6514Y3788D01*
X6493Y3790D01*
X6473Y3788D01*
X6454Y3784D01*
X6435Y3776D01*
X6418Y3765D01*
X6403Y3752D01*
X6390Y3737D01*
X6380Y3722D01*
X6301D01*
X6283Y3720D01*
X6265Y3715D01*
X6249Y3706D01*
X6236Y3695D01*
X6103Y3563D01*
X5529D01*
X5511Y3561D01*
X5494Y3556D01*
X5478Y3547D01*
X5464Y3536D01*
X4941Y3013D01*
X3224D01*
X3222Y3063D01*
X3231Y3064D01*
X3254Y3069D01*
X3275Y3078D01*
X3295Y3090D01*
X3300Y3094D01*
X3717D01*
Y3380D01*
X3883Y3546D01*
X4630D01*
X4646Y3548D01*
X4662Y3551D01*
X4677Y3558D01*
X4691Y3566D01*
X4703Y3577D01*
X4766Y3639D01*
X5802D01*
X5818Y3641D01*
X5834Y3645D01*
X5849Y3651D01*
X5862Y3659D01*
X5875Y3670D01*
X6191Y3986D01*
X6670D01*
X6686Y3988D01*
X6702Y3991D01*
X6708Y3994D01*
X6722Y3994D01*
X6731Y3992D01*
X6762Y3979D01*
X6768Y3973D01*
X6780Y3953D01*
X6795Y3935D01*
X6813Y3920D01*
X6833Y3908D01*
X6854Y3899D01*
X6877Y3894D01*
X6900Y3892D01*
X6923Y3894D01*
X6946Y3899D01*
X6967Y3908D01*
X6987Y3920D01*
X7005Y3935D01*
X7020Y3953D01*
X7032Y3973D01*
X7041Y3994D01*
X7044Y4008D01*
X7058Y4020D01*
X7106Y4033D01*
X7173Y3967D01*
X7185Y3956D01*
X7190Y3953D01*
X7190Y3953D01*
X7205Y3935D01*
X7223Y3920D01*
X7243Y3908D01*
X7264Y3899D01*
X7287Y3894D01*
X7310Y3892D01*
X7333Y3894D01*
X7356Y3899D01*
X7377Y3908D01*
X7397Y3920D01*
X7415Y3935D01*
X7415D01*
X7433Y3920D01*
X7453Y3908D01*
X7474Y3899D01*
X7497Y3894D01*
X7520Y3892D01*
X7543Y3894D01*
X7566Y3899D01*
X7587Y3908D01*
X7609Y3918D01*
X7644Y3886D01*
X7645Y3885D01*
X7663Y3870D01*
X7683Y3858D01*
X7704Y3849D01*
X7727Y3844D01*
X7750Y3842D01*
X7761Y3843D01*
X7783Y3822D01*
X7794Y3797D01*
X7789Y3786D01*
X7784Y3763D01*
X7782Y3740D01*
X7784Y3717D01*
X7789Y3694D01*
X7798Y3673D01*
X7810Y3653D01*
X7825Y3635D01*
X7843Y3620D01*
X7863Y3608D01*
X7884Y3599D01*
X7907Y3594D01*
X7930Y3592D01*
X7953Y3594D01*
X7976Y3599D01*
X7997Y3608D01*
X8017Y3620D01*
X8035Y3635D01*
X8036Y3636D01*
X8305D01*
X8310Y3636D01*
X8326Y3637D01*
X8342Y3641D01*
X8357Y3647D01*
X8371Y3656D01*
X8384Y3666D01*
X8497Y3779D01*
X8525Y3777D01*
X8553Y3765D01*
X8558Y3753D01*
X8570Y3733D01*
X8577Y3725D01*
X8570Y3717D01*
X8558Y3697D01*
X8549Y3676D01*
X8544Y3653D01*
X8542Y3630D01*
X8544Y3607D01*
X8549Y3584D01*
X8558Y3563D01*
X8518Y3532D01*
X8508Y3541D01*
X8488Y3554D01*
X8466Y3562D01*
X8444Y3568D01*
X8420Y3570D01*
X8397Y3568D01*
X8375Y3562D01*
X8353Y3554D01*
X8333Y3541D01*
X8316Y3526D01*
X8301Y3509D01*
X8289Y3489D01*
X8280Y3467D01*
X8274Y3445D01*
X8272Y3422D01*
X8274Y3398D01*
X8280Y3376D01*
X8289Y3354D01*
X8301Y3335D01*
X8316Y3317D01*
X8333Y3302D01*
X8353Y3290D01*
X8375Y3281D01*
X8397Y3275D01*
X8420Y3273D01*
X8444Y3275D01*
X8466Y3281D01*
X8488Y3290D01*
X8497Y3296D01*
X8517Y3295D01*
X8525Y3293D01*
X8556Y3277D01*
X8558Y3273D01*
X8570Y3253D01*
X8585Y3235D01*
X8603Y3220D01*
X8623Y3208D01*
X8644Y3199D01*
X8667Y3194D01*
X8690Y3192D01*
X8713Y3194D01*
X8736Y3199D01*
X8757Y3208D01*
X8777Y3220D01*
X8795Y3235D01*
X8810Y3253D01*
X8822Y3273D01*
X8831Y3294D01*
X8836Y3317D01*
X8838Y3340D01*
X8836Y3363D01*
X8831Y3386D01*
X8822Y3407D01*
X8810Y3427D01*
X8795Y3445D01*
X8782Y3455D01*
X8778Y3485D01*
X8782Y3515D01*
X8795Y3525D01*
X8810Y3543D01*
X8822Y3563D01*
X8831Y3584D01*
X8836Y3607D01*
X8838Y3630D01*
X8836Y3653D01*
X8831Y3676D01*
X8822Y3697D01*
X8810Y3717D01*
X8803Y3725D01*
X8810Y3733D01*
X8822Y3753D01*
X8831Y3774D01*
X8836Y3797D01*
X8838Y3820D01*
X8836Y3843D01*
X8831Y3866D01*
X8830Y3868D01*
X8829Y3873D01*
X8833Y3906D01*
X8849Y3932D01*
X8862Y3942D01*
X8950Y4031D01*
X8979Y4029D01*
X9011Y4031D01*
X9043Y4036D01*
X9055Y4040D01*
X9089Y3998D01*
X9088Y3997D01*
X9079Y3976D01*
X9074Y3953D01*
X9072Y3930D01*
X9074Y3907D01*
X9079Y3884D01*
X9088Y3863D01*
X9100Y3843D01*
X9115Y3825D01*
X9133Y3810D01*
X9153Y3798D01*
X9174Y3789D01*
X9197Y3784D01*
X9220Y3782D01*
X9243Y3784D01*
X9266Y3789D01*
X9287Y3798D01*
X9307Y3810D01*
X9325Y3825D01*
X9340Y3843D01*
X9352Y3863D01*
X9352Y3864D01*
X9385Y3903D01*
X9409Y3899D01*
X9432Y3897D01*
X9455Y3899D01*
X9478Y3904D01*
X9499Y3913D01*
X9519Y3925D01*
X9537Y3940D01*
X9552Y3958D01*
X9564Y3978D01*
X9573Y3999D01*
X9578Y4022D01*
X9580Y4045D01*
X9578Y4068D01*
X9582Y4097D01*
X9605Y4110D01*
X9624Y4122D01*
X9642Y4137D01*
X9657Y4155D01*
X9669Y4175D01*
X9678Y4196D01*
X9684Y4219D01*
X9686Y4242D01*
X9684Y4265D01*
X9678Y4288D01*
X9669Y4309D01*
X9657Y4329D01*
X9642Y4347D01*
X9624Y4362D01*
X9605Y4374D01*
X9583Y4383D01*
X9561Y4388D01*
X9537Y4390D01*
X9514Y4388D01*
X9492Y4383D01*
X9470Y4374D01*
X9450Y4362D01*
X9433Y4347D01*
X9431Y4344D01*
X9416Y4354D01*
X9394Y4363D01*
X9371Y4368D01*
X9348Y4370D01*
X9325Y4368D01*
X9303Y4363D01*
X9262Y4390D01*
X9257Y4418D01*
X9257Y4427D01*
X9254Y4436D01*
X9254Y4437D01*
X9248Y4460D01*
X9235Y4490D01*
X9220Y4518D01*
X9201Y4544D01*
X9180Y4567D01*
X9156Y4589D01*
X9130Y4607D01*
X9103Y4623D01*
X9073Y4635D01*
X9043Y4644D01*
X9011Y4649D01*
X8979Y4651D01*
X8957Y4649D01*
X8581Y5025D01*
X8568Y5036D01*
X8553Y5045D01*
X8538Y5052D01*
X8521Y5056D01*
X8504Y5057D01*
X7738D01*
X7721Y5056D01*
X7704Y5052D01*
X7689Y5045D01*
X7674Y5036D01*
X7661Y5025D01*
X7583Y4948D01*
X7567Y4946D01*
X7544Y4941D01*
X7523Y4932D01*
X7503Y4920D01*
X7485Y4905D01*
X7470Y4887D01*
X7458Y4867D01*
X7445Y4847D01*
X7421Y4852D01*
X7377Y4867D01*
X7378Y4890D01*
X7378Y4890D01*
X7376Y4913D01*
X7371Y4936D01*
X7362Y4957D01*
X7350Y4977D01*
X7335Y4995D01*
X7317Y5010D01*
X7315Y5011D01*
X7329Y5061D01*
X7382D01*
Y5220D01*
Y5379D01*
X7326D01*
Y6526D01*
X8578D01*
X9458Y5647D01*
D02*
G37*
G36*
X1228Y4880D02*
X1237Y4872D01*
Y3773D01*
X1228Y3766D01*
X1171Y3760D01*
X1149Y3785D01*
X1124Y3807D01*
X1096Y3827D01*
X1067Y3843D01*
X1036Y3856D01*
X1004Y3865D01*
X971Y3871D01*
X937Y3873D01*
X903Y3871D01*
X870Y3865D01*
X838Y3856D01*
X807Y3843D01*
X778Y3827D01*
X763Y3816D01*
X724Y3831D01*
X713Y3841D01*
Y4805D01*
X724Y4815D01*
X763Y4829D01*
X778Y4819D01*
X807Y4803D01*
X838Y4790D01*
X870Y4781D01*
X903Y4775D01*
X937Y4773D01*
X971Y4775D01*
X1004Y4781D01*
X1036Y4790D01*
X1067Y4803D01*
X1096Y4819D01*
X1124Y4839D01*
X1149Y4861D01*
X1171Y4886D01*
X1228Y4880D01*
D02*
G37*
G36*
X9055Y4555D02*
X9094Y4532D01*
X9117Y4511D01*
X9146Y4482D01*
X9163Y4456D01*
X9178Y4410D01*
X9149Y4380D01*
X8810D01*
X8789Y4392D01*
X8782Y4412D01*
X8795Y4452D01*
X8817Y4488D01*
X8849Y4521D01*
X8903Y4554D01*
X8931Y4564D01*
X9018Y4566D01*
X9055Y4555D01*
D02*
G37*
G36*
X8605D02*
X8644Y4532D01*
X8667Y4511D01*
X8696Y4482D01*
X8713Y4456D01*
X8728Y4410D01*
X8699Y4380D01*
X8360D01*
X8339Y4392D01*
X8332Y4412D01*
X8345Y4452D01*
X8367Y4488D01*
X8399Y4521D01*
X8453Y4554D01*
X8481Y4564D01*
X8568Y4566D01*
X8605Y4555D01*
D02*
G37*
G36*
X8155D02*
X8194Y4532D01*
X8217Y4511D01*
X8246Y4482D01*
X8263Y4456D01*
X8278Y4410D01*
X8249Y4380D01*
X7910D01*
X7889Y4392D01*
X7882Y4412D01*
X7895Y4452D01*
X7917Y4488D01*
X7949Y4521D01*
X8003Y4554D01*
X8031Y4564D01*
X8118Y4566D01*
X8155Y4555D01*
D02*
G37*
G36*
X7705D02*
X7744Y4532D01*
X7767Y4511D01*
X7796Y4482D01*
X7813Y4456D01*
X7828Y4410D01*
X7799Y4380D01*
X7460D01*
X7439Y4392D01*
X7432Y4412D01*
X7445Y4452D01*
X7467Y4488D01*
X7499Y4521D01*
X7553Y4554D01*
X7581Y4564D01*
X7668Y4566D01*
X7705Y4555D01*
D02*
G37*
G36*
X7255D02*
X7294Y4532D01*
X7317Y4511D01*
X7346Y4482D01*
X7363Y4456D01*
X7378Y4410D01*
X7349Y4380D01*
X7010D01*
X6989Y4392D01*
X6982Y4412D01*
X6995Y4452D01*
X7017Y4488D01*
X7049Y4521D01*
X7103Y4554D01*
X7131Y4564D01*
X7218Y4566D01*
X7255Y4555D01*
D02*
G37*
G36*
X5286Y5065D02*
X5299Y5051D01*
Y4044D01*
X4490D01*
X4474Y4042D01*
X4458Y4039D01*
X4443Y4032D01*
X4429Y4024D01*
X4417Y4013D01*
X4330Y3927D01*
X4243D01*
X4197Y3937D01*
Y4214D01*
X4247Y4228D01*
X4250Y4223D01*
X4265Y4205D01*
X4283Y4190D01*
X4303Y4178D01*
X4324Y4169D01*
X4347Y4164D01*
X4370Y4162D01*
X4393Y4164D01*
X4416Y4169D01*
X4437Y4178D01*
X4457Y4190D01*
X4475Y4205D01*
X4490Y4223D01*
X4502Y4243D01*
X4511Y4264D01*
X4516Y4287D01*
X4518Y4310D01*
X4516Y4333D01*
X4511Y4356D01*
X4502Y4377D01*
X4490Y4397D01*
X4475Y4415D01*
X4457Y4430D01*
X4437Y4442D01*
X4416Y4451D01*
X4393Y4456D01*
X4370Y4458D01*
X4359Y4457D01*
X4297Y4520D01*
Y5070D01*
X4303Y5076D01*
X5216D01*
X5232Y5078D01*
X5248Y5081D01*
X5249Y5082D01*
X5286Y5065D01*
D02*
G37*
G36*
X9169Y4288D02*
X9176Y4268D01*
X9164Y4228D01*
X9141Y4192D01*
X9109Y4159D01*
X9055Y4126D01*
X9027Y4116D01*
X8940Y4114D01*
X8903Y4125D01*
X8864Y4148D01*
X8841Y4169D01*
X8812Y4198D01*
X8795Y4223D01*
X8780Y4270D01*
X8809Y4300D01*
X9149D01*
X9169Y4288D01*
D02*
G37*
G36*
X8719D02*
X8726Y4268D01*
X8714Y4228D01*
X8691Y4192D01*
X8659Y4159D01*
X8605Y4126D01*
X8577Y4116D01*
X8490Y4114D01*
X8453Y4125D01*
X8414Y4148D01*
X8391Y4169D01*
X8362Y4198D01*
X8345Y4223D01*
X8330Y4270D01*
X8359Y4300D01*
X8699D01*
X8719Y4288D01*
D02*
G37*
G36*
X8269D02*
X8276Y4268D01*
X8264Y4228D01*
X8241Y4192D01*
X8209Y4159D01*
X8155Y4126D01*
X8127Y4116D01*
X8040Y4114D01*
X8003Y4125D01*
X7964Y4148D01*
X7941Y4169D01*
X7912Y4198D01*
X7895Y4223D01*
X7880Y4270D01*
X7909Y4300D01*
X8249D01*
X8269Y4288D01*
D02*
G37*
G36*
X7819D02*
X7826Y4268D01*
X7814Y4228D01*
X7791Y4192D01*
X7759Y4159D01*
X7705Y4126D01*
X7677Y4116D01*
X7590Y4114D01*
X7553Y4125D01*
X7514Y4148D01*
X7491Y4169D01*
X7462Y4198D01*
X7445Y4223D01*
X7430Y4270D01*
X7459Y4300D01*
X7799D01*
X7819Y4288D01*
D02*
G37*
G36*
X7369D02*
X7376Y4268D01*
X7364Y4228D01*
X7341Y4192D01*
X7309Y4159D01*
X7255Y4126D01*
X7227Y4116D01*
X7140Y4114D01*
X7103Y4125D01*
X7064Y4148D01*
X7041Y4169D01*
X7012Y4198D01*
X6995Y4223D01*
X6980Y4270D01*
X7009Y4300D01*
X7349D01*
X7369Y4288D01*
D02*
G37*
G36*
X5643Y5450D02*
X5663Y5438D01*
X5671Y5435D01*
X5803Y5303D01*
X5805Y5295D01*
X5802Y5256D01*
X5795Y5240D01*
X5786Y5233D01*
X5774Y5218D01*
X5764Y5202D01*
X5757Y5184D01*
X5752Y5165D01*
X5751Y5146D01*
X5752Y5127D01*
X5757Y5108D01*
X5764Y5091D01*
X5774Y5074D01*
X5780Y5067D01*
X5774Y5061D01*
X5764Y5044D01*
X5757Y5027D01*
X5752Y5008D01*
X5751Y4989D01*
X5752Y4970D01*
X5757Y4951D01*
X5764Y4933D01*
X5840Y4857D01*
Y4810D01*
X5762Y4732D01*
X5764Y4730D01*
X5764Y4729D01*
X5757Y4712D01*
X5752Y4693D01*
X5751Y4674D01*
X5752Y4655D01*
X5757Y4636D01*
X5764Y4618D01*
X5774Y4602D01*
X5786Y4587D01*
X5801Y4575D01*
X5817Y4565D01*
X5829Y4560D01*
X5831Y4540D01*
X5836Y4521D01*
X5843Y4502D01*
X5854Y4485D01*
X5867Y4470D01*
X5875Y4463D01*
X5883Y4446D01*
X5887Y4406D01*
X5885Y4398D01*
X5879Y4389D01*
X5873Y4374D01*
X5869Y4358D01*
X5868Y4342D01*
Y4235D01*
X5739Y4106D01*
X5693Y4125D01*
Y4737D01*
X5693Y4933D01*
X5693D01*
Y5118D01*
X5366D01*
X5347Y5164D01*
X5638Y5455D01*
X5643Y5450D01*
D02*
G37*
G36*
X12377Y1180D02*
X12377Y1132D01*
Y899D01*
X12227D01*
X12192Y933D01*
Y1037D01*
X12033D01*
Y1137D01*
X12192D01*
Y1182D01*
X12375D01*
X12377Y1180D01*
D02*
G37*
G36*
X648Y3680D02*
X653Y3668D01*
X645Y3640D01*
X639Y3606D01*
X637Y3573D01*
X639Y3539D01*
X645Y3506D01*
X654Y3474D01*
X667Y3443D01*
X683Y3413D01*
X703Y3386D01*
X725Y3361D01*
X750Y3339D01*
X778Y3319D01*
X807Y3303D01*
X838Y3290D01*
X870Y3281D01*
X903Y3275D01*
X937Y3273D01*
X971Y3275D01*
X1004Y3281D01*
X1036Y3290D01*
X1067Y3303D01*
X1096Y3319D01*
X1124Y3339D01*
X1149Y3361D01*
X1171Y3386D01*
X1228Y3380D01*
X1237Y3372D01*
Y3101D01*
X1239Y3083D01*
X1244Y3066D01*
X1253Y3050D01*
X1264Y3036D01*
X1585Y2715D01*
X1599Y2704D01*
X1615Y2695D01*
X1632Y2690D01*
X1650Y2688D01*
X5037D01*
X5055Y2690D01*
X5072Y2695D01*
X5088Y2704D01*
X5102Y2715D01*
X5625Y3238D01*
X5759D01*
X5781Y3188D01*
X5780Y3187D01*
X5768Y3167D01*
X5759Y3146D01*
X5754Y3123D01*
X5752Y3100D01*
X5754Y3077D01*
X5759Y3054D01*
X5768Y3033D01*
X5780Y3013D01*
X5795Y2995D01*
X5802Y2990D01*
X5811Y2962D01*
X5807Y2925D01*
X5804Y2921D01*
X5792Y2902D01*
X5783Y2880D01*
X5777Y2858D01*
X5776Y2834D01*
X5777Y2811D01*
X5783Y2789D01*
X5792Y2767D01*
X5799Y2755D01*
X5800Y2752D01*
X5812Y2733D01*
X5826Y2717D01*
X5962Y2581D01*
Y1213D01*
X5963Y1191D01*
X5969Y1170D01*
X5977Y1150D01*
X5988Y1132D01*
X6002Y1115D01*
X6122Y995D01*
X6122Y993D01*
X6124Y970D01*
X6129Y947D01*
X6138Y926D01*
X6150Y906D01*
X6165Y888D01*
X6183Y873D01*
X6203Y861D01*
X6211Y858D01*
X6201Y808D01*
X3150D01*
X3130Y806D01*
X3112Y800D01*
X3095Y791D01*
X3080Y779D01*
X3067Y764D01*
X3058Y747D01*
X3053Y728D01*
X3051Y709D01*
Y138D01*
X99D01*
Y3712D01*
X614D01*
X617Y3712D01*
X648Y3680D01*
D02*
G37*
%LPC*%
G36*
X14337Y19726D02*
X14228D01*
Y19623D01*
X14337D01*
Y19726D01*
D02*
G37*
G36*
X10080Y19609D02*
X9931D01*
Y19343D01*
X10080D01*
Y19609D01*
D02*
G37*
G36*
X5108Y19550D02*
X4242D01*
Y18920D01*
X5108D01*
Y19550D01*
D02*
G37*
G36*
X3555Y18824D02*
X3200D01*
Y18656D01*
X3555D01*
Y18824D01*
D02*
G37*
G36*
X3100D02*
X2744D01*
Y18656D01*
X3100D01*
Y18824D01*
D02*
G37*
G36*
X1378Y19233D02*
X1329Y19231D01*
X1280Y19226D01*
X1231Y19217D01*
X1184Y19205D01*
X1137Y19189D01*
X1092Y19170D01*
X1048Y19148D01*
X1005Y19123D01*
X965Y19095D01*
X926Y19064D01*
X890Y19031D01*
X857Y18995D01*
X826Y18956D01*
X798Y18916D01*
X773Y18874D01*
X751Y18830D01*
X732Y18784D01*
X716Y18738D01*
X704Y18690D01*
X696Y18641D01*
X690Y18592D01*
X689Y18543D01*
X690Y18494D01*
X696Y18445D01*
X704Y18397D01*
X716Y18349D01*
X732Y18302D01*
X751Y18257D01*
X773Y18213D01*
X798Y18171D01*
X826Y18130D01*
X857Y18092D01*
X890Y18056D01*
X926Y18022D01*
X965Y17991D01*
X1005Y17963D01*
X1048Y17938D01*
X1092Y17916D01*
X1137Y17897D01*
X1184Y17882D01*
X1231Y17870D01*
X1280Y17861D01*
X1329Y17856D01*
X1378Y17854D01*
X1427Y17856D01*
X1476Y17861D01*
X1525Y17870D01*
X1572Y17882D01*
X1619Y17897D01*
X1664Y17916D01*
X1708Y17938D01*
X1751Y17963D01*
X1791Y17991D01*
X1829Y18022D01*
X1865Y18056D01*
X1899Y18092D01*
X1930Y18130D01*
X1958Y18171D01*
X1983Y18213D01*
X2005Y18257D01*
X2024Y18302D01*
X2039Y18349D01*
X2052Y18397D01*
X2060Y18445D01*
X2066Y18494D01*
X2067Y18543D01*
X2066Y18592D01*
X2060Y18641D01*
X2052Y18690D01*
X2039Y18738D01*
X2024Y18784D01*
X2005Y18830D01*
X1983Y18874D01*
X1958Y18916D01*
X1930Y18956D01*
X1899Y18995D01*
X1865Y19031D01*
X1829Y19064D01*
X1791Y19095D01*
X1751Y19123D01*
X1708Y19148D01*
X1664Y19170D01*
X1619Y19189D01*
X1572Y19205D01*
X1525Y19217D01*
X1476Y19226D01*
X1427Y19231D01*
X1378Y19233D01*
D02*
G37*
G36*
X11489Y16595D02*
X11380D01*
Y16492D01*
X11489D01*
Y16595D01*
D02*
G37*
G36*
X10630Y16595D02*
X10521D01*
Y16492D01*
X10630D01*
Y16595D01*
D02*
G37*
G36*
X12429Y16785D02*
X12406Y16783D01*
X12383Y16778D01*
X12362Y16769D01*
X12342Y16757D01*
X12324Y16742D01*
X12309Y16724D01*
X12297Y16704D01*
X12288Y16683D01*
X12283Y16660D01*
X12281Y16637D01*
X12283Y16614D01*
X12288Y16591D01*
X12297Y16570D01*
X12309Y16550D01*
X12324Y16532D01*
X12342Y16517D01*
X12362Y16505D01*
X12383Y16496D01*
X12406Y16491D01*
X12429Y16489D01*
X12452Y16491D01*
X12475Y16496D01*
X12496Y16505D01*
X12516Y16517D01*
X12534Y16532D01*
X12549Y16550D01*
X12561Y16570D01*
X12570Y16591D01*
X12575Y16614D01*
X12577Y16637D01*
X12575Y16660D01*
X12570Y16683D01*
X12561Y16704D01*
X12549Y16724D01*
X12534Y16742D01*
X12516Y16757D01*
X12496Y16769D01*
X12475Y16778D01*
X12452Y16783D01*
X12429Y16785D01*
D02*
G37*
G36*
X12584Y15512D02*
X12475D01*
Y15409D01*
X12584D01*
Y15512D01*
D02*
G37*
G36*
X14337D02*
X14228D01*
Y15409D01*
X14337D01*
Y15512D01*
D02*
G37*
G36*
X13819Y15445D02*
X13710D01*
Y15342D01*
X13819D01*
Y15445D01*
D02*
G37*
G36*
X9605Y15819D02*
X9502D01*
Y15710D01*
X9605D01*
Y15819D01*
D02*
G37*
G36*
Y15610D02*
X9502D01*
Y15501D01*
X9605D01*
Y15610D01*
D02*
G37*
G36*
X9715Y15169D02*
X9612D01*
Y15060D01*
X9715D01*
Y15169D01*
D02*
G37*
G36*
X13720Y12420D02*
X13696Y12416D01*
X13661Y12407D01*
X13626Y12395D01*
X13592Y12379D01*
X13561Y12360D01*
X13531Y12338D01*
X13504Y12313D01*
X13479Y12286D01*
X13457Y12256D01*
X13438Y12225D01*
X13422Y12191D01*
X13410Y12156D01*
X13401Y12121D01*
X13397Y12097D01*
X13720D01*
Y12420D01*
D02*
G37*
G36*
X709Y11537D02*
X621D01*
Y11310D01*
X981D01*
X979Y11322D01*
X971Y11352D01*
X959Y11380D01*
X944Y11408D01*
X926Y11433D01*
X905Y11456D01*
X882Y11477D01*
X856Y11495D01*
X829Y11510D01*
X800Y11522D01*
X770Y11530D01*
X740Y11536D01*
X709Y11537D01*
D02*
G37*
G36*
X521D02*
X433D01*
X402Y11536D01*
X371Y11530D01*
X341Y11522D01*
X313Y11510D01*
X285Y11495D01*
X260Y11477D01*
X237Y11456D01*
X216Y11433D01*
X198Y11408D01*
X183Y11380D01*
X171Y11352D01*
X162Y11322D01*
X160Y11310D01*
X521D01*
Y11537D01*
D02*
G37*
G36*
X1485Y11635D02*
X1160D01*
Y11270D01*
X1485D01*
Y11635D01*
D02*
G37*
G36*
X981Y11210D02*
X621D01*
Y10982D01*
X709D01*
X740Y10984D01*
X770Y10989D01*
X800Y10998D01*
X829Y11010D01*
X856Y11025D01*
X882Y11043D01*
X905Y11064D01*
X926Y11087D01*
X944Y11112D01*
X959Y11139D01*
X971Y11168D01*
X979Y11198D01*
X981Y11210D01*
D02*
G37*
G36*
X521D02*
X160D01*
X162Y11198D01*
X171Y11168D01*
X183Y11139D01*
X198Y11112D01*
X216Y11087D01*
X237Y11064D01*
X260Y11043D01*
X285Y11025D01*
X313Y11010D01*
X341Y10998D01*
X371Y10989D01*
X402Y10984D01*
X433Y10982D01*
X521D01*
Y11210D01*
D02*
G37*
G36*
X1485Y11170D02*
X1160D01*
Y10806D01*
X1485D01*
Y11170D01*
D02*
G37*
G36*
X1990Y10651D02*
X1674D01*
Y10522D01*
X1990D01*
Y10651D01*
D02*
G37*
G36*
X1574D02*
X1258D01*
Y10522D01*
X1574D01*
Y10651D01*
D02*
G37*
G36*
X976Y10907D02*
X621D01*
Y10483D01*
X976D01*
Y10907D01*
D02*
G37*
G36*
X521D02*
X166D01*
Y10483D01*
X521D01*
Y10907D01*
D02*
G37*
G36*
Y9438D02*
X166D01*
Y9014D01*
X521D01*
Y9438D01*
D02*
G37*
G36*
Y8939D02*
X433D01*
X402Y8937D01*
X371Y8932D01*
X341Y8923D01*
X313Y8912D01*
X285Y8896D01*
X260Y8878D01*
X237Y8858D01*
X216Y8834D01*
X198Y8809D01*
X183Y8782D01*
X171Y8753D01*
X162Y8723D01*
X160Y8711D01*
X521D01*
Y8939D01*
D02*
G37*
G36*
Y8611D02*
X160D01*
X162Y8600D01*
X171Y8570D01*
X183Y8541D01*
X198Y8514D01*
X216Y8488D01*
X237Y8465D01*
X260Y8444D01*
X285Y8426D01*
X313Y8411D01*
X341Y8399D01*
X371Y8391D01*
X402Y8386D01*
X433Y8384D01*
X521D01*
Y8611D01*
D02*
G37*
G36*
X4990Y12774D02*
X4953Y12773D01*
X4917Y12767D01*
X4881Y12758D01*
X4847Y12746D01*
X4813Y12730D01*
X4782Y12711D01*
X4752Y12689D01*
X4725Y12665D01*
X4701Y12638D01*
X4679Y12608D01*
X4660Y12577D01*
X4644Y12543D01*
X4632Y12509D01*
X4623Y12473D01*
X4617Y12437D01*
X4616Y12400D01*
X4617Y12363D01*
X4623Y12327D01*
X4632Y12291D01*
X4644Y12257D01*
X4660Y12223D01*
X4679Y12192D01*
X4701Y12162D01*
X4725Y12135D01*
X4752Y12111D01*
X4782Y12089D01*
X4813Y12070D01*
X4847Y12054D01*
X4881Y12042D01*
X4917Y12033D01*
X4953Y12027D01*
X4990Y12026D01*
X5027Y12027D01*
X5063Y12033D01*
X5099Y12042D01*
X5133Y12054D01*
X5167Y12070D01*
X5198Y12089D01*
X5228Y12111D01*
X5255Y12135D01*
X5279Y12162D01*
X5301Y12192D01*
X5320Y12223D01*
X5336Y12257D01*
X5348Y12291D01*
X5357Y12327D01*
X5363Y12363D01*
X5364Y12400D01*
X5363Y12437D01*
X5357Y12473D01*
X5348Y12509D01*
X5336Y12543D01*
X5320Y12577D01*
X5301Y12608D01*
X5279Y12638D01*
X5255Y12665D01*
X5228Y12689D01*
X5198Y12711D01*
X5167Y12730D01*
X5133Y12746D01*
X5099Y12758D01*
X5063Y12767D01*
X5027Y12773D01*
X4990Y12774D01*
D02*
G37*
G36*
X4940Y11795D02*
X4595D01*
Y11450D01*
X4940D01*
Y11795D01*
D02*
G37*
G36*
X3964Y11774D02*
X3216D01*
Y11026D01*
X3964D01*
Y11774D01*
D02*
G37*
G36*
X4940Y11350D02*
X4595D01*
Y11005D01*
X4940D01*
Y11350D01*
D02*
G37*
G36*
X3999Y10198D02*
X3840D01*
X3681D01*
Y10095D01*
X3764D01*
X3770Y10045D01*
X3754Y10041D01*
X3733Y10032D01*
X3713Y10020D01*
X3698Y10007D01*
X3687Y10008D01*
X3646Y10024D01*
X3646Y10026D01*
X3641Y10048D01*
X3632Y10070D01*
X3620Y10089D01*
X3605Y10107D01*
X3587Y10122D01*
X3567Y10134D01*
X3546Y10143D01*
X3523Y10149D01*
X3500Y10150D01*
X3477Y10149D01*
X3454Y10143D01*
X3433Y10134D01*
X3413Y10122D01*
X3395Y10107D01*
X3380Y10089D01*
X3368Y10070D01*
X3359Y10048D01*
X3354Y10026D01*
X3352Y10002D01*
X3354Y9979D01*
X3359Y9957D01*
X3368Y9935D01*
X3380Y9915D01*
X3395Y9898D01*
X3413Y9883D01*
X3433Y9870D01*
X3454Y9862D01*
X3477Y9856D01*
X3500Y9854D01*
X3523Y9856D01*
X3546Y9862D01*
X3567Y9870D01*
X3587Y9883D01*
X3602Y9895D01*
X3613Y9894D01*
X3654Y9878D01*
X3654Y9877D01*
X3659Y9854D01*
X3668Y9833D01*
X3680Y9813D01*
X3695Y9795D01*
X3713Y9780D01*
X3733Y9768D01*
X3754Y9759D01*
X3777Y9754D01*
X3800Y9752D01*
X3823Y9754D01*
X3846Y9759D01*
X3867Y9768D01*
X3887Y9780D01*
X3905Y9795D01*
X3920Y9813D01*
X3932Y9833D01*
X3941Y9854D01*
X3946Y9877D01*
X3948Y9900D01*
X3946Y9923D01*
X3941Y9946D01*
X3932Y9967D01*
X3920Y9987D01*
X3905Y10005D01*
X3887Y10020D01*
X3867Y10032D01*
X3846Y10041D01*
X3830Y10045D01*
X3836Y10095D01*
X3999D01*
Y10198D01*
D02*
G37*
G36*
X3243Y9697D02*
X3046D01*
Y9490D01*
X3243D01*
Y9697D01*
D02*
G37*
G36*
Y9390D02*
X3046D01*
Y9183D01*
X3243D01*
Y9390D01*
D02*
G37*
G36*
X2946D02*
X2748D01*
Y9183D01*
X2946D01*
Y9390D01*
D02*
G37*
G36*
X3410Y8718D02*
X3387Y8716D01*
X3364Y8711D01*
X3343Y8702D01*
X3323Y8690D01*
X3305Y8675D01*
X3290Y8657D01*
X3278Y8637D01*
X3269Y8616D01*
X3264Y8593D01*
X3262Y8570D01*
X3264Y8547D01*
X3269Y8524D01*
X3278Y8503D01*
X3290Y8483D01*
X3305Y8465D01*
X3323Y8450D01*
X3343Y8438D01*
X3364Y8429D01*
X3387Y8424D01*
X3391Y8423D01*
Y8382D01*
X3709D01*
Y8485D01*
X3589D01*
X3569Y8506D01*
X3553Y8535D01*
X3556Y8547D01*
X3558Y8570D01*
X3556Y8593D01*
X3551Y8616D01*
X3542Y8637D01*
X3530Y8657D01*
X3515Y8675D01*
X3497Y8690D01*
X3477Y8702D01*
X3456Y8711D01*
X3433Y8716D01*
X3410Y8718D01*
D02*
G37*
G36*
X2537Y5572D02*
X2087D01*
Y5373D01*
X2537D01*
Y5572D01*
D02*
G37*
G36*
X6234Y10607D02*
X6037D01*
Y10400D01*
X6234D01*
Y10607D01*
D02*
G37*
G36*
X14212Y8828D02*
X14034D01*
Y8729D01*
X14212D01*
Y8828D01*
D02*
G37*
G36*
X8910Y8848D02*
Y8648D01*
X9160D01*
Y8848D01*
X8910D01*
D02*
G37*
G36*
X9160Y8548D02*
X8910D01*
Y8348D01*
X9160D01*
Y8548D01*
D02*
G37*
G36*
X13504Y8150D02*
X12638D01*
X12622Y8148D01*
X12608Y8144D01*
X12594Y8137D01*
X12582Y8127D01*
X12572Y8115D01*
X12565Y8101D01*
X12560Y8086D01*
X12559Y8071D01*
Y7205D01*
X12560Y7189D01*
X12565Y7174D01*
X12572Y7161D01*
X12582Y7149D01*
X12594Y7139D01*
X12608Y7132D01*
X12622Y7127D01*
X12638Y7126D01*
X13071D01*
X13086Y7127D01*
X13101Y7132D01*
X13115Y7139D01*
X13127Y7149D01*
X13560Y7582D01*
X13570Y7594D01*
X13577Y7608D01*
X13582Y7622D01*
X13583Y7638D01*
Y8071D01*
X13582Y8086D01*
X13577Y8101D01*
X13570Y8115D01*
X13560Y8127D01*
X13548Y8137D01*
X13534Y8144D01*
X13519Y8148D01*
X13504Y8150D01*
D02*
G37*
G36*
X14453Y5589D02*
X14350D01*
Y5480D01*
X14453D01*
Y5589D01*
D02*
G37*
G36*
X13983Y717D02*
X13874D01*
Y613D01*
X13983D01*
Y717D01*
D02*
G37*
%LPD*%
G36*
X13504Y7638D02*
X13071Y7205D01*
X12638D01*
Y8071D01*
X13504D01*
Y7638D01*
D02*
G37*
%LPC*%
G36*
X5429Y5838D02*
X5320D01*
Y5735D01*
X5429D01*
Y5838D01*
D02*
G37*
G36*
X5220D02*
X5111D01*
Y5735D01*
X5220D01*
Y5838D01*
D02*
G37*
G36*
X7585Y5379D02*
X7482D01*
Y5270D01*
X7585D01*
Y5379D01*
D02*
G37*
G36*
X10388Y5259D02*
X10285D01*
Y5150D01*
X10388D01*
Y5259D01*
D02*
G37*
G36*
X7585Y5170D02*
X7482D01*
Y5061D01*
X7585D01*
Y5170D01*
D02*
G37*
G36*
X10388Y4550D02*
X10285D01*
Y4441D01*
X10388D01*
Y4550D01*
D02*
G37*
G36*
X10000Y3848D02*
X9977Y3846D01*
X9954Y3841D01*
X9933Y3832D01*
X9913Y3820D01*
X9895Y3805D01*
X9880Y3787D01*
X9868Y3767D01*
X9859Y3746D01*
X9854Y3723D01*
X9852Y3700D01*
X9854Y3677D01*
X9859Y3654D01*
X9868Y3633D01*
X9880Y3613D01*
X9895Y3595D01*
X9913Y3580D01*
X9933Y3568D01*
X9954Y3559D01*
X9977Y3554D01*
X10000Y3552D01*
X10023Y3554D01*
X10046Y3559D01*
X10067Y3568D01*
X10087Y3580D01*
X10105Y3595D01*
X10120Y3613D01*
X10132Y3633D01*
X10141Y3654D01*
X10146Y3677D01*
X10148Y3700D01*
X10146Y3723D01*
X10141Y3746D01*
X10132Y3767D01*
X10120Y3787D01*
X10105Y3805D01*
X10087Y3820D01*
X10067Y3832D01*
X10046Y3841D01*
X10023Y3846D01*
X10000Y3848D01*
D02*
G37*
G36*
X7066Y3642D02*
X7042Y3640D01*
X7020Y3635D01*
X6998Y3626D01*
X6978Y3614D01*
X6961Y3598D01*
X6946Y3581D01*
X6934Y3561D01*
X6925Y3539D01*
X6919Y3517D01*
X6917Y3494D01*
X6919Y3471D01*
X6925Y3448D01*
X6934Y3426D01*
X6946Y3407D01*
X6961Y3389D01*
X6978Y3374D01*
X6998Y3362D01*
X7020Y3353D01*
X7042Y3347D01*
X7066Y3346D01*
X7089Y3347D01*
X7111Y3353D01*
X7133Y3362D01*
X7153Y3374D01*
X7170Y3389D01*
X7185Y3407D01*
X7197Y3426D01*
X7206Y3448D01*
X7212Y3471D01*
X7214Y3494D01*
X7212Y3517D01*
X7206Y3539D01*
X7197Y3561D01*
X7185Y3581D01*
X7170Y3598D01*
X7153Y3614D01*
X7133Y3626D01*
X7111Y3635D01*
X7089Y3640D01*
X7066Y3642D01*
D02*
G37*
G36*
X7920Y3492D02*
X7897Y3490D01*
X7875Y3485D01*
X7853Y3476D01*
X7833Y3464D01*
X7816Y3448D01*
X7801Y3431D01*
X7788Y3411D01*
X7780Y3389D01*
X7774Y3367D01*
X7772Y3344D01*
X7774Y3321D01*
X7780Y3298D01*
X7788Y3276D01*
X7801Y3257D01*
X7816Y3239D01*
X7833Y3224D01*
X7853Y3212D01*
X7875Y3203D01*
X7897Y3197D01*
X7920Y3196D01*
X7944Y3197D01*
X7966Y3203D01*
X7988Y3212D01*
X8007Y3224D01*
X8025Y3239D01*
X8040Y3257D01*
X8052Y3276D01*
X8061Y3298D01*
X8067Y3321D01*
X8068Y3344D01*
X8067Y3367D01*
X8061Y3389D01*
X8052Y3411D01*
X8040Y3431D01*
X8025Y3448D01*
X8007Y3464D01*
X7988Y3476D01*
X7966Y3485D01*
X7944Y3490D01*
X7920Y3492D01*
D02*
G37*
G36*
X8560Y3148D02*
X8537Y3146D01*
X8514Y3141D01*
X8493Y3132D01*
X8473Y3120D01*
X8455Y3105D01*
X8440Y3087D01*
X8428Y3067D01*
X8419Y3046D01*
X8409Y3020D01*
X8386Y3022D01*
X8363Y3020D01*
X8340Y3015D01*
X8319Y3006D01*
X8299Y2994D01*
X8281Y2979D01*
X8266Y2961D01*
X8254Y2941D01*
X8245Y2920D01*
X8240Y2897D01*
X8238Y2874D01*
X8240Y2851D01*
X8245Y2828D01*
X8254Y2807D01*
X8266Y2787D01*
X8281Y2769D01*
X8299Y2754D01*
X8319Y2742D01*
X8340Y2733D01*
X8363Y2728D01*
X8386Y2726D01*
X8409Y2728D01*
X8432Y2733D01*
X8453Y2742D01*
X8473Y2754D01*
X8491Y2769D01*
X8506Y2787D01*
X8518Y2807D01*
X8527Y2828D01*
X8537Y2854D01*
X8560Y2852D01*
X8583Y2854D01*
X8606Y2859D01*
X8627Y2868D01*
X8647Y2880D01*
X8665Y2895D01*
X8680Y2913D01*
X8692Y2933D01*
X8701Y2954D01*
X8706Y2977D01*
X8708Y3000D01*
X8706Y3023D01*
X8701Y3046D01*
X8692Y3067D01*
X8680Y3087D01*
X8665Y3105D01*
X8647Y3120D01*
X8627Y3132D01*
X8606Y3141D01*
X8583Y3146D01*
X8560Y3148D01*
D02*
G37*
G36*
X9380Y3038D02*
X9357Y3036D01*
X9334Y3031D01*
X9313Y3022D01*
X9293Y3010D01*
X9275Y2995D01*
X9260Y2977D01*
X9248Y2957D01*
X9239Y2936D01*
X9234Y2913D01*
X9232Y2890D01*
X9234Y2867D01*
X9239Y2844D01*
X9248Y2823D01*
X9260Y2803D01*
X9275Y2785D01*
X9293Y2770D01*
X9313Y2758D01*
X9334Y2749D01*
X9357Y2744D01*
X9380Y2742D01*
X9403Y2744D01*
X9426Y2749D01*
X9447Y2758D01*
X9467Y2770D01*
X9485Y2785D01*
X9500Y2803D01*
X9512Y2823D01*
X9521Y2844D01*
X9526Y2867D01*
X9528Y2890D01*
X9526Y2913D01*
X9521Y2936D01*
X9512Y2957D01*
X9500Y2977D01*
X9485Y2995D01*
X9467Y3010D01*
X9447Y3022D01*
X9426Y3031D01*
X9403Y3036D01*
X9380Y3038D01*
D02*
G37*
G36*
X7598Y1780D02*
X7575Y1778D01*
X7553Y1773D01*
X7531Y1764D01*
X7511Y1752D01*
X7505Y1746D01*
X7498Y1752D01*
X7479Y1764D01*
X7457Y1773D01*
X7435Y1778D01*
X7411Y1780D01*
X7388Y1778D01*
X7366Y1773D01*
X7344Y1764D01*
X7324Y1752D01*
X7318Y1746D01*
X7311Y1752D01*
X7292Y1764D01*
X7270Y1773D01*
X7248Y1778D01*
X7224Y1780D01*
X7201Y1778D01*
X7179Y1773D01*
X7157Y1764D01*
X7137Y1752D01*
X7131Y1746D01*
X7124Y1752D01*
X7105Y1764D01*
X7083Y1773D01*
X7061Y1778D01*
X7037Y1780D01*
X7014Y1778D01*
X6992Y1773D01*
X6970Y1764D01*
X6950Y1752D01*
X6933Y1736D01*
X6918Y1719D01*
X6905Y1699D01*
X6897Y1678D01*
X6891Y1655D01*
X6889Y1632D01*
X6891Y1609D01*
X6897Y1586D01*
X6905Y1565D01*
X6918Y1545D01*
X6933Y1527D01*
X6950Y1512D01*
X6970Y1500D01*
X6992Y1491D01*
X7014Y1485D01*
X7037Y1484D01*
X7061Y1485D01*
X7083Y1491D01*
X7105Y1500D01*
X7124Y1512D01*
X7131Y1517D01*
X7137Y1512D01*
X7157Y1500D01*
X7179Y1491D01*
X7201Y1485D01*
X7224Y1484D01*
X7248Y1485D01*
X7270Y1491D01*
X7292Y1500D01*
X7311Y1512D01*
X7318Y1517D01*
X7324Y1512D01*
X7344Y1500D01*
X7366Y1491D01*
X7388Y1485D01*
X7411Y1484D01*
X7435Y1485D01*
X7457Y1491D01*
X7479Y1500D01*
X7498Y1512D01*
X7505Y1517D01*
X7511Y1512D01*
X7531Y1500D01*
X7553Y1491D01*
X7575Y1485D01*
X7598Y1484D01*
X7622Y1485D01*
X7644Y1491D01*
X7666Y1500D01*
X7685Y1512D01*
X7703Y1527D01*
X7718Y1545D01*
X7730Y1565D01*
X7739Y1586D01*
X7745Y1609D01*
X7747Y1632D01*
X7745Y1655D01*
X7739Y1678D01*
X7730Y1699D01*
X7718Y1719D01*
X7703Y1736D01*
X7685Y1752D01*
X7666Y1764D01*
X7644Y1773D01*
X7622Y1778D01*
X7598Y1780D01*
D02*
G37*
G36*
X7990Y1758D02*
X7967Y1756D01*
X7944Y1751D01*
X7923Y1742D01*
X7903Y1730D01*
X7885Y1715D01*
X7870Y1697D01*
X7858Y1677D01*
X7849Y1656D01*
X7844Y1633D01*
X7842Y1610D01*
X7844Y1587D01*
X7849Y1564D01*
X7858Y1543D01*
X7870Y1523D01*
X7885Y1505D01*
X7903Y1490D01*
X7923Y1478D01*
X7944Y1469D01*
X7967Y1464D01*
X7990Y1462D01*
X8013Y1464D01*
X8036Y1469D01*
X8057Y1478D01*
X8077Y1490D01*
X8095Y1505D01*
X8110Y1523D01*
X8122Y1543D01*
X8131Y1564D01*
X8136Y1587D01*
X8138Y1610D01*
X8136Y1633D01*
X8131Y1656D01*
X8122Y1677D01*
X8110Y1697D01*
X8095Y1715D01*
X8077Y1730D01*
X8057Y1742D01*
X8036Y1751D01*
X8013Y1756D01*
X7990Y1758D01*
D02*
G37*
G36*
X12642Y487D02*
X12533D01*
Y383D01*
X12642D01*
Y487D01*
D02*
G37*
G36*
X12433D02*
X12324D01*
Y383D01*
X12433D01*
Y487D01*
D02*
G37*
G36*
X787Y3034D02*
X746Y3032D01*
X705Y3027D01*
X664Y3018D01*
X625Y3005D01*
X587Y2989D01*
X550Y2970D01*
X515Y2948D01*
X482Y2923D01*
X452Y2895D01*
X424Y2864D01*
X398Y2831D01*
X376Y2796D01*
X357Y2760D01*
X341Y2721D01*
X329Y2682D01*
X320Y2642D01*
X314Y2600D01*
X313Y2559D01*
X314Y2518D01*
X320Y2477D01*
X329Y2436D01*
X341Y2397D01*
X357Y2358D01*
X376Y2322D01*
X398Y2287D01*
X424Y2254D01*
X452Y2223D01*
X482Y2195D01*
X515Y2170D01*
X550Y2148D01*
X587Y2129D01*
X625Y2113D01*
X664Y2100D01*
X705Y2091D01*
X746Y2086D01*
X787Y2084D01*
X829Y2086D01*
X870Y2091D01*
X910Y2100D01*
X950Y2113D01*
X988Y2129D01*
X1025Y2148D01*
X1060Y2170D01*
X1093Y2195D01*
X1123Y2223D01*
X1151Y2254D01*
X1176Y2287D01*
X1199Y2322D01*
X1218Y2358D01*
X1234Y2397D01*
X1246Y2436D01*
X1255Y2477D01*
X1260Y2518D01*
X1262Y2559D01*
X1260Y2600D01*
X1255Y2642D01*
X1246Y2682D01*
X1234Y2721D01*
X1218Y2760D01*
X1199Y2796D01*
X1176Y2831D01*
X1151Y2864D01*
X1123Y2895D01*
X1093Y2923D01*
X1060Y2948D01*
X1025Y2970D01*
X988Y2989D01*
X950Y3005D01*
X910Y3018D01*
X870Y3027D01*
X829Y3032D01*
X787Y3034D01*
D02*
G37*
G36*
X3642Y2579D02*
X3607Y2577D01*
X3573Y2572D01*
X3539Y2564D01*
X3506Y2552D01*
X3474Y2537D01*
X3445Y2519D01*
X3417Y2499D01*
X3391Y2475D01*
X3368Y2449D01*
X3347Y2421D01*
X3329Y2392D01*
X3314Y2360D01*
X3302Y2327D01*
X3294Y2294D01*
X3289Y2259D01*
X3287Y2224D01*
X3289Y2190D01*
X3294Y2155D01*
X3302Y2121D01*
X3314Y2089D01*
X3329Y2057D01*
X3347Y2027D01*
X3368Y1999D01*
X3391Y1974D01*
X3417Y1950D01*
X3445Y1929D01*
X3474Y1912D01*
X3506Y1897D01*
X3539Y1885D01*
X3573Y1876D01*
X3607Y1871D01*
X3642Y1870D01*
X3677Y1871D01*
X3711Y1876D01*
X3745Y1885D01*
X3777Y1897D01*
X3809Y1912D01*
X3839Y1929D01*
X3867Y1950D01*
X3893Y1974D01*
X3916Y1999D01*
X3937Y2027D01*
X3955Y2057D01*
X3969Y2089D01*
X3981Y2121D01*
X3990Y2155D01*
X3995Y2190D01*
X3996Y2224D01*
X3995Y2259D01*
X3990Y2294D01*
X3981Y2327D01*
X3969Y2360D01*
X3955Y2392D01*
X3937Y2421D01*
X3916Y2449D01*
X3893Y2475D01*
X3867Y2499D01*
X3839Y2519D01*
X3809Y2537D01*
X3777Y2552D01*
X3745Y2564D01*
X3711Y2572D01*
X3677Y2577D01*
X3642Y2579D01*
D02*
G37*
G36*
X2854D02*
X2820Y2577D01*
X2785Y2572D01*
X2751Y2564D01*
X2719Y2552D01*
X2687Y2537D01*
X2657Y2519D01*
X2629Y2499D01*
X2603Y2475D01*
X2580Y2449D01*
X2559Y2421D01*
X2541Y2392D01*
X2527Y2360D01*
X2515Y2327D01*
X2506Y2294D01*
X2501Y2259D01*
X2500Y2224D01*
X2501Y2190D01*
X2506Y2155D01*
X2515Y2121D01*
X2527Y2089D01*
X2541Y2057D01*
X2559Y2027D01*
X2580Y1999D01*
X2603Y1974D01*
X2629Y1950D01*
X2657Y1929D01*
X2687Y1912D01*
X2719Y1897D01*
X2751Y1885D01*
X2785Y1876D01*
X2820Y1871D01*
X2854Y1870D01*
X2889Y1871D01*
X2924Y1876D01*
X2957Y1885D01*
X2990Y1897D01*
X3022Y1912D01*
X3051Y1929D01*
X3079Y1950D01*
X3105Y1974D01*
X3129Y1999D01*
X3149Y2027D01*
X3167Y2057D01*
X3182Y2089D01*
X3194Y2121D01*
X3202Y2155D01*
X3207Y2190D01*
X3209Y2224D01*
X3207Y2259D01*
X3202Y2294D01*
X3194Y2327D01*
X3182Y2360D01*
X3167Y2392D01*
X3149Y2421D01*
X3129Y2449D01*
X3105Y2475D01*
X3079Y2499D01*
X3051Y2519D01*
X3022Y2537D01*
X2990Y2552D01*
X2957Y2564D01*
X2924Y2572D01*
X2889Y2577D01*
X2854Y2579D01*
D02*
G37*
G36*
X4783Y2579D02*
X4075D01*
Y1870D01*
X4783D01*
Y1925D01*
X4833Y1948D01*
X4834Y1947D01*
X4854Y1935D01*
X4875Y1926D01*
X4898Y1921D01*
X4921Y1919D01*
X4923Y1919D01*
X5103Y1739D01*
X5097Y1688D01*
X5096Y1686D01*
X5070Y1671D01*
X5044Y1653D01*
X5021Y1632D01*
X5001Y1609D01*
X4983Y1584D01*
X4968Y1557D01*
X4956Y1528D01*
X4947Y1498D01*
X4942Y1468D01*
X4941Y1437D01*
X4942Y1406D01*
X4947Y1376D01*
X4956Y1346D01*
X4968Y1317D01*
X4983Y1290D01*
X5001Y1265D01*
X5021Y1242D01*
X5044Y1221D01*
X5070Y1203D01*
X5097Y1188D01*
X5125Y1176D01*
X5155Y1168D01*
X5186Y1163D01*
X5217Y1161D01*
X5247Y1163D01*
X5278Y1168D01*
X5308Y1176D01*
X5336Y1188D01*
X5363Y1203D01*
X5389Y1221D01*
X5412Y1242D01*
X5432Y1265D01*
X5450Y1290D01*
X5465Y1317D01*
X5477Y1346D01*
X5486Y1376D01*
X5491Y1406D01*
X5493Y1437D01*
X5491Y1468D01*
X5486Y1498D01*
X5477Y1528D01*
X5465Y1557D01*
X5450Y1584D01*
X5432Y1609D01*
X5412Y1632D01*
X5389Y1653D01*
X5363Y1671D01*
X5336Y1686D01*
X5320Y1692D01*
Y1772D01*
X5319Y1788D01*
X5315Y1804D01*
X5309Y1819D01*
X5300Y1833D01*
X5290Y1845D01*
X5235Y1899D01*
X5244Y1934D01*
X5254Y1951D01*
X5278Y1955D01*
X5308Y1964D01*
X5336Y1976D01*
X5363Y1991D01*
X5389Y2009D01*
X5412Y2029D01*
X5432Y2052D01*
X5450Y2078D01*
X5465Y2105D01*
X5477Y2133D01*
X5486Y2163D01*
X5491Y2193D01*
X5493Y2224D01*
X5491Y2255D01*
X5486Y2286D01*
X5477Y2316D01*
X5465Y2344D01*
X5450Y2371D01*
X5432Y2397D01*
X5412Y2420D01*
X5389Y2440D01*
X5363Y2458D01*
X5336Y2473D01*
X5308Y2485D01*
X5278Y2494D01*
X5247Y2499D01*
X5217Y2500D01*
X5186Y2499D01*
X5155Y2494D01*
X5125Y2485D01*
X5097Y2473D01*
X5070Y2458D01*
X5044Y2440D01*
X5021Y2420D01*
X5001Y2397D01*
X4983Y2371D01*
X4968Y2344D01*
X4956Y2316D01*
X4947Y2286D01*
X4942Y2255D01*
X4921Y2215D01*
X4898Y2213D01*
X4875Y2208D01*
X4854Y2199D01*
X4834Y2187D01*
X4833Y2186D01*
X4783Y2208D01*
Y2579D01*
D02*
G37*
G36*
X4429Y1792D02*
X4394Y1790D01*
X4360Y1785D01*
X4326Y1776D01*
X4293Y1765D01*
X4262Y1750D01*
X4232Y1732D01*
X4204Y1711D01*
X4178Y1688D01*
X4155Y1662D01*
X4134Y1634D01*
X4116Y1604D01*
X4101Y1573D01*
X4090Y1540D01*
X4081Y1506D01*
X4076Y1472D01*
X4074Y1437D01*
X4076Y1402D01*
X4081Y1368D01*
X4090Y1334D01*
X4101Y1301D01*
X4116Y1270D01*
X4134Y1240D01*
X4155Y1212D01*
X4178Y1186D01*
X4204Y1163D01*
X4232Y1142D01*
X4262Y1124D01*
X4293Y1109D01*
X4326Y1098D01*
X4360Y1089D01*
X4394Y1084D01*
X4429Y1082D01*
X4464Y1084D01*
X4498Y1089D01*
X4532Y1098D01*
X4565Y1109D01*
X4596Y1124D01*
X4626Y1142D01*
X4654Y1163D01*
X4680Y1186D01*
X4703Y1212D01*
X4724Y1240D01*
X4742Y1270D01*
X4757Y1301D01*
X4769Y1334D01*
X4777Y1368D01*
X4782Y1402D01*
X4784Y1437D01*
X4782Y1472D01*
X4777Y1506D01*
X4769Y1540D01*
X4757Y1573D01*
X4742Y1604D01*
X4724Y1634D01*
X4703Y1662D01*
X4680Y1688D01*
X4654Y1711D01*
X4626Y1732D01*
X4596Y1750D01*
X4565Y1765D01*
X4532Y1776D01*
X4498Y1785D01*
X4464Y1790D01*
X4429Y1792D01*
D02*
G37*
G36*
X3642D02*
X3607Y1790D01*
X3573Y1785D01*
X3539Y1776D01*
X3506Y1765D01*
X3474Y1750D01*
X3445Y1732D01*
X3417Y1711D01*
X3391Y1688D01*
X3368Y1662D01*
X3347Y1634D01*
X3329Y1604D01*
X3314Y1573D01*
X3302Y1540D01*
X3294Y1506D01*
X3289Y1472D01*
X3287Y1437D01*
X3289Y1402D01*
X3294Y1368D01*
X3302Y1334D01*
X3314Y1301D01*
X3329Y1270D01*
X3347Y1240D01*
X3368Y1212D01*
X3391Y1186D01*
X3417Y1163D01*
X3445Y1142D01*
X3474Y1124D01*
X3506Y1109D01*
X3539Y1098D01*
X3573Y1089D01*
X3607Y1084D01*
X3642Y1082D01*
X3677Y1084D01*
X3711Y1089D01*
X3745Y1098D01*
X3777Y1109D01*
X3809Y1124D01*
X3839Y1142D01*
X3867Y1163D01*
X3893Y1186D01*
X3916Y1212D01*
X3937Y1240D01*
X3955Y1270D01*
X3969Y1301D01*
X3981Y1334D01*
X3990Y1368D01*
X3995Y1402D01*
X3996Y1437D01*
X3995Y1472D01*
X3990Y1506D01*
X3981Y1540D01*
X3969Y1573D01*
X3955Y1604D01*
X3937Y1634D01*
X3916Y1662D01*
X3893Y1688D01*
X3867Y1711D01*
X3839Y1732D01*
X3809Y1750D01*
X3777Y1765D01*
X3745Y1776D01*
X3711Y1785D01*
X3677Y1790D01*
X3642Y1792D01*
D02*
G37*
G36*
X2854D02*
X2820Y1790D01*
X2785Y1785D01*
X2751Y1776D01*
X2719Y1765D01*
X2687Y1750D01*
X2657Y1732D01*
X2629Y1711D01*
X2603Y1688D01*
X2580Y1662D01*
X2559Y1634D01*
X2541Y1604D01*
X2527Y1573D01*
X2515Y1540D01*
X2506Y1506D01*
X2501Y1472D01*
X2500Y1437D01*
X2501Y1402D01*
X2506Y1368D01*
X2515Y1334D01*
X2527Y1301D01*
X2541Y1270D01*
X2559Y1240D01*
X2580Y1212D01*
X2603Y1186D01*
X2629Y1163D01*
X2657Y1142D01*
X2687Y1124D01*
X2719Y1109D01*
X2751Y1098D01*
X2785Y1089D01*
X2820Y1084D01*
X2854Y1082D01*
X2889Y1084D01*
X2924Y1089D01*
X2957Y1098D01*
X2990Y1109D01*
X3022Y1124D01*
X3051Y1142D01*
X3079Y1163D01*
X3105Y1186D01*
X3129Y1212D01*
X3149Y1240D01*
X3167Y1270D01*
X3182Y1301D01*
X3194Y1334D01*
X3202Y1368D01*
X3207Y1402D01*
X3209Y1437D01*
X3207Y1472D01*
X3202Y1506D01*
X3194Y1540D01*
X3182Y1573D01*
X3167Y1604D01*
X3149Y1634D01*
X3129Y1662D01*
X3105Y1688D01*
X3079Y1711D01*
X3051Y1732D01*
X3022Y1750D01*
X2990Y1765D01*
X2957Y1776D01*
X2924Y1785D01*
X2889Y1790D01*
X2854Y1792D01*
D02*
G37*
G36*
X1378Y2067D02*
X1329Y2066D01*
X1280Y2060D01*
X1231Y2052D01*
X1184Y2039D01*
X1137Y2024D01*
X1092Y2005D01*
X1048Y1983D01*
X1005Y1958D01*
X965Y1930D01*
X926Y1899D01*
X890Y1865D01*
X857Y1829D01*
X826Y1791D01*
X798Y1751D01*
X773Y1708D01*
X751Y1664D01*
X732Y1619D01*
X716Y1572D01*
X704Y1524D01*
X696Y1476D01*
X690Y1427D01*
X689Y1378D01*
X690Y1329D01*
X696Y1280D01*
X704Y1231D01*
X716Y1184D01*
X732Y1137D01*
X751Y1092D01*
X773Y1048D01*
X798Y1005D01*
X826Y965D01*
X857Y926D01*
X890Y890D01*
X926Y857D01*
X965Y826D01*
X1005Y798D01*
X1048Y773D01*
X1092Y751D01*
X1137Y732D01*
X1184Y716D01*
X1231Y704D01*
X1280Y696D01*
X1329Y690D01*
X1378Y689D01*
X1427Y690D01*
X1476Y696D01*
X1525Y704D01*
X1572Y716D01*
X1619Y732D01*
X1664Y751D01*
X1708Y773D01*
X1751Y798D01*
X1791Y826D01*
X1829Y857D01*
X1865Y890D01*
X1899Y926D01*
X1930Y965D01*
X1958Y1005D01*
X1983Y1048D01*
X2005Y1092D01*
X2024Y1137D01*
X2039Y1184D01*
X2052Y1231D01*
X2060Y1280D01*
X2066Y1329D01*
X2067Y1378D01*
X2066Y1427D01*
X2060Y1476D01*
X2052Y1524D01*
X2039Y1572D01*
X2024Y1619D01*
X2005Y1664D01*
X1983Y1708D01*
X1958Y1751D01*
X1930Y1791D01*
X1899Y1829D01*
X1865Y1865D01*
X1829Y1899D01*
X1791Y1930D01*
X1751Y1958D01*
X1708Y1983D01*
X1664Y2005D01*
X1619Y2024D01*
X1572Y2039D01*
X1525Y2052D01*
X1476Y2060D01*
X1427Y2066D01*
X1378Y2067D01*
D02*
G37*
%LPD*%
D10*
X5906Y7726D02*
Y7766D01*
X5679Y7992D02*
X5906Y7766D01*
X5098Y7746D02*
X5118Y7726D01*
X5098Y7746D02*
Y7992D01*
X4102Y10471D02*
X4284Y10290D01*
X4101Y10472D02*
X4102Y10471D01*
X3840Y10472D02*
X4101D01*
X4284Y10290D02*
X4300D01*
X1558Y14132D02*
X1740Y13950D01*
X1558Y14132D02*
Y14582D01*
X1526Y14614D02*
X1558Y14582D01*
D11*
X10117Y14643D02*
X10393Y14367D01*
X10117Y14643D02*
Y15273D01*
X6620Y8549D02*
X6801D01*
X6378Y8307D02*
X6620Y8549D01*
X7677Y8159D02*
X7951D01*
X8100Y8010D01*
X6801Y8269D02*
Y8549D01*
X6803Y8237D02*
X6811Y8228D01*
X6803Y8237D02*
Y8267D01*
X6801Y8269D02*
X6803Y8267D01*
X6333Y8263D02*
X6378Y8307D01*
X6122Y8263D02*
X6333D01*
X6105Y8246D02*
X6122Y8263D01*
X5458D02*
X5475Y8246D01*
X5197Y8307D02*
X5241Y8263D01*
X5458D01*
X5954Y8652D02*
X6053Y8751D01*
X5459Y8652D02*
X5954D01*
X5355Y8750D02*
X5839D01*
X5920Y8831D01*
X5212Y8691D02*
Y8865D01*
X5414Y8607D02*
X5459Y8652D01*
X5296Y8607D02*
X5414D01*
X5212Y8691D02*
X5296Y8607D01*
X5972Y4192D02*
Y4342D01*
X5720Y3940D02*
X5972Y4192D01*
X6070Y4301D02*
X6152Y4383D01*
X6070Y4151D02*
Y4301D01*
X5761Y3842D02*
X6070Y4151D01*
X6148Y4090D02*
X6670D01*
X5802Y3743D02*
X6148Y4090D01*
X4723Y3743D02*
X5802D01*
X2765Y5128D02*
X2812Y5080D01*
X2765Y5128D02*
Y5473D01*
X2482Y5980D02*
X2697Y5764D01*
Y5541D02*
Y5764D01*
Y5541D02*
X2765Y5473D01*
X5972Y4342D02*
X6204Y4574D01*
X4490Y3940D02*
X5720D01*
X4614Y3842D02*
X5761D01*
X3513Y3323D02*
X3840Y3650D01*
X4630D02*
X4723Y3743D01*
X3840Y3650D02*
X4630D01*
X4570Y3797D02*
X4614Y3842D01*
X4373Y3823D02*
X4490Y3940D01*
X3238Y3823D02*
X4373D01*
X4193Y4477D02*
X4362Y4308D01*
X6670Y4090D02*
X6794Y4214D01*
X6152Y4383D02*
X6413D01*
X6519Y4489D02*
Y4585D01*
X6413Y4383D02*
X6519Y4489D01*
X6361Y4585D02*
Y4699D01*
X6210Y4850D02*
X6361Y4699D01*
X6428Y4810D02*
X6626D01*
X6249Y4989D02*
X6428Y4810D01*
X5958Y4989D02*
X6249D01*
X6676Y4327D02*
Y4760D01*
X6626Y4810D02*
X6676Y4760D01*
Y4966D02*
Y5235D01*
X6670Y4960D02*
X6676Y4966D01*
X7081Y4831D02*
X7140Y4890D01*
X7230D01*
X6922Y4831D02*
X7081D01*
X6204Y4574D02*
Y4585D01*
X6794Y4214D02*
Y4545D01*
X6599Y4250D02*
X6676Y4327D01*
X2580Y6021D02*
Y6282D01*
X2491Y6371D02*
X2580Y6282D01*
X2090Y6130D02*
X2110Y6150D01*
Y6308D01*
X2352D01*
X2482Y6178D01*
Y5980D02*
Y6178D01*
X2681Y6059D02*
X3020Y5720D01*
X2681Y6059D02*
Y6687D01*
X2730Y6736D01*
Y6760D01*
X2580Y6021D02*
X2840Y5761D01*
Y5600D02*
Y5761D01*
X4622Y8832D02*
X4760Y8970D01*
Y9030D01*
X4930Y9200D01*
X4588Y8832D02*
X4622D01*
X4930Y9200D02*
X4988D01*
X4588Y8692D02*
Y8832D01*
Y8692D02*
X4700Y8580D01*
X4930D01*
X5060Y8710D01*
X5212Y8865D02*
X5360Y9013D01*
X2610Y3430D02*
X3003Y3823D01*
X3238D01*
X2610Y3160D02*
Y3430D01*
X4193Y4477D02*
Y5070D01*
X4103Y5160D02*
X4193Y5070D01*
X6494Y14773D02*
Y14910D01*
X11947Y13398D02*
X12253D01*
X13492D01*
X11397D02*
X11703D01*
X11947D01*
X10722D02*
X11397D01*
X5648Y5841D02*
X5707Y5900D01*
X5587Y5780D02*
X5648Y5841D01*
X14331Y4331D02*
X14591Y4071D01*
X13719Y4331D02*
X14331D01*
X14591Y3970D02*
X14592Y3969D01*
X14591Y3970D02*
Y4071D01*
X13420Y4630D02*
X13719Y4331D01*
X14579Y3955D02*
X14592Y3942D01*
X13420Y4630D02*
Y5415D01*
X6080Y5900D02*
X6170Y5990D01*
X5973Y5900D02*
X6080D01*
X3950Y5330D02*
X4110D01*
X4260Y5180D01*
X3790Y5160D02*
Y5610D01*
Y5160D02*
X4103D01*
X5587Y5551D02*
Y5780D01*
X4260Y5180D02*
X5216D01*
X5587Y5551D01*
X5730Y5522D02*
Y5570D01*
Y5522D02*
X5958Y5295D01*
X10393Y14367D02*
X11693D01*
X6990Y6460D02*
Y6510D01*
X6908Y6378D02*
X6990Y6460D01*
X6088Y6530D02*
X6160D01*
X5644Y6834D02*
X6099Y6380D01*
X6383D01*
X5014Y6834D02*
X5644D01*
X5685Y6933D02*
X6088Y6530D01*
X4974Y6933D02*
X5685D01*
X3610Y5569D02*
X4974Y6933D01*
X3790Y5610D02*
X5014Y6834D01*
X3238Y5323D02*
X3453D01*
X3610Y5480D02*
Y5569D01*
X3453Y5323D02*
X3610Y5480D01*
X2812Y5080D02*
X3710D01*
X3790Y5160D01*
X6777Y6378D02*
X6908D01*
X6777Y6082D02*
X6780Y6079D01*
Y5860D02*
Y6079D01*
X6170Y5990D02*
X6262Y6082D01*
X6383D01*
X6519Y5235D02*
Y5459D01*
X1930Y8355D02*
Y8540D01*
X1808Y8233D02*
X1930Y8355D01*
X2110Y8151D02*
Y8600D01*
Y8151D02*
X2167Y8094D01*
X1984Y7346D02*
X2167D01*
X1808Y7522D02*
X1984Y7346D01*
X1808Y7522D02*
Y8233D01*
X13391Y5512D02*
X13460D01*
X13125D02*
X13391D01*
X12621Y5750D02*
X12859Y5512D01*
X10208Y5750D02*
X12621D01*
X9848Y5390D02*
X10208Y5750D01*
X8590Y5390D02*
X9848D01*
X11506Y5150D02*
Y5440D01*
X13782Y5391D02*
X13881Y5292D01*
X13723Y5450D02*
X13782Y5391D01*
X13881Y5138D02*
Y5292D01*
X10910Y5150D02*
X11506D01*
X11737Y5100D02*
X11889Y4948D01*
X11506Y5150D02*
X11687D01*
X11737Y5100D01*
X10860D02*
X10910Y5150D01*
X11506Y4259D02*
Y4550D01*
X11687D01*
X10910D02*
X11506D01*
X11687D02*
X11737Y4600D01*
X10860D02*
X10910Y4550D01*
X11888Y4751D02*
X12561D01*
X11737Y4600D02*
X11888Y4751D01*
X11889Y4948D02*
X12642D01*
X11506Y4850D02*
X12602D01*
X10860D02*
X11506D01*
X10860Y4850D02*
X10860Y4850D01*
X12929Y3401D02*
Y4662D01*
X12642Y4949D02*
X12929Y4662D01*
X12831Y3442D02*
Y4621D01*
X12602Y4850D02*
X12831Y4621D01*
X12732Y3483D02*
Y4580D01*
X12561Y4751D02*
X12732Y4580D01*
X10662Y4850D02*
X10860D01*
X10662Y5100D02*
X10860D01*
X10662Y4600D02*
X10860D01*
X14275Y4853D02*
X14458D01*
X14275Y5138D02*
X14275Y5138D01*
X14459D01*
X13878Y4850D02*
X13881Y4853D01*
X13577Y4850D02*
X13878D01*
X12621Y2261D02*
Y3094D01*
X12929Y3401D01*
X12685Y2197D02*
X12819D01*
X12621Y2261D02*
X12685Y2197D01*
X12819D02*
X13050Y1966D01*
Y1951D02*
Y1966D01*
X13020Y1821D02*
Y1921D01*
X13050Y1951D01*
X12425Y3175D02*
X12732Y3483D01*
X12425Y2180D02*
Y3175D01*
X12675Y1951D02*
X12705Y1921D01*
X12653Y1951D02*
X12675D01*
X12425Y2180D02*
X12653Y1951D01*
X12705Y1821D02*
Y1921D01*
X12523Y3134D02*
X12831Y3442D01*
X12523Y2220D02*
Y3134D01*
X12645Y2099D02*
X12778D01*
X12523Y2220D02*
X12645Y2099D01*
X12778D02*
X12863Y2014D01*
Y1951D02*
Y2014D01*
Y1821D02*
Y1951D01*
X7930Y3740D02*
X8310D01*
X2110Y6532D02*
Y7073D01*
X5732Y9200D02*
X5932D01*
X5988D01*
X6082Y9294D01*
X13968Y11277D02*
X14715Y12025D01*
X13968Y11199D02*
Y11277D01*
X14715Y12025D02*
Y13542D01*
X14617Y12066D02*
Y13501D01*
X13790Y11238D02*
X14617Y12066D01*
X14518Y12106D02*
Y13461D01*
X13691Y11279D02*
X14518Y12106D01*
X13691Y11021D02*
Y11279D01*
X14081Y13650D02*
X14190D01*
X13530Y11257D02*
X14420Y12147D01*
X13317Y13497D02*
X13928D01*
X14081Y13650D01*
X14190D02*
X14420Y13420D01*
Y12147D02*
Y13420D01*
X14156Y13823D02*
X14518Y13461D01*
X5920Y8831D02*
Y9188D01*
X5932Y9200D01*
X5456Y8917D02*
X5732D01*
X14085Y14033D02*
X14617Y13501D01*
X14010Y14247D02*
X14715Y13542D01*
X13930Y13703D02*
X13994Y13768D01*
Y13770D02*
X14040Y13816D01*
X13431Y13703D02*
X13930D01*
X13994Y13768D02*
Y13770D01*
X14040Y13816D02*
Y13840D01*
X14057Y13823D01*
X14156D01*
X13530Y11120D02*
Y11257D01*
X13778Y15674D02*
X13866D01*
X13539D02*
X13778D01*
X13492Y13398D02*
X13540Y13350D01*
X10591Y11181D02*
X10740D01*
X10581D02*
X10591D01*
X12634Y15864D02*
X12790Y16020D01*
X12634Y15786D02*
Y15864D01*
X12773Y19205D02*
X12845D01*
X12630Y19062D02*
X12773Y19205D01*
X14030Y19201D02*
X14178Y19349D01*
X14030Y19200D02*
Y19201D01*
X14100Y15864D02*
X14178Y15786D01*
X14100Y15864D02*
Y15930D01*
X10373Y14627D02*
X10480Y14520D01*
X11520Y14657D02*
X11690D01*
X10983Y14647D02*
X11505D01*
X11516Y14653D02*
X11520Y14657D01*
X11505Y14653D02*
X11516D01*
X11505Y14647D02*
Y14653D01*
X10680Y14750D02*
X10920Y14510D01*
X11570D01*
X10870Y14760D02*
X10983Y14647D01*
X11077Y14878D02*
X11151Y14804D01*
X11570D01*
X11630Y15183D02*
X11690Y15123D01*
Y14951D02*
Y15123D01*
X11437Y13650D02*
X11523D01*
X11270D02*
X11437D01*
X11523D02*
X11550Y13623D01*
X12790Y16020D02*
X12880Y15930D01*
X13034D01*
X12790Y16020D02*
Y16290D01*
X12930Y16430D01*
X13070D01*
X13013Y13728D02*
Y13953D01*
X13090Y14030D01*
X12703Y14230D02*
X13010D01*
X12239Y13623D02*
X12373D01*
X12100D02*
X12139D01*
X10620Y13500D02*
X10722Y13398D01*
X10373Y14627D02*
Y14986D01*
X12139Y13623D02*
X12239D01*
X12000D02*
X12100D01*
X12580Y13830D02*
X12697D01*
X12373Y13623D02*
X12580Y13830D01*
X1850Y13134D02*
X2026Y13310D01*
X1850Y13000D02*
Y13134D01*
X1300Y13200D02*
X1520D01*
X1100Y13000D02*
X1300Y13200D01*
X780Y13430D02*
X1590D01*
X350Y13000D02*
X780Y13430D01*
X5484Y15209D02*
X5994D01*
X6095Y15107D01*
X13013Y13640D02*
Y13728D01*
X8440Y8020D02*
X8450Y8010D01*
X8610Y7850D01*
X8422Y8010D02*
X8450D01*
X8100D02*
X8198D01*
X13968Y10539D02*
Y10659D01*
X13840Y10411D02*
X13968Y10539D01*
X13770Y10682D02*
X13968Y10880D01*
X13770Y10660D02*
Y10682D01*
X5626Y10173D02*
X5680Y10227D01*
X5490Y10300D02*
X5510Y10320D01*
X5436Y10173D02*
X5626D01*
X5312Y10300D02*
X5490D01*
X5312Y10050D02*
X5436Y10173D01*
X4988Y9456D02*
X5291D01*
X5360Y9387D01*
Y9620D01*
X5440Y9700D01*
X5520D01*
X5360Y9013D02*
X5456Y8917D01*
X13034Y15930D02*
X13098D01*
X13842D02*
X14100D01*
X14010Y14247D02*
Y15530D01*
X13470Y15743D02*
X13539Y15674D01*
X13866D02*
X14010Y15530D01*
X13778Y19205D02*
X13783Y19200D01*
X14030D01*
X12845Y19205D02*
X13034D01*
X5217Y1437D02*
Y1772D01*
X4921Y2067D02*
X5217Y1772D01*
X11484Y11181D02*
X11604D01*
X11465D02*
X11484D01*
X10740D02*
X10760D01*
X11668Y10753D02*
Y11117D01*
X11526Y10610D02*
X11668Y10753D01*
X12726Y10709D02*
X13219D01*
X12175Y10157D02*
X12726Y10709D01*
X13219D02*
X13337Y10827D01*
Y11102D01*
X13258Y11181D02*
X13337Y11102D01*
X11604Y11181D02*
X11668Y11117D01*
X13079Y11181D02*
X13258D01*
X12156D02*
X12335D01*
X13210Y13604D02*
X13317Y13497D01*
X13210Y13604D02*
Y13728D01*
X13600Y10930D02*
X13691Y11021D01*
X13790Y10910D02*
Y11238D01*
X14020Y14033D02*
X14085D01*
X13717D02*
X14020D01*
X13968Y10880D02*
Y10929D01*
X11387Y15183D02*
X11630D01*
X13407Y13728D02*
X13431Y13703D01*
X10870Y14760D02*
Y14860D01*
X10680Y14750D02*
Y14870D01*
X8610Y7850D02*
X8860D01*
X4575Y15530D02*
Y15562D01*
X4381Y15756D02*
X4575Y15562D01*
X4196Y15940D02*
X4381Y15756D01*
X4381D01*
X3290Y15940D02*
X4196D01*
X3170Y16060D02*
X3290Y15940D01*
X3393Y16039D02*
X4237D01*
X4733Y15543D01*
X3182Y16250D02*
X3393Y16039D01*
X4733Y15530D02*
Y15543D01*
X3160Y16250D02*
X3182D01*
X9197Y12638D02*
X9409D01*
X9197Y12953D02*
X9409D01*
X10373Y14986D02*
X10380Y14979D01*
X10117Y15273D02*
X10190Y15346D01*
X10339D01*
X10373Y15380D01*
X5333Y15057D02*
X5484Y15209D01*
X5205Y15057D02*
X5333D01*
X6095Y15107D02*
X6296D01*
X6494Y14910D01*
X3332Y17033D02*
X3505Y16859D01*
X3311Y16400D02*
X3535Y16176D01*
X2420Y15650D02*
X2460D01*
X2553Y15557D01*
X2955Y15645D02*
X3953D01*
X2553Y15557D02*
X2867D01*
X2955Y15645D01*
X4041Y15744D02*
X4412Y15372D01*
X2724Y15744D02*
X4041D01*
X3953Y15645D02*
X4383Y15215D01*
X4418D01*
X2756Y16929D02*
X2860Y17033D01*
X3332D01*
X3505Y16345D02*
Y16859D01*
Y16345D02*
X3541Y16309D01*
X4562Y14050D02*
X4650D01*
X4690Y14010D01*
X8203Y3930D02*
X8479Y4207D01*
X8529D01*
X8005D02*
X8079D01*
X7788Y3990D02*
X8005Y4207D01*
X7519Y4041D02*
Y4097D01*
X7629Y4207D01*
X7179Y4107D02*
X7246Y4040D01*
X7179Y4107D02*
Y4207D01*
X2680Y15700D02*
X2724Y15744D01*
X3138Y15842D02*
X4155D01*
X5958Y5146D02*
Y5295D01*
X4361Y16456D02*
X4601D01*
X3090Y15890D02*
X3138Y15842D01*
X3535Y16176D02*
X3931D01*
X2756Y16142D02*
X3014Y16400D01*
X3311D01*
X3541Y16309D02*
X4044D01*
X4155Y15842D02*
X4418Y15580D01*
X3641Y16681D02*
Y16826D01*
X3881Y16681D02*
Y16826D01*
X4044Y16309D02*
X4064Y16289D01*
X4601Y16681D02*
Y16826D01*
X4361Y16681D02*
Y16826D01*
X4412Y15372D02*
X4418D01*
Y15530D02*
Y15580D01*
X3238Y3220D02*
Y3323D01*
X7376Y4711D02*
X7615Y4473D01*
X7629D01*
X7750Y3990D02*
X7788D01*
X7930Y3930D02*
X8203D01*
X7246Y4040D02*
X7310D01*
X6241Y5575D02*
X6361Y5455D01*
X5921Y5575D02*
X6241D01*
X6794Y4545D02*
X6922Y4674D01*
X5958Y4560D02*
Y4674D01*
X6361Y5235D02*
Y5455D01*
X3238Y3323D02*
X3513D01*
D12*
X15203Y16283D02*
G03*
X16326Y15181I2238J1158D01*
G01*
X15091Y17441D02*
G03*
X17033Y15127I2350J0D01*
G01*
X9870Y5614D02*
X10136Y5880D01*
X13670D01*
X6962Y8228D02*
Y9650D01*
Y7709D02*
Y8071D01*
X6969D02*
X7169D01*
X7221Y8060D02*
X7224Y8057D01*
X7180Y8060D02*
X7221D01*
X7169Y8071D02*
X7180Y8060D01*
X6969Y8228D02*
X7165D01*
X7218Y8281D02*
X7224D01*
X7165Y8228D02*
X7218Y8281D01*
X7012Y7709D02*
X7926Y6794D01*
X3270Y5730D02*
Y6215D01*
X3624Y6569D01*
Y6589D01*
X3625Y6590D01*
X3645D01*
X9910Y14190D02*
X11780D01*
X10210Y13850D02*
X11910D01*
X10040Y14020D02*
X10210Y13850D01*
X10300Y14020D02*
X11830D01*
X9612Y17102D02*
X9660D01*
X7196Y6673D02*
Y6715D01*
Y5236D02*
Y6673D01*
X13670Y5880D02*
X13720Y5830D01*
X8690Y6794D02*
X9870Y5614D01*
X14076Y5430D02*
X14078Y5427D01*
Y5138D02*
Y5427D01*
X14093Y17806D02*
X14564D01*
X13750Y18150D02*
X14093Y17806D01*
X13547Y18150D02*
X13750D01*
X14450Y18480D02*
X14583Y18613D01*
X14140Y18480D02*
X14450D01*
X14309Y18161D02*
X14564D01*
X16326Y14708D02*
Y15181D01*
X14227Y16283D02*
X15203D01*
X14323Y16743D02*
X14513D01*
X16326Y14708D02*
X16467Y14567D01*
X13480Y15180D02*
X13717Y14943D01*
X11280Y16218D02*
X11330Y16168D01*
X15091Y17441D02*
Y18876D01*
X15038Y18930D02*
X15091Y18876D01*
X17501Y14576D02*
Y15071D01*
X17860Y14571D02*
Y15071D01*
X14051Y19700D02*
X14178Y19573D01*
X13850Y19700D02*
X14051D01*
X14000Y19500D02*
X14073Y19573D01*
X13961Y19461D02*
X14000Y19500D01*
X13778Y19461D02*
X13961D01*
X14073Y19573D02*
X14178D01*
X12762Y18838D02*
X12850Y18750D01*
X12630Y18838D02*
X12762D01*
X12630Y18670D02*
X12700Y18600D01*
X12630Y18670D02*
Y18838D01*
X6151Y9518D02*
X6300Y9370D01*
X6082Y9518D02*
X6151D01*
X5900Y9700D02*
X5900D01*
X6082Y9518D01*
X13090Y17450D02*
X13153Y17513D01*
X13100Y17800D02*
X13153D01*
X12812Y18088D02*
X13100Y17800D01*
X12812Y18088D02*
Y18238D01*
X12450Y18600D02*
X12812Y18238D01*
X12450Y18600D02*
Y19150D01*
X12761Y19461D02*
X13034D01*
X12450Y19150D02*
X12761Y19461D01*
X10090Y15580D02*
X10093Y15577D01*
X10373D01*
X11151Y16347D02*
X11280Y16218D01*
X10927Y16347D02*
X11151D01*
X11280Y16218D02*
X11330D01*
Y15831D02*
Y16168D01*
X10798Y16218D02*
X10927Y16347D01*
X10683Y16218D02*
X10798D01*
X13208Y15068D02*
X13320Y15180D01*
X13717Y14624D02*
Y14943D01*
X13320Y15180D02*
X13480D01*
X13010Y15068D02*
X13208D01*
X8465Y12638D02*
X8775D01*
X8297D02*
X8465D01*
X7985Y12105D02*
X8113Y11978D01*
X6880Y12920D02*
X6910Y12950D01*
X12200Y14140D02*
Y14750D01*
X11910Y13850D02*
X12200Y14140D01*
X12040Y14230D02*
Y17100D01*
X11830Y14020D02*
X12040Y14230D01*
Y17100D02*
X12180Y17240D01*
X11870Y14280D02*
Y15890D01*
X11542Y16218D02*
X11870Y15890D01*
X11330Y15831D02*
X11387Y15774D01*
X11330Y16218D02*
X11330Y16218D01*
X11542D01*
X11780Y14190D02*
X11870Y14280D01*
X13438Y16149D02*
X13470Y16117D01*
X13337Y16186D02*
X13406Y16117D01*
X13272Y16251D02*
X13337Y16186D01*
X13098D02*
X13337D01*
X13272Y16251D02*
Y16598D01*
X13153Y16717D02*
X13272Y16598D01*
X13153Y16717D02*
Y16750D01*
X7985Y12511D02*
X8141Y12667D01*
Y12680D01*
X8144Y12683D01*
X8150D01*
X7985Y12105D02*
Y12511D01*
X8113Y11978D02*
X8146D01*
X8150Y11974D01*
X4715Y10300D02*
X5088D01*
X4465Y10050D02*
X5088D01*
X6883Y14283D02*
X7015D01*
X6910Y12950D02*
Y13770D01*
X6770Y13910D02*
X6910Y13770D01*
X3674Y13970D02*
X3928Y13716D01*
X4599D01*
Y13836D01*
X12558Y15108D02*
X12830D01*
X12200Y14750D02*
X12558Y15108D01*
X7150Y10760D02*
Y10980D01*
X12830Y15108D02*
X12870Y15068D01*
X13010D01*
X9764Y9143D02*
Y9311D01*
X7430Y10280D02*
X7650D01*
X7430Y10080D02*
X7650D01*
X12443Y9227D02*
X13307D01*
X11800Y9870D02*
X12443Y9227D01*
X12312Y9078D02*
X13880D01*
X11520Y9870D02*
X12312Y9078D01*
X7430Y9880D02*
X7650D01*
X13880Y9075D02*
X14262D01*
X14630Y9950D02*
X14852Y10172D01*
X13307Y9227D02*
X14030Y9950D01*
X14630D01*
X14852Y10172D02*
Y10463D01*
X7926Y6794D02*
X8690D01*
X6880Y14100D02*
X7030D01*
X13150Y18580D02*
X13519Y18949D01*
X13778D01*
X13034Y19461D02*
X13337D01*
X13406Y19392D01*
X8630Y12328D02*
X8730Y12428D01*
X8153Y12911D02*
Y13087D01*
X8499Y12988D02*
X8680D01*
X8160Y12210D02*
Y12388D01*
X8469Y12328D02*
X8630D01*
X9407Y11795D02*
Y12006D01*
X8431Y11974D02*
X8465Y12008D01*
X8150Y11974D02*
X8431D01*
X8255Y12680D02*
X8297Y12638D01*
X8153Y12680D02*
X8255D01*
X8150Y12683D02*
X8153Y12680D01*
X8775Y12638D02*
X9090Y12323D01*
X9409D01*
X5520Y15420D02*
X5680D01*
X10683Y15882D02*
Y16215D01*
X5209Y15215D02*
X5315D01*
X5520Y15420D01*
X5207Y15368D02*
X5248D01*
X17050Y15120D02*
X17156Y15015D01*
X4120Y16840D02*
X4121Y16839D01*
Y16681D02*
Y16839D01*
X4599Y13596D02*
Y13716D01*
X6322Y15690D02*
X6331Y15681D01*
X5570Y15690D02*
X6322D01*
X5248Y15368D02*
X5570Y15690D01*
X12245Y1755D02*
X12530D01*
X12243Y1757D02*
X12245Y1755D01*
X13010Y15068D02*
X13013Y15065D01*
Y14732D02*
Y15065D01*
X3975Y6590D02*
Y7048D01*
X3947Y7077D02*
X3975Y7048D01*
X14140Y16560D02*
X14323Y16743D01*
X14140Y16370D02*
Y16560D01*
Y16370D02*
X14227Y16283D01*
X14140Y18330D02*
X14309Y18161D01*
X14140Y18330D02*
Y18480D01*
X16467Y14567D02*
X16801D01*
Y14100D02*
Y14469D01*
Y14100D02*
X16970Y13932D01*
X18050D01*
X18218Y14100D01*
Y14469D01*
Y14567D02*
X18337Y14685D01*
X18671D01*
X13547Y16750D02*
X13820D01*
X17501Y14576D02*
X17510Y14567D01*
X17860Y14571D02*
X17864Y14567D01*
X13150Y18503D02*
Y18580D01*
X13547Y17800D02*
X13820D01*
X13547Y17100D02*
X14561D01*
X14564Y17098D01*
X13547Y17450D02*
X14562D01*
X14564Y17452D01*
X17156Y14567D02*
Y15015D01*
X13547Y18500D02*
X13770D01*
X8672Y16403D02*
X9494D01*
X5819Y4831D02*
X6008D01*
X13090Y17450D02*
X13153D01*
Y17513D02*
Y17800D01*
Y16750D02*
Y17100D01*
X13150Y18503D02*
X13153Y18500D01*
Y18150D02*
Y18500D01*
X13770D02*
X14200Y18930D01*
X15038D01*
X9494Y16403D02*
X9499Y16398D01*
X14262Y9272D02*
Y9469D01*
X13911Y9272D02*
X14262D01*
X13880Y9302D02*
X13911Y9272D01*
D13*
X12253Y13398D02*
G03*
X12254Y13400I-153J85D01*
G01*
X11946D02*
G03*
X11947Y13398I154J83D01*
G01*
X11703D02*
G03*
X11704Y13400I-153J85D01*
G01*
X11396D02*
G03*
X11397Y13398I154J83D01*
G01*
X11947D02*
G03*
X12253Y13398I153J85D01*
G01*
X11397D02*
G03*
X11703Y13398I153J85D01*
G01*
X5770Y6069D02*
G03*
X5648Y5841I44J-170D01*
G01*
D02*
G03*
X5770Y5731I165J59D01*
G01*
X5910D02*
G03*
X5910Y6069I-44J170D01*
G01*
X13391Y5512D02*
G03*
X13420Y5415I175J0D01*
G01*
X13522Y5681D02*
G03*
X13391Y5512I44J-170D01*
G01*
X13420Y5415D02*
G03*
X13522Y5342I146J97D01*
G01*
X13764Y5453D02*
G03*
X13643Y5681I-165J59D01*
G01*
Y5342D02*
G03*
X13764Y5453I-44J170D01*
G01*
X13062Y5342D02*
G03*
X13062Y5681I-44J170D01*
G01*
X12922D02*
G03*
X12922Y5342I44J-170D01*
G01*
X3769Y13100D02*
G03*
X3431Y13100I-170J-44D01*
G01*
Y12960D02*
G03*
X3769Y12960I170J44D01*
G01*
X2864Y12850D02*
G03*
X2970Y12970I-64J163D01*
G01*
X2630D02*
G03*
X2864Y12850I170J44D01*
G01*
X2737Y13210D02*
G03*
X2630Y13090I63J-163D01*
G01*
X2800Y13222D02*
G03*
X2737Y13210I0J-175D01*
G01*
X2970Y13090D02*
G03*
X2800Y13222I-170J-44D01*
G01*
X7349Y4410D02*
G03*
X7010Y4410I-170J-44D01*
G01*
Y4270D02*
G03*
X7349Y4270I170J44D01*
G01*
X9149Y4410D02*
G03*
X8810Y4410I-170J-44D01*
G01*
Y4270D02*
G03*
X9149Y4270I170J44D01*
G01*
X11411Y13623D02*
G03*
X11380Y13560I139J-106D01*
G01*
Y13440D02*
G03*
X11396Y13400I170J44D01*
G01*
X11704D02*
G03*
X11719Y13440I-154J83D01*
G01*
Y13560D02*
G03*
X11491Y13682I-170J-44D01*
G01*
D02*
G03*
X11437Y13650I59J-165D01*
G01*
D02*
G03*
X11411Y13623I113J-133D01*
G01*
X12254Y13400D02*
G03*
X12270Y13440I-154J83D01*
G01*
X11931D02*
G03*
X11946Y13400I170J44D01*
G01*
X12239Y13623D02*
G03*
X11931Y13560I-139J-106D01*
G01*
X12270D02*
G03*
X12239Y13623I-170J-44D01*
G01*
X7460Y4270D02*
G03*
X7799Y4270I170J44D01*
G01*
Y4410D02*
G03*
X7460Y4410I-170J-44D01*
G01*
X7910Y4270D02*
G03*
X8249Y4270I170J44D01*
G01*
Y4410D02*
G03*
X7910Y4410I-170J-44D01*
G01*
X8360Y4270D02*
G03*
X8699Y4270I170J44D01*
G01*
Y4410D02*
G03*
X8360Y4410I-170J-44D01*
G01*
X9646Y14488D02*
X9940Y14783D01*
X9490Y14332D02*
X9646Y14488D01*
X9447Y14309D02*
X9470Y14332D01*
X9490D01*
X7984Y13820D02*
X9182D01*
X9418Y14061D02*
X9441Y14085D01*
X9418Y14056D02*
Y14061D01*
X9182Y13820D02*
X9418Y14056D01*
X9441Y14085D02*
X9447D01*
X9940Y14783D02*
Y16149D01*
X8440Y8500D02*
Y10500D01*
X7826Y11114D02*
X8440Y10500D01*
X7826Y11114D02*
Y13661D01*
X7984Y13820D01*
X7973Y8340D02*
Y10478D01*
X5196Y15051D02*
X5205Y15058D01*
X8629Y15215D02*
Y15619D01*
X8880Y15870D01*
X8384Y14314D02*
Y14332D01*
X7588Y13760D02*
X7886Y14057D01*
X8127D01*
X8384Y14314D01*
X10627Y16987D02*
Y17130D01*
X10310Y16740D02*
X10380D01*
X10627Y16987D01*
X8275Y15514D02*
X8987Y16227D01*
X7680Y14390D02*
X7810Y14520D01*
X7370Y13850D02*
X7680Y14160D01*
Y14390D01*
X7479Y13805D02*
X7890Y14216D01*
X8068Y15126D02*
X8070Y15129D01*
Y15290D01*
X7692Y14719D02*
Y15128D01*
X8791Y16227D01*
X7890Y14216D02*
Y14340D01*
X7810Y14520D02*
X8269D01*
X7910Y14632D02*
X7932Y14654D01*
X7779Y14632D02*
X7910D01*
X7692Y14719D02*
X7779Y14632D01*
X8269Y14520D02*
X8314Y14565D01*
X7932Y14654D02*
X8068D01*
X9032Y15126D02*
Y16075D01*
X9184Y16227D01*
X8275Y15393D02*
Y15514D01*
Y15393D02*
X8314Y15354D01*
Y15215D02*
Y15354D01*
X11127Y17130D02*
X11130Y17127D01*
X10870Y17130D02*
X11127D01*
X11130Y19293D02*
X11133Y19290D01*
X11380D01*
X4407Y15372D02*
X4416Y15363D01*
X4890Y15537D02*
X4893Y15532D01*
X7588Y11016D02*
Y13760D01*
X7479Y10971D02*
Y13805D01*
X7370Y10926D02*
Y13850D01*
Y10926D02*
X7824Y10471D01*
X7479Y10971D02*
X7973Y10478D01*
X7588Y11016D02*
X8123Y10482D01*
Y8500D02*
Y10482D01*
X7824Y8500D02*
Y10471D01*
X7738Y4948D02*
X8504D01*
X7590Y4800D02*
X7738Y4948D01*
X8504D02*
X8979Y4473D01*
X5040Y15529D02*
Y15530D01*
X4893Y15532D02*
X4894Y15530D01*
X4407Y15372D02*
X4412D01*
X4890Y14663D02*
Y14743D01*
X7977Y4473D02*
X8079D01*
X7750Y4700D02*
X7977Y4473D01*
X8064Y4691D02*
X8311D01*
X8529Y4473D01*
X7179D02*
Y4691D01*
X7189Y4701D01*
X7027Y4989D02*
X7208Y5170D01*
Y5220D01*
X6922Y4989D02*
X7027D01*
D15*
X8781Y13939D02*
X9334Y14491D01*
X8280Y8340D02*
Y10492D01*
X4908Y6170D02*
X5440D01*
X4855Y6298D02*
X5438D01*
X4820Y8776D02*
X4988Y8944D01*
X4820Y8730D02*
Y8776D01*
X2037Y5323D02*
X2337D01*
X8068Y14811D02*
X8231D01*
X7871D02*
X8068D01*
X8231D02*
X8290Y14870D01*
X7840Y14780D02*
X7871Y14811D01*
X9420Y16880D02*
X9990D01*
X9410Y16870D02*
X9420Y16880D01*
X9200Y15420D02*
Y15890D01*
X8629Y14119D02*
X8638Y14110D01*
X8629Y14119D02*
Y14342D01*
X8471Y14689D02*
X8591Y14809D01*
X8471Y14565D02*
Y14689D01*
X8786Y14994D02*
Y15215D01*
X9334Y14491D02*
Y14654D01*
X8629Y14342D02*
Y14565D01*
X9200Y15890D02*
Y16044D01*
X9381Y16225D01*
X9413Y14733D02*
Y14934D01*
X9334Y14654D02*
X9413Y14733D01*
X9338Y15010D02*
X9413Y14934D01*
X7935Y13939D02*
X8781D01*
X7707Y13710D02*
X7935Y13939D01*
X8786Y14565D02*
X8790Y14561D01*
X8786Y14565D02*
Y14786D01*
X9032Y14654D02*
X9334D01*
X9297Y14969D02*
X9338Y15010D01*
X9032Y14969D02*
X9297D01*
X7844D02*
X8068D01*
X9032Y14811D02*
X9256D01*
X9382Y16570D02*
X9940D01*
X9381Y16569D02*
X9382Y16570D01*
X9940Y16373D02*
X9940Y16373D01*
X9940Y16373D02*
Y16570D01*
X9990Y16880D02*
X10130Y17020D01*
Y17127D01*
X11112Y10945D02*
X11112D01*
X3760Y10669D02*
X3781Y10649D01*
X4102D01*
X2530Y18210D02*
X3210D01*
X13030Y18950D02*
X13040Y18960D01*
X13030Y18750D02*
Y18950D01*
X12703Y14427D02*
X13113D01*
X13100Y15480D02*
X13270D01*
X13034Y15546D02*
X13100Y15480D01*
X13034Y15546D02*
Y15674D01*
X13113Y14427D02*
X13130Y14410D01*
X13370Y14310D02*
X13407Y14347D01*
Y15000D01*
X11000Y15510D02*
X11077Y15587D01*
Y16180D01*
X7707Y11065D02*
Y13710D01*
Y11065D02*
X8280Y10492D01*
X4528Y5433D02*
Y5660D01*
X4921Y5433D02*
Y5660D01*
X5440Y6170D02*
X5470Y6140D01*
X5442Y6300D02*
X5470Y6328D01*
X5440Y6300D02*
X5442D01*
X5438Y6298D02*
X5440Y6300D01*
X4528Y5660D02*
X4660Y5793D01*
X4788D02*
X4921Y5660D01*
X4660Y5793D02*
Y6103D01*
X4788Y5793D02*
Y6050D01*
X4908Y6170D01*
X4660Y6103D02*
X4855Y6298D01*
D16*
X4378Y10560D02*
X4388Y10570D01*
X4618D01*
X6320Y16430D02*
X6430Y16540D01*
X5287Y16430D02*
X6320D01*
X5047Y16190D02*
X5287Y16430D01*
X5047Y15530D02*
Y16190D01*
D17*
X6260Y1053D02*
X6577D01*
X11112Y10945D02*
Y10994D01*
X10410Y11837D02*
X10620Y12047D01*
X10410Y11076D02*
Y11837D01*
X11014Y11486D02*
Y12441D01*
X10410Y11076D02*
X10561Y10925D01*
X11112Y10994D02*
X11181Y10925D01*
X12589Y11437D02*
X12638D01*
X11014D02*
X11063D01*
X5924Y2814D02*
X6100Y2638D01*
Y1213D02*
Y2638D01*
Y1213D02*
X6260Y1053D01*
X11181Y10925D02*
X11484D01*
X12470Y10709D02*
X12707Y10945D01*
X12077Y10709D02*
X12470D01*
X12707Y10945D02*
Y10994D01*
X11014Y11486D02*
X11063Y11437D01*
X11132Y11368D01*
X10760Y11437D02*
X11014D01*
Y12441D02*
X11407Y12835D01*
X11504Y11437D02*
Y11951D01*
X11407Y12047D02*
X11504Y11951D01*
X12982Y12047D02*
X13079Y11951D01*
X11969Y11821D02*
X12195Y12047D01*
X11969Y11093D02*
Y11821D01*
X13079Y11437D02*
Y11951D01*
X12589Y12441D02*
X12982Y12835D01*
X12589Y11486D02*
Y12441D01*
X11801D02*
X12195Y12835D01*
X11801Y10984D02*
Y12441D01*
X10740Y10925D02*
X10760D01*
X10561D02*
X10740D01*
X12335Y11437D02*
X12589D01*
X12638D02*
X12707Y11368D01*
X12589Y11486D02*
X12638Y11437D01*
X12776Y10925D02*
X13079D01*
X12707Y10994D02*
X12776Y10925D01*
X11801Y10984D02*
X12077Y10709D01*
X11969Y11093D02*
X12136Y10925D01*
X12335D01*
X6577Y1053D02*
X7035Y595D01*
X7655D02*
X8382Y1322D01*
X7035Y595D02*
X7655D01*
X3977Y15166D02*
X4087Y15056D01*
X5681Y14910D02*
X5701D01*
X5225Y14900D02*
X5681D01*
X4087Y15056D02*
X4391D01*
X4776Y15732D02*
Y15916D01*
X4890Y15551D02*
Y15617D01*
X4776Y15732D02*
X4890Y15617D01*
X5681Y14910D02*
X5729Y14863D01*
D20*
X3920Y14263D02*
X3923Y14266D01*
X14078Y4672D02*
X14200Y4550D01*
X14078Y4672D02*
Y4853D01*
X5707Y5900D02*
X5973D01*
X8987Y16571D02*
Y16817D01*
X9184Y16571D02*
Y17124D01*
X8572Y16569D02*
X8791D01*
X8423Y16421D02*
X8572Y16569D01*
X9481Y17421D02*
X9671D01*
X9184Y17124D02*
X9481Y17421D01*
X8423Y17381D02*
X8987Y16817D01*
X12859Y5512D02*
X13125D01*
X3600Y12897D02*
Y13163D01*
X7179Y4207D02*
Y4473D01*
X8979Y4207D02*
Y4473D01*
X5047Y14286D02*
Y14743D01*
Y14286D02*
X5118Y14215D01*
X14192Y10659D02*
X14322D01*
X3923Y14266D02*
X4400Y14743D01*
X3923Y14266D02*
X3963D01*
X3917D02*
X3923D01*
X5443Y14271D02*
Y14355D01*
Y14271D02*
X5499Y14215D01*
X5512D01*
X5205Y14593D02*
X5443Y14355D01*
X5205Y14593D02*
Y14743D01*
X4400D02*
X4418D01*
X3945Y14735D02*
X4111Y14900D01*
X4418D01*
X3248Y16804D02*
Y16900D01*
X3180Y16660D02*
X3248Y16728D01*
Y16804D01*
X3370Y16682D01*
X4338Y14148D02*
X4410Y14220D01*
X4338Y14050D02*
Y14148D01*
X4410Y14220D02*
Y14410D01*
X4410Y14410D02*
X4410Y14410D01*
X12400Y1981D02*
X12433Y1949D01*
X12243Y1981D02*
X12400D01*
X4575Y14688D02*
Y14743D01*
X4410Y14523D02*
X4575Y14688D01*
X4410Y14410D02*
Y14523D01*
X4781Y14186D02*
X5039Y13928D01*
Y13836D02*
Y13928D01*
X4733Y14481D02*
X4803Y14410D01*
X4733Y14481D02*
Y14743D01*
X7629Y4207D02*
Y4473D01*
X8079Y4207D02*
Y4473D01*
X8529Y4207D02*
Y4473D01*
X14192Y10929D02*
X14413D01*
X14518Y11033D01*
X14322Y10659D02*
X14518Y10463D01*
D21*
X8310Y3740D02*
X8586Y4016D01*
X8788D01*
X8979Y4207D01*
D26*
X4823Y13836D02*
D03*
X4599D02*
D03*
X8638Y14110D02*
D03*
X8862D02*
D03*
X9338Y15010D02*
D03*
X9562D02*
D03*
X6358Y6660D02*
D03*
X6582D02*
D03*
X4618Y10570D02*
D03*
X4842D02*
D03*
X5088Y10050D02*
D03*
X5312D02*
D03*
X5312Y10300D02*
D03*
X5088Y10300D02*
D03*
X10662Y5100D02*
D03*
X10438D02*
D03*
X10662Y4850D02*
D03*
X10438D02*
D03*
X10662Y4600D02*
D03*
X10438D02*
D03*
X14076Y5430D02*
D03*
X14300Y5430D02*
D03*
X8198Y8010D02*
D03*
X8422D02*
D03*
X13460Y1219D02*
D03*
X13685D02*
D03*
X14192Y10659D02*
D03*
X13968D02*
D03*
X14192Y10929D02*
D03*
X13968D02*
D03*
X14192Y11199D02*
D03*
X13968D02*
D03*
X4823Y13596D02*
D03*
X4599D02*
D03*
X3472Y16900D02*
D03*
X3248D02*
D03*
X4562Y14050D02*
D03*
X4338D02*
D03*
X13382Y900D02*
D03*
X13606D02*
D03*
X12265Y759D02*
D03*
X12040D02*
D03*
X2528Y9860D02*
D03*
X2752D02*
D03*
X9452Y15660D02*
D03*
X9228D02*
D03*
X7208Y5220D02*
D03*
X7432D02*
D03*
D27*
X9447Y14085D02*
D03*
Y14309D02*
D03*
X7224Y8281D02*
D03*
Y8057D02*
D03*
X6801Y8774D02*
D03*
Y8549D02*
D03*
X4588Y8832D02*
D03*
Y9056D02*
D03*
X4361Y16681D02*
D03*
Y16456D02*
D03*
X5051Y13818D02*
D03*
Y13594D02*
D03*
X12033Y1087D02*
D03*
Y1311D02*
D03*
X9660Y16878D02*
D03*
Y17102D02*
D03*
X3550Y8107D02*
D03*
Y8332D02*
D03*
X3840Y10248D02*
D03*
Y10472D02*
D03*
X3881Y16456D02*
D03*
Y16681D02*
D03*
X11330Y16218D02*
D03*
Y16442D02*
D03*
X6310Y5568D02*
D03*
Y5792D02*
D03*
X6082Y9294D02*
D03*
Y9518D02*
D03*
X12634Y15786D02*
D03*
Y15562D02*
D03*
X14178Y15786D02*
D03*
Y15562D02*
D03*
X12630Y19062D02*
D03*
Y18838D02*
D03*
X14178Y19349D02*
D03*
Y19573D02*
D03*
X3370Y16682D02*
D03*
Y16458D02*
D03*
X3641Y16681D02*
D03*
Y16456D02*
D03*
X4121Y16456D02*
D03*
Y16681D02*
D03*
X4601Y16456D02*
D03*
Y16681D02*
D03*
X10680Y16442D02*
D03*
Y16218D02*
D03*
X13463Y1661D02*
D03*
Y1437D02*
D03*
X13824Y991D02*
D03*
X13824Y767D02*
D03*
X12243Y1541D02*
D03*
Y1317D02*
D03*
X12483Y761D02*
D03*
X12483Y537D02*
D03*
X12243Y1981D02*
D03*
Y1757D02*
D03*
X13010Y15292D02*
D03*
Y15068D02*
D03*
X13660Y15292D02*
D03*
Y15068D02*
D03*
X13880Y9302D02*
D03*
Y9078D02*
D03*
X5270Y6112D02*
D03*
Y5888D02*
D03*
Y6582D02*
D03*
Y6358D02*
D03*
X8150Y12199D02*
D03*
X8150Y11974D02*
D03*
X8150Y12907D02*
D03*
X8150Y12683D02*
D03*
X9940Y16149D02*
D03*
X9940Y16373D02*
D03*
X2110Y6532D02*
D03*
Y6308D02*
D03*
D29*
X5771Y15430D02*
D03*
Y15962D02*
D03*
D30*
X2464Y9440D02*
D03*
X2996D02*
D03*
X6816Y10350D02*
D03*
X6284D02*
D03*
X3386Y14266D02*
D03*
X3917D02*
D03*
X3917Y14716D02*
D03*
X3386D02*
D03*
Y15166D02*
D03*
X3917D02*
D03*
X4776Y15986D02*
D03*
X5307D02*
D03*
X6398Y14156D02*
D03*
X5866D02*
D03*
D32*
X5118Y14215D02*
D03*
X5512D02*
D03*
X4803Y14410D02*
D03*
X4410D02*
D03*
D39*
X5973Y5900D02*
D03*
X5707D02*
D03*
X12859Y5512D02*
D03*
X13125D02*
D03*
X13460D02*
D03*
X13706D02*
D03*
X3600Y13163D02*
D03*
Y12897D02*
D03*
X2800Y13153D02*
D03*
Y12907D02*
D03*
X7179Y4207D02*
D03*
Y4473D02*
D03*
X8979Y4207D02*
D03*
Y4473D02*
D03*
X11550Y13623D02*
D03*
Y13377D02*
D03*
X12100D02*
D03*
Y13623D02*
D03*
X7629Y4473D02*
D03*
Y4207D02*
D03*
X8079Y4473D02*
D03*
Y4207D02*
D03*
X8529Y4473D02*
D03*
Y4207D02*
D03*
D122*
X15071Y14685D02*
D03*
X1378Y18543D02*
D03*
Y1378D02*
D03*
D123*
X974Y14260D02*
D03*
Y16937D02*
D03*
D125*
X13020Y1156D02*
G03*
X13276Y900I256J0D01*
G01*
X13809Y999D02*
G03*
X13905Y1094I0J96D01*
G01*
X13606Y900D02*
G03*
X13823Y990I0J307D01*
G01*
X12863Y1077D02*
G03*
X13550Y390I687J0D01*
G01*
X13905Y2819D02*
G03*
X13645Y3079I-259J0D01*
G01*
X12530Y1223D02*
G03*
X12487Y1180I0J-43D01*
G01*
X12483Y761D02*
G03*
X12487Y772I-11J10D01*
G01*
X12174Y2684D02*
G03*
X11878Y2389I0J-296D01*
G01*
Y1019D02*
G03*
X11947Y852I236J0D01*
G01*
X12331Y1577D02*
G03*
X12285Y1569I0J-124D01*
G01*
X12229Y1311D02*
G03*
X12243Y1317I0J19D01*
G01*
X12273Y2340D02*
G03*
X12033Y2100I0J-240D01*
G01*
X13463Y2329D02*
G03*
X13339Y2626I-421J0D01*
G01*
X12285Y1569D02*
G03*
X12243Y1541I46J-116D01*
G01*
X13276Y900D02*
X13382D01*
X13823Y990D02*
X13824Y991D01*
X13905Y1094D02*
Y2819D01*
X14281Y11287D02*
X14682D01*
X14214Y11220D02*
X14281Y11287D01*
X12863Y1077D02*
Y1156D01*
X13550Y390D02*
X14870D01*
X13173Y3079D02*
X13645D01*
X14208Y11220D02*
X14214D01*
X14192Y11205D02*
X14208Y11220D01*
X14192Y11199D02*
Y11205D01*
X12487Y772D02*
Y1180D01*
X12483Y761D02*
X12483Y761D01*
X12480Y759D02*
X12483Y761D01*
X12174Y2684D02*
X12273D01*
X11947Y852D02*
X12040Y759D01*
X11878Y1019D02*
Y2389D01*
X11947Y852D02*
X11947Y852D01*
X12331Y1577D02*
X12530D01*
X12033Y1311D02*
X12229D01*
X12033Y1311D02*
Y2100D01*
X13463Y1661D02*
Y2329D01*
X13281Y2684D02*
X13339Y2626D01*
X14852Y11033D02*
Y11117D01*
X14682Y11287D02*
X14852Y11117D01*
X12705Y1111D02*
Y1156D01*
X12643Y1049D02*
X12705Y1111D01*
X13195Y1400D02*
X13281D01*
X13195Y1223D02*
X13456D01*
X12444Y1400D02*
X12530D01*
X13460Y1434D02*
X13463Y1437D01*
X13460Y1219D02*
Y1219D01*
Y1434D01*
X13456Y1223D02*
X13460Y1219D01*
X13463Y1217D01*
X12265Y759D02*
X12480D01*
X12033Y1311D02*
X12033Y1311D01*
D126*
X5197Y8307D02*
D03*
X5787Y8307D02*
D03*
X6378Y8307D02*
D03*
X19173Y13937D02*
D03*
X5217Y2224D02*
D03*
X1850Y13000D02*
D03*
X10620Y13500D02*
D03*
X1100Y13000D02*
D03*
X350D02*
D03*
X5217Y1437D02*
D03*
X3930Y7140D02*
D03*
X11506Y4259D02*
D03*
Y4850D02*
D03*
Y5440D02*
D03*
X787Y2559D02*
D03*
X2402Y19291D02*
D03*
D127*
X2756Y16142D02*
D03*
Y16929D02*
D03*
X2590Y12400D02*
D03*
X3590D02*
D03*
X6990Y12400D02*
D03*
X5990Y12400D02*
D03*
X4990Y12400D02*
D03*
D128*
X12863Y1489D02*
D03*
D129*
X12705Y1821D02*
D03*
X12863D02*
D03*
X13020D02*
D03*
Y1156D02*
D03*
X12863D02*
D03*
X12705D02*
D03*
D130*
X12530Y1223D02*
D03*
X12530Y1400D02*
D03*
X12530Y1577D02*
D03*
Y1755D02*
D03*
X13195D02*
D03*
Y1577D02*
D03*
Y1400D02*
D03*
Y1223D02*
D03*
D132*
X3930Y15150D02*
Y15290D01*
X3749Y15471D02*
X3930Y15290D01*
X3070Y15471D02*
X3749D01*
X2673Y15074D02*
X3070Y15471D01*
X2664Y15074D02*
X2673D01*
D135*
X2464Y9440D02*
Y10655D01*
X2463D02*
X2464D01*
X2096Y11022D02*
X2463Y10655D01*
X3148Y17820D02*
X3150Y17818D01*
X2700Y17820D02*
X3148D01*
X2384Y17424D02*
X3724D01*
X2150Y17189D02*
X2384Y17424D01*
X3724D02*
X4040Y17740D01*
X1526Y15598D02*
Y15986D01*
X423Y16583D02*
X447D01*
X960Y16070D01*
X2150Y16580D02*
Y17189D01*
Y15589D02*
Y16580D01*
X2147Y16583D02*
X2150Y16580D01*
X1526Y16583D02*
X2147D01*
X2150Y15589D02*
X2664Y15074D01*
X2800Y13262D02*
Y13430D01*
Y13260D02*
Y13262D01*
X2010Y15100D02*
X2390Y14720D01*
X1190Y15100D02*
X2010D01*
X423Y15598D02*
X692D01*
X2800Y13430D02*
Y14939D01*
X2390Y13050D02*
Y14720D01*
Y12899D02*
Y13050D01*
X2096Y12605D02*
X2390Y12899D01*
X2096Y11022D02*
Y12605D01*
X2664Y15074D02*
X2800Y14939D01*
X692Y15598D02*
X1190Y15100D01*
X4354Y17740D02*
X5000Y18386D01*
X4040Y17740D02*
X4354D01*
X1526Y15598D02*
X1568D01*
D136*
X5587Y3330D02*
X6200D01*
X5529Y3471D02*
X6142D01*
X5037Y2780D02*
X5587Y3330D01*
X4979Y2921D02*
X5529Y3471D01*
X6332Y3462D02*
X6493D01*
X980Y8220D02*
Y9683D01*
X1121Y8162D02*
Y9625D01*
X6200Y3330D02*
X6332Y3462D01*
X1650Y2780D02*
X5037D01*
X1257Y9961D02*
X1624D01*
X1329Y3101D02*
Y5371D01*
X680Y6020D02*
X1329Y5371D01*
Y3101D02*
X1650Y2780D01*
X980Y9683D02*
X1257Y9961D01*
X6462Y3630D02*
X6493Y3662D01*
X6301Y3630D02*
X6462D01*
X6142Y3471D02*
X6301Y3630D01*
X1260Y9705D02*
X1624D01*
X1201D02*
X1260D01*
X1121Y9625D02*
X1201Y9705D01*
X1470Y3159D02*
X1708Y2921D01*
X4979D01*
X821Y6078D02*
X1470Y5429D01*
Y3159D02*
Y5429D01*
X680Y7920D02*
X980Y8220D01*
X821Y7862D02*
X1121Y8162D01*
X821Y6078D02*
Y7862D01*
X680Y6020D02*
Y7920D01*
D137*
X6638Y7362D02*
X7224Y6776D01*
X4343Y8084D02*
X5065Y7362D01*
X6638D01*
X2830Y6440D02*
X2870D01*
X3436Y7006D01*
Y7226D01*
X7480Y14530D02*
Y18000D01*
X8090Y18610D01*
X3436Y7226D02*
X4318Y8108D01*
X7224Y6680D02*
Y6776D01*
X6110Y13160D02*
Y13868D01*
X6398Y14156D01*
X3590Y12400D02*
X4190Y13000D01*
X5950D01*
X6110Y13160D01*
X6183Y15380D02*
X6190D01*
X5822D02*
X6183D01*
X5771Y15430D02*
X5822Y15380D01*
X5340Y13747D02*
Y13887D01*
X5118Y14108D02*
X5340Y13887D01*
X5118Y14108D02*
Y14215D01*
X3744Y14716D02*
X3910D01*
D139*
X6400Y14154D02*
X6446Y14200D01*
X6400Y14154D02*
Y14199D01*
X4715Y10300D02*
X5500Y11085D01*
X4313Y8114D02*
Y9898D01*
X4465Y10050D01*
X7250Y13983D02*
Y16730D01*
X6750Y17230D02*
X7250Y16730D01*
X7127Y13860D02*
X7250Y13983D01*
X4313Y8114D02*
X4318Y8108D01*
X3600Y13210D02*
Y13300D01*
X2590Y12550D02*
X2930Y12890D01*
X3580D01*
X2590Y12400D02*
Y12620D01*
X3437Y13463D02*
X3600Y13300D01*
X6500Y10850D02*
Y11910D01*
X6990Y12400D01*
X7127Y12537D02*
Y13860D01*
X6990Y12400D02*
X7127Y12537D01*
X6468Y12878D02*
Y14108D01*
X5990Y12400D02*
X6468Y12878D01*
X5500Y11910D02*
X5990Y12400D01*
X5500Y11085D02*
Y11910D01*
X6500Y10850D02*
X6880Y10470D01*
X4465Y10050D02*
X4715Y10300D01*
X6880Y10340D02*
Y10470D01*
X3561Y13857D02*
X3674Y13970D01*
X3210Y13857D02*
X3561D01*
X3210Y13463D02*
X3437D01*
X5750Y13560D02*
Y13750D01*
X5543Y13353D02*
X5750Y13560D01*
X5340Y13353D02*
X5543D01*
X6750Y17230D02*
Y18230D01*
X5740Y17230D02*
X6750D01*
X4776Y16266D02*
X5740Y17230D01*
X9764Y9311D02*
X10669Y8406D01*
X9270Y10280D02*
X9764Y9786D01*
Y9311D02*
Y9786D01*
Y10543D02*
X10166D01*
X10630Y10079D01*
Y8800D02*
Y10079D01*
Y8800D02*
X11010Y8420D01*
X9924Y8224D02*
X10120Y8420D01*
X9687Y8224D02*
X9924D01*
X10669Y7835D02*
Y8406D01*
X6750Y18230D02*
X7420Y18900D01*
X9360D01*
X4776Y15986D02*
Y16266D01*
X1624Y9439D02*
X2455D01*
X3980Y14010D02*
Y14233D01*
D144*
X3027Y8107D02*
X3550D01*
X6582Y6673D02*
X7196D01*
X7218D02*
X7224Y6680D01*
X7196Y6673D02*
X7218D01*
X6582Y6660D02*
Y6673D01*
X6580Y6658D02*
X6582Y6660D01*
X6580Y6378D02*
Y6658D01*
X3550Y8107D02*
X4307D01*
X4313Y8114D01*
X3013Y8094D02*
X3027Y8107D01*
X14076Y5430D02*
Y5734D01*
X13760Y6050D02*
X14076Y5734D01*
X10060Y6050D02*
X13760D01*
X9590Y5580D02*
Y5690D01*
X8630Y6650D02*
X9590Y5690D01*
X7224Y6650D02*
X8630D01*
D150*
X2854Y2224D02*
D03*
X3642D02*
D03*
X4429Y1437D02*
D03*
X3642D02*
D03*
X2854D02*
D03*
X11407Y12835D02*
D03*
X12195D02*
D03*
X12982D02*
D03*
X13770Y12047D02*
D03*
X12982D02*
D03*
X12195D02*
D03*
X11407D02*
D03*
X10620D02*
D03*
Y12835D02*
D03*
D151*
X4429Y2224D02*
D03*
X13770Y12835D02*
D03*
D152*
X1220Y7323D02*
D03*
X1220Y6142D02*
D03*
D153*
X937Y3573D02*
D03*
Y5073D02*
D03*
D154*
X571Y8661D02*
D03*
Y11260D02*
D03*
D155*
X2590Y11400D02*
D03*
X3590D02*
D03*
X6990Y11400D02*
D03*
X5990Y11400D02*
D03*
X4990Y11400D02*
D03*
D156*
X7215Y9425D02*
D03*
X10120Y14380D02*
D03*
X9646Y14488D02*
D03*
X8440Y8500D02*
D03*
X9220Y3930D02*
D03*
X7677Y8159D02*
D03*
X6644Y8002D02*
D03*
X6260Y8957D02*
D03*
X6211Y9144D02*
D03*
X5820Y4260D02*
D03*
X4810Y8340D02*
D03*
X2830Y8980D02*
D03*
X2620Y5360D02*
D03*
X4370Y4310D02*
D03*
X4570Y3797D02*
D03*
X6480Y4960D02*
D03*
X6412Y4240D02*
D03*
X2491Y6371D02*
D03*
X2283Y6080D02*
D03*
X2840Y5600D02*
D03*
X3020Y5720D02*
D03*
X2730Y6760D02*
D03*
X4000Y9750D02*
D03*
X3800Y9900D02*
D03*
X3500Y10002D02*
D03*
X2830Y6440D02*
D03*
X3420Y7940D02*
D03*
X3410Y8570D02*
D03*
X3040Y9970D02*
D03*
X4580Y9350D02*
D03*
X4820Y8730D02*
D03*
X2640Y4510D02*
D03*
X4380Y3440D02*
D03*
Y4060D02*
D03*
X2770Y4070D02*
D03*
X2090Y6130D02*
D03*
X3270Y5730D02*
D03*
X5060Y8710D02*
D03*
X3585Y5897D02*
D03*
Y8503D02*
D03*
X14646Y4606D02*
D03*
X13722Y3629D02*
D03*
X14592Y3969D02*
D03*
X14292Y4119D02*
D03*
X14200Y4550D02*
D03*
X13100Y3900D02*
D03*
Y4450D02*
D03*
X12550Y4000D02*
D03*
Y4450D02*
D03*
X13100Y5150D02*
D03*
X13809Y8189D02*
D03*
X13559D02*
D03*
X13309D02*
D03*
X13059D02*
D03*
X12809D02*
D03*
X12150Y8000D02*
D03*
Y7750D02*
D03*
Y7500D02*
D03*
X12300Y8200D02*
D03*
X12559Y8189D02*
D03*
X13950Y7950D02*
D03*
Y7700D02*
D03*
Y7450D02*
D03*
Y7200D02*
D03*
X13615Y7045D02*
D03*
X12756Y5866D02*
D03*
X13701Y1563D02*
D03*
Y1801D02*
D03*
X12710Y820D02*
D03*
X13276Y2220D02*
D03*
X13280Y1970D02*
D03*
X12805Y2675D02*
D03*
X13290Y2900D02*
D03*
X13498Y2875D02*
D03*
X13701Y2752D02*
D03*
Y2514D02*
D03*
Y2276D02*
D03*
Y2039D02*
D03*
X14050Y911D02*
D03*
X14108Y1141D02*
D03*
Y1379D02*
D03*
Y1617D02*
D03*
Y1855D02*
D03*
Y2093D02*
D03*
Y2330D02*
D03*
Y2568D02*
D03*
Y2806D02*
D03*
X14052Y3037D02*
D03*
X13889Y3211D02*
D03*
X13662Y3280D02*
D03*
X13424Y3282D02*
D03*
X3950Y5330D02*
D03*
X2720Y4960D02*
D03*
X5730Y5570D02*
D03*
X5396Y5562D02*
D03*
X8140Y14340D02*
D03*
X10310Y16730D02*
D03*
X9410Y16870D02*
D03*
X8880Y15870D02*
D03*
X8070Y15290D02*
D03*
X7890Y14340D02*
D03*
X8786Y14994D02*
D03*
X8384Y14332D02*
D03*
X8629Y14342D02*
D03*
X8591Y14809D02*
D03*
X9200Y15420D02*
D03*
Y15890D02*
D03*
X8786Y14786D02*
D03*
X9660Y14780D02*
D03*
X7840D02*
D03*
X8290Y14870D02*
D03*
X7844Y14969D02*
D03*
X9256Y14811D02*
D03*
X9940Y16570D02*
D03*
X9910Y14180D02*
D03*
X10040Y14020D02*
D03*
X10300D02*
D03*
X9370Y17600D02*
D03*
X8980Y17100D02*
D03*
X10870Y17130D02*
D03*
X11380Y19290D02*
D03*
X9880Y17160D02*
D03*
X6990Y6510D02*
D03*
X6160Y6530D02*
D03*
X6780Y5860D02*
D03*
X6170Y5990D02*
D03*
Y6790D02*
D03*
X6530Y5490D02*
D03*
X6900Y4040D02*
D03*
X5060Y4270D02*
D03*
X1930Y8540D02*
D03*
X2110Y8600D02*
D03*
X13720Y5830D02*
D03*
X9870Y5614D02*
D03*
X10060Y6050D02*
D03*
X9590Y5580D02*
D03*
X8590Y5390D02*
D03*
X10860Y4600D02*
D03*
Y4850D02*
D03*
Y5100D02*
D03*
X11737Y4850D02*
D03*
Y5100D02*
D03*
X14458Y4853D02*
D03*
X14459Y5138D02*
D03*
X13577Y4850D02*
D03*
X13050Y1951D02*
D03*
X12675D02*
D03*
X12863D02*
D03*
X13169Y738D02*
D03*
X9190Y2930D02*
D03*
X9380Y2890D02*
D03*
X10000Y3700D02*
D03*
X7990Y1610D02*
D03*
X9750Y2570D02*
D03*
X9432Y4045D02*
D03*
X8690Y3630D02*
D03*
X8420Y3422D02*
D03*
X8386Y2874D02*
D03*
X9348Y4222D02*
D03*
X9537Y4242D02*
D03*
X1220Y6506D02*
D03*
X1339Y8179D02*
D03*
X2402Y8553D02*
D03*
X2382Y7077D02*
D03*
X2110Y7073D02*
D03*
X10210Y4860D02*
D03*
X4450Y11800D02*
D03*
X4960Y10930D02*
D03*
X4220Y10850D02*
D03*
X4300Y10290D02*
D03*
X4220Y11240D02*
D03*
X1740Y13950D02*
D03*
X1530Y15970D02*
D03*
X3160Y18870D02*
D03*
X2700Y17820D02*
D03*
X960Y16070D02*
D03*
X1220Y7687D02*
D03*
Y6978D02*
D03*
X630Y8307D02*
D03*
X6493Y3452D02*
D03*
X1257Y9961D02*
D03*
X6493Y3662D02*
D03*
X1260Y9705D02*
D03*
X14240Y12890D02*
D03*
X6670Y9490D02*
D03*
X6470Y9160D02*
D03*
X6053Y8751D02*
D03*
X5679Y7992D02*
D03*
X5908Y8246D02*
D03*
X7560Y8790D02*
D03*
X5355Y8750D02*
D03*
X14081Y13650D02*
D03*
X13540Y13350D02*
D03*
X9469Y1024D02*
D03*
X14728Y574D02*
D03*
X14491D02*
D03*
X14253D02*
D03*
X14015D02*
D03*
X13777D02*
D03*
X13539Y575D02*
D03*
X13310Y638D02*
D03*
X12878Y527D02*
D03*
X13050Y363D02*
D03*
X13263Y256D02*
D03*
X13496Y210D02*
D03*
X13734Y209D02*
D03*
X13972D02*
D03*
X14209D02*
D03*
X14447D02*
D03*
X14685D02*
D03*
X8583Y2541D02*
D03*
X8669Y2141D02*
D03*
X8905Y2169D02*
D03*
X9365Y2175D02*
D03*
X9258Y2387D02*
D03*
X9060Y2519D02*
D03*
X8825Y2553D02*
D03*
X13030Y18750D02*
D03*
X12800Y18600D02*
D03*
X4610Y910D02*
D03*
X6360Y2460D02*
D03*
X7140Y3140D02*
D03*
X5140Y5030D02*
D03*
X7020Y5430D02*
D03*
X7628Y8356D02*
D03*
X6447Y7982D02*
D03*
X4670Y9790D02*
D03*
X5280Y10540D02*
D03*
X4300Y12650D02*
D03*
X3080Y12540D02*
D03*
X2090Y14110D02*
D03*
X1650Y13710D02*
D03*
X4700Y18560D02*
D03*
X5250Y17170D02*
D03*
X5620Y16690D02*
D03*
X6940Y15420D02*
D03*
X6950Y14600D02*
D03*
X11090Y16170D02*
D03*
X13400Y15010D02*
D03*
X10330Y16070D02*
D03*
X12420Y16270D02*
D03*
X12680Y17030D02*
D03*
X5040Y9780D02*
D03*
X3820Y3140D02*
D03*
X7640Y3750D02*
D03*
X9900Y6180D02*
D03*
X7220Y240D02*
D03*
X2770Y10690D02*
D03*
X1490Y12790D02*
D03*
X730Y13030D02*
D03*
X820Y13760D02*
D03*
X270Y14230D02*
D03*
X1410Y14240D02*
D03*
X3760Y18460D02*
D03*
X3450Y17130D02*
D03*
X4130Y17320D02*
D03*
X4770Y17640D02*
D03*
X6460Y17540D02*
D03*
X7130Y18070D02*
D03*
X7180Y17270D02*
D03*
X8130Y17930D02*
D03*
X8190Y19200D02*
D03*
X13400Y19680D02*
D03*
X14300Y19150D02*
D03*
X15040D02*
D03*
X15050Y19660D02*
D03*
X12250Y19260D02*
D03*
X12720Y17760D02*
D03*
X12580Y13180D02*
D03*
X4890Y2510D02*
D03*
X3250Y2410D02*
D03*
X1100Y3160D02*
D03*
X930Y4000D02*
D03*
X960Y4610D02*
D03*
X3570Y11950D02*
D03*
X5180Y11930D02*
D03*
X5510Y12760D02*
D03*
X6130Y12890D02*
D03*
X6480Y12490D02*
D03*
X6980Y11900D02*
D03*
X6940Y10780D02*
D03*
X7540Y10500D02*
D03*
X8320Y10890D02*
D03*
X11230Y10680D02*
D03*
X14260Y9730D02*
D03*
X13660Y9280D02*
D03*
X13120Y8430D02*
D03*
X12320Y8460D02*
D03*
X12650Y5130D02*
D03*
X11120Y4360D02*
D03*
X10130Y3900D02*
D03*
X11120Y3810D02*
D03*
X9980Y4134D02*
D03*
X8280Y2560D02*
D03*
X6010Y910D02*
D03*
X14656Y7865D02*
D03*
Y3365D02*
D03*
Y1865D02*
D03*
X14281Y7115D02*
D03*
Y5615D02*
D03*
X12406Y18365D02*
D03*
Y15365D02*
D03*
X12031Y17615D02*
D03*
X11656Y7865D02*
D03*
X10906Y15365D02*
D03*
Y3365D02*
D03*
X10156D02*
D03*
X9406Y365D02*
D03*
X9031Y17615D02*
D03*
X8656Y16865D02*
D03*
Y10865D02*
D03*
Y1865D02*
D03*
X8281Y16115D02*
D03*
X6781Y19115D02*
D03*
X6406Y18365D02*
D03*
Y16865D02*
D03*
X6781Y16115D02*
D03*
X6031Y19115D02*
D03*
X5656Y18365D02*
D03*
X6031Y17615D02*
D03*
X5281D02*
D03*
Y1115D02*
D03*
X4156Y12365D02*
D03*
X3781Y19115D02*
D03*
X3031D02*
D03*
X2656Y1865D02*
D03*
Y365D02*
D03*
X2281Y1115D02*
D03*
X1906Y365D02*
D03*
X1531Y17615D02*
D03*
Y2615D02*
D03*
X1156Y365D02*
D03*
X781Y19115D02*
D03*
X406Y18365D02*
D03*
X781Y17615D02*
D03*
X406Y13865D02*
D03*
Y12365D02*
D03*
X781Y11615D02*
D03*
X406Y3365D02*
D03*
Y1865D02*
D03*
Y365D02*
D03*
X6880Y12920D02*
D03*
X10480Y14520D02*
D03*
X12370Y14060D02*
D03*
X11270Y13650D02*
D03*
X13070Y16430D02*
D03*
X13440Y16420D02*
D03*
X12845Y19205D02*
D03*
X14030Y19200D02*
D03*
X13090Y14030D02*
D03*
X11693Y14367D02*
D03*
X2800Y13430D02*
D03*
X2390Y13050D02*
D03*
X2130Y10200D02*
D03*
X2120Y9680D02*
D03*
X8967Y1821D02*
D03*
X9094Y1368D02*
D03*
X8917Y1545D02*
D03*
X9540Y1674D02*
D03*
X9532Y1912D02*
D03*
X2026Y13310D02*
D03*
X1520Y13200D02*
D03*
X1590Y13430D02*
D03*
X13070Y15500D02*
D03*
X13020Y14430D02*
D03*
X6250Y10680D02*
D03*
X6110Y10930D02*
D03*
X7030Y14290D02*
D03*
X6640Y14190D02*
D03*
X5750Y13750D02*
D03*
X8090Y18610D02*
D03*
X7480Y14530D02*
D03*
X6600Y15380D02*
D03*
X7150Y10980D02*
D03*
X12430Y14420D02*
D03*
X9090Y8240D02*
D03*
X9270Y10280D02*
D03*
X7650D02*
D03*
Y10080D02*
D03*
Y9880D02*
D03*
X5970Y10250D02*
D03*
X11010Y8420D02*
D03*
X10120D02*
D03*
X11800Y9870D02*
D03*
X11520D02*
D03*
X7030Y14100D02*
D03*
X13840Y10411D02*
D03*
X13770Y10660D02*
D03*
X5830Y9890D02*
D03*
X5510Y10320D02*
D03*
X5520Y9700D02*
D03*
X5475Y8246D02*
D03*
X13850Y15470D02*
D03*
X14100Y15930D02*
D03*
X14030Y19200D02*
D03*
X4921Y2067D02*
D03*
X5217Y2264D02*
D03*
X5528Y2340D02*
D03*
X5498Y1581D02*
D03*
X7980Y12780D02*
D03*
X11526Y10610D02*
D03*
X12175Y10157D02*
D03*
X10591Y11181D02*
D03*
X12156D02*
D03*
X7985Y12075D02*
D03*
X6220Y10020D02*
D03*
X6410Y9930D02*
D03*
X13530Y11120D02*
D03*
X14040Y13840D02*
D03*
X13600Y10930D02*
D03*
X14020Y14033D02*
D03*
X13790Y10910D02*
D03*
X6270Y993D02*
D03*
X8650Y1170D02*
D03*
X7350Y830D02*
D03*
X7760Y1290D02*
D03*
X7720Y410D02*
D03*
X9650Y290D02*
D03*
X8990Y240D02*
D03*
Y760D02*
D03*
X9281Y830D02*
D03*
X9721Y1030D02*
D03*
X9921Y1460D02*
D03*
X9691D02*
D03*
X6180Y9710D02*
D03*
X13010Y14230D02*
D03*
X6350Y9620D02*
D03*
X12670Y14940D02*
D03*
X7598Y1632D02*
D03*
X8730Y12428D02*
D03*
X8160Y12388D02*
D03*
X8680Y12988D02*
D03*
X9407Y11795D02*
D03*
X8153Y13067D02*
D03*
X11910Y10270D02*
D03*
X14990Y13200D02*
D03*
Y13450D02*
D03*
X15128Y9272D02*
D03*
X5680Y10227D02*
D03*
X3170Y16060D02*
D03*
X15128Y9469D02*
D03*
X3160Y16250D02*
D03*
X9197Y12638D02*
D03*
Y12953D02*
D03*
X11690Y14951D02*
D03*
X11570Y14804D02*
D03*
X11690Y14657D02*
D03*
X11570Y14510D02*
D03*
X10680Y16620D02*
D03*
X11330D02*
D03*
X9360Y18900D02*
D03*
X7824Y8500D02*
D03*
X8123D02*
D03*
X8280Y8340D02*
D03*
X7974D02*
D03*
X13230Y15330D02*
D03*
X13860Y15140D02*
D03*
X12429Y16637D02*
D03*
X10340Y4400D02*
D03*
X7037Y1632D02*
D03*
X8382Y1322D02*
D03*
X7224Y1632D02*
D03*
X7411D02*
D03*
X7003Y1292D02*
D03*
X6989Y1098D02*
D03*
X11737Y4600D02*
D03*
X11900Y18500D02*
D03*
X5280Y15690D02*
D03*
X12510Y10250D02*
D03*
X4120Y16840D02*
D03*
X3180Y16660D02*
D03*
X4690Y14010D02*
D03*
X4410Y14220D02*
D03*
X5920Y14075D02*
D03*
Y14245D02*
D03*
X5730Y14075D02*
D03*
X5730Y14245D02*
D03*
X5660Y15950D02*
D03*
X5860D02*
D03*
X12293Y1139D02*
D03*
X5330Y18070D02*
D03*
X3020Y19660D02*
D03*
X2420Y18590D02*
D03*
X420Y16060D02*
D03*
X400Y14970D02*
D03*
X1570Y10730D02*
D03*
X1580Y9180D02*
D03*
X384Y6230D02*
D03*
X394Y7270D02*
D03*
X2820Y8330D02*
D03*
X3450Y7550D02*
D03*
X2850Y7720D02*
D03*
X400Y1130D02*
D03*
X10400Y5550D02*
D03*
X10850Y5520D02*
D03*
X11640Y7030D02*
D03*
X12910Y3080D02*
D03*
X13213Y2449D02*
D03*
X13083Y2839D02*
D03*
X12523Y379D02*
D03*
X12033Y409D02*
D03*
X10870Y7030D02*
D03*
X12153Y2899D02*
D03*
X12223Y959D02*
D03*
X12630Y5420D02*
D03*
X14990Y15850D02*
D03*
Y11950D02*
D03*
Y12950D02*
D03*
Y12200D02*
D03*
Y12450D02*
D03*
Y12700D02*
D03*
Y11450D02*
D03*
Y11700D02*
D03*
Y8450D02*
D03*
Y6950D02*
D03*
Y7950D02*
D03*
Y7200D02*
D03*
Y7450D02*
D03*
Y8200D02*
D03*
Y7700D02*
D03*
Y6450D02*
D03*
Y6200D02*
D03*
Y5950D02*
D03*
Y6700D02*
D03*
Y4450D02*
D03*
Y5450D02*
D03*
Y4700D02*
D03*
Y4950D02*
D03*
Y5700D02*
D03*
Y5200D02*
D03*
Y3950D02*
D03*
Y3700D02*
D03*
Y3450D02*
D03*
Y4200D02*
D03*
Y1700D02*
D03*
Y211D02*
D03*
Y700D02*
D03*
Y950D02*
D03*
Y1200D02*
D03*
Y1450D02*
D03*
Y2700D02*
D03*
Y3200D02*
D03*
Y2450D02*
D03*
Y2200D02*
D03*
Y2950D02*
D03*
Y1950D02*
D03*
X10213Y3200D02*
D03*
X10473D02*
D03*
X10723D02*
D03*
X10973D02*
D03*
X11223D02*
D03*
X10000Y1700D02*
D03*
X9990Y299D02*
D03*
X10000Y450D02*
D03*
Y700D02*
D03*
Y2700D02*
D03*
Y2450D02*
D03*
Y2200D02*
D03*
Y2950D02*
D03*
Y1950D02*
D03*
X12273Y2340D02*
D03*
X12245Y2153D02*
D03*
X12243Y1757D02*
D03*
X12273Y2684D02*
D03*
X13173Y3079D02*
D03*
X12764Y1390D02*
D03*
X12961Y1587D02*
D03*
Y1390D02*
D03*
X12764Y1587D02*
D03*
Y2497D02*
D03*
X12961Y2340D02*
D03*
Y2497D02*
D03*
X12764Y2340D02*
D03*
X11723Y1950D02*
D03*
Y2950D02*
D03*
Y2200D02*
D03*
Y2450D02*
D03*
Y3200D02*
D03*
Y2700D02*
D03*
X11473Y3200D02*
D03*
X11723Y1450D02*
D03*
Y1200D02*
D03*
Y950D02*
D03*
Y700D02*
D03*
Y450D02*
D03*
Y241D02*
D03*
Y1700D02*
D03*
X12444Y1400D02*
D03*
X14870Y390D02*
D03*
X13281Y2684D02*
D03*
X13281Y1400D02*
D03*
X12643Y1049D02*
D03*
X12433Y1949D02*
D03*
X5000Y18386D02*
D03*
X2530Y18210D02*
D03*
X2680Y15700D02*
D03*
X3674Y13970D02*
D03*
X3980Y14010D02*
D03*
X3744Y14716D02*
D03*
X12180Y17240D02*
D03*
X3090Y15890D02*
D03*
X4691Y14206D02*
D03*
X3136Y14216D02*
D03*
Y14766D02*
D03*
X3106Y15166D02*
D03*
X2570Y5090D02*
D03*
X2580Y3810D02*
D03*
X5900Y3100D02*
D03*
X2100Y3480D02*
D03*
X3208Y3210D02*
D03*
X14140Y16370D02*
D03*
Y18480D02*
D03*
X13820Y16750D02*
D03*
X17860Y15081D02*
D03*
X17501Y15081D02*
D03*
X13820Y17800D02*
D03*
X14700Y9780D02*
D03*
X5098Y7992D02*
D03*
X7930Y3930D02*
D03*
X8690Y3340D02*
D03*
X8560Y3000D02*
D03*
X7230Y4890D02*
D03*
X5769Y4831D02*
D03*
X5470Y6328D02*
D03*
Y6140D02*
D03*
X7520Y4040D02*
D03*
X7310D02*
D03*
X7930Y3740D02*
D03*
X7750Y3990D02*
D03*
X6670Y4960D02*
D03*
X7910Y4800D02*
D03*
X7189Y4701D02*
D03*
X7376Y4711D02*
D03*
X7590Y4800D02*
D03*
X7750Y4700D02*
D03*
X8064Y4691D02*
D03*
X7920Y3540D02*
D03*
X5389Y15896D02*
D03*
Y16076D02*
D03*
X6105Y8246D02*
D03*
X14080Y16170D02*
D03*
X5921Y5575D02*
D03*
X5640Y7747D02*
D03*
X4249Y7117D02*
D03*
Y7747D02*
D03*
X4249Y6487D02*
D03*
X4249Y5857D02*
D03*
X5790Y7117D02*
D03*
X5002Y6487D02*
D03*
Y5857D02*
D03*
X7365D02*
D03*
Y6487D02*
D03*
Y7117D02*
D03*
X5002D02*
D03*
X9633Y7747D02*
D03*
Y7117D02*
D03*
X8939D02*
D03*
X5730Y5227D02*
D03*
X5790Y6487D02*
D03*
X6577Y7747D02*
D03*
Y7117D02*
D03*
Y5857D02*
D03*
X8052Y7747D02*
D03*
Y7117D02*
D03*
Y6487D02*
D03*
X9633Y5227D02*
D03*
X10389Y5316D02*
D03*
X3030Y9730D02*
D03*
X2610Y3160D02*
D03*
X280Y13350D02*
D03*
X10090Y15580D02*
D03*
X11760Y16470D02*
D03*
X10880Y15560D02*
D03*
X11360Y8460D02*
D03*
X9170Y10740D02*
D03*
X9671Y17421D02*
D03*
X8423Y17381D02*
D03*
X7695Y16901D02*
D03*
Y15940D02*
D03*
X6463Y3132D02*
D03*
X8739Y1664D02*
D03*
X8137Y2119D02*
D03*
X7920Y3344D02*
D03*
X7066Y3494D02*
D03*
X7067Y3688D02*
D03*
X7280Y2350D02*
D03*
X6951Y2371D02*
D03*
X8690Y3820D02*
D03*
X5311Y2834D02*
D03*
X5281Y3554D02*
D03*
X5924Y2834D02*
D03*
X6609Y4240D02*
D03*
X6220D02*
D03*
X14380Y15590D02*
D03*
X9671Y15421D02*
D03*
X8423Y16421D02*
D03*
X8433Y15460D02*
D03*
X8672Y16403D02*
D03*
X9499Y16398D02*
D03*
X9690Y15690D02*
D03*
X15128Y9075D02*
D03*
X7450Y18550D02*
D03*
X9284Y18126D02*
D03*
X9380Y18430D02*
D03*
X10010Y17970D02*
D03*
X14340Y19680D02*
D03*
X14000Y19500D02*
D03*
X12500Y19600D02*
D03*
X11540Y19660D02*
D03*
X10500Y19640D02*
D03*
X9618Y19600D02*
D03*
X8500D02*
D03*
X7500D02*
D03*
X6500D02*
D03*
X5500D02*
D03*
X4500D02*
D03*
X3710Y19630D02*
D03*
X1500Y19500D02*
D03*
X500D02*
D03*
X13880Y9480D02*
D03*
X5820Y1570D02*
D03*
X1500Y2410D02*
D03*
X167Y5187D02*
D03*
X2040Y10640D02*
D03*
X1500Y11800D02*
D03*
X310Y11700D02*
D03*
X300Y17090D02*
D03*
X6320Y18930D02*
D03*
X7634Y5240D02*
D03*
X2401Y6600D02*
D03*
D157*
X8791Y16227D02*
D03*
X8987D02*
D03*
X9184D02*
D03*
X9381D02*
D03*
X8889Y16398D02*
D03*
X9283D02*
D03*
X8791Y16569D02*
D03*
X8987D02*
D03*
X9184D02*
D03*
X9381D02*
D03*
X6210Y4850D02*
D03*
X5958Y4560D02*
D03*
D158*
X5101Y13594D02*
D03*
X4601Y16826D02*
D03*
X4823Y13566D02*
D03*
X4361Y16826D02*
D03*
X3641Y16826D02*
D03*
X3881D02*
D03*
X4823Y13836D02*
D03*
X4064Y16289D02*
D03*
X3931Y16176D02*
D03*
X4361Y16456D02*
D03*
X4121D02*
D03*
X3881Y16456D02*
D03*
X3641D02*
D03*
X4890Y14663D02*
D03*
X4733Y14900D02*
D03*
X5047Y15372D02*
D03*
X4890D02*
D03*
X5047Y15215D02*
D03*
X4575Y15057D02*
D03*
Y14900D02*
D03*
X5047D02*
D03*
Y15057D02*
D03*
X4890Y14900D02*
D03*
X4575Y15215D02*
D03*
Y15372D02*
D03*
X4733D02*
D03*
D159*
X14685Y9341D02*
D03*
Y9006D02*
D03*
D160*
X2430Y15650D02*
D03*
X2270D02*
D03*
X6747Y13933D02*
D03*
X6633Y14047D02*
D03*
X6883Y14283D02*
D03*
X6723D02*
D03*
X6880Y14100D02*
D03*
X6720D02*
D03*
X7430Y10280D02*
D03*
X7270D02*
D03*
X7150Y10760D02*
D03*
Y10600D02*
D03*
X7430Y10080D02*
D03*
X7270D02*
D03*
X7430Y9880D02*
D03*
X7270D02*
D03*
X6964Y9650D02*
D03*
Y9810D02*
D03*
D166*
X12483Y761D02*
D03*
X11947Y852D02*
D03*
D167*
X6969Y8071D02*
D03*
Y8228D02*
D03*
X6811Y8071D02*
D03*
Y8228D02*
D03*
D168*
X5118Y7726D02*
D03*
X5906D02*
D03*
D169*
X6777Y6082D02*
D03*
X6580D02*
D03*
X6383D02*
D03*
X6777Y6378D02*
D03*
X6580D02*
D03*
D170*
X6383Y6380D02*
D03*
D171*
X3013Y7346D02*
D03*
Y8094D02*
D03*
X2167D02*
D03*
Y7720D02*
D03*
D172*
X2167Y7346D02*
D03*
D173*
X9032Y14654D02*
D03*
Y14811D02*
D03*
Y14969D02*
D03*
Y15126D02*
D03*
X8068D02*
D03*
Y14969D02*
D03*
Y14811D02*
D03*
Y14654D02*
D03*
X5958Y4674D02*
D03*
Y4831D02*
D03*
Y4989D02*
D03*
Y5146D02*
D03*
X6922D02*
D03*
Y4989D02*
D03*
Y4831D02*
D03*
Y4674D02*
D03*
D174*
X8786Y15215D02*
D03*
X8629D02*
D03*
X8471D02*
D03*
X8314D02*
D03*
Y14565D02*
D03*
X8471Y14565D02*
D03*
X8629D02*
D03*
X8786D02*
D03*
X6676Y4585D02*
D03*
X6519D02*
D03*
X6361D02*
D03*
X6204D02*
D03*
Y5235D02*
D03*
X6361D02*
D03*
X6519D02*
D03*
X6676D02*
D03*
D175*
X11630Y17127D02*
D03*
X11130D02*
D03*
X10630D02*
D03*
X10130D02*
D03*
X11630Y19293D02*
D03*
X11130D02*
D03*
X10630D02*
D03*
X10130D02*
D03*
D176*
X11561Y18584D02*
D03*
Y17836D02*
D03*
X10199D02*
D03*
Y18584D02*
D03*
D177*
X10630Y17836D02*
D03*
Y18584D02*
D03*
X11130Y17836D02*
D03*
Y18584D02*
D03*
D178*
X10630Y7638D02*
D03*
X10630Y10079D02*
D03*
D179*
X4102Y10649D02*
D03*
Y10471D02*
D03*
D180*
X4378Y10560D02*
D03*
D181*
X14685Y9173D02*
D03*
D182*
X15108Y9469D02*
D03*
Y9272D02*
D03*
Y9075D02*
D03*
Y8878D02*
D03*
X14262Y9469D02*
D03*
Y9272D02*
D03*
Y9075D02*
D03*
Y8878D02*
D03*
D183*
X2037Y4823D02*
D03*
X3238Y3323D02*
D03*
Y3823D02*
D03*
Y4323D02*
D03*
Y4823D02*
D03*
Y5323D02*
D03*
X2037Y3323D02*
D03*
Y3823D02*
D03*
Y4323D02*
D03*
Y5323D02*
D03*
D184*
X14583Y18613D02*
D03*
Y16291D02*
D03*
D185*
X14465Y18161D02*
D03*
Y17806D02*
D03*
Y17098D02*
D03*
Y16743D02*
D03*
Y17452D02*
D03*
D186*
X1535Y8701D02*
D03*
Y11220D02*
D03*
D187*
X571Y10433D02*
D03*
Y9488D02*
D03*
D188*
X1624Y10472D02*
D03*
Y10217D02*
D03*
Y9449D02*
D03*
Y9705D02*
D03*
Y9961D02*
D03*
D189*
X1526Y16583D02*
D03*
Y14614D02*
D03*
Y15598D02*
D03*
X423D02*
D03*
Y14614D02*
D03*
Y16583D02*
D03*
D190*
X13547Y17800D02*
D03*
X13153D02*
D03*
X6577Y15380D02*
D03*
X6183D02*
D03*
X13153Y16750D02*
D03*
X13547D02*
D03*
X13153Y18500D02*
D03*
X13547D02*
D03*
X13153Y17450D02*
D03*
X13547D02*
D03*
X13153Y18150D02*
D03*
X13547D02*
D03*
X13153Y17100D02*
D03*
X13547D02*
D03*
D191*
X14852Y10463D02*
D03*
Y11033D02*
D03*
X14518D02*
D03*
Y10463D02*
D03*
D192*
X4000Y4528D02*
D03*
X5496D02*
D03*
D193*
X4551Y5433D02*
D03*
X4748D02*
D03*
X4945D02*
D03*
X5142D02*
D03*
X4354D02*
D03*
X13407Y14732D02*
D03*
X13210D02*
D03*
X13013D02*
D03*
Y13728D02*
D03*
X13210D02*
D03*
X13407D02*
D03*
X11077Y14878D02*
D03*
X10880D02*
D03*
X10683D02*
D03*
Y15882D02*
D03*
X10880D02*
D03*
X11077D02*
D03*
D194*
X4418Y14743D02*
D03*
X4575D02*
D03*
X4733D02*
D03*
X4890D02*
D03*
X5047D02*
D03*
X5205D02*
D03*
X4418Y14900D02*
D03*
X4575D02*
D03*
X4733D02*
D03*
X4890D02*
D03*
X5047D02*
D03*
X5205D02*
D03*
X4418Y15057D02*
D03*
X4575D02*
D03*
X5047D02*
D03*
X5205D02*
D03*
X4418Y15215D02*
D03*
X4575D02*
D03*
X5047D02*
D03*
X5205D02*
D03*
X4418Y15372D02*
D03*
X4575D02*
D03*
X4733D02*
D03*
X4890D02*
D03*
X5047D02*
D03*
X5205D02*
D03*
X4418Y15530D02*
D03*
X4575D02*
D03*
X4733D02*
D03*
X4890D02*
D03*
X5047D02*
D03*
X5205D02*
D03*
D195*
X12703Y14624D02*
D03*
Y14427D02*
D03*
Y14230D02*
D03*
Y14033D02*
D03*
Y13836D02*
D03*
X13717D02*
D03*
Y14033D02*
D03*
Y14230D02*
D03*
Y14427D02*
D03*
Y14624D02*
D03*
X11387Y15774D02*
D03*
Y15577D02*
D03*
Y15380D02*
D03*
Y15183D02*
D03*
Y14986D02*
D03*
X10373D02*
D03*
Y15183D02*
D03*
Y15380D02*
D03*
Y15577D02*
D03*
Y15774D02*
D03*
D196*
X9409Y12008D02*
D03*
Y12323D02*
D03*
Y12638D02*
D03*
Y12953D02*
D03*
X8465D02*
D03*
Y12638D02*
D03*
Y12323D02*
D03*
Y12008D02*
D03*
D197*
X3150Y17818D02*
D03*
Y18606D02*
D03*
Y18212D02*
D03*
D198*
X4675Y19235D02*
D03*
Y17188D02*
D03*
D199*
X6401Y16501D02*
D03*
Y15793D02*
D03*
D200*
X14275Y4853D02*
D03*
X14078D02*
D03*
X13881D02*
D03*
X14275Y5138D02*
D03*
X14078D02*
D03*
X13881D02*
D03*
D201*
X3645Y6590D02*
D03*
X3975D02*
D03*
D202*
X9685Y9143D02*
D03*
Y10543D02*
D03*
D203*
X9687Y8224D02*
D03*
X8860Y8598D02*
D03*
Y7850D02*
D03*
D204*
X11112Y10994D02*
D03*
Y11368D02*
D03*
X12707D02*
D03*
Y10994D02*
D03*
X5360Y9387D02*
D03*
Y9013D02*
D03*
X13406Y15743D02*
D03*
Y16117D02*
D03*
Y19018D02*
D03*
Y19392D02*
D03*
D205*
X10740Y11437D02*
D03*
Y11181D02*
D03*
Y10925D02*
D03*
X11484D02*
D03*
Y11181D02*
D03*
Y11437D02*
D03*
X13079D02*
D03*
Y11181D02*
D03*
Y10925D02*
D03*
X12335D02*
D03*
Y11181D02*
D03*
Y11437D02*
D03*
X5732Y9456D02*
D03*
Y9200D02*
D03*
Y8944D02*
D03*
X4988D02*
D03*
Y9200D02*
D03*
Y9456D02*
D03*
X13034Y15674D02*
D03*
Y15930D02*
D03*
Y16186D02*
D03*
X13778D02*
D03*
Y15930D02*
D03*
Y15674D02*
D03*
X13034Y18949D02*
D03*
Y19205D02*
D03*
Y19461D02*
D03*
X13778D02*
D03*
Y19205D02*
D03*
Y18949D02*
D03*
D206*
X3210Y13463D02*
D03*
Y13857D02*
D03*
X5340Y13353D02*
D03*
Y13747D02*
D03*
D207*
X5750Y14778D02*
D03*
X6458D02*
D03*
D208*
X18671Y14587D02*
D03*
X16348D02*
D03*
D209*
X17510Y14468D02*
D03*
X18219D02*
D03*
X17864D02*
D03*
X17156D02*
D03*
X16801D02*
D03*
D210*
X10246Y12461D02*
X10246Y12460D01*
X10246Y12461D02*
X10620Y12835D01*
X10246Y10964D02*
Y12460D01*
X11075Y10917D02*
Y10970D01*
X10867Y10709D02*
X11075Y10917D01*
X10502Y10709D02*
X10867D01*
X10246Y10964D02*
X10502Y10709D01*
D211*
X11071Y10994D02*
X11112D01*
D212*
X2350Y15650D02*
D03*
X6803Y14283D02*
D03*
X6800Y14100D02*
D03*
X7350Y10280D02*
D03*
Y10080D02*
D03*
Y9880D02*
D03*
D213*
X6690Y13990D02*
D03*
D214*
X7150Y10680D02*
D03*
X6964Y9730D02*
D03*
D215*
X6467Y14583D02*
D03*
D216*
X6975Y10205D02*
D03*
D217*
X5698Y14156D02*
D03*
D218*
X4793Y14332D02*
D03*
M02*
