G04*
G04 #@! TF.GenerationSoftware,Altium Limited,Altium Designer,21.0.9 (235)*
G04*
G04 Layer_Color=32896*
%FSLAX24Y24*%
%MOIN*%
G70*
G04*
G04 #@! TF.SameCoordinates,7913F74A-1B9B-402C-A4C5-A7CF04877313*
G04*
G04*
G04 #@! TF.FilePolarity,Positive*
G04*
G01*
G75*
%ADD10C,0.0059*%
%ADD11C,0.0049*%
%ADD12C,0.0100*%
%ADD13C,0.0060*%
%ADD15C,0.0079*%
%ADD16C,0.0098*%
%ADD267C,0.0039*%
%ADD268C,0.0177*%
%ADD269C,0.0083*%
%ADD270C,0.0060*%
%ADD271R,0.0197X0.1575*%
%ADD272R,0.0039X0.0059*%
%ADD273R,0.0138X0.0059*%
%ADD274R,0.0138X0.0049*%
%ADD275R,0.1150X0.0289*%
G36*
X10049Y9262D02*
X9970D01*
Y9370D01*
X9400D01*
Y9262D01*
X9321D01*
Y9596D01*
X10049D01*
Y9262D01*
D02*
G37*
G36*
X1012Y17470D02*
X936D01*
X885Y17703D01*
X834Y17470D01*
X759D01*
X663Y17833D01*
X740D01*
X798Y17595D01*
X847Y17833D01*
X922D01*
X974Y17595D01*
X1030Y17833D01*
X1106D01*
X1012Y17470D01*
D02*
G37*
G36*
X518Y17841D02*
X528Y17839D01*
X538Y17837D01*
X547Y17834D01*
X555Y17830D01*
X563Y17826D01*
X570Y17822D01*
X576Y17818D01*
X582Y17814D01*
X587Y17810D01*
X592Y17806D01*
X595Y17802D01*
X598Y17799D01*
X600Y17797D01*
X601Y17795D01*
X602Y17795D01*
X609Y17784D01*
X616Y17773D01*
X621Y17761D01*
X626Y17749D01*
X630Y17737D01*
X634Y17725D01*
X637Y17713D01*
X639Y17702D01*
X640Y17691D01*
X642Y17681D01*
X643Y17672D01*
X643Y17664D01*
X644Y17661D01*
Y17658D01*
X644Y17655D01*
Y17653D01*
Y17651D01*
Y17650D01*
Y17649D01*
Y17649D01*
X644Y17632D01*
X642Y17617D01*
X640Y17601D01*
X637Y17588D01*
X635Y17575D01*
X631Y17563D01*
X627Y17552D01*
X623Y17543D01*
X619Y17534D01*
X615Y17527D01*
X612Y17520D01*
X609Y17515D01*
X606Y17511D01*
X604Y17508D01*
X602Y17506D01*
X602Y17506D01*
X595Y17498D01*
X587Y17491D01*
X579Y17485D01*
X571Y17480D01*
X562Y17476D01*
X554Y17472D01*
X546Y17469D01*
X538Y17467D01*
X530Y17465D01*
X523Y17464D01*
X516Y17463D01*
X511Y17462D01*
X506Y17462D01*
X503Y17461D01*
X500D01*
X491Y17462D01*
X483Y17463D01*
X475Y17464D01*
X467Y17466D01*
X460Y17467D01*
X454Y17470D01*
X448Y17472D01*
X442Y17475D01*
X437Y17477D01*
X432Y17480D01*
X429Y17482D01*
X425Y17484D01*
X423Y17485D01*
X421Y17487D01*
X420Y17487D01*
X420Y17488D01*
X414Y17493D01*
X408Y17499D01*
X403Y17505D01*
X398Y17512D01*
X393Y17518D01*
X389Y17525D01*
X385Y17532D01*
X383Y17538D01*
X380Y17545D01*
X377Y17550D01*
X375Y17556D01*
X373Y17560D01*
X372Y17564D01*
X371Y17567D01*
X370Y17568D01*
Y17569D01*
X448Y17585D01*
X451Y17576D01*
X454Y17568D01*
X458Y17561D01*
X462Y17555D01*
X466Y17550D01*
X470Y17546D01*
X474Y17543D01*
X479Y17540D01*
X483Y17538D01*
X487Y17536D01*
X490Y17535D01*
X493Y17534D01*
X495Y17534D01*
X498Y17533D01*
X499D01*
X504Y17534D01*
X509Y17534D01*
X513Y17535D01*
X518Y17537D01*
X525Y17541D01*
X532Y17545D01*
X537Y17549D01*
X539Y17551D01*
X541Y17553D01*
X543Y17554D01*
X544Y17555D01*
X544Y17556D01*
X545Y17557D01*
X548Y17561D01*
X551Y17566D01*
X553Y17572D01*
X555Y17577D01*
X559Y17588D01*
X561Y17599D01*
X562Y17604D01*
X562Y17609D01*
X563Y17613D01*
X563Y17617D01*
X563Y17619D01*
Y17622D01*
Y17623D01*
Y17624D01*
X367D01*
Y17634D01*
X367Y17654D01*
X368Y17671D01*
X370Y17688D01*
X373Y17704D01*
X376Y17718D01*
X380Y17731D01*
X384Y17743D01*
X387Y17753D01*
X391Y17763D01*
X395Y17771D01*
X398Y17778D01*
X401Y17784D01*
X404Y17788D01*
X406Y17791D01*
X408Y17793D01*
X408Y17794D01*
X415Y17802D01*
X423Y17809D01*
X431Y17816D01*
X439Y17821D01*
X447Y17826D01*
X455Y17830D01*
X464Y17833D01*
X472Y17835D01*
X479Y17837D01*
X486Y17839D01*
X492Y17840D01*
X498Y17840D01*
X502Y17841D01*
X505Y17841D01*
X508D01*
X518Y17841D01*
D02*
G37*
G36*
X1800Y17470D02*
X1717D01*
Y17659D01*
X1650D01*
X1637Y17659D01*
X1626Y17660D01*
X1615Y17661D01*
X1606Y17662D01*
X1597Y17664D01*
X1589Y17665D01*
X1582Y17666D01*
X1577Y17668D01*
X1571Y17669D01*
X1567Y17670D01*
X1564Y17671D01*
X1561Y17672D01*
X1559Y17673D01*
X1558Y17673D01*
X1558D01*
X1552Y17676D01*
X1547Y17680D01*
X1537Y17688D01*
X1528Y17696D01*
X1520Y17705D01*
X1517Y17709D01*
X1514Y17713D01*
X1512Y17716D01*
X1510Y17719D01*
X1508Y17722D01*
X1507Y17723D01*
X1507Y17725D01*
X1506Y17725D01*
X1503Y17732D01*
X1499Y17739D01*
X1497Y17747D01*
X1494Y17755D01*
X1491Y17770D01*
X1489Y17777D01*
X1488Y17784D01*
X1487Y17791D01*
X1487Y17797D01*
X1486Y17802D01*
X1486Y17807D01*
X1486Y17811D01*
Y17814D01*
Y17815D01*
Y17816D01*
X1486Y17827D01*
X1487Y17837D01*
X1488Y17847D01*
X1489Y17857D01*
X1491Y17865D01*
X1493Y17873D01*
X1495Y17881D01*
X1497Y17887D01*
X1500Y17893D01*
X1502Y17898D01*
X1504Y17903D01*
X1506Y17907D01*
X1507Y17910D01*
X1508Y17912D01*
X1509Y17913D01*
X1510Y17914D01*
X1514Y17921D01*
X1519Y17927D01*
X1524Y17932D01*
X1529Y17937D01*
X1534Y17942D01*
X1539Y17946D01*
X1544Y17950D01*
X1548Y17953D01*
X1553Y17955D01*
X1557Y17958D01*
X1561Y17960D01*
X1564Y17961D01*
X1566Y17962D01*
X1568Y17962D01*
X1569Y17963D01*
X1570D01*
X1575Y17965D01*
X1581Y17966D01*
X1587Y17967D01*
X1595Y17968D01*
X1602Y17968D01*
X1611Y17969D01*
X1627Y17970D01*
X1635D01*
X1642Y17970D01*
X1649D01*
X1655Y17971D01*
X1800D01*
Y17470D01*
D02*
G37*
G36*
X172Y17841D02*
X179Y17839D01*
X185Y17837D01*
X190Y17835D01*
X194Y17833D01*
X197Y17831D01*
X199Y17829D01*
X200Y17829D01*
X203Y17826D01*
X205Y17823D01*
X208Y17820D01*
X211Y17816D01*
X217Y17809D01*
X222Y17800D01*
X226Y17793D01*
X228Y17790D01*
X230Y17787D01*
X231Y17784D01*
X232Y17782D01*
X233Y17781D01*
X233Y17781D01*
Y17833D01*
X306D01*
Y17470D01*
X227D01*
Y17582D01*
Y17597D01*
X227Y17611D01*
Y17624D01*
X226Y17636D01*
X226Y17646D01*
X226Y17656D01*
X225Y17665D01*
X225Y17672D01*
X224Y17679D01*
X223Y17684D01*
X223Y17689D01*
X223Y17692D01*
X222Y17695D01*
Y17697D01*
X222Y17698D01*
Y17699D01*
X221Y17705D01*
X220Y17710D01*
X218Y17715D01*
X217Y17719D01*
X215Y17723D01*
X214Y17726D01*
X212Y17730D01*
X211Y17733D01*
X209Y17735D01*
X208Y17737D01*
X206Y17740D01*
X204Y17742D01*
X204Y17743D01*
X199Y17747D01*
X194Y17750D01*
X189Y17752D01*
X185Y17753D01*
X181Y17754D01*
X178Y17755D01*
X172D01*
X168Y17754D01*
X162Y17752D01*
X156Y17750D01*
X150Y17747D01*
X145Y17744D01*
X141Y17742D01*
X140Y17740D01*
X139Y17740D01*
X138Y17739D01*
X138Y17739D01*
X113Y17823D01*
X118Y17826D01*
X122Y17829D01*
X127Y17831D01*
X132Y17833D01*
X141Y17837D01*
X148Y17839D01*
X152Y17840D01*
X155Y17840D01*
X158Y17841D01*
X161D01*
X162Y17841D01*
X165D01*
X172Y17841D01*
D02*
G37*
G36*
X1291D02*
X1299Y17840D01*
X1306Y17839D01*
X1313Y17838D01*
X1320Y17836D01*
X1326Y17834D01*
X1332Y17832D01*
X1338Y17830D01*
X1343Y17828D01*
X1347Y17826D01*
X1351Y17824D01*
X1354Y17822D01*
X1357Y17821D01*
X1359Y17820D01*
X1360Y17819D01*
X1360Y17819D01*
X1366Y17814D01*
X1372Y17810D01*
X1383Y17799D01*
X1388Y17794D01*
X1393Y17789D01*
X1397Y17783D01*
X1400Y17778D01*
X1404Y17773D01*
X1407Y17768D01*
X1409Y17764D01*
X1411Y17760D01*
X1413Y17757D01*
X1414Y17755D01*
X1415Y17754D01*
X1415Y17753D01*
X1419Y17745D01*
X1422Y17737D01*
X1425Y17728D01*
X1427Y17720D01*
X1429Y17712D01*
X1431Y17703D01*
X1433Y17696D01*
X1434Y17688D01*
X1434Y17682D01*
X1435Y17675D01*
X1436Y17670D01*
X1436Y17665D01*
X1436Y17661D01*
Y17658D01*
Y17657D01*
Y17656D01*
X1436Y17639D01*
X1434Y17623D01*
X1432Y17608D01*
X1430Y17594D01*
X1426Y17581D01*
X1423Y17569D01*
X1419Y17558D01*
X1414Y17549D01*
X1410Y17540D01*
X1406Y17533D01*
X1403Y17527D01*
X1399Y17521D01*
X1397Y17517D01*
X1394Y17514D01*
X1393Y17513D01*
X1393Y17512D01*
X1384Y17503D01*
X1375Y17495D01*
X1366Y17488D01*
X1357Y17483D01*
X1348Y17478D01*
X1339Y17474D01*
X1330Y17470D01*
X1321Y17468D01*
X1313Y17466D01*
X1306Y17464D01*
X1299Y17463D01*
X1294Y17462D01*
X1289Y17462D01*
X1286Y17461D01*
X1283D01*
X1275Y17462D01*
X1268Y17463D01*
X1260Y17464D01*
X1254Y17465D01*
X1247Y17467D01*
X1241Y17469D01*
X1235Y17471D01*
X1229Y17473D01*
X1224Y17475D01*
X1220Y17477D01*
X1216Y17479D01*
X1213Y17481D01*
X1210Y17482D01*
X1208Y17483D01*
X1207Y17484D01*
X1207Y17484D01*
X1201Y17488D01*
X1194Y17493D01*
X1184Y17504D01*
X1178Y17510D01*
X1174Y17516D01*
X1170Y17521D01*
X1166Y17526D01*
X1162Y17531D01*
X1159Y17536D01*
X1157Y17541D01*
X1154Y17544D01*
X1153Y17547D01*
X1152Y17550D01*
X1151Y17551D01*
X1151Y17552D01*
X1147Y17560D01*
X1144Y17569D01*
X1141Y17578D01*
X1138Y17587D01*
X1136Y17595D01*
X1134Y17604D01*
X1133Y17612D01*
X1132Y17619D01*
X1131Y17627D01*
X1130Y17633D01*
X1130Y17639D01*
X1130Y17644D01*
X1129Y17648D01*
Y17651D01*
Y17652D01*
Y17653D01*
X1130Y17667D01*
X1131Y17681D01*
X1133Y17693D01*
X1135Y17705D01*
X1139Y17717D01*
X1142Y17728D01*
X1146Y17738D01*
X1150Y17747D01*
X1154Y17755D01*
X1157Y17763D01*
X1161Y17769D01*
X1164Y17775D01*
X1167Y17779D01*
X1168Y17782D01*
X1170Y17784D01*
X1170Y17785D01*
X1178Y17794D01*
X1187Y17803D01*
X1196Y17811D01*
X1205Y17817D01*
X1215Y17823D01*
X1224Y17827D01*
X1233Y17831D01*
X1242Y17834D01*
X1251Y17836D01*
X1258Y17838D01*
X1265Y17839D01*
X1271Y17840D01*
X1276Y17841D01*
X1280Y17841D01*
X1283D01*
X1291Y17841D01*
D02*
G37*
G36*
X2330Y16694D02*
X2037D01*
X2330Y16547D01*
Y16476D01*
X1892D01*
Y16544D01*
X2178D01*
X1892Y16688D01*
Y16761D01*
X2330D01*
Y16694D01*
D02*
G37*
G36*
X2131Y16418D02*
X2149Y16417D01*
X2167Y16414D01*
X2183Y16411D01*
X2198Y16407D01*
X2212Y16403D01*
X2224Y16399D01*
X2236Y16394D01*
X2246Y16390D01*
X2250Y16388D01*
X2254Y16385D01*
X2258Y16383D01*
X2262Y16381D01*
X2265Y16379D01*
X2268Y16377D01*
X2270Y16376D01*
X2273Y16375D01*
X2275Y16373D01*
X2276Y16372D01*
X2277Y16371D01*
X2278Y16371D01*
X2278Y16370D01*
X2279D01*
X2284Y16365D01*
X2289Y16361D01*
X2294Y16356D01*
X2298Y16351D01*
X2306Y16341D01*
X2313Y16330D01*
X2319Y16319D01*
X2323Y16309D01*
X2327Y16299D01*
X2330Y16289D01*
X2333Y16280D01*
X2334Y16271D01*
X2336Y16264D01*
X2337Y16257D01*
X2337Y16254D01*
X2337Y16252D01*
Y16250D01*
X2338Y16248D01*
Y16244D01*
X2337Y16235D01*
X2337Y16225D01*
X2335Y16216D01*
X2334Y16208D01*
X2332Y16200D01*
X2330Y16192D01*
X2328Y16185D01*
X2325Y16179D01*
X2323Y16173D01*
X2321Y16168D01*
X2319Y16164D01*
X2317Y16160D01*
X2315Y16157D01*
X2314Y16155D01*
X2313Y16154D01*
X2313Y16154D01*
X2308Y16147D01*
X2302Y16140D01*
X2297Y16134D01*
X2290Y16128D01*
X2284Y16123D01*
X2278Y16118D01*
X2272Y16113D01*
X2265Y16109D01*
X2260Y16106D01*
X2254Y16102D01*
X2250Y16099D01*
X2245Y16097D01*
X2242Y16095D01*
X2239Y16094D01*
X2238Y16093D01*
X2237Y16093D01*
X2227Y16089D01*
X2217Y16086D01*
X2206Y16082D01*
X2195Y16080D01*
X2185Y16077D01*
X2174Y16076D01*
X2164Y16074D01*
X2154Y16073D01*
X2144Y16072D01*
X2136Y16071D01*
X2128Y16071D01*
X2121Y16070D01*
X2118D01*
X2116Y16070D01*
X2114D01*
X2112D01*
X2110D01*
X2109D01*
X2109D01*
X2108D01*
X2089Y16071D01*
X2070Y16072D01*
X2053Y16075D01*
X2036Y16078D01*
X2021Y16082D01*
X2007Y16086D01*
X1995Y16091D01*
X1983Y16096D01*
X1973Y16100D01*
X1968Y16103D01*
X1964Y16105D01*
X1960Y16107D01*
X1956Y16109D01*
X1953Y16111D01*
X1950Y16113D01*
X1947Y16115D01*
X1945Y16116D01*
X1943Y16118D01*
X1941Y16119D01*
X1940Y16120D01*
X1939Y16121D01*
X1939Y16121D01*
X1939D01*
X1929Y16130D01*
X1921Y16140D01*
X1914Y16149D01*
X1907Y16159D01*
X1902Y16170D01*
X1898Y16180D01*
X1894Y16190D01*
X1891Y16200D01*
X1889Y16209D01*
X1887Y16217D01*
X1886Y16225D01*
X1885Y16231D01*
X1885Y16234D01*
X1885Y16237D01*
Y16239D01*
X1884Y16241D01*
Y16244D01*
X1885Y16259D01*
X1887Y16272D01*
X1890Y16284D01*
X1893Y16296D01*
X1897Y16307D01*
X1902Y16317D01*
X1906Y16326D01*
X1912Y16335D01*
X1917Y16342D01*
X1922Y16349D01*
X1926Y16354D01*
X1930Y16359D01*
X1934Y16363D01*
X1937Y16365D01*
X1938Y16366D01*
X1939Y16367D01*
X1951Y16376D01*
X1964Y16384D01*
X1978Y16391D01*
X1992Y16397D01*
X2006Y16402D01*
X2021Y16406D01*
X2034Y16410D01*
X2048Y16412D01*
X2061Y16414D01*
X2073Y16416D01*
X2078Y16417D01*
X2083Y16417D01*
X2088Y16417D01*
X2093Y16418D01*
X2097D01*
X2100Y16418D01*
X2103D01*
X2106Y16419D01*
X2108D01*
X2110D01*
X2111D01*
X2111D01*
X2131Y16418D01*
D02*
G37*
G36*
X2330Y15113D02*
X1892D01*
Y15185D01*
X2078D01*
Y15336D01*
X2152D01*
Y15185D01*
X2256D01*
Y15359D01*
X2330D01*
Y15113D01*
D02*
G37*
G36*
Y14806D02*
X1892D01*
Y14878D01*
X2078D01*
Y15029D01*
X2152D01*
Y14878D01*
X2256D01*
Y15052D01*
X2330D01*
Y14806D01*
D02*
G37*
G36*
X2131Y14748D02*
X2149Y14747D01*
X2167Y14744D01*
X2183Y14741D01*
X2198Y14737D01*
X2212Y14733D01*
X2224Y14729D01*
X2236Y14724D01*
X2246Y14720D01*
X2250Y14718D01*
X2254Y14715D01*
X2258Y14713D01*
X2262Y14711D01*
X2265Y14709D01*
X2268Y14707D01*
X2270Y14706D01*
X2273Y14705D01*
X2275Y14703D01*
X2276Y14702D01*
X2277Y14701D01*
X2278Y14701D01*
X2278Y14700D01*
X2279D01*
X2284Y14695D01*
X2289Y14691D01*
X2294Y14686D01*
X2298Y14681D01*
X2306Y14671D01*
X2313Y14660D01*
X2319Y14649D01*
X2323Y14639D01*
X2327Y14629D01*
X2330Y14619D01*
X2333Y14610D01*
X2334Y14601D01*
X2336Y14594D01*
X2337Y14587D01*
X2337Y14584D01*
X2337Y14582D01*
Y14579D01*
X2338Y14578D01*
Y14574D01*
X2337Y14565D01*
X2337Y14555D01*
X2335Y14546D01*
X2334Y14538D01*
X2332Y14530D01*
X2330Y14522D01*
X2328Y14515D01*
X2325Y14509D01*
X2323Y14503D01*
X2321Y14498D01*
X2319Y14494D01*
X2317Y14490D01*
X2315Y14487D01*
X2314Y14485D01*
X2313Y14484D01*
X2313Y14484D01*
X2308Y14477D01*
X2302Y14470D01*
X2297Y14464D01*
X2290Y14458D01*
X2284Y14453D01*
X2278Y14448D01*
X2272Y14443D01*
X2265Y14439D01*
X2260Y14436D01*
X2254Y14432D01*
X2250Y14429D01*
X2245Y14427D01*
X2242Y14425D01*
X2239Y14424D01*
X2238Y14423D01*
X2237Y14423D01*
X2227Y14419D01*
X2217Y14416D01*
X2206Y14412D01*
X2195Y14410D01*
X2185Y14407D01*
X2174Y14406D01*
X2164Y14404D01*
X2154Y14403D01*
X2144Y14402D01*
X2136Y14401D01*
X2128Y14401D01*
X2121Y14400D01*
X2118D01*
X2116Y14400D01*
X2114D01*
X2112D01*
X2110D01*
X2109D01*
X2109D01*
X2108D01*
X2089Y14401D01*
X2070Y14402D01*
X2053Y14405D01*
X2036Y14408D01*
X2021Y14412D01*
X2007Y14416D01*
X1995Y14421D01*
X1983Y14426D01*
X1973Y14430D01*
X1968Y14433D01*
X1964Y14435D01*
X1960Y14437D01*
X1956Y14439D01*
X1953Y14441D01*
X1950Y14443D01*
X1947Y14445D01*
X1945Y14446D01*
X1943Y14448D01*
X1941Y14449D01*
X1940Y14450D01*
X1939Y14451D01*
X1939Y14451D01*
X1939D01*
X1929Y14460D01*
X1921Y14470D01*
X1914Y14479D01*
X1907Y14489D01*
X1902Y14500D01*
X1898Y14510D01*
X1894Y14520D01*
X1891Y14530D01*
X1889Y14539D01*
X1887Y14547D01*
X1886Y14555D01*
X1885Y14561D01*
X1885Y14564D01*
X1885Y14567D01*
Y14569D01*
X1884Y14571D01*
Y14574D01*
X1885Y14589D01*
X1887Y14602D01*
X1890Y14614D01*
X1893Y14626D01*
X1897Y14637D01*
X1902Y14647D01*
X1906Y14656D01*
X1912Y14665D01*
X1917Y14672D01*
X1922Y14679D01*
X1926Y14684D01*
X1930Y14689D01*
X1934Y14693D01*
X1937Y14695D01*
X1938Y14696D01*
X1939Y14697D01*
X1951Y14706D01*
X1964Y14714D01*
X1978Y14721D01*
X1992Y14727D01*
X2006Y14732D01*
X2021Y14736D01*
X2034Y14740D01*
X2048Y14742D01*
X2061Y14744D01*
X2073Y14746D01*
X2078Y14747D01*
X2083Y14747D01*
X2088Y14747D01*
X2093Y14748D01*
X2097D01*
X2100Y14748D01*
X2103D01*
X2106Y14749D01*
X2108D01*
X2110D01*
X2111D01*
X2111D01*
X2131Y14748D01*
D02*
G37*
%LPC*%
G36*
X506Y17768D02*
X503D01*
X499Y17767D01*
X495Y17767D01*
X491Y17766D01*
X487Y17765D01*
X480Y17761D01*
X474Y17757D01*
X469Y17753D01*
X466Y17750D01*
X465Y17748D01*
X464Y17747D01*
X463Y17747D01*
X463Y17746D01*
X460Y17742D01*
X457Y17738D01*
X452Y17728D01*
X449Y17717D01*
X447Y17706D01*
X446Y17702D01*
X445Y17697D01*
X445Y17693D01*
X445Y17689D01*
Y17686D01*
X444Y17684D01*
Y17683D01*
Y17682D01*
X562D01*
Y17690D01*
X562Y17697D01*
X561Y17703D01*
X560Y17709D01*
X559Y17715D01*
X557Y17720D01*
X556Y17725D01*
X554Y17729D01*
X552Y17733D01*
X551Y17736D01*
X549Y17739D01*
X548Y17741D01*
X547Y17743D01*
X546Y17744D01*
X545Y17745D01*
Y17745D01*
X542Y17749D01*
X539Y17753D01*
X535Y17756D01*
X532Y17758D01*
X528Y17760D01*
X525Y17762D01*
X518Y17765D01*
X512Y17767D01*
X509Y17767D01*
X507Y17767D01*
X506Y17768D01*
D02*
G37*
G36*
X1717Y17886D02*
X1668D01*
X1659Y17886D01*
X1652D01*
X1645Y17885D01*
X1638Y17884D01*
X1633Y17884D01*
X1628Y17884D01*
X1624Y17883D01*
X1620Y17883D01*
X1617Y17882D01*
X1614Y17881D01*
X1612Y17881D01*
X1611Y17881D01*
X1610Y17880D01*
X1609Y17880D01*
X1603Y17877D01*
X1598Y17874D01*
X1593Y17870D01*
X1589Y17866D01*
X1586Y17863D01*
X1584Y17860D01*
X1582Y17857D01*
X1582Y17857D01*
Y17857D01*
X1578Y17850D01*
X1575Y17843D01*
X1573Y17836D01*
X1572Y17829D01*
X1571Y17824D01*
X1571Y17821D01*
X1571Y17819D01*
Y17817D01*
Y17816D01*
Y17815D01*
Y17815D01*
X1571Y17806D01*
X1572Y17798D01*
X1574Y17791D01*
X1576Y17785D01*
X1578Y17780D01*
X1579Y17776D01*
X1580Y17775D01*
X1581Y17774D01*
X1581Y17773D01*
Y17773D01*
X1585Y17767D01*
X1590Y17762D01*
X1595Y17758D01*
X1599Y17755D01*
X1603Y17753D01*
X1606Y17751D01*
X1608Y17750D01*
X1608Y17750D01*
X1609D01*
X1612Y17749D01*
X1616Y17747D01*
X1621Y17747D01*
X1626Y17746D01*
X1636Y17745D01*
X1646Y17744D01*
X1651Y17744D01*
X1661D01*
X1664Y17743D01*
X1717D01*
Y17886D01*
D02*
G37*
G36*
X1286Y17763D02*
X1283D01*
X1278Y17763D01*
X1272Y17762D01*
X1267Y17760D01*
X1262Y17759D01*
X1254Y17754D01*
X1246Y17749D01*
X1243Y17746D01*
X1240Y17743D01*
X1238Y17741D01*
X1235Y17739D01*
X1234Y17737D01*
X1233Y17736D01*
X1232Y17735D01*
X1232Y17735D01*
X1228Y17729D01*
X1224Y17723D01*
X1222Y17716D01*
X1219Y17710D01*
X1217Y17703D01*
X1215Y17696D01*
X1212Y17682D01*
X1212Y17676D01*
X1211Y17671D01*
X1211Y17665D01*
X1210Y17661D01*
X1210Y17657D01*
Y17654D01*
Y17652D01*
Y17652D01*
X1210Y17642D01*
X1211Y17632D01*
X1212Y17623D01*
X1213Y17615D01*
X1215Y17608D01*
X1217Y17601D01*
X1219Y17594D01*
X1221Y17589D01*
X1222Y17584D01*
X1225Y17580D01*
X1226Y17576D01*
X1228Y17573D01*
X1229Y17571D01*
X1230Y17569D01*
X1231Y17568D01*
X1231Y17568D01*
X1235Y17563D01*
X1239Y17558D01*
X1244Y17555D01*
X1248Y17551D01*
X1252Y17549D01*
X1257Y17547D01*
X1261Y17545D01*
X1265Y17543D01*
X1272Y17541D01*
X1275Y17540D01*
X1277Y17540D01*
X1279D01*
X1281Y17540D01*
X1282D01*
X1288Y17540D01*
X1293Y17541D01*
X1298Y17542D01*
X1303Y17544D01*
X1312Y17548D01*
X1320Y17554D01*
X1323Y17556D01*
X1326Y17559D01*
X1328Y17561D01*
X1330Y17563D01*
X1332Y17565D01*
X1333Y17567D01*
X1334Y17567D01*
X1334Y17568D01*
X1338Y17573D01*
X1341Y17580D01*
X1344Y17586D01*
X1346Y17592D01*
X1349Y17600D01*
X1350Y17607D01*
X1353Y17620D01*
X1354Y17627D01*
X1355Y17632D01*
X1355Y17638D01*
X1355Y17642D01*
X1356Y17646D01*
Y17649D01*
Y17651D01*
Y17651D01*
X1355Y17661D01*
X1355Y17671D01*
X1354Y17679D01*
X1352Y17688D01*
X1351Y17695D01*
X1349Y17702D01*
X1347Y17708D01*
X1345Y17713D01*
X1343Y17718D01*
X1341Y17723D01*
X1339Y17726D01*
X1338Y17729D01*
X1336Y17732D01*
X1335Y17733D01*
X1335Y17734D01*
X1335Y17735D01*
X1330Y17740D01*
X1326Y17744D01*
X1322Y17748D01*
X1318Y17751D01*
X1313Y17754D01*
X1309Y17756D01*
X1305Y17758D01*
X1301Y17759D01*
X1294Y17762D01*
X1291Y17762D01*
X1288Y17763D01*
X1286Y17763D01*
D02*
G37*
G36*
X2118Y16344D02*
X2116D01*
X2115D01*
X2114D01*
X2113D01*
X2113D01*
X2099Y16344D01*
X2085Y16343D01*
X2073Y16342D01*
X2062Y16340D01*
X2051Y16338D01*
X2042Y16335D01*
X2033Y16332D01*
X2026Y16330D01*
X2019Y16327D01*
X2013Y16325D01*
X2008Y16322D01*
X2004Y16320D01*
X2001Y16318D01*
X1999Y16317D01*
X1998Y16316D01*
X1997Y16316D01*
X1991Y16310D01*
X1985Y16305D01*
X1980Y16299D01*
X1976Y16293D01*
X1972Y16287D01*
X1969Y16281D01*
X1966Y16275D01*
X1964Y16270D01*
X1963Y16264D01*
X1962Y16260D01*
X1961Y16255D01*
X1961Y16252D01*
X1960Y16249D01*
X1960Y16247D01*
Y16245D01*
X1960Y16237D01*
X1962Y16229D01*
X1963Y16222D01*
X1966Y16215D01*
X1969Y16209D01*
X1972Y16203D01*
X1975Y16198D01*
X1979Y16193D01*
X1982Y16188D01*
X1986Y16184D01*
X1989Y16181D01*
X1992Y16178D01*
X1994Y16176D01*
X1996Y16174D01*
X1997Y16173D01*
X1998Y16173D01*
X2005Y16168D01*
X2013Y16164D01*
X2022Y16160D01*
X2031Y16157D01*
X2041Y16154D01*
X2050Y16152D01*
X2059Y16150D01*
X2068Y16148D01*
X2077Y16147D01*
X2085Y16146D01*
X2092Y16145D01*
X2099Y16145D01*
X2104D01*
X2106Y16145D01*
X2108D01*
X2109D01*
X2110D01*
X2111D01*
X2111D01*
X2125Y16145D01*
X2138Y16146D01*
X2150Y16147D01*
X2161Y16149D01*
X2172Y16151D01*
X2181Y16153D01*
X2190Y16156D01*
X2197Y16158D01*
X2204Y16161D01*
X2209Y16164D01*
X2214Y16166D01*
X2218Y16168D01*
X2221Y16170D01*
X2224Y16171D01*
X2225Y16172D01*
X2225Y16172D01*
X2232Y16178D01*
X2238Y16183D01*
X2242Y16190D01*
X2247Y16195D01*
X2250Y16202D01*
X2253Y16207D01*
X2256Y16213D01*
X2258Y16219D01*
X2259Y16224D01*
X2260Y16229D01*
X2261Y16234D01*
X2262Y16237D01*
X2262Y16240D01*
X2262Y16243D01*
Y16245D01*
X2262Y16253D01*
X2261Y16261D01*
X2259Y16268D01*
X2256Y16275D01*
X2254Y16281D01*
X2251Y16287D01*
X2247Y16292D01*
X2244Y16297D01*
X2241Y16302D01*
X2237Y16306D01*
X2234Y16309D01*
X2231Y16312D01*
X2229Y16314D01*
X2227Y16315D01*
X2226Y16316D01*
X2226Y16317D01*
X2218Y16321D01*
X2210Y16326D01*
X2202Y16329D01*
X2193Y16332D01*
X2183Y16335D01*
X2174Y16337D01*
X2165Y16339D01*
X2156Y16341D01*
X2147Y16342D01*
X2139Y16343D01*
X2132Y16343D01*
X2125Y16344D01*
X2120D01*
X2118Y16344D01*
D02*
G37*
G36*
Y14674D02*
X2116D01*
X2115D01*
X2114D01*
X2113D01*
X2113D01*
X2099Y14674D01*
X2085Y14673D01*
X2073Y14672D01*
X2062Y14670D01*
X2051Y14668D01*
X2042Y14665D01*
X2033Y14662D01*
X2026Y14660D01*
X2019Y14657D01*
X2013Y14655D01*
X2008Y14652D01*
X2004Y14650D01*
X2001Y14648D01*
X1999Y14647D01*
X1998Y14646D01*
X1997Y14646D01*
X1991Y14640D01*
X1985Y14635D01*
X1980Y14629D01*
X1976Y14623D01*
X1972Y14617D01*
X1969Y14611D01*
X1966Y14605D01*
X1964Y14600D01*
X1963Y14594D01*
X1962Y14590D01*
X1961Y14585D01*
X1961Y14582D01*
X1960Y14579D01*
X1960Y14577D01*
Y14575D01*
X1960Y14567D01*
X1962Y14559D01*
X1963Y14552D01*
X1966Y14545D01*
X1969Y14539D01*
X1972Y14533D01*
X1975Y14528D01*
X1979Y14523D01*
X1982Y14518D01*
X1986Y14514D01*
X1989Y14511D01*
X1992Y14508D01*
X1994Y14506D01*
X1996Y14504D01*
X1997Y14503D01*
X1998Y14503D01*
X2005Y14498D01*
X2013Y14494D01*
X2022Y14490D01*
X2031Y14487D01*
X2041Y14484D01*
X2050Y14482D01*
X2059Y14480D01*
X2068Y14478D01*
X2077Y14477D01*
X2085Y14476D01*
X2092Y14475D01*
X2099Y14475D01*
X2104D01*
X2106Y14475D01*
X2108D01*
X2109D01*
X2110D01*
X2111D01*
X2111D01*
X2125Y14475D01*
X2138Y14476D01*
X2150Y14477D01*
X2161Y14479D01*
X2172Y14481D01*
X2181Y14483D01*
X2190Y14486D01*
X2197Y14488D01*
X2204Y14491D01*
X2209Y14494D01*
X2214Y14496D01*
X2218Y14498D01*
X2221Y14500D01*
X2224Y14501D01*
X2225Y14502D01*
X2225Y14502D01*
X2232Y14508D01*
X2238Y14513D01*
X2242Y14520D01*
X2247Y14525D01*
X2250Y14532D01*
X2253Y14537D01*
X2256Y14543D01*
X2258Y14549D01*
X2259Y14554D01*
X2260Y14559D01*
X2261Y14564D01*
X2262Y14567D01*
X2262Y14570D01*
X2262Y14573D01*
Y14575D01*
X2262Y14583D01*
X2261Y14591D01*
X2259Y14598D01*
X2256Y14605D01*
X2254Y14611D01*
X2251Y14617D01*
X2247Y14622D01*
X2244Y14627D01*
X2241Y14632D01*
X2237Y14636D01*
X2234Y14639D01*
X2231Y14642D01*
X2229Y14644D01*
X2227Y14645D01*
X2226Y14646D01*
X2226Y14647D01*
X2218Y14651D01*
X2210Y14656D01*
X2202Y14659D01*
X2193Y14662D01*
X2183Y14665D01*
X2174Y14667D01*
X2165Y14669D01*
X2156Y14671D01*
X2147Y14672D01*
X2139Y14673D01*
X2132Y14673D01*
X2125Y14674D01*
X2120D01*
X2118Y14674D01*
D02*
G37*
%LPD*%
D10*
X5465Y8307D02*
G03*
X5465Y8307I-268J0D01*
G01*
X6055Y8307D02*
G03*
X6055Y8307I-268J0D01*
G01*
X6646Y8307D02*
G03*
X6646Y8307I-268J0D01*
G01*
X5323Y7726D02*
G03*
X5323Y7726I-205J0D01*
G01*
X6110D02*
G03*
X6110Y7726I-205J0D01*
G01*
X8839Y12717D02*
G03*
X8839Y12717I-138J0D01*
G01*
X9242Y12008D02*
G03*
X9242Y12008I-30J0D01*
G01*
X14457Y4717D02*
G03*
X14457Y4717I-20J0D01*
G01*
X3130Y16142D02*
G03*
X3130Y16142I-374J0D01*
G01*
X5484Y2224D02*
G03*
X5484Y2224I-268J0D01*
G01*
X2118Y13000D02*
G03*
X2118Y13000I-268J0D01*
G01*
X10888Y13500D02*
G03*
X10888Y13500I-268J0D01*
G01*
X1368Y13000D02*
G03*
X1368Y13000I-268J0D01*
G01*
X618D02*
G03*
X618Y13000I-268J0D01*
G01*
X5484Y1437D02*
G03*
X5484Y1437I-268J0D01*
G01*
X4198Y7140D02*
G03*
X4198Y7140I-268J0D01*
G01*
X11773Y4259D02*
G03*
X11773Y4259I-268J0D01*
G01*
Y4850D02*
G03*
X11773Y4850I-268J0D01*
G01*
Y5440D02*
G03*
X11773Y5440I-268J0D01*
G01*
X3130Y16929D02*
G03*
X3130Y16929I-374J0D01*
G01*
X11894Y16999D02*
Y17316D01*
X11894Y19104D02*
Y19421D01*
X9866Y16999D02*
Y17316D01*
Y19104D02*
Y19421D01*
X11785Y16999D02*
X11894D01*
X9866D02*
X9974D01*
X11785Y19421D02*
X11894D01*
X9866Y19421D02*
X9974D01*
X11102Y7323D02*
X12598D01*
X10276Y8110D02*
Y9606D01*
X11102Y10433D02*
X12598D01*
X13386Y8110D02*
Y9606D01*
X14390Y11063D02*
X14980D01*
X14390Y10433D02*
X14980D01*
X3872Y3888D02*
X5634D01*
X5683Y5138D02*
Y5463D01*
X3813Y5138D02*
Y5463D01*
X3813D02*
X4059D01*
X4059Y5335D02*
X4226D01*
X4059D02*
X4059Y5463D01*
X5437D02*
X5437Y5335D01*
X5270D02*
X5437D01*
X5437Y5463D02*
X5683D01*
X13574Y13590D02*
X13889D01*
Y13669D01*
X12531Y13590D02*
X12846D01*
X12531D02*
Y13669D01*
Y14791D02*
Y14870D01*
X12846D01*
X13574D02*
X13889D01*
Y14791D02*
Y14870D01*
X8317Y11860D02*
X9557D01*
Y13100D01*
X8317D02*
X9557D01*
X8317Y11860D02*
Y13100D01*
X3268Y18802D02*
Y19226D01*
Y17198D02*
Y17621D01*
Y19226D02*
X4252D01*
X4993Y17483D02*
Y18940D01*
X3268Y17198D02*
X4252D01*
X12449Y1075D02*
X13276D01*
X12449Y1902D02*
X13276D01*
X12449Y1075D02*
Y1902D01*
X13276Y1075D02*
Y1902D01*
X11559Y15941D02*
Y16020D01*
X11244D02*
X11559D01*
X10201D02*
X10516D01*
X10201Y15941D02*
Y16020D01*
Y14740D02*
Y14819D01*
Y14740D02*
X10516D01*
X11559D02*
Y14819D01*
X11244Y14740D02*
X11559D01*
X9321Y10423D02*
X9370D01*
X10000D02*
X10049D01*
X10000Y9262D02*
X10049D01*
X9321D02*
X9370D01*
X9321D02*
Y10423D01*
X10049Y9262D02*
Y10423D01*
X9647Y7653D02*
Y8007D01*
Y8441D02*
Y8795D01*
X9136Y7653D02*
X9647D01*
X9136Y8795D02*
X9647D01*
X9017Y8086D02*
Y8362D01*
X15207Y10305D02*
X15049D01*
X15128Y10384D02*
Y10226D01*
D11*
X19016Y2029D02*
G03*
X19015Y2030I-41J-51D01*
G01*
X19017Y2028D02*
G03*
X19016Y2029I-42J-50D01*
G01*
X18652Y1034D02*
G03*
X18652Y1034I-94J0D01*
G01*
X18466Y1975D02*
G03*
X18466Y1975I-52J0D01*
G01*
X18588Y1034D02*
G03*
X18588Y1034I-30J0D01*
G01*
X9533Y14004D02*
Y14128D01*
Y14266D02*
Y14390D01*
X9360Y14004D02*
Y14128D01*
Y14266D02*
Y14390D01*
X9533D01*
X9360Y14004D02*
X9533D01*
X7138Y8238D02*
Y8362D01*
Y7976D02*
Y8100D01*
X7311Y8238D02*
Y8362D01*
Y7976D02*
Y8100D01*
X7138Y7976D02*
X7311D01*
X7138Y8362D02*
X7311D01*
X6715Y8469D02*
X6888D01*
X6715Y8854D02*
X6888D01*
X6715Y8730D02*
Y8854D01*
Y8469D02*
Y8593D01*
X6888Y8730D02*
Y8854D01*
Y8469D02*
Y8593D01*
X6890Y6023D02*
Y6437D01*
X6270Y6023D02*
Y6437D01*
X4675Y8751D02*
Y8875D01*
Y9013D02*
Y9137D01*
X4501Y8751D02*
Y8875D01*
Y9013D02*
Y9137D01*
X4675D01*
X4501Y8751D02*
X4675D01*
X4275Y16637D02*
Y16761D01*
Y16376D02*
Y16500D01*
X4448Y16637D02*
Y16761D01*
Y16376D02*
Y16500D01*
X4275Y16376D02*
X4448D01*
X4275Y16761D02*
X4448D01*
X4780Y13923D02*
X4904D01*
X4518D02*
X4642D01*
X4780Y13750D02*
X4904D01*
X4518D02*
X4642D01*
X4518D02*
Y13923D01*
X4904Y13750D02*
Y13923D01*
X4965Y13775D02*
Y13899D01*
Y13513D02*
Y13637D01*
X5138Y13775D02*
Y13899D01*
Y13513D02*
Y13637D01*
X4965Y13513D02*
X5138D01*
X4965Y13899D02*
X5138D01*
X11946Y1392D02*
X12119D01*
X11946Y1006D02*
X12119D01*
Y1130D01*
Y1268D02*
Y1392D01*
X11946Y1006D02*
Y1130D01*
Y1268D02*
Y1392D01*
X9747Y16797D02*
Y16921D01*
Y17059D02*
Y17183D01*
X9573Y16797D02*
Y16921D01*
Y17059D02*
Y17183D01*
X9747D01*
X9573Y16797D02*
X9747D01*
X8943Y14023D02*
Y14197D01*
X8557Y14023D02*
Y14197D01*
Y14023D02*
X8681D01*
X8819D02*
X8943D01*
X8557Y14197D02*
X8681D01*
X8819D02*
X8943D01*
X9257Y14923D02*
X9381D01*
X9519D02*
X9643D01*
X9257Y15097D02*
X9381D01*
X9519D02*
X9643D01*
Y14923D02*
Y15097D01*
X9257Y14923D02*
Y15097D01*
X6277Y6573D02*
X6401D01*
X6539D02*
X6663D01*
X6277Y6747D02*
X6401D01*
X6539D02*
X6663D01*
Y6573D02*
Y6747D01*
X6277Y6573D02*
Y6747D01*
X3463Y8413D02*
X3637D01*
X3463Y8027D02*
X3637D01*
Y8151D01*
Y8289D02*
Y8413D01*
X3463Y8027D02*
Y8151D01*
Y8289D02*
Y8413D01*
X4537Y10483D02*
X4661D01*
X4799D02*
X4923D01*
X4537Y10657D02*
X4661D01*
X4799D02*
X4923D01*
Y10483D02*
Y10657D01*
X4537Y10483D02*
Y10657D01*
X5393Y9963D02*
Y10137D01*
X5007Y9963D02*
Y10137D01*
Y9963D02*
X5131D01*
X5269D02*
X5393D01*
X5007Y10137D02*
X5131D01*
X5269D02*
X5393D01*
X5269Y10387D02*
X5393D01*
X5007D02*
X5131D01*
X5269Y10213D02*
X5393D01*
X5007D02*
X5131D01*
X5007D02*
Y10387D01*
X5393Y10213D02*
Y10387D01*
X3927Y10167D02*
Y10291D01*
Y10429D02*
Y10553D01*
X3753Y10167D02*
Y10291D01*
Y10429D02*
Y10553D01*
X3927D01*
X3753Y10167D02*
X3927D01*
X9496Y16111D02*
Y16684D01*
X8675Y16111D02*
X9496D01*
X8675Y16684D02*
X9496D01*
X8675Y16111D02*
Y16684D01*
X3795Y16761D02*
X3968D01*
X3795Y16375D02*
X3968D01*
Y16500D01*
Y16637D02*
Y16761D01*
X3795Y16375D02*
Y16500D01*
Y16637D02*
Y16761D01*
X4319Y14644D02*
X5303D01*
X4319D02*
Y15628D01*
X5303Y14644D02*
Y15628D01*
X4319D02*
X5303D01*
X6098Y16049D02*
Y16246D01*
X6704Y16049D02*
Y16246D01*
X13763Y4808D02*
Y5182D01*
X14393Y4808D02*
Y5182D01*
X11417Y16137D02*
Y16261D01*
Y16399D02*
Y16523D01*
X11243Y16137D02*
Y16261D01*
Y16399D02*
Y16523D01*
X11417D01*
X11243Y16137D02*
X11417D01*
X10685Y10754D02*
X11539D01*
Y10787D01*
X10685Y10754D02*
Y10787D01*
Y11575D02*
Y11608D01*
X11539D01*
Y11575D02*
Y11608D01*
X6223Y5873D02*
X6397D01*
X6223Y5487D02*
X6397D01*
Y5611D01*
Y5749D02*
Y5873D01*
X6223Y5487D02*
Y5611D01*
Y5749D02*
Y5873D01*
X6169Y9213D02*
Y9337D01*
Y9475D02*
Y9599D01*
X5995Y9213D02*
Y9337D01*
Y9475D02*
Y9599D01*
X6169D01*
X5995Y9213D02*
X6169D01*
X12547Y15743D02*
Y15867D01*
Y15481D02*
Y15605D01*
X12720Y15743D02*
Y15867D01*
Y15481D02*
Y15605D01*
X12547Y15481D02*
X12720D01*
X12547Y15867D02*
X12720D01*
X14091Y15743D02*
Y15867D01*
Y15481D02*
Y15605D01*
X14265Y15743D02*
Y15867D01*
Y15481D02*
Y15605D01*
X14091Y15481D02*
X14265D01*
X14091Y15867D02*
X14265D01*
X12543Y19019D02*
Y19143D01*
Y18757D02*
Y18881D01*
X12717Y19019D02*
Y19143D01*
Y18757D02*
Y18881D01*
X12543Y18757D02*
X12717D01*
X12543Y19143D02*
X12717D01*
X14265Y19268D02*
Y19392D01*
Y19530D02*
Y19654D01*
X14091Y19268D02*
Y19392D01*
Y19530D02*
Y19654D01*
X14265D01*
X14091Y19268D02*
X14265D01*
X13134Y11575D02*
Y11608D01*
X12280D02*
X13134D01*
X12280Y11575D02*
Y11608D01*
Y10754D02*
Y10787D01*
X13134Y10754D02*
Y10787D01*
X12280Y10754D02*
X13134D01*
X5787Y9594D02*
Y9627D01*
X4933D02*
X5787D01*
X4933Y9594D02*
Y9627D01*
Y8773D02*
Y8806D01*
X5787Y8773D02*
Y8806D01*
X4933Y8773D02*
X5787D01*
X12979Y15503D02*
Y15536D01*
Y15503D02*
X13833D01*
Y15536D01*
Y16324D02*
Y16357D01*
X12979Y16324D02*
Y16357D01*
X13833D01*
X12979Y18778D02*
Y18811D01*
Y18778D02*
X13833D01*
Y18811D01*
Y19599D02*
Y19632D01*
X12979Y19599D02*
Y19632D01*
X13833D01*
X10619Y5187D02*
X10743D01*
Y5013D02*
Y5187D01*
X10619Y5013D02*
X10743D01*
X10357Y5187D02*
X10481D01*
X10357Y5013D02*
X10481D01*
X10357D02*
Y5187D01*
X10619Y4937D02*
X10743D01*
Y4763D02*
Y4937D01*
X10619Y4763D02*
X10743D01*
X10357Y4937D02*
X10481D01*
X10357Y4763D02*
X10481D01*
X10357D02*
Y4937D01*
X10619Y4687D02*
X10743D01*
Y4513D02*
Y4687D01*
X10619Y4513D02*
X10743D01*
X10357Y4687D02*
X10481D01*
X10357Y4513D02*
X10481D01*
X10357D02*
Y4687D01*
X6006Y14475D02*
X6202D01*
X6006Y15081D02*
X6202D01*
X3283Y16377D02*
X3457D01*
X3283Y16763D02*
X3457D01*
X3283Y16639D02*
Y16763D01*
Y16377D02*
Y16501D01*
X3457Y16639D02*
Y16763D01*
Y16377D02*
Y16501D01*
X3555Y16637D02*
Y16761D01*
Y16375D02*
Y16500D01*
X3728Y16637D02*
Y16761D01*
Y16375D02*
Y16500D01*
X3555Y16375D02*
X3728D01*
X3555Y16761D02*
X3728D01*
X4208Y16376D02*
Y16500D01*
Y16637D02*
Y16761D01*
X4035Y16376D02*
Y16500D01*
Y16637D02*
Y16761D01*
X4208D01*
X4035Y16376D02*
X4208D01*
X4688D02*
Y16500D01*
Y16637D02*
Y16761D01*
X4515Y16376D02*
Y16500D01*
Y16637D02*
Y16761D01*
X4688D01*
X4515Y16376D02*
X4688D01*
X13995Y5343D02*
X14119D01*
X14257D02*
X14381D01*
X13995D02*
Y5516D01*
X14119Y5516D01*
X14381Y5343D02*
Y5516D01*
X14257Y5516D02*
X14381Y5516D01*
X8117Y7923D02*
X8241D01*
X8379D02*
X8503D01*
X8117Y8097D02*
X8241D01*
X8379D02*
X8503D01*
Y7923D02*
Y8097D01*
X8117Y7923D02*
Y8097D01*
X10593Y16137D02*
X10767D01*
X10593Y16523D02*
X10767D01*
X10593Y16399D02*
Y16523D01*
Y16137D02*
Y16261D01*
X10767Y16399D02*
Y16523D01*
Y16137D02*
Y16261D01*
X13380Y1132D02*
X13504D01*
X13642D02*
X13766D01*
X13380Y1305D02*
X13504D01*
X13642D02*
X13766D01*
Y1132D02*
Y1305D01*
X13380Y1132D02*
Y1305D01*
X13376Y1618D02*
Y1742D01*
Y1356D02*
Y1480D01*
X13549Y1618D02*
Y1742D01*
Y1356D02*
Y1480D01*
X13376Y1356D02*
X13549D01*
X13376Y1742D02*
X13549D01*
X14149Y10745D02*
X14273D01*
X13887D02*
X14011D01*
X14149Y10572D02*
X14273D01*
X13887D02*
X14011D01*
X13887D02*
Y10745D01*
X14273Y10572D02*
Y10745D01*
X14149Y11015D02*
X14273D01*
X13887D02*
X14011D01*
X14149Y10842D02*
X14273D01*
X13887D02*
X14011D01*
X13887D02*
Y11015D01*
X14273Y10842D02*
Y11015D01*
X14149Y11285D02*
X14273D01*
X13887D02*
X14011D01*
X14149Y11112D02*
X14273D01*
X13887D02*
X14011D01*
X13887D02*
Y11285D01*
X14273Y11112D02*
Y11285D01*
X4780Y13683D02*
X4904D01*
X4518D02*
X4642D01*
X4780Y13510D02*
X4904D01*
X4518D02*
X4642D01*
X4518D02*
Y13683D01*
X4904Y13510D02*
Y13683D01*
X3429Y16987D02*
X3553D01*
X3167D02*
X3291D01*
X3429Y16813D02*
X3553D01*
X3167D02*
X3291D01*
X3167D02*
Y16987D01*
X3553Y16813D02*
Y16987D01*
X4519Y14137D02*
X4643D01*
X4257D02*
X4381D01*
X4519Y13963D02*
X4643D01*
X4257D02*
X4381D01*
X4257D02*
Y14137D01*
X4643Y13963D02*
Y14137D01*
X13687Y814D02*
Y987D01*
X13301Y814D02*
Y987D01*
Y814D02*
X13425D01*
X13563D02*
X13687D01*
X13301Y987D02*
X13425D01*
X13563D02*
X13687D01*
X13737Y948D02*
Y1072D01*
Y686D02*
Y810D01*
X13911Y948D02*
Y1072D01*
Y686D02*
Y810D01*
X13737Y686D02*
X13911D01*
X13737Y1072D02*
X13911D01*
X12156Y1236D02*
X12329D01*
X12156Y1622D02*
X12329D01*
X12156Y1498D02*
Y1622D01*
Y1236D02*
Y1360D01*
X12329Y1498D02*
Y1622D01*
Y1236D02*
Y1360D01*
X12396Y718D02*
Y842D01*
Y456D02*
Y580D01*
X12569Y718D02*
Y842D01*
Y456D02*
Y580D01*
X12396Y456D02*
X12569D01*
X12396Y842D02*
X12569D01*
X11960Y672D02*
Y845D01*
X12346Y672D02*
Y845D01*
X12221D02*
X12346D01*
X11960D02*
X12084D01*
X12221Y672D02*
X12346D01*
X11960D02*
X12084D01*
X12156Y1676D02*
X12329D01*
X12156Y2062D02*
X12329D01*
X12156Y1938D02*
Y2062D01*
Y1676D02*
Y1800D01*
X12329Y1938D02*
Y2062D01*
Y1676D02*
Y1800D01*
X18181Y699D02*
X19331D01*
X18181Y410D02*
Y699D01*
Y410D02*
X19331D01*
Y699D01*
X18449Y1938D02*
Y1938D01*
X18449Y1938D01*
Y1938D01*
Y1938D01*
Y1938D01*
Y1938D01*
Y1938D01*
Y1938D01*
Y1938D01*
Y1938D01*
X18449Y1938D01*
Y1938D01*
Y1938D01*
Y1938D01*
Y1938D01*
Y1938D01*
Y1938D01*
Y1938D01*
X18449D01*
Y1938D01*
Y1939D01*
Y1939D01*
Y1939D01*
Y1939D01*
Y1939D01*
Y1939D01*
X18449Y1939D01*
Y1939D01*
Y1939D01*
Y1939D01*
Y1939D01*
Y1939D01*
Y1939D01*
X18449Y1939D01*
Y1939D01*
Y1939D01*
Y1939D01*
Y1939D01*
Y1939D01*
Y1939D01*
X18449Y1939D01*
Y1939D01*
Y1939D01*
Y1939D01*
Y1939D01*
Y1939D01*
X18449Y1939D01*
Y1939D01*
Y1939D01*
Y1939D01*
Y1939D01*
X18449Y1939D01*
Y1939D01*
Y1939D01*
X18449Y1939D01*
Y1939D01*
Y1939D01*
X18449Y1939D01*
Y1940D01*
X18449Y1940D01*
Y1940D01*
X18449Y1940D01*
Y1940D01*
X18449Y1940D01*
Y1940D01*
X18449Y1940D01*
Y1940D01*
X18449Y1940D01*
Y1940D01*
X18449Y1940D01*
Y1940D01*
X18449Y1940D01*
X18449Y1940D01*
Y1940D01*
X18449Y1940D01*
Y1941D01*
X18449Y1941D01*
X18449Y1941D01*
Y1941D01*
X18449Y1941D01*
X18449Y1941D01*
Y1941D01*
X18449Y1941D01*
X18449Y1941D01*
X18449Y1941D01*
Y1941D01*
X18449Y1941D01*
X18449Y1942D01*
X18449Y1942D01*
X18449Y1942D01*
X18449Y1942D01*
X18449Y1942D01*
X18449Y1942D01*
X18449Y1942D01*
X18449Y1942D01*
X18449Y1943D01*
X18449Y1943D01*
X18450Y1943D01*
X18450Y1943D01*
X18450Y1943D01*
X18450Y1943D01*
X18450Y1943D01*
X18450Y1944D01*
X18450Y1944D01*
X18450Y1944D01*
X18450Y1944D01*
X18450Y1944D01*
X18450Y1944D01*
X18450Y1945D01*
X18450Y1945D01*
X18450Y1945D01*
X18450Y1945D01*
X18450Y1945D01*
X18450Y1946D01*
X18450Y1946D01*
X18450Y1946D01*
X18450Y1946D01*
X18450Y1947D01*
X18451Y1947D01*
X18451Y1947D01*
X18451Y1947D01*
X18451Y1948D01*
X18451Y1948D01*
X18451Y1948D01*
X18451Y1949D01*
X18451Y1949D01*
X18451Y1949D01*
X18451Y1950D01*
X18451Y1950D01*
X18452Y1950D01*
X18452Y1951D01*
X18452Y1951D01*
X18452Y1951D01*
X18452Y1952D01*
X18452Y1952D01*
X18452Y1953D01*
X18453Y1953D01*
X18453Y1954D01*
X18453Y1954D01*
X18453Y1955D01*
X18453Y1955D01*
X18453Y1956D01*
X18454Y1956D01*
X18454Y1957D01*
X18454Y1957D01*
X18454Y1958D01*
X18455Y1959D01*
X18455Y1959D01*
X18455Y1960D01*
X18455Y1961D01*
X18456Y1961D01*
X18456Y1962D01*
X18456Y1963D01*
X18457Y1964D01*
X18457Y1964D01*
X18457Y1965D01*
X18458Y1966D01*
X18458Y1967D01*
X18459Y1968D01*
X18459Y1969D01*
X18460Y1970D01*
X18460Y1971D01*
X18461Y1972D01*
X18461Y1973D01*
X18462Y1974D01*
X18462Y1975D01*
X18463Y1976D01*
X18463Y1977D01*
X18464Y1978D01*
X18465Y1979D01*
X18465Y1980D01*
X18466Y1981D01*
X18467Y1982D01*
X18467Y1983D01*
X18468Y1984D01*
X18469Y1986D01*
X18470Y1987D01*
X18471Y1988D01*
X18472Y1989D01*
X18472Y1991D01*
X18473Y1992D01*
X18474Y1993D01*
X18475Y1994D01*
X18476Y1995D01*
X18477Y1997D01*
X18478Y1998D01*
X18479Y1999D01*
X18480Y2000D01*
X18481Y2001D01*
X18482Y2002D01*
X18483Y2004D01*
X18484Y2005D01*
X18485Y2006D01*
X18486Y2007D01*
X18487Y2008D01*
X18488Y2010D01*
X18489Y2011D01*
X18491Y2012D01*
X18492Y2013D01*
X18493Y2015D01*
X18494Y2016D01*
X18495Y2017D01*
X18497Y2018D01*
X18498Y2019D01*
X18499Y2020D01*
X18500Y2021D01*
X18501Y2022D01*
X18503Y2024D01*
X18504Y2025D01*
X18505Y2026D01*
X18506Y2027D01*
X18508Y2028D01*
X18508Y2028D01*
X18508Y2029D01*
X18509Y2029D01*
X18509Y2029D01*
X18509Y2029D01*
X18509Y2030D01*
X18510Y2030D01*
X18510Y2030D01*
X18510Y2030D01*
X18511Y2030D01*
X18511Y2030D01*
X18511Y2031D01*
X18511Y2031D01*
X18512Y2031D01*
X18512Y2031D01*
X18512Y2031D01*
X18512Y2032D01*
X18513Y2032D01*
X18513Y2032D01*
X18513Y2032D01*
X18513Y2032D01*
X18514Y2033D01*
X18514Y2033D01*
X18514Y2033D01*
X18515Y2033D01*
X18515Y2033D01*
X18515Y2034D01*
X18515Y2034D01*
X18516Y2034D01*
X18516Y2034D01*
X18516Y2034D01*
X18517Y2034D01*
X18517Y2035D01*
X18517Y2035D01*
X18517Y2035D01*
X18518Y2035D01*
X18518Y2035D01*
X18518Y2036D01*
X18519Y2036D01*
X18519Y2036D01*
X18519Y2036D01*
X18520Y2036D01*
X18520Y2036D01*
X18520Y2037D01*
X18521Y2037D01*
X18521Y2037D01*
X18521Y2037D01*
X18522Y2037D01*
X18522Y2038D01*
X18522Y2038D01*
X18522Y2038D01*
X18523Y2038D01*
X18523Y2038D01*
X18523Y2038D01*
X18524Y2039D01*
X18524Y2039D01*
X18524Y2039D01*
X18525Y2039D01*
X18525Y2039D01*
X18526Y2039D01*
X18526Y2040D01*
X18526Y2040D01*
X18527Y2040D01*
X18527Y2040D01*
X18527Y2040D01*
X18528Y2040D01*
X18528Y2041D01*
X18528Y2041D01*
X18529Y2041D01*
X18529Y2041D01*
X18529Y2041D01*
X18530Y2041D01*
X18530Y2042D01*
X18530Y2042D01*
X18531Y2042D01*
X18531Y2042D01*
X18531Y2042D01*
X18532Y2042D01*
X18532Y2043D01*
X18533Y2043D01*
X18533Y2043D01*
X18533Y2043D01*
X18534Y2043D01*
X18534Y2043D01*
X18534Y2043D01*
X18535Y2044D01*
X18535Y2044D01*
X18536Y2044D01*
X18536Y2044D01*
X18536Y2044D01*
X18537Y2044D01*
X18537Y2045D01*
X18537Y2045D01*
X18538Y2045D01*
X18538Y2045D01*
X18539Y2045D01*
X18539Y2045D01*
X18539Y2045D01*
X18540Y2046D01*
X18540Y2046D01*
X18541Y2046D01*
X18541Y2046D01*
X18541Y2046D01*
X18542Y2046D01*
X18542Y2046D01*
X18543Y2047D01*
X18543Y2047D01*
X18543Y2047D01*
X18544Y2047D01*
X18544Y2047D01*
X18545Y2047D01*
X18546Y2048D01*
X18546Y2048D01*
X18547Y2048D01*
X18547Y2048D01*
X18548Y2048D01*
X18548Y2049D01*
X18549Y2049D01*
X18549Y2049D01*
X18550Y2049D01*
X18551Y2049D01*
X18551Y2050D01*
X18552Y2050D01*
X18552Y2050D01*
X18553Y2050D01*
X18553Y2050D01*
X18554Y2050D01*
X18555Y2051D01*
X18555Y2051D01*
X18556Y2051D01*
X18556Y2051D01*
X18557Y2051D01*
X18557Y2051D01*
X18558Y2052D01*
X18559Y2052D01*
X18559Y2052D01*
X18560Y2052D01*
X18560Y2052D01*
X18561Y2052D01*
X18562Y2053D01*
X18562Y2053D01*
X18563Y2053D01*
X18563Y2053D01*
X18564Y2053D01*
X18565Y2053D01*
X18565Y2054D01*
X18566Y2054D01*
X18566Y2054D01*
X18567Y2054D01*
X18568Y2054D01*
X18568Y2054D01*
X18569Y2055D01*
X18569Y2055D01*
X18570Y2055D01*
X18571Y2055D01*
X18571Y2055D01*
X18572Y2055D01*
X18573Y2055D01*
X18573Y2056D01*
X18574Y2056D01*
X18574Y2056D01*
X18575Y2056D01*
X18576Y2056D01*
X18576Y2056D01*
X18577Y2057D01*
X18578Y2057D01*
X18579Y2057D01*
X18579Y2057D01*
X18580Y2057D01*
X18581Y2057D01*
X18582Y2058D01*
X18583Y2058D01*
X18584Y2058D01*
X18584Y2058D01*
X18585Y2058D01*
X18586Y2058D01*
X18587Y2059D01*
X18588Y2059D01*
X18588Y2059D01*
X18589Y2059D01*
X18590Y2059D01*
X18591Y2059D01*
X18592Y2060D01*
X18592Y2060D01*
X18593Y2060D01*
X18594Y2060D01*
X18595Y2060D01*
X18596Y2060D01*
X18597Y2060D01*
X18597Y2061D01*
X18598Y2061D01*
X18599Y2061D01*
X18600Y2061D01*
X18601Y2061D01*
X18602Y2061D01*
X18602Y2062D01*
X18603Y2062D01*
X18604Y2062D01*
X18605Y2062D01*
X18606Y2062D01*
X18607Y2062D01*
X18608Y2063D01*
X18609Y2063D01*
X18610Y2063D01*
X18611Y2063D01*
X18612Y2063D01*
X18613Y2063D01*
X18614Y2063D01*
X18615Y2064D01*
X18616Y2064D01*
X18617Y2064D01*
X18618Y2064D01*
X18619Y2064D01*
X18620Y2064D01*
X18621Y2065D01*
X18622Y2065D01*
X18623Y2065D01*
X18625Y2065D01*
X18626Y2065D01*
X18627Y2065D01*
X18628Y2065D01*
X18629Y2066D01*
X18630Y2066D01*
X18632Y2066D01*
X18633Y2066D01*
X18634Y2066D01*
X18635Y2066D01*
X18636Y2067D01*
X18638Y2067D01*
X18639Y2067D01*
X18640Y2067D01*
X18641Y2067D01*
X18643Y2067D01*
X18644Y2067D01*
X18645Y2068D01*
X18647Y2068D01*
X18648Y2068D01*
X18649Y2068D01*
X18651Y2068D01*
X18652Y2068D01*
X18652Y2068D01*
X19010Y2034D02*
X19010Y2033D01*
X19011Y2033D01*
X19011Y2033D01*
X19012Y2032D01*
X19012Y2032D01*
X19013Y2032D01*
X19013Y2031D01*
X19014Y2031D01*
X19015Y2030D01*
X19017Y2028D02*
X19018Y2027D01*
X19020Y2026D01*
X19021Y2025D01*
X19022Y2024D01*
X19024Y2023D01*
X19025Y2022D01*
X19026Y2021D01*
X19027Y2019D01*
X19028Y2018D01*
X19029Y2017D01*
X19031Y2016D01*
X19032Y2015D01*
X19033Y2014D01*
X19034Y2013D01*
X19035Y2011D01*
X19036Y2010D01*
X19038Y2009D01*
X19039Y2008D01*
X19040Y2007D01*
X19041Y2005D01*
X19042Y2004D01*
X19043Y2003D01*
X19044Y2002D01*
X19045Y2001D01*
X19046Y1999D01*
X19047Y1998D01*
X19048Y1997D01*
X19049Y1996D01*
X19050Y1995D01*
X19050Y1994D01*
X19051Y1993D01*
X19052Y1991D01*
X19053Y1990D01*
X19054Y1989D01*
X19055Y1988D01*
X19055Y1987D01*
X19056Y1985D01*
X19057Y1984D01*
X19058Y1983D01*
X19059Y1982D01*
X19059Y1981D01*
X19060Y1980D01*
X19060Y1979D01*
X19061Y1978D01*
X19062Y1977D01*
X19062Y1976D01*
X19063Y1975D01*
X19063Y1974D01*
X19064Y1973D01*
X19064Y1972D01*
X19065Y1971D01*
X19065Y1970D01*
X19066Y1969D01*
X19066Y1968D01*
X19067Y1967D01*
X19067Y1966D01*
X19068Y1965D01*
X19068Y1965D01*
X19068Y1964D01*
X19069Y1963D01*
X19069Y1962D01*
X19069Y1962D01*
X19070Y1961D01*
X19070Y1960D01*
X19070Y1960D01*
X19071Y1959D01*
X19071Y1958D01*
X19071Y1958D01*
X19071Y1957D01*
X19072Y1956D01*
X19072Y1956D01*
X19072Y1955D01*
X19072Y1955D01*
X19072Y1954D01*
X19072Y1954D01*
X19073Y1953D01*
X19073Y1953D01*
X19073Y1952D01*
X19073Y1952D01*
X19073Y1952D01*
X19073Y1951D01*
X19073Y1951D01*
X19074Y1950D01*
X19074Y1950D01*
X19074Y1950D01*
X19074Y1949D01*
X19074Y1949D01*
X19074Y1949D01*
X19074Y1948D01*
X19074Y1948D01*
X19074Y1948D01*
X19074Y1947D01*
X19075Y1947D01*
X19075Y1947D01*
X19075Y1947D01*
X19075Y1946D01*
X19075Y1946D01*
X19075Y1946D01*
X19075Y1946D01*
X19075Y1945D01*
X19075Y1945D01*
X19075Y1945D01*
X19075Y1945D01*
X19075Y1945D01*
X19075Y1944D01*
X19075Y1944D01*
X19075Y1944D01*
X19075Y1944D01*
X19075Y1944D01*
X19075Y1944D01*
X19076Y1943D01*
X19076Y1943D01*
X19076Y1943D01*
X19076Y1943D01*
X19076Y1943D01*
X19076Y1943D01*
X19076Y1943D01*
X19076Y1942D01*
X19076Y1942D01*
X19076Y1942D01*
X19076Y1942D01*
X19076Y1942D01*
X19076Y1942D01*
X19076Y1942D01*
X19076Y1942D01*
X19076Y1941D01*
Y1941D02*
Y1941D01*
Y1941D02*
X19076Y1941D01*
X19076Y1941D01*
X19076Y1941D01*
Y1941D02*
Y1941D01*
Y1941D02*
X19076Y1941D01*
X19076Y1941D01*
X19076Y1941D01*
Y1941D02*
Y1941D01*
Y1941D02*
X19076Y1941D01*
X19076Y1941D01*
Y1941D02*
Y1941D01*
Y1941D02*
X19076Y1940D01*
X19076Y1940D01*
Y1940D02*
Y1940D01*
Y1940D02*
X19076Y1940D01*
Y1940D02*
Y1940D01*
Y1940D02*
X19076Y1940D01*
Y1940D02*
Y1940D01*
Y1940D02*
X19076Y1940D01*
X19076Y1940D01*
Y1940D02*
Y1940D01*
Y1940D02*
X19076Y1940D01*
Y1940D02*
Y1940D01*
Y1940D02*
X19076Y1940D01*
Y1940D02*
Y1940D01*
Y1940D02*
Y1940D01*
Y1940D02*
X19076Y1940D01*
Y1940D02*
Y1940D01*
Y1940D02*
X19076Y1939D01*
Y1939D02*
Y1939D01*
Y1939D02*
X19076Y1939D01*
Y1939D02*
Y1939D01*
Y1939D02*
Y1939D01*
Y1939D02*
X19076Y1939D01*
Y1939D02*
Y1939D01*
Y1939D02*
Y1939D01*
Y1939D02*
X19076Y1939D01*
Y1939D02*
Y1939D01*
Y1939D02*
Y1939D01*
Y1939D02*
Y1939D01*
Y1939D02*
Y1939D01*
Y1939D02*
Y1939D01*
Y1939D02*
X19076Y1939D01*
Y1939D02*
Y1939D01*
Y1939D02*
Y1939D01*
Y1939D02*
Y1939D01*
Y1939D02*
Y1939D01*
Y1939D02*
Y1939D01*
Y1939D02*
Y1939D01*
Y1939D02*
X19076Y1939D01*
Y1939D02*
Y1939D01*
Y1939D02*
Y1939D01*
Y1939D02*
Y1939D01*
Y1939D02*
Y1939D01*
Y1939D02*
Y1939D01*
Y1939D02*
X19076Y1939D01*
Y1939D02*
Y1939D01*
Y1939D02*
Y1939D01*
Y1939D02*
Y1939D01*
Y1939D02*
Y1939D01*
Y1939D02*
Y1939D01*
Y1939D02*
Y1939D01*
Y1939D02*
Y1939D01*
Y1939D02*
X19076Y1939D01*
Y1939D02*
Y1939D01*
Y1939D02*
Y1939D01*
Y1938D02*
Y1939D01*
Y1938D02*
Y1938D01*
Y1938D02*
Y1938D01*
Y1938D02*
Y1938D01*
Y1938D02*
X19076Y1938D01*
Y1938D02*
Y1938D01*
Y1938D02*
Y1938D01*
Y1938D02*
Y1938D01*
Y1938D02*
Y1938D01*
Y1938D02*
Y1938D01*
Y1938D02*
Y1938D01*
Y1938D02*
Y1938D01*
Y1938D02*
X19076Y1938D01*
Y1938D02*
Y1938D01*
Y1938D02*
Y1938D01*
Y1938D02*
Y1938D01*
Y1938D02*
Y1938D01*
Y1938D02*
Y1938D01*
Y1938D02*
Y1938D01*
Y1938D02*
Y1938D01*
X18464Y1748D02*
X18519Y1123D01*
X18831Y2072D02*
X18833Y2072D01*
X18836Y2072D01*
X18838Y2071D01*
X18840Y2071D01*
X18842Y2071D01*
X18844Y2071D01*
X18846Y2071D01*
X18848Y2071D01*
X18850Y2071D01*
X18852Y2070D01*
X18854Y2070D01*
X18855Y2070D01*
X18857Y2070D01*
X18859Y2070D01*
X18860Y2070D01*
X18862Y2069D01*
X18863Y2069D01*
X18865Y2069D01*
X18866Y2069D01*
X18868Y2069D01*
X18869Y2069D01*
X18871Y2069D01*
X18872Y2068D01*
X18874Y2068D01*
X18875Y2068D01*
X18876Y2068D01*
X18878Y2068D01*
X18879Y2068D01*
X18880Y2068D01*
X18882Y2067D01*
X18883Y2067D01*
X18884Y2067D01*
X18885Y2067D01*
X18887Y2067D01*
X18888Y2067D01*
X18889Y2067D01*
X18890Y2066D01*
X18891Y2066D01*
X18893Y2066D01*
X18894Y2066D01*
X18895Y2066D01*
X18896Y2066D01*
X18897Y2065D01*
X18898Y2065D01*
X18899Y2065D01*
X18900Y2065D01*
X18901Y2065D01*
X18902Y2065D01*
X18904Y2065D01*
X18905Y2064D01*
X18906Y2064D01*
X18907Y2064D01*
X18908Y2064D01*
X18909Y2064D01*
X18910Y2064D01*
X18911Y2063D01*
X18912Y2063D01*
X18913Y2063D01*
X18914Y2063D01*
X18915Y2063D01*
X18916Y2063D01*
X18916Y2063D01*
X18917Y2062D01*
X18918Y2062D01*
X18919Y2062D01*
X18920Y2062D01*
X18921Y2062D01*
X18922Y2062D01*
X18923Y2061D01*
X18924Y2061D01*
X18925Y2061D01*
X18926Y2061D01*
X18927Y2061D01*
X18927Y2061D01*
X18928Y2061D01*
X18929Y2060D01*
X18930Y2060D01*
X18931Y2060D01*
X18932Y2060D01*
X18932Y2060D01*
X18933Y2060D01*
X18934Y2059D01*
X18935Y2059D01*
X18935Y2059D01*
X18936Y2059D01*
X18937Y2059D01*
X18938Y2059D01*
X18938Y2059D01*
X18939Y2058D01*
X18940Y2058D01*
X18941Y2058D01*
X18941Y2058D01*
X18942Y2058D01*
X18943Y2058D01*
X18944Y2057D01*
X18944Y2057D01*
X18945Y2057D01*
X18946Y2057D01*
X18947Y2057D01*
X18947Y2057D01*
X18948Y2056D01*
X18949Y2056D01*
X18950Y2056D01*
X18950Y2056D01*
X18951Y2056D01*
X18952Y2056D01*
X18952Y2055D01*
X18953Y2055D01*
X18954Y2055D01*
X18954Y2055D01*
X18955Y2055D01*
X18955Y2055D01*
X18956Y2055D01*
X18957Y2054D01*
X18957Y2054D01*
X18958Y2054D01*
X18958Y2054D01*
X18959Y2054D01*
X18997Y1015D02*
X19076Y1938D01*
X18652Y1015D02*
X18997D01*
X18657Y2100D02*
X18831D01*
X18657Y2041D02*
Y2100D01*
Y2041D02*
X18831D01*
Y2100D01*
X19009Y1929D02*
Y2077D01*
X18964D02*
X19009D01*
X18964Y1929D02*
Y2077D01*
X18376Y1861D02*
X18489D01*
X18376Y1748D02*
Y1861D01*
Y1748D02*
X18489D01*
Y1861D01*
X18406Y1960D02*
X19150D01*
X18406Y1905D02*
Y1960D01*
Y1905D02*
X19150D01*
Y1960D01*
X18627Y1753D02*
X18864D01*
X18627Y1668D02*
Y1753D01*
Y1668D02*
X18864D01*
Y1753D01*
X18909Y1015D02*
X18968D01*
X18909Y927D02*
Y1015D01*
Y927D02*
X18968D01*
Y1015D01*
X18181Y800D02*
X19335Y2144D01*
X18181D02*
X19335Y800D01*
X12923Y14987D02*
X13097D01*
X12923Y15373D02*
X13097D01*
X12923Y15249D02*
Y15373D01*
Y14987D02*
Y15111D01*
X13097Y15249D02*
Y15373D01*
Y14987D02*
Y15111D01*
X13573Y14987D02*
X13747D01*
X13573Y15373D02*
X13747D01*
X13573Y15249D02*
X13573Y15373D01*
Y14987D02*
Y15111D01*
X13747Y15373D02*
X13747Y15249D01*
X13747Y14987D02*
Y15111D01*
X13793Y8997D02*
X13967D01*
X13793Y9383D02*
X13967D01*
X13793Y9259D02*
Y9383D01*
Y8997D02*
Y9121D01*
X13967Y9259D02*
Y9383D01*
Y8997D02*
Y9121D01*
X5183Y5807D02*
X5357D01*
X5183Y6193D02*
X5357D01*
X5183Y6069D02*
Y6193D01*
Y5807D02*
Y5931D01*
X5357Y6069D02*
Y6193D01*
Y5807D02*
Y5931D01*
X5183Y6277D02*
X5357D01*
X5183Y6663D02*
X5357D01*
X5183Y6539D02*
Y6663D01*
Y6277D02*
Y6401D01*
X5357Y6539D02*
Y6663D01*
Y6277D02*
Y6401D01*
X8063Y11894D02*
X8236Y11894D01*
X8063Y12280D02*
X8236Y12280D01*
X8063Y12156D02*
Y12280D01*
Y11894D02*
Y12018D01*
X8236Y12280D02*
X8236Y12156D01*
X8236Y11894D02*
Y12018D01*
X8063Y12602D02*
X8236Y12602D01*
X8063Y12988D02*
X8236Y12988D01*
X8063Y12988D02*
X8063Y12864D01*
X8063Y12602D02*
X8063Y12726D01*
X8236Y12988D02*
X8236Y12864D01*
Y12602D02*
Y12726D01*
X2833Y9773D02*
Y9947D01*
X2447Y9773D02*
Y9947D01*
Y9773D02*
X2571D01*
X2709D02*
X2833D01*
X2447Y9947D02*
X2571D01*
X2709D02*
X2833D01*
X9409Y15747D02*
X9533D01*
X9147D02*
X9271D01*
X9409Y15573D02*
X9533D01*
X9147D02*
X9271D01*
X9147D02*
Y15747D01*
X9533Y15573D02*
Y15747D01*
X10027Y16068D02*
X10027Y16192D01*
X10027Y16454D02*
X10027Y16330D01*
X9853Y16068D02*
X9853Y16192D01*
X9853Y16454D02*
X9853Y16330D01*
X9853Y16454D02*
X10027D01*
X9853Y16068D02*
X10027D01*
X7513Y5133D02*
Y5307D01*
X7127Y5133D02*
Y5307D01*
Y5133D02*
X7251Y5133D01*
X7389Y5133D02*
X7513D01*
X7127Y5307D02*
X7251Y5307D01*
X7389Y5307D02*
X7513D01*
X2023Y6227D02*
X2197D01*
X2023Y6613D02*
X2197D01*
X2023Y6489D02*
Y6613D01*
Y6227D02*
Y6351D01*
X2197Y6489D02*
Y6613D01*
Y6227D02*
Y6351D01*
X9600Y14003D02*
X9797D01*
Y14102D01*
X9764Y14135D01*
X9699D01*
X9666Y14102D01*
Y14003D01*
Y14069D02*
X9600Y14135D01*
X9797Y14331D02*
Y14200D01*
X9699D01*
X9732Y14266D01*
Y14299D01*
X9699Y14331D01*
X9633D01*
X9600Y14299D01*
Y14233D01*
X9633Y14200D01*
X9600Y14528D02*
Y14397D01*
X9732Y14528D01*
X9764D01*
X9797Y14495D01*
Y14430D01*
X9764Y14397D01*
X7126Y8422D02*
X7323D01*
Y8520D01*
X7290Y8553D01*
X7224D01*
X7192Y8520D01*
Y8422D01*
Y8488D02*
X7126Y8553D01*
X7323Y8750D02*
Y8619D01*
X7224D01*
X7257Y8684D01*
Y8717D01*
X7224Y8750D01*
X7159D01*
X7126Y8717D01*
Y8652D01*
X7159Y8619D01*
X7126Y8816D02*
Y8881D01*
Y8848D01*
X7323D01*
X7290Y8816D01*
X7027Y7874D02*
Y7710D01*
X6995Y7677D01*
X6929D01*
X6896Y7710D01*
Y7874D01*
X6831Y7677D02*
X6765D01*
X6798D01*
Y7874D01*
X6831Y7841D01*
X6667Y7874D02*
X6536D01*
Y7841D01*
X6667Y7710D01*
Y7677D01*
X6467Y7300D02*
Y7431D01*
Y7366D01*
X6270D01*
Y7497D02*
X6467D01*
Y7595D01*
X6434Y7628D01*
X6368D01*
X6335Y7595D01*
Y7497D01*
X6270Y7792D02*
X6467D01*
X6368Y7694D01*
Y7825D01*
X6270Y7890D02*
Y7956D01*
Y7923D01*
X6467D01*
X6434Y7890D01*
X5610Y7287D02*
Y7418D01*
Y7352D01*
X5413D01*
Y7484D02*
X5610D01*
Y7582D01*
X5577Y7615D01*
X5512D01*
X5479Y7582D01*
Y7484D01*
X5413Y7779D02*
X5610D01*
X5512Y7680D01*
Y7812D01*
X5577Y7877D02*
X5610Y7910D01*
Y7976D01*
X5577Y8008D01*
X5446D01*
X5413Y7976D01*
Y7910D01*
X5446Y7877D01*
X5577D01*
X4842Y7907D02*
Y8038D01*
Y7973D01*
X4646D01*
Y8104D02*
X4842D01*
Y8202D01*
X4810Y8235D01*
X4744D01*
X4711Y8202D01*
Y8104D01*
X4810Y8301D02*
X4842Y8333D01*
Y8399D01*
X4810Y8432D01*
X4777D01*
X4744Y8399D01*
Y8366D01*
Y8399D01*
X4711Y8432D01*
X4678D01*
X4646Y8399D01*
Y8333D01*
X4678Y8301D01*
Y8497D02*
X4646Y8530D01*
Y8596D01*
X4678Y8628D01*
X4810D01*
X4842Y8596D01*
Y8530D01*
X4810Y8497D01*
X4777D01*
X4744Y8530D01*
Y8628D01*
X6703Y8921D02*
X6900D01*
Y9019D01*
X6867Y9052D01*
X6801D01*
X6768Y9019D01*
Y8921D01*
Y8986D02*
X6703Y9052D01*
X6900Y9249D02*
Y9117D01*
X6801D01*
X6834Y9183D01*
Y9216D01*
X6801Y9249D01*
X6736D01*
X6703Y9216D01*
Y9150D01*
X6736Y9117D01*
X6867Y9314D02*
X6900Y9347D01*
Y9413D01*
X6867Y9445D01*
X6736D01*
X6703Y9413D01*
Y9347D01*
X6736Y9314D01*
X6867D01*
X6020Y6345D02*
X6053Y6378D01*
X6119D01*
X6152Y6345D01*
Y6312D01*
X6119Y6279D01*
X6053D01*
X6020Y6247D01*
Y6214D01*
X6053Y6181D01*
X6119D01*
X6152Y6214D01*
X5955Y6378D02*
Y6181D01*
X5856D01*
X5824Y6214D01*
Y6247D01*
X5856Y6279D01*
X5955D01*
X5856D01*
X5824Y6312D01*
Y6345D01*
X5856Y6378D01*
X5955D01*
X5758Y6181D02*
X5692D01*
X5725D01*
Y6378D01*
X5758Y6345D01*
X5496Y6181D02*
Y6378D01*
X5594Y6279D01*
X5463D01*
X7877Y14620D02*
X7713D01*
X7680Y14653D01*
Y14718D01*
X7713Y14751D01*
X7877D01*
X7680Y14817D02*
Y14882D01*
Y14850D01*
X7877D01*
X7844Y14817D01*
X7877Y15112D02*
X7844Y15046D01*
X7778Y14981D01*
X7713D01*
X7680Y15014D01*
Y15079D01*
X7713Y15112D01*
X7746D01*
X7778Y15079D01*
Y14981D01*
X8480Y14010D02*
Y14207D01*
X8382D01*
X8349Y14174D01*
Y14108D01*
X8382Y14076D01*
X8480D01*
X8414D02*
X8349Y14010D01*
X8185D02*
Y14207D01*
X8283Y14108D01*
X8152D01*
X8086Y14043D02*
X8054Y14010D01*
X7988D01*
X7955Y14043D01*
Y14174D01*
X7988Y14207D01*
X8054D01*
X8086Y14174D01*
Y14141D01*
X8054Y14108D01*
X7955D01*
X9639Y14774D02*
X9672Y14807D01*
X9737D01*
X9770Y14774D01*
Y14643D01*
X9737Y14610D01*
X9672D01*
X9639Y14643D01*
X9573Y14774D02*
X9540Y14807D01*
X9475D01*
X9442Y14774D01*
Y14741D01*
X9475Y14708D01*
X9508D01*
X9475D01*
X9442Y14676D01*
Y14643D01*
X9475Y14610D01*
X9540D01*
X9573Y14643D01*
X9278Y14610D02*
Y14807D01*
X9376Y14708D01*
X9245D01*
X12187Y17980D02*
X12023D01*
X11990Y18013D01*
Y18078D01*
X12023Y18111D01*
X12187D01*
X11990Y18177D02*
Y18242D01*
Y18210D01*
X12187D01*
X12154Y18177D01*
X12187Y18472D02*
Y18341D01*
X12088D01*
X12121Y18406D01*
Y18439D01*
X12088Y18472D01*
X12023D01*
X11990Y18439D01*
Y18374D01*
X12023Y18341D01*
X9474Y16921D02*
X9507Y16888D01*
Y16823D01*
X9474Y16790D01*
X9343D01*
X9310Y16823D01*
Y16888D01*
X9343Y16921D01*
X9507Y17118D02*
Y16987D01*
X9408D01*
X9441Y17052D01*
Y17085D01*
X9408Y17118D01*
X9343D01*
X9310Y17085D01*
Y17020D01*
X9343Y16987D01*
Y17184D02*
X9310Y17216D01*
Y17282D01*
X9343Y17315D01*
X9474D01*
X9507Y17282D01*
Y17216D01*
X9474Y17184D01*
X9441D01*
X9408Y17216D01*
Y17315D01*
X7168Y6080D02*
X7004D01*
X6971Y6113D01*
Y6178D01*
X7004Y6211D01*
X7168D01*
X6971Y6277D02*
Y6342D01*
Y6310D01*
X7168D01*
X7135Y6277D01*
X6971Y6539D02*
X7168D01*
X7069Y6441D01*
Y6572D01*
X6599Y6974D02*
X6632Y7007D01*
X6697D01*
X6730Y6974D01*
Y6843D01*
X6697Y6810D01*
X6632D01*
X6599Y6843D01*
X6402Y7007D02*
X6533D01*
Y6908D01*
X6468Y6941D01*
X6435D01*
X6402Y6908D01*
Y6843D01*
X6435Y6810D01*
X6500D01*
X6533Y6843D01*
X6336Y6974D02*
X6304Y7007D01*
X6238D01*
X6205Y6974D01*
Y6941D01*
X6238Y6908D01*
X6205Y6876D01*
Y6843D01*
X6238Y6810D01*
X6304D01*
X6336Y6843D01*
Y6876D01*
X6304Y6908D01*
X6336Y6941D01*
Y6974D01*
X6304Y6908D02*
X6238D01*
X2794Y8677D02*
Y8513D01*
X2761Y8481D01*
X2695D01*
X2662Y8513D01*
Y8677D01*
X2597Y8481D02*
X2531D01*
X2564D01*
Y8677D01*
X2597Y8645D01*
X2433D02*
X2400Y8677D01*
X2334D01*
X2302Y8645D01*
Y8612D01*
X2334Y8579D01*
X2367D01*
X2334D01*
X2302Y8546D01*
Y8513D01*
X2334Y8481D01*
X2400D01*
X2433Y8513D01*
X3884Y8221D02*
X3917Y8188D01*
Y8123D01*
X3884Y8090D01*
X3753D01*
X3720Y8123D01*
Y8188D01*
X3753Y8221D01*
X3917Y8287D02*
Y8418D01*
X3884D01*
X3753Y8287D01*
X3720D01*
X13650Y6126D02*
X13683Y6094D01*
Y6028D01*
X13650Y5995D01*
X13617D01*
X13584Y6028D01*
Y6094D01*
X13551Y6126D01*
X13519D01*
X13486Y6094D01*
Y6028D01*
X13519Y5995D01*
X13683Y6192D02*
X13486D01*
Y6290D01*
X13519Y6323D01*
X13551D01*
X13584Y6290D01*
Y6192D01*
Y6290D01*
X13617Y6323D01*
X13650D01*
X13683Y6290D01*
Y6192D01*
X13486Y6389D02*
Y6454D01*
Y6421D01*
X13683D01*
X13650Y6389D01*
Y6553D02*
X13683Y6585D01*
Y6651D01*
X13650Y6684D01*
X13617D01*
X13584Y6651D01*
Y6618D01*
Y6651D01*
X13551Y6684D01*
X13519D01*
X13486Y6651D01*
Y6585D01*
X13519Y6553D01*
X13060Y6126D02*
X13093Y6094D01*
Y6028D01*
X13060Y5995D01*
X13027D01*
X12994Y6028D01*
Y6094D01*
X12961Y6126D01*
X12929D01*
X12896Y6094D01*
Y6028D01*
X12929Y5995D01*
X13093Y6192D02*
X12896D01*
Y6290D01*
X12929Y6323D01*
X12961D01*
X12994Y6290D01*
Y6192D01*
Y6290D01*
X13027Y6323D01*
X13060D01*
X13093Y6290D01*
Y6192D01*
X12896Y6389D02*
Y6454D01*
Y6421D01*
X13093D01*
X13060Y6389D01*
X12896Y6684D02*
Y6553D01*
X13027Y6684D01*
X13060D01*
X13093Y6651D01*
Y6585D01*
X13060Y6553D01*
X3480Y10100D02*
X3677D01*
Y10198D01*
X3644Y10231D01*
X3578D01*
X3546Y10198D01*
Y10100D01*
Y10166D02*
X3480Y10231D01*
Y10395D02*
X3677D01*
X3578Y10297D01*
Y10428D01*
X3644Y10494D02*
X3677Y10526D01*
Y10592D01*
X3644Y10625D01*
X3611D01*
X3578Y10592D01*
X3546Y10625D01*
X3513D01*
X3480Y10592D01*
Y10526D01*
X3513Y10494D01*
X3546D01*
X3578Y10526D01*
X3611Y10494D01*
X3644D01*
X3578Y10526D02*
Y10592D01*
X5512Y10475D02*
Y10672D01*
X5413D01*
X5381Y10639D01*
Y10574D01*
X5413Y10541D01*
X5512D01*
X5446D02*
X5381Y10475D01*
X5217D02*
Y10672D01*
X5315Y10574D01*
X5184D01*
X5118Y10672D02*
X4987D01*
Y10639D01*
X5118Y10508D01*
Y10475D01*
X4289Y10813D02*
Y10944D01*
X4322Y10977D01*
X4387D01*
X4420Y10944D01*
Y10813D01*
X4387Y10780D01*
X4322D01*
X4354Y10846D02*
X4289Y10780D01*
X4322D02*
X4289Y10813D01*
X4223Y10944D02*
X4190Y10977D01*
X4125D01*
X4092Y10944D01*
Y10911D01*
X4125Y10878D01*
X4092Y10846D01*
Y10813D01*
X4125Y10780D01*
X4190D01*
X4223Y10813D01*
Y10846D01*
X4190Y10878D01*
X4223Y10911D01*
Y10944D01*
X4190Y10878D02*
X4125D01*
X4190Y8750D02*
X4387D01*
Y8848D01*
X4354Y8881D01*
X4288D01*
X4256Y8848D01*
Y8750D01*
Y8816D02*
X4190Y8881D01*
Y9045D02*
X4387D01*
X4288Y8947D01*
Y9078D01*
X4387Y9275D02*
X4354Y9209D01*
X4288Y9144D01*
X4223D01*
X4190Y9176D01*
Y9242D01*
X4223Y9275D01*
X4256D01*
X4288Y9242D01*
Y9144D01*
X6250Y9200D02*
X6447D01*
Y9298D01*
X6414Y9331D01*
X6348D01*
X6316Y9298D01*
Y9200D01*
Y9266D02*
X6250Y9331D01*
Y9495D02*
X6447D01*
X6348Y9397D01*
Y9528D01*
X6447Y9725D02*
Y9594D01*
X6348D01*
X6381Y9659D01*
Y9692D01*
X6348Y9725D01*
X6283D01*
X6250Y9692D01*
Y9626D01*
X6283Y9594D01*
X12250Y15450D02*
X12447D01*
Y15548D01*
X12414Y15581D01*
X12348D01*
X12316Y15548D01*
Y15450D01*
Y15516D02*
X12250Y15581D01*
Y15745D02*
X12447D01*
X12348Y15647D01*
Y15778D01*
X12250Y15942D02*
X12447D01*
X12348Y15844D01*
Y15975D01*
X14350Y15500D02*
X14547D01*
Y15598D01*
X14514Y15631D01*
X14448D01*
X14416Y15598D01*
Y15500D01*
Y15566D02*
X14350Y15631D01*
Y15795D02*
X14547D01*
X14448Y15697D01*
Y15828D01*
X14514Y15894D02*
X14547Y15926D01*
Y15992D01*
X14514Y16025D01*
X14481D01*
X14448Y15992D01*
Y15959D01*
Y15992D01*
X14416Y16025D01*
X14383D01*
X14350Y15992D01*
Y15926D01*
X14383Y15894D01*
X12530Y19230D02*
X12727D01*
Y19328D01*
X12694Y19361D01*
X12628D01*
X12596Y19328D01*
Y19230D01*
Y19296D02*
X12530Y19361D01*
Y19525D02*
X12727D01*
X12628Y19427D01*
Y19558D01*
X12530Y19755D02*
Y19624D01*
X12661Y19755D01*
X12694D01*
X12727Y19722D01*
Y19656D01*
X12694Y19624D01*
X14350Y19250D02*
X14547D01*
Y19348D01*
X14514Y19381D01*
X14448D01*
X14416Y19348D01*
Y19250D01*
Y19316D02*
X14350Y19381D01*
Y19545D02*
X14547D01*
X14448Y19447D01*
Y19578D01*
X14350Y19644D02*
Y19709D01*
Y19676D01*
X14547D01*
X14514Y19644D01*
X12057Y7224D02*
Y7028D01*
X11959D01*
X11926Y7060D01*
Y7093D01*
X11959Y7126D01*
X12057D01*
X11959D01*
X11926Y7159D01*
Y7192D01*
X11959Y7224D01*
X12057D01*
X11860Y7159D02*
X11729D01*
X11860Y7028D01*
X11729D01*
X11664D02*
X11598D01*
X11631D01*
Y7224D01*
X11664Y7192D01*
X4038Y12828D02*
X4071Y12795D01*
Y12730D01*
X4038Y12697D01*
X4005D01*
X3972Y12730D01*
Y12795D01*
X3940Y12828D01*
X3907D01*
X3874Y12795D01*
Y12730D01*
X3907Y12697D01*
X4071Y12894D02*
X3874D01*
Y12992D01*
X3907Y13025D01*
X3940D01*
X3972Y12992D01*
Y12894D01*
Y12992D01*
X4005Y13025D01*
X4038D01*
X4071Y12992D01*
Y12894D01*
X3874Y13090D02*
Y13156D01*
Y13123D01*
X4071D01*
X4038Y13090D01*
X10860Y14097D02*
X10729D01*
X10794D01*
Y13900D01*
X10663D02*
Y14097D01*
X10565D01*
X10532Y14064D01*
Y13998D01*
X10565Y13966D01*
X10663D01*
X10467Y14097D02*
X10335D01*
Y14064D01*
X10467Y13933D01*
Y13900D01*
X11610Y13936D02*
X11643Y13904D01*
Y13838D01*
X11610Y13805D01*
X11577D01*
X11544Y13838D01*
Y13904D01*
X11511Y13936D01*
X11479D01*
X11446Y13904D01*
Y13838D01*
X11479Y13805D01*
X11643Y14002D02*
X11446D01*
Y14100D01*
X11479Y14133D01*
X11511D01*
X11544Y14100D01*
Y14002D01*
Y14100D01*
X11577Y14133D01*
X11610D01*
X11643Y14100D01*
Y14002D01*
Y14330D02*
X11610Y14264D01*
X11544Y14199D01*
X11479D01*
X11446Y14231D01*
Y14297D01*
X11479Y14330D01*
X11511D01*
X11544Y14297D01*
Y14199D01*
X12160Y13936D02*
X12193Y13904D01*
Y13838D01*
X12160Y13805D01*
X12127D01*
X12094Y13838D01*
Y13904D01*
X12061Y13936D01*
X12029D01*
X11996Y13904D01*
Y13838D01*
X12029Y13805D01*
X12193Y14002D02*
X11996D01*
Y14100D01*
X12029Y14133D01*
X12061D01*
X12094Y14100D01*
Y14002D01*
Y14100D01*
X12127Y14133D01*
X12160D01*
X12193Y14100D01*
Y14002D01*
Y14330D02*
Y14199D01*
X12094D01*
X12127Y14264D01*
Y14297D01*
X12094Y14330D01*
X12029D01*
X11996Y14297D01*
Y14231D01*
X12029Y14199D01*
X1953Y11695D02*
Y11826D01*
Y11761D01*
X1756D01*
Y11892D02*
X1953D01*
Y11990D01*
X1920Y12023D01*
X1854D01*
X1821Y11990D01*
Y11892D01*
X1756Y12220D02*
Y12089D01*
X1887Y12220D01*
X1920D01*
X1953Y12187D01*
Y12121D01*
X1920Y12089D01*
X1756Y12417D02*
Y12285D01*
X1887Y12417D01*
X1920D01*
X1953Y12384D01*
Y12318D01*
X1920Y12285D01*
X2760Y13390D02*
X2957D01*
Y13488D01*
X2924Y13521D01*
X2858D01*
X2826Y13488D01*
Y13390D01*
Y13456D02*
X2760Y13521D01*
Y13718D02*
Y13587D01*
X2891Y13718D01*
X2924D01*
X2957Y13685D01*
Y13620D01*
X2924Y13587D01*
X2760Y13882D02*
X2957D01*
X2858Y13784D01*
Y13915D01*
X5230Y12600D02*
X5427D01*
Y12698D01*
X5394Y12731D01*
X5328D01*
X5296Y12698D01*
Y12600D01*
Y12666D02*
X5230Y12731D01*
Y12928D02*
Y12797D01*
X5361Y12928D01*
X5394D01*
X5427Y12895D01*
Y12830D01*
X5394Y12797D01*
X5427Y13125D02*
Y12994D01*
X5328D01*
X5361Y13059D01*
Y13092D01*
X5328Y13125D01*
X5263D01*
X5230Y13092D01*
Y13026D01*
X5263Y12994D01*
X7340Y15270D02*
Y15467D01*
X7242D01*
X7209Y15434D01*
Y15368D01*
X7242Y15336D01*
X7340D01*
X7274D02*
X7209Y15270D01*
X7143Y15434D02*
X7110Y15467D01*
X7045D01*
X7012Y15434D01*
Y15401D01*
X7045Y15368D01*
X7078D01*
X7045D01*
X7012Y15336D01*
Y15303D01*
X7045Y15270D01*
X7110D01*
X7143Y15303D01*
X6946Y15270D02*
X6881D01*
X6914D01*
Y15467D01*
X6946Y15434D01*
X6669Y10804D02*
X6702Y10837D01*
X6767D01*
X6800Y10804D01*
Y10673D01*
X6767Y10640D01*
X6702D01*
X6669Y10673D01*
X6505Y10640D02*
Y10837D01*
X6603Y10738D01*
X6472D01*
X6275Y10837D02*
X6406D01*
Y10738D01*
X6341Y10771D01*
X6308D01*
X6275Y10738D01*
Y10673D01*
X6308Y10640D01*
X6374D01*
X6406Y10673D01*
X6470Y5410D02*
X6667D01*
Y5508D01*
X6634Y5541D01*
X6568D01*
X6536Y5508D01*
Y5410D01*
Y5476D02*
X6470Y5541D01*
Y5705D02*
X6667D01*
X6568Y5607D01*
Y5738D01*
X6634Y5804D02*
X6667Y5836D01*
Y5902D01*
X6634Y5935D01*
X6503D01*
X6470Y5902D01*
Y5836D01*
X6503Y5804D01*
X6634D01*
X6516Y2322D02*
X6385D01*
X6450D01*
Y2125D01*
X6319D02*
Y2322D01*
X6221D01*
X6188Y2289D01*
Y2224D01*
X6221Y2191D01*
X6319D01*
X5991Y2125D02*
X6122D01*
X5991Y2256D01*
Y2289D01*
X6024Y2322D01*
X6090D01*
X6122Y2289D01*
X5794Y2322D02*
X5860Y2289D01*
X5926Y2224D01*
Y2158D01*
X5893Y2125D01*
X5827D01*
X5794Y2158D01*
Y2191D01*
X5827Y2224D01*
X5926D01*
X6516Y1532D02*
X6385D01*
X6450D01*
Y1335D01*
X6319D02*
Y1532D01*
X6221D01*
X6188Y1499D01*
Y1434D01*
X6221Y1401D01*
X6319D01*
X5991Y1335D02*
X6122D01*
X5991Y1466D01*
Y1499D01*
X6024Y1532D01*
X6090D01*
X6122Y1499D01*
X5794Y1532D02*
X5926D01*
Y1434D01*
X5860Y1466D01*
X5827D01*
X5794Y1434D01*
Y1368D01*
X5827Y1335D01*
X5893D01*
X5926Y1368D01*
X10382Y11145D02*
X10513D01*
X10546Y11112D01*
Y11047D01*
X10513Y11014D01*
X10382D01*
X10349Y11047D01*
Y11112D01*
X10415Y11079D02*
X10349Y11145D01*
Y11112D02*
X10382Y11145D01*
X10546Y11211D02*
Y11342D01*
X10513D01*
X10382Y11211D01*
X10349D01*
X11982Y11145D02*
X12113D01*
X12146Y11112D01*
Y11047D01*
X12113Y11014D01*
X11982D01*
X11949Y11047D01*
Y11112D01*
X12014Y11079D02*
X11949Y11145D01*
Y11112D02*
X11982Y11145D01*
X12146Y11342D02*
X12113Y11276D01*
X12047Y11211D01*
X11982D01*
X11949Y11243D01*
Y11309D01*
X11982Y11342D01*
X12014D01*
X12047Y11309D01*
Y11211D01*
X1203Y11695D02*
Y11826D01*
Y11761D01*
X1006D01*
Y11892D02*
X1203D01*
Y11990D01*
X1170Y12023D01*
X1104D01*
X1072Y11990D01*
Y11892D01*
X1006Y12220D02*
Y12089D01*
X1137Y12220D01*
X1170D01*
X1203Y12187D01*
Y12121D01*
X1170Y12089D01*
Y12285D02*
X1203Y12318D01*
Y12384D01*
X1170Y12417D01*
X1137D01*
X1104Y12384D01*
Y12351D01*
Y12384D01*
X1072Y12417D01*
X1039D01*
X1006Y12384D01*
Y12318D01*
X1039Y12285D01*
X4537Y6870D02*
Y7001D01*
Y6936D01*
X4340D01*
Y7067D02*
X4537D01*
Y7165D01*
X4504Y7198D01*
X4438D01*
X4406Y7165D01*
Y7067D01*
X4340Y7264D02*
Y7329D01*
Y7296D01*
X4537D01*
X4504Y7264D01*
X8041Y7913D02*
Y8110D01*
X7943D01*
X7910Y8077D01*
Y8012D01*
X7943Y7979D01*
X8041D01*
X7976D02*
X7910Y7913D01*
X7713D02*
X7845D01*
X7713Y8045D01*
Y8077D01*
X7746Y8110D01*
X7812D01*
X7845Y8077D01*
X7648Y7913D02*
X7582D01*
X7615D01*
Y8110D01*
X7648Y8077D01*
X9509Y7393D02*
Y7524D01*
X9542Y7557D01*
X9607D01*
X9640Y7524D01*
Y7393D01*
X9607Y7360D01*
X9542D01*
X9574Y7426D02*
X9509Y7360D01*
X9542D02*
X9509Y7393D01*
X9312Y7557D02*
X9443D01*
Y7458D01*
X9378Y7491D01*
X9345D01*
X9312Y7458D01*
Y7393D01*
X9345Y7360D01*
X9410D01*
X9443Y7393D01*
X9222Y9685D02*
X9026D01*
Y9783D01*
X9058Y9816D01*
X9190D01*
X9222Y9783D01*
Y9685D01*
X9026Y10013D02*
Y9882D01*
X9157Y10013D01*
X9190D01*
X9222Y9980D01*
Y9915D01*
X9190Y9882D01*
X11170Y14627D02*
Y14463D01*
X11137Y14430D01*
X11072D01*
X11039Y14463D01*
Y14627D01*
X10973Y14594D02*
X10940Y14627D01*
X10875D01*
X10842Y14594D01*
Y14561D01*
X10875Y14528D01*
X10842Y14496D01*
Y14463D01*
X10875Y14430D01*
X10940D01*
X10973Y14463D01*
Y14496D01*
X10940Y14528D01*
X10973Y14561D01*
Y14594D01*
X10940Y14528D02*
X10875D01*
X11154Y16281D02*
X11187Y16248D01*
Y16183D01*
X11154Y16150D01*
X11023D01*
X10990Y16183D01*
Y16248D01*
X11023Y16281D01*
X11154Y16347D02*
X11187Y16380D01*
Y16445D01*
X11154Y16478D01*
X11121D01*
X11088Y16445D01*
Y16412D01*
Y16445D01*
X11056Y16478D01*
X11023D01*
X10990Y16445D01*
Y16380D01*
X11023Y16347D01*
Y16544D02*
X10990Y16576D01*
Y16642D01*
X11023Y16675D01*
X11154D01*
X11187Y16642D01*
Y16576D01*
X11154Y16544D01*
X11121D01*
X11088Y16576D01*
Y16675D01*
X10504Y16281D02*
X10537Y16248D01*
Y16183D01*
X10504Y16150D01*
X10373D01*
X10340Y16183D01*
Y16248D01*
X10373Y16281D01*
X10504Y16347D02*
X10537Y16380D01*
Y16445D01*
X10504Y16478D01*
X10471D01*
X10438Y16445D01*
Y16412D01*
Y16445D01*
X10406Y16478D01*
X10373D01*
X10340Y16445D01*
Y16380D01*
X10373Y16347D01*
X10504Y16544D02*
X10537Y16576D01*
Y16642D01*
X10504Y16675D01*
X10471D01*
X10438Y16642D01*
X10406Y16675D01*
X10373D01*
X10340Y16642D01*
Y16576D01*
X10373Y16544D01*
X10406D01*
X10438Y16576D01*
X10471Y16544D01*
X10504D01*
X10438Y16576D02*
Y16642D01*
X5369Y9733D02*
Y9864D01*
X5402Y9897D01*
X5467D01*
X5500Y9864D01*
Y9733D01*
X5467Y9700D01*
X5402D01*
X5434Y9766D02*
X5369Y9700D01*
X5402D02*
X5369Y9733D01*
X5205Y9700D02*
Y9897D01*
X5303Y9798D01*
X5172D01*
X4140Y16830D02*
Y17027D01*
X4042D01*
X4009Y16994D01*
Y16928D01*
X4042Y16896D01*
X4140D01*
X4074D02*
X4009Y16830D01*
X3812D02*
X3943D01*
X3812Y16961D01*
Y16994D01*
X3845Y17027D01*
X3910D01*
X3943Y16994D01*
X3746Y17027D02*
X3615D01*
Y16994D01*
X3746Y16863D01*
Y16830D01*
X3990Y13810D02*
Y14007D01*
X3892D01*
X3859Y13974D01*
Y13908D01*
X3892Y13876D01*
X3990D01*
X3924D02*
X3859Y13810D01*
X3793Y13974D02*
X3760Y14007D01*
X3695D01*
X3662Y13974D01*
Y13941D01*
X3695Y13908D01*
X3728D01*
X3695D01*
X3662Y13876D01*
Y13843D01*
X3695Y13810D01*
X3760D01*
X3793Y13843D01*
X3498Y13810D02*
Y14007D01*
X3596Y13908D01*
X3465D01*
X3266Y15748D02*
X3463D01*
Y15846D01*
X3430Y15879D01*
X3364D01*
X3331Y15846D01*
Y15748D01*
Y15814D02*
X3266Y15879D01*
Y16076D02*
Y15945D01*
X3397Y16076D01*
X3430D01*
X3463Y16043D01*
Y15978D01*
X3430Y15945D01*
Y16142D02*
X3463Y16174D01*
Y16240D01*
X3430Y16273D01*
X3397D01*
X3364Y16240D01*
X3331Y16273D01*
X3299D01*
X3266Y16240D01*
Y16174D01*
X3299Y16142D01*
X3331D01*
X3364Y16174D01*
X3397Y16142D01*
X3430D01*
X3364Y16174D02*
Y16240D01*
X453Y11695D02*
Y11826D01*
Y11761D01*
X256D01*
Y11892D02*
X453D01*
Y11990D01*
X420Y12023D01*
X354D01*
X322Y11990D01*
Y11892D01*
X256Y12220D02*
Y12089D01*
X387Y12220D01*
X420D01*
X453Y12187D01*
Y12121D01*
X420Y12089D01*
X256Y12384D02*
X453D01*
X354Y12285D01*
Y12417D01*
X3080Y15657D02*
X2949D01*
X3014D01*
Y15460D01*
X2883D02*
Y15657D01*
X2785D01*
X2752Y15624D01*
Y15558D01*
X2785Y15526D01*
X2883D01*
X2555Y15460D02*
X2686D01*
X2555Y15591D01*
Y15624D01*
X2588Y15657D01*
X2654D01*
X2686Y15624D01*
X2490Y15460D02*
X2424D01*
X2457D01*
Y15657D01*
X2490Y15624D01*
X3010Y17607D02*
X2879D01*
X2944D01*
Y17410D01*
X2813D02*
Y17607D01*
X2715D01*
X2682Y17574D01*
Y17508D01*
X2715Y17476D01*
X2813D01*
X2485Y17410D02*
X2616D01*
X2485Y17541D01*
Y17574D01*
X2518Y17607D01*
X2584D01*
X2616Y17574D01*
X2420D02*
X2387Y17607D01*
X2321D01*
X2288Y17574D01*
Y17443D01*
X2321Y17410D01*
X2387D01*
X2420Y17443D01*
Y17574D01*
X6003Y6890D02*
Y7021D01*
Y6955D01*
X5806D01*
Y7087D02*
X6003D01*
Y7185D01*
X5970Y7218D01*
X5904D01*
X5871Y7185D01*
Y7087D01*
X6003Y7415D02*
Y7283D01*
X5904D01*
X5937Y7349D01*
Y7382D01*
X5904Y7415D01*
X5839D01*
X5806Y7382D01*
Y7316D01*
X5839Y7283D01*
X4750Y16310D02*
X4947D01*
Y16408D01*
X4914Y16441D01*
X4848D01*
X4816Y16408D01*
Y16310D01*
Y16376D02*
X4750Y16441D01*
X4914Y16507D02*
X4947Y16540D01*
Y16605D01*
X4914Y16638D01*
X4881D01*
X4848Y16605D01*
Y16572D01*
Y16605D01*
X4816Y16638D01*
X4783D01*
X4750Y16605D01*
Y16540D01*
X4783Y16507D01*
X4947Y16835D02*
Y16704D01*
X4848D01*
X4881Y16769D01*
Y16802D01*
X4848Y16835D01*
X4783D01*
X4750Y16802D01*
Y16736D01*
X4783Y16704D01*
X4266Y15748D02*
X4463D01*
Y15846D01*
X4430Y15879D01*
X4364D01*
X4331Y15846D01*
Y15748D01*
Y15814D02*
X4266Y15879D01*
X4430Y15945D02*
X4463Y15978D01*
Y16043D01*
X4430Y16076D01*
X4397D01*
X4364Y16043D01*
Y16010D01*
Y16043D01*
X4331Y16076D01*
X4299D01*
X4266Y16043D01*
Y15978D01*
X4299Y15945D01*
X4430Y16142D02*
X4463Y16174D01*
Y16240D01*
X4430Y16273D01*
X4397D01*
X4364Y16240D01*
Y16207D01*
Y16240D01*
X4331Y16273D01*
X4299D01*
X4266Y16240D01*
Y16174D01*
X4299Y16142D01*
X4026Y15748D02*
X4223D01*
Y15846D01*
X4190Y15879D01*
X4124D01*
X4091Y15846D01*
Y15748D01*
Y15814D02*
X4026Y15879D01*
X4190Y15945D02*
X4223Y15978D01*
Y16043D01*
X4190Y16076D01*
X4157D01*
X4124Y16043D01*
Y16010D01*
Y16043D01*
X4091Y16076D01*
X4059D01*
X4026Y16043D01*
Y15978D01*
X4059Y15945D01*
X4026Y16273D02*
Y16142D01*
X4157Y16273D01*
X4190D01*
X4223Y16240D01*
Y16174D01*
X4190Y16142D01*
X3990Y13290D02*
Y13487D01*
X3892D01*
X3859Y13454D01*
Y13388D01*
X3892Y13356D01*
X3990D01*
X3924D02*
X3859Y13290D01*
X3793Y13454D02*
X3760Y13487D01*
X3695D01*
X3662Y13454D01*
Y13421D01*
X3695Y13388D01*
X3728D01*
X3695D01*
X3662Y13356D01*
Y13323D01*
X3695Y13290D01*
X3760D01*
X3793Y13323D01*
X3596Y13454D02*
X3564Y13487D01*
X3498D01*
X3465Y13454D01*
Y13323D01*
X3498Y13290D01*
X3564D01*
X3596Y13323D01*
Y13454D01*
X3990Y13550D02*
Y13747D01*
X3892D01*
X3859Y13714D01*
Y13648D01*
X3892Y13616D01*
X3990D01*
X3924D02*
X3859Y13550D01*
X3662D02*
X3793D01*
X3662Y13681D01*
Y13714D01*
X3695Y13747D01*
X3760D01*
X3793Y13714D01*
X3596Y13583D02*
X3564Y13550D01*
X3498D01*
X3465Y13583D01*
Y13714D01*
X3498Y13747D01*
X3564D01*
X3596Y13714D01*
Y13681D01*
X3564Y13648D01*
X3465D01*
X3937Y6378D02*
Y6181D01*
X3839D01*
X3806Y6214D01*
Y6345D01*
X3839Y6378D01*
X3937D01*
X3740Y6181D02*
X3675D01*
X3707D01*
Y6378D01*
X3740Y6345D01*
X5213Y6890D02*
Y7021D01*
Y6955D01*
X5016D01*
Y7087D02*
X5213D01*
Y7185D01*
X5180Y7218D01*
X5114D01*
X5081Y7185D01*
Y7087D01*
X5213Y7415D02*
X5180Y7349D01*
X5114Y7283D01*
X5049D01*
X5016Y7316D01*
Y7382D01*
X5049Y7415D01*
X5081D01*
X5114Y7382D01*
Y7283D01*
X9050Y3456D02*
X9083Y3424D01*
Y3358D01*
X9050Y3325D01*
X9017D01*
X8984Y3358D01*
Y3424D01*
X8951Y3456D01*
X8919D01*
X8886Y3424D01*
Y3358D01*
X8919Y3325D01*
X9083Y3522D02*
X8886D01*
Y3620D01*
X8919Y3653D01*
X8951D01*
X8984Y3620D01*
Y3522D01*
Y3620D01*
X9017Y3653D01*
X9050D01*
X9083Y3620D01*
Y3522D01*
X8919Y3719D02*
X8886Y3751D01*
Y3817D01*
X8919Y3850D01*
X9050D01*
X9083Y3817D01*
Y3751D01*
X9050Y3719D01*
X9017D01*
X8984Y3751D01*
Y3850D01*
X8590Y3356D02*
X8623Y3324D01*
Y3258D01*
X8590Y3225D01*
X8557D01*
X8524Y3258D01*
Y3324D01*
X8491Y3356D01*
X8459D01*
X8426Y3324D01*
Y3258D01*
X8459Y3225D01*
X8623Y3422D02*
X8426D01*
Y3520D01*
X8459Y3553D01*
X8491D01*
X8524Y3520D01*
Y3422D01*
Y3520D01*
X8557Y3553D01*
X8590D01*
X8623Y3520D01*
Y3422D01*
X8426Y3619D02*
Y3684D01*
Y3651D01*
X8623D01*
X8590Y3619D01*
X8426Y3783D02*
Y3848D01*
Y3815D01*
X8623D01*
X8590Y3783D01*
X8150Y3296D02*
X8183Y3264D01*
Y3198D01*
X8150Y3165D01*
X8117D01*
X8084Y3198D01*
Y3264D01*
X8051Y3296D01*
X8019D01*
X7986Y3264D01*
Y3198D01*
X8019Y3165D01*
X8183Y3362D02*
X7986D01*
Y3460D01*
X8019Y3493D01*
X8051D01*
X8084Y3460D01*
Y3362D01*
Y3460D01*
X8117Y3493D01*
X8150D01*
X8183Y3460D01*
Y3362D01*
X7986Y3559D02*
Y3624D01*
Y3591D01*
X8183D01*
X8150Y3559D01*
Y3723D02*
X8183Y3755D01*
Y3821D01*
X8150Y3854D01*
X8019D01*
X7986Y3821D01*
Y3755D01*
X8019Y3723D01*
X8150D01*
X7690Y3456D02*
X7723Y3424D01*
Y3358D01*
X7690Y3325D01*
X7657D01*
X7624Y3358D01*
Y3424D01*
X7591Y3456D01*
X7559D01*
X7526Y3424D01*
Y3358D01*
X7559Y3325D01*
X7723Y3522D02*
X7526D01*
Y3620D01*
X7559Y3653D01*
X7591D01*
X7624Y3620D01*
Y3522D01*
Y3620D01*
X7657Y3653D01*
X7690D01*
X7723Y3620D01*
Y3522D01*
X7690Y3719D02*
X7723Y3751D01*
Y3817D01*
X7690Y3850D01*
X7657D01*
X7624Y3817D01*
X7591Y3850D01*
X7559D01*
X7526Y3817D01*
Y3751D01*
X7559Y3719D01*
X7591D01*
X7624Y3751D01*
X7657Y3719D01*
X7690D01*
X7624Y3751D02*
Y3817D01*
X7250Y3456D02*
X7283Y3424D01*
Y3358D01*
X7250Y3325D01*
X7217D01*
X7184Y3358D01*
Y3424D01*
X7151Y3456D01*
X7119D01*
X7086Y3424D01*
Y3358D01*
X7119Y3325D01*
X7283Y3522D02*
X7086D01*
Y3620D01*
X7119Y3653D01*
X7151D01*
X7184Y3620D01*
Y3522D01*
Y3620D01*
X7217Y3653D01*
X7250D01*
X7283Y3620D01*
Y3522D01*
Y3719D02*
Y3850D01*
X7250D01*
X7119Y3719D01*
X7086D01*
X10226Y4995D02*
Y5192D01*
X10128D01*
X10095Y5159D01*
Y5094D01*
X10128Y5061D01*
X10226D01*
X10161D02*
X10095Y4995D01*
X9898Y5192D02*
X9964Y5159D01*
X10029Y5094D01*
Y5028D01*
X9997Y4995D01*
X9931D01*
X9898Y5028D01*
Y5061D01*
X9931Y5094D01*
X10029D01*
X10226Y4745D02*
Y4942D01*
X10128D01*
X10095Y4909D01*
Y4844D01*
X10128Y4811D01*
X10226D01*
X10161D02*
X10095Y4745D01*
X9898Y4942D02*
X10029D01*
Y4844D01*
X9964Y4876D01*
X9931D01*
X9898Y4844D01*
Y4778D01*
X9931Y4745D01*
X9997D01*
X10029Y4778D01*
X10226Y4495D02*
Y4692D01*
X10128D01*
X10095Y4659D01*
Y4594D01*
X10128Y4561D01*
X10226D01*
X10161D02*
X10095Y4495D01*
X9931D02*
Y4692D01*
X10029Y4594D01*
X9898D01*
X14667Y5494D02*
X14699Y5526D01*
X14765D01*
X14798Y5494D01*
Y5362D01*
X14765Y5330D01*
X14699D01*
X14667Y5362D01*
X14601Y5494D02*
X14568Y5526D01*
X14503D01*
X14470Y5494D01*
Y5461D01*
X14503Y5428D01*
X14470Y5395D01*
Y5362D01*
X14503Y5330D01*
X14568D01*
X14601Y5362D01*
Y5395D01*
X14568Y5428D01*
X14601Y5461D01*
Y5494D01*
X14568Y5428D02*
X14503D01*
X14677Y4840D02*
X14513D01*
X14480Y4873D01*
Y4938D01*
X14513Y4971D01*
X14677D01*
Y5168D02*
Y5037D01*
X14578D01*
X14611Y5102D01*
Y5135D01*
X14578Y5168D01*
X14513D01*
X14480Y5135D01*
Y5070D01*
X14513Y5037D01*
X13021Y2216D02*
Y2052D01*
X12988Y2019D01*
X12923D01*
X12890Y2052D01*
Y2216D01*
X12824Y2183D02*
X12791Y2216D01*
X12726D01*
X12693Y2183D01*
Y2150D01*
X12726Y2117D01*
X12759D01*
X12726D01*
X12693Y2084D01*
Y2052D01*
X12726Y2019D01*
X12791D01*
X12824Y2052D01*
X14190Y1293D02*
X14223Y1326D01*
X14288D01*
X14321Y1293D01*
Y1162D01*
X14288Y1129D01*
X14223D01*
X14190Y1162D01*
X14124Y1129D02*
X14059D01*
X14091D01*
Y1326D01*
X14124Y1293D01*
X13862Y1129D02*
Y1326D01*
X13960Y1227D01*
X13829D01*
X14179Y729D02*
X13982D01*
Y860D01*
X14179Y1057D02*
Y926D01*
X14081D01*
X14113Y991D01*
Y1024D01*
X14081Y1057D01*
X14015D01*
X13982Y1024D01*
Y958D01*
X14015Y926D01*
X11879Y1039D02*
X11683D01*
Y1170D01*
Y1334D02*
X11879D01*
X11781Y1236D01*
Y1367D01*
X12838Y469D02*
X12641D01*
Y600D01*
X12838Y797D02*
X12805Y731D01*
X12739Y666D01*
X12674D01*
X12641Y698D01*
Y764D01*
X12674Y797D01*
X12707D01*
X12739Y764D01*
Y666D01*
X13623Y1389D02*
X13819D01*
Y1487D01*
X13787Y1520D01*
X13721D01*
X13688Y1487D01*
Y1389D01*
Y1454D02*
X13623Y1520D01*
X13655Y1586D02*
X13623Y1618D01*
Y1684D01*
X13655Y1717D01*
X13787D01*
X13819Y1684D01*
Y1618D01*
X13787Y1586D01*
X13754D01*
X13721Y1618D01*
Y1717D01*
X13543Y714D02*
X13575Y747D01*
X13641D01*
X13674Y714D01*
Y583D01*
X13641Y550D01*
X13575D01*
X13543Y583D01*
X13477Y550D02*
X13411D01*
X13444D01*
Y747D01*
X13477Y714D01*
X13313Y550D02*
X13247D01*
X13280D01*
Y747D01*
X13313Y714D01*
X12054Y1588D02*
X12087Y1555D01*
Y1489D01*
X12054Y1457D01*
X11923D01*
X11890Y1489D01*
Y1555D01*
X11923Y1588D01*
Y1653D02*
X11890Y1686D01*
Y1752D01*
X11923Y1785D01*
X12054D01*
X12087Y1752D01*
Y1686D01*
X12054Y1653D01*
X12021D01*
X11988Y1686D01*
Y1785D01*
X12210Y573D02*
X12243Y606D01*
X12308D01*
X12341Y573D01*
Y442D01*
X12308Y409D01*
X12243D01*
X12210Y442D01*
X12144Y409D02*
X12079D01*
X12111D01*
Y606D01*
X12144Y573D01*
X11980D02*
X11947Y606D01*
X11882D01*
X11849Y573D01*
Y442D01*
X11882Y409D01*
X11947D01*
X11980Y442D01*
Y573D01*
X12317Y2270D02*
X12349Y2237D01*
Y2172D01*
X12317Y2139D01*
X12185D01*
X12153Y2172D01*
Y2237D01*
X12185Y2270D01*
X12153Y2336D02*
Y2401D01*
Y2368D01*
X12349D01*
X12317Y2336D01*
X12349Y2500D02*
Y2631D01*
X12317D01*
X12185Y2500D01*
X12153D01*
X3235Y12828D02*
X3268Y12795D01*
Y12730D01*
X3235Y12697D01*
X3202D01*
X3169Y12730D01*
Y12795D01*
X3136Y12828D01*
X3104D01*
X3071Y12795D01*
Y12730D01*
X3104Y12697D01*
X3268Y12894D02*
X3071D01*
Y12992D01*
X3104Y13025D01*
X3136D01*
X3169Y12992D01*
Y12894D01*
Y12992D01*
X3202Y13025D01*
X3235D01*
X3268Y12992D01*
Y12894D01*
X3071Y13222D02*
Y13090D01*
X3202Y13222D01*
X3235D01*
X3268Y13189D01*
Y13123D01*
X3235Y13090D01*
X7047Y15791D02*
X6850D01*
Y15922D01*
Y15988D02*
Y16053D01*
Y16020D01*
X7047D01*
X7014Y15988D01*
X6850Y16250D02*
X7047D01*
X6949Y16152D01*
Y16283D01*
X4052Y19537D02*
X4117D01*
X4085D01*
Y19373D01*
X4117Y19341D01*
X4150D01*
X4183Y19373D01*
X3986Y19505D02*
X3953Y19537D01*
X3888D01*
X3855Y19505D01*
Y19472D01*
X3888Y19439D01*
X3921D01*
X3888D01*
X3855Y19406D01*
Y19373D01*
X3888Y19341D01*
X3953D01*
X3986Y19373D01*
X5834Y16381D02*
X5867Y16348D01*
Y16283D01*
X5834Y16250D01*
X5703D01*
X5670Y16283D01*
Y16348D01*
X5703Y16381D01*
X5670Y16545D02*
X5867D01*
X5768Y16447D01*
Y16578D01*
X5703Y16644D02*
X5670Y16676D01*
Y16742D01*
X5703Y16775D01*
X5834D01*
X5867Y16742D01*
Y16676D01*
X5834Y16644D01*
X5801D01*
X5768Y16676D01*
Y16775D01*
X5399Y16414D02*
X5432Y16447D01*
X5497D01*
X5530Y16414D01*
Y16283D01*
X5497Y16250D01*
X5432D01*
X5399Y16283D01*
X5235Y16250D02*
Y16447D01*
X5333Y16348D01*
X5202D01*
X5136Y16414D02*
X5104Y16447D01*
X5038D01*
X5005Y16414D01*
Y16381D01*
X5038Y16348D01*
X5005Y16316D01*
Y16283D01*
X5038Y16250D01*
X5104D01*
X5136Y16283D01*
Y16316D01*
X5104Y16348D01*
X5136Y16381D01*
Y16414D01*
X5104Y16348D02*
X5038D01*
X6109Y13854D02*
X6142Y13887D01*
X6207D01*
X6240Y13854D01*
Y13723D01*
X6207Y13690D01*
X6142D01*
X6109Y13723D01*
X5945Y13690D02*
Y13887D01*
X6043Y13788D01*
X5912D01*
X5846Y13887D02*
X5715D01*
Y13854D01*
X5846Y13723D01*
Y13690D01*
X6544Y13471D02*
X6577Y13438D01*
Y13373D01*
X6544Y13340D01*
X6413D01*
X6380Y13373D01*
Y13438D01*
X6413Y13471D01*
X6380Y13635D02*
X6577D01*
X6478Y13537D01*
Y13668D01*
X6577Y13865D02*
X6544Y13799D01*
X6478Y13734D01*
X6413D01*
X6380Y13766D01*
Y13832D01*
X6413Y13865D01*
X6446D01*
X6478Y13832D01*
Y13734D01*
X9094Y11772D02*
Y11608D01*
X9062Y11575D01*
X8996D01*
X8963Y11608D01*
Y11772D01*
X8898Y11608D02*
X8865Y11575D01*
X8799D01*
X8767Y11608D01*
Y11739D01*
X8799Y11772D01*
X8865D01*
X8898Y11739D01*
Y11706D01*
X8865Y11673D01*
X8767D01*
X13460Y13507D02*
Y13343D01*
X13427Y13310D01*
X13362D01*
X13329Y13343D01*
Y13507D01*
X13263D02*
X13132D01*
Y13474D01*
X13263Y13343D01*
Y13310D01*
X4250Y15617D02*
Y15453D01*
X4217Y15420D01*
X4152D01*
X4119Y15453D01*
Y15617D01*
X4053Y15420D02*
X3988D01*
X4020D01*
Y15617D01*
X4053Y15584D01*
X3889Y15420D02*
X3824D01*
X3856D01*
Y15617D01*
X3889Y15584D01*
X7191Y14857D02*
Y14660D01*
X7060D01*
X6994D02*
X6929D01*
X6961D01*
Y14857D01*
X6994Y14824D01*
X6830D02*
X6797Y14857D01*
X6732D01*
X6699Y14824D01*
Y14791D01*
X6732Y14758D01*
X6765D01*
X6732D01*
X6699Y14726D01*
Y14693D01*
X6732Y14660D01*
X6797D01*
X6830Y14693D01*
X2900Y15229D02*
X2933Y15262D01*
X2999D01*
X3031Y15229D01*
Y15098D01*
X2999Y15065D01*
X2933D01*
X2900Y15098D01*
X2704Y15262D02*
X2835D01*
Y15164D01*
X2769Y15196D01*
X2736D01*
X2704Y15164D01*
Y15098D01*
X2736Y15065D01*
X2802D01*
X2835Y15098D01*
X2638Y15229D02*
X2605Y15262D01*
X2540D01*
X2507Y15229D01*
Y15098D01*
X2540Y15065D01*
X2605D01*
X2638Y15098D01*
Y15229D01*
X2900Y14779D02*
X2933Y14812D01*
X2999D01*
X3031Y14779D01*
Y14648D01*
X2999Y14615D01*
X2933D01*
X2900Y14648D01*
X2704Y14812D02*
X2835D01*
Y14714D01*
X2769Y14746D01*
X2736D01*
X2704Y14714D01*
Y14648D01*
X2736Y14615D01*
X2802D01*
X2835Y14648D01*
X2638Y14615D02*
X2572D01*
X2605D01*
Y14812D01*
X2638Y14779D01*
X4770Y3789D02*
X4836D01*
X4803D01*
Y3625D01*
X4836Y3593D01*
X4869D01*
X4902Y3625D01*
X4574Y3789D02*
X4705D01*
Y3691D01*
X4639Y3724D01*
X4606D01*
X4574Y3691D01*
Y3625D01*
X4606Y3593D01*
X4672D01*
X4705Y3625D01*
X3786Y15748D02*
X3983D01*
Y15846D01*
X3950Y15879D01*
X3884D01*
X3851Y15846D01*
Y15748D01*
Y15814D02*
X3786Y15879D01*
X3950Y15945D02*
X3983Y15978D01*
Y16043D01*
X3950Y16076D01*
X3917D01*
X3884Y16043D01*
Y16010D01*
Y16043D01*
X3851Y16076D01*
X3819D01*
X3786Y16043D01*
Y15978D01*
X3819Y15945D01*
X3983Y16273D02*
X3950Y16207D01*
X3884Y16142D01*
X3819D01*
X3786Y16174D01*
Y16240D01*
X3819Y16273D01*
X3851D01*
X3884Y16240D01*
Y16142D01*
X5130Y13250D02*
Y13447D01*
X5032D01*
X4999Y13414D01*
Y13348D01*
X5032Y13316D01*
X5130D01*
X5064D02*
X4999Y13250D01*
X4802D02*
X4933D01*
X4802Y13381D01*
Y13414D01*
X4835Y13447D01*
X4900D01*
X4933Y13414D01*
X4605Y13447D02*
X4671Y13414D01*
X4736Y13348D01*
Y13283D01*
X4704Y13250D01*
X4638D01*
X4605Y13283D01*
Y13316D01*
X4638Y13348D01*
X4736D01*
X2900Y14329D02*
X2933Y14362D01*
X2999D01*
X3031Y14329D01*
Y14198D01*
X2999Y14165D01*
X2933D01*
X2900Y14198D01*
X2704Y14362D02*
X2835D01*
Y14264D01*
X2769Y14296D01*
X2736D01*
X2704Y14264D01*
Y14198D01*
X2736Y14165D01*
X2802D01*
X2835Y14198D01*
X2638Y14329D02*
X2605Y14362D01*
X2540D01*
X2507Y14329D01*
Y14296D01*
X2540Y14264D01*
X2572D01*
X2540D01*
X2507Y14231D01*
Y14198D01*
X2540Y14165D01*
X2605D01*
X2638Y14198D01*
X5984Y9955D02*
Y10152D01*
X5886D01*
X5853Y10119D01*
Y10054D01*
X5886Y10021D01*
X5984D01*
X5919D02*
X5853Y9955D01*
X5656D02*
X5787D01*
X5656Y10086D01*
Y10119D01*
X5689Y10152D01*
X5755D01*
X5787Y10119D01*
X5591D02*
X5558Y10152D01*
X5492D01*
X5459Y10119D01*
Y10086D01*
X5492Y10054D01*
X5525D01*
X5492D01*
X5459Y10021D01*
Y9988D01*
X5492Y9955D01*
X5558D01*
X5591Y9988D01*
X5984Y10205D02*
Y10402D01*
X5886D01*
X5853Y10369D01*
Y10304D01*
X5886Y10271D01*
X5984D01*
X5919D02*
X5853Y10205D01*
X5656D02*
X5787D01*
X5656Y10336D01*
Y10369D01*
X5689Y10402D01*
X5755D01*
X5787Y10369D01*
X5459Y10205D02*
X5591D01*
X5459Y10336D01*
Y10369D01*
X5492Y10402D01*
X5558D01*
X5591Y10369D01*
X15267Y10500D02*
X15070D01*
Y10631D01*
X15267Y10697D02*
X15070D01*
Y10795D01*
X15103Y10828D01*
X15234D01*
X15267Y10795D01*
Y10697D01*
X15070Y10894D02*
Y10959D01*
Y10926D01*
X15267D01*
X15234Y10894D01*
X14033Y16131D02*
X14164D01*
X14197Y16098D01*
Y16033D01*
X14164Y16000D01*
X14033D01*
X14000Y16033D01*
Y16098D01*
X14066Y16066D02*
X14000Y16131D01*
Y16098D02*
X14033Y16131D01*
X14164Y16197D02*
X14197Y16230D01*
Y16295D01*
X14164Y16328D01*
X14131D01*
X14098Y16295D01*
Y16262D01*
Y16295D01*
X14066Y16328D01*
X14033D01*
X14000Y16295D01*
Y16230D01*
X14033Y16197D01*
X13983Y18931D02*
X14114D01*
X14147Y18898D01*
Y18833D01*
X14114Y18800D01*
X13983D01*
X13950Y18833D01*
Y18898D01*
X14016Y18866D02*
X13950Y18931D01*
Y18898D02*
X13983Y18931D01*
X13950Y19128D02*
Y18997D01*
X14081Y19128D01*
X14114D01*
X14147Y19095D01*
Y19030D01*
X14114Y18997D01*
X12920Y17675D02*
Y17872D01*
X12822D01*
X12789Y17839D01*
Y17774D01*
X12822Y17741D01*
X12920D01*
X12854D02*
X12789Y17675D01*
X12723D02*
X12658D01*
X12690D01*
Y17872D01*
X12723Y17839D01*
X12559D02*
X12526Y17872D01*
X12461D01*
X12428Y17839D01*
Y17806D01*
X12461Y17774D01*
X12428Y17741D01*
Y17708D01*
X12461Y17675D01*
X12526D01*
X12559Y17708D01*
Y17741D01*
X12526Y17774D01*
X12559Y17806D01*
Y17839D01*
X12526Y17774D02*
X12461D01*
X12920Y16625D02*
Y16822D01*
X12822D01*
X12789Y16789D01*
Y16724D01*
X12822Y16691D01*
X12920D01*
X12854D02*
X12789Y16625D01*
X12592D02*
X12723D01*
X12592Y16756D01*
Y16789D01*
X12625Y16822D01*
X12690D01*
X12723Y16789D01*
X12526D02*
X12494Y16822D01*
X12428D01*
X12395Y16789D01*
Y16658D01*
X12428Y16625D01*
X12494D01*
X12526Y16658D01*
Y16789D01*
X12920Y18375D02*
Y18572D01*
X12822D01*
X12789Y18539D01*
Y18474D01*
X12822Y18441D01*
X12920D01*
X12854D02*
X12789Y18375D01*
X12723D02*
X12658D01*
X12690D01*
Y18572D01*
X12723Y18539D01*
X12559Y18408D02*
X12526Y18375D01*
X12461D01*
X12428Y18408D01*
Y18539D01*
X12461Y18572D01*
X12526D01*
X12559Y18539D01*
Y18506D01*
X12526Y18474D01*
X12428D01*
X1030Y13688D02*
X1063Y13720D01*
X1129D01*
X1161Y13688D01*
Y13655D01*
X1129Y13622D01*
X1063D01*
X1030Y13589D01*
Y13556D01*
X1063Y13524D01*
X1129D01*
X1161Y13556D01*
X965Y13720D02*
Y13524D01*
X899Y13589D01*
X833Y13524D01*
Y13720D01*
X768Y13524D02*
X702D01*
X735D01*
Y13720D01*
X768Y13688D01*
X12920Y17325D02*
Y17522D01*
X12822D01*
X12789Y17489D01*
Y17424D01*
X12822Y17391D01*
X12920D01*
X12854D02*
X12789Y17325D01*
X12723D02*
X12658D01*
X12690D01*
Y17522D01*
X12723Y17489D01*
X12428Y17522D02*
X12559D01*
Y17424D01*
X12494Y17456D01*
X12461D01*
X12428Y17424D01*
Y17358D01*
X12461Y17325D01*
X12526D01*
X12559Y17358D01*
X1049Y8387D02*
X1114D01*
X1082D01*
Y8223D01*
X1114Y8190D01*
X1147D01*
X1180Y8223D01*
X852Y8387D02*
X918Y8354D01*
X983Y8288D01*
Y8223D01*
X950Y8190D01*
X885D01*
X852Y8223D01*
Y8256D01*
X885Y8288D01*
X983D01*
X12692Y15234D02*
X12725Y15267D01*
X12791D01*
X12824Y15234D01*
Y15103D01*
X12791Y15070D01*
X12725D01*
X12692Y15103D01*
X12627Y15234D02*
X12594Y15267D01*
X12528D01*
X12496Y15234D01*
Y15201D01*
X12528Y15168D01*
X12561D01*
X12528D01*
X12496Y15136D01*
Y15103D01*
X12528Y15070D01*
X12594D01*
X12627Y15103D01*
X12299Y15267D02*
X12364Y15234D01*
X12430Y15168D01*
Y15103D01*
X12397Y15070D01*
X12332D01*
X12299Y15103D01*
Y15136D01*
X12332Y15168D01*
X12430D01*
X14219Y15254D02*
X14252Y15287D01*
X14317D01*
X14350Y15254D01*
Y15123D01*
X14317Y15090D01*
X14252D01*
X14219Y15123D01*
X14153Y15254D02*
X14120Y15287D01*
X14055D01*
X14022Y15254D01*
Y15221D01*
X14055Y15188D01*
X14088D01*
X14055D01*
X14022Y15156D01*
Y15123D01*
X14055Y15090D01*
X14120D01*
X14153Y15123D01*
X13956Y15287D02*
X13825D01*
Y15254D01*
X13956Y15123D01*
Y15090D01*
X13668Y9068D02*
X13701Y9035D01*
Y8970D01*
X13668Y8937D01*
X13537D01*
X13504Y8970D01*
Y9035D01*
X13537Y9068D01*
X13504Y9232D02*
X13701D01*
X13602Y9134D01*
Y9265D01*
X13504Y9462D02*
Y9331D01*
X13635Y9462D01*
X13668D01*
X13701Y9429D01*
Y9363D01*
X13668Y9331D01*
X5074Y5781D02*
X5107Y5748D01*
Y5683D01*
X5074Y5650D01*
X4943D01*
X4910Y5683D01*
Y5748D01*
X4943Y5781D01*
X5107Y5978D02*
Y5847D01*
X5008D01*
X5041Y5912D01*
Y5945D01*
X5008Y5978D01*
X4943D01*
X4910Y5945D01*
Y5880D01*
X4943Y5847D01*
X5107Y6175D02*
X5074Y6109D01*
X5008Y6044D01*
X4943D01*
X4910Y6076D01*
Y6142D01*
X4943Y6175D01*
X4976D01*
X5008Y6142D01*
Y6044D01*
X5074Y6431D02*
X5107Y6398D01*
Y6333D01*
X5074Y6300D01*
X4943D01*
X4910Y6333D01*
Y6398D01*
X4943Y6431D01*
X5107Y6628D02*
Y6497D01*
X5008D01*
X5041Y6562D01*
Y6595D01*
X5008Y6628D01*
X4943D01*
X4910Y6595D01*
Y6530D01*
X4943Y6497D01*
X5107Y6694D02*
Y6825D01*
X5074D01*
X4943Y6694D01*
X4910D01*
X13957Y17205D02*
X13760D01*
Y17336D01*
X13957Y17402D02*
X13760D01*
Y17500D01*
X13793Y17533D01*
X13924D01*
X13957Y17500D01*
Y17402D01*
X13760Y17729D02*
Y17598D01*
X13891Y17729D01*
X13924D01*
X13957Y17697D01*
Y17631D01*
X13924Y17598D01*
X1450Y5730D02*
Y5927D01*
X1352D01*
X1319Y5894D01*
Y5828D01*
X1352Y5796D01*
X1450D01*
X1253Y5894D02*
X1220Y5927D01*
X1155D01*
X1122Y5894D01*
Y5861D01*
X1155Y5828D01*
X1122Y5796D01*
Y5763D01*
X1155Y5730D01*
X1220D01*
X1253Y5763D01*
Y5796D01*
X1220Y5828D01*
X1253Y5861D01*
Y5894D01*
X1220Y5828D02*
X1155D01*
X12920Y18025D02*
Y18222D01*
X12822D01*
X12789Y18189D01*
Y18124D01*
X12822Y18091D01*
X12920D01*
X12854D02*
X12789Y18025D01*
X12723D02*
X12658D01*
X12690D01*
Y18222D01*
X12723Y18189D01*
X12428Y18222D02*
X12494Y18189D01*
X12559Y18124D01*
Y18058D01*
X12526Y18025D01*
X12461D01*
X12428Y18058D01*
Y18091D01*
X12461Y18124D01*
X12559D01*
X12920Y16975D02*
Y17172D01*
X12822D01*
X12789Y17139D01*
Y17074D01*
X12822Y17041D01*
X12920D01*
X12854D02*
X12789Y16975D01*
X12723D02*
X12658D01*
X12690D01*
Y17172D01*
X12723Y17139D01*
X12559Y17172D02*
X12428D01*
Y17139D01*
X12559Y17008D01*
Y16975D01*
X14930Y8557D02*
Y8393D01*
X14897Y8360D01*
X14832D01*
X14799Y8393D01*
Y8557D01*
X14733Y8360D02*
X14668D01*
X14700D01*
Y8557D01*
X14733Y8524D01*
X14569D02*
X14536Y8557D01*
X14471D01*
X14438Y8524D01*
Y8393D01*
X14471Y8360D01*
X14536D01*
X14569Y8393D01*
Y8524D01*
X7972Y12031D02*
X8004Y11998D01*
Y11933D01*
X7972Y11900D01*
X7840D01*
X7808Y11933D01*
Y11998D01*
X7840Y12031D01*
X7808Y12195D02*
X8004D01*
X7906Y12097D01*
Y12228D01*
X7808Y12294D02*
Y12359D01*
Y12326D01*
X8004D01*
X7972Y12294D01*
X7964Y12726D02*
X7996Y12694D01*
Y12628D01*
X7964Y12595D01*
X7832D01*
X7800Y12628D01*
Y12694D01*
X7832Y12726D01*
X7800Y12890D02*
X7996D01*
X7898Y12792D01*
Y12923D01*
X7964Y12989D02*
X7996Y13022D01*
Y13087D01*
X7964Y13120D01*
X7832D01*
X7800Y13087D01*
Y13022D01*
X7832Y12989D01*
X7964D01*
X17795Y13917D02*
Y13720D01*
X17664D01*
X17598Y13917D02*
Y13720D01*
X17500D01*
X17467Y13753D01*
Y13884D01*
X17500Y13917D01*
X17598D01*
X17402Y13884D02*
X17369Y13917D01*
X17303D01*
X17271Y13884D01*
Y13852D01*
X17303Y13819D01*
X17336D01*
X17303D01*
X17271Y13786D01*
Y13753D01*
X17303Y13720D01*
X17369D01*
X17402Y13753D01*
X13811Y11108D02*
Y11305D01*
X13713D01*
X13680Y11272D01*
Y11206D01*
X13713Y11173D01*
X13811D01*
X13745D02*
X13680Y11108D01*
X13614D02*
X13549D01*
X13581D01*
Y11305D01*
X13614Y11272D01*
X13319Y11108D02*
X13450D01*
X13319Y11239D01*
Y11272D01*
X13352Y11305D01*
X13417D01*
X13450Y11272D01*
X13811Y10838D02*
Y11035D01*
X13713D01*
X13680Y11002D01*
Y10936D01*
X13713Y10903D01*
X13811D01*
X13745D02*
X13680Y10838D01*
X13614D02*
X13549D01*
X13581D01*
Y11035D01*
X13614Y11002D01*
X13450D02*
X13417Y11035D01*
X13352D01*
X13319Y11002D01*
Y10969D01*
X13352Y10936D01*
X13385D01*
X13352D01*
X13319Y10903D01*
Y10871D01*
X13352Y10838D01*
X13417D01*
X13450Y10871D01*
X13811Y10568D02*
Y10765D01*
X13713D01*
X13680Y10732D01*
Y10666D01*
X13713Y10633D01*
X13811D01*
X13745D02*
X13680Y10568D01*
X13614D02*
X13549D01*
X13581D01*
Y10765D01*
X13614Y10732D01*
X13352Y10568D02*
Y10765D01*
X13450Y10666D01*
X13319D01*
X3546Y15748D02*
X3743D01*
Y15846D01*
X3710Y15879D01*
X3644D01*
X3611Y15846D01*
Y15748D01*
Y15814D02*
X3546Y15879D01*
X3710Y15945D02*
X3743Y15978D01*
Y16043D01*
X3710Y16076D01*
X3677D01*
X3644Y16043D01*
Y16010D01*
Y16043D01*
X3611Y16076D01*
X3579D01*
X3546Y16043D01*
Y15978D01*
X3579Y15945D01*
X3743Y16142D02*
Y16273D01*
X3710D01*
X3579Y16142D01*
X3546D01*
X5349Y14564D02*
X5382Y14597D01*
X5447D01*
X5480Y14564D01*
Y14433D01*
X5447Y14400D01*
X5382D01*
X5349Y14433D01*
X5152Y14597D02*
X5283D01*
Y14498D01*
X5218Y14531D01*
X5185D01*
X5152Y14498D01*
Y14433D01*
X5185Y14400D01*
X5250D01*
X5283Y14433D01*
X4955Y14400D02*
X5086D01*
X4955Y14531D01*
Y14564D01*
X4988Y14597D01*
X5054D01*
X5086Y14564D01*
X2812Y9131D02*
X2845Y9163D01*
X2910D01*
X2943Y9131D01*
Y8999D01*
X2910Y8967D01*
X2845D01*
X2812Y8999D01*
X2648Y8967D02*
Y9163D01*
X2746Y9065D01*
X2615D01*
X2549Y9131D02*
X2517Y9163D01*
X2451D01*
X2418Y9131D01*
Y9098D01*
X2451Y9065D01*
X2484D01*
X2451D01*
X2418Y9032D01*
Y8999D01*
X2451Y8967D01*
X2517D01*
X2549Y8999D01*
X2763Y10213D02*
X2795Y10246D01*
X2861D01*
X2894Y10213D01*
Y10082D01*
X2861Y10049D01*
X2795D01*
X2763Y10082D01*
X2599Y10049D02*
Y10246D01*
X2697Y10148D01*
X2566D01*
X2402Y10049D02*
Y10246D01*
X2500Y10148D01*
X2369D01*
X12606Y4952D02*
X12475D01*
X12540D01*
Y4755D01*
X12409D02*
Y4952D01*
X12311D01*
X12278Y4919D01*
Y4854D01*
X12311Y4821D01*
X12409D01*
X12212Y4919D02*
X12180Y4952D01*
X12114D01*
X12081Y4919D01*
Y4886D01*
X12114Y4854D01*
X12147D01*
X12114D01*
X12081Y4821D01*
Y4788D01*
X12114Y4755D01*
X12180D01*
X12212Y4788D01*
X12606Y5542D02*
X12475D01*
X12540D01*
Y5345D01*
X12409D02*
Y5542D01*
X12311D01*
X12278Y5509D01*
Y5444D01*
X12311Y5411D01*
X12409D01*
X12081Y5345D02*
X12212D01*
X12081Y5476D01*
Y5509D01*
X12114Y5542D01*
X12180D01*
X12212Y5509D01*
X8939Y15734D02*
X8972Y15767D01*
X9037D01*
X9070Y15734D01*
Y15603D01*
X9037Y15570D01*
X8972D01*
X8939Y15603D01*
X8742Y15767D02*
X8873D01*
Y15668D01*
X8808Y15701D01*
X8775D01*
X8742Y15668D01*
Y15603D01*
X8775Y15570D01*
X8840D01*
X8873Y15603D01*
X8578Y15570D02*
Y15767D01*
X8676Y15668D01*
X8545D01*
X9580Y16020D02*
X9777D01*
Y16118D01*
X9744Y16151D01*
X9678D01*
X9646Y16118D01*
Y16020D01*
Y16086D02*
X9580Y16151D01*
X9744Y16217D02*
X9777Y16250D01*
Y16315D01*
X9744Y16348D01*
X9711D01*
X9678Y16315D01*
Y16282D01*
Y16315D01*
X9646Y16348D01*
X9613D01*
X9580Y16315D01*
Y16250D01*
X9613Y16217D01*
X9744Y16414D02*
X9777Y16446D01*
Y16512D01*
X9744Y16545D01*
X9711D01*
X9678Y16512D01*
X9646Y16545D01*
X9613D01*
X9580Y16512D01*
Y16446D01*
X9613Y16414D01*
X9646D01*
X9678Y16446D01*
X9711Y16414D01*
X9744D01*
X9678Y16446D02*
Y16512D01*
X9283Y16033D02*
Y15836D01*
X9184D01*
X9151Y15869D01*
Y16000D01*
X9184Y16033D01*
X9283D01*
X9086Y16000D02*
X9053Y16033D01*
X8988D01*
X8955Y16000D01*
Y15967D01*
X8988Y15934D01*
X9020D01*
X8988D01*
X8955Y15902D01*
Y15869D01*
X8988Y15836D01*
X9053D01*
X9086Y15869D01*
X12606Y4362D02*
X12475D01*
X12540D01*
Y4165D01*
X12409D02*
Y4362D01*
X12311D01*
X12278Y4329D01*
Y4264D01*
X12311Y4231D01*
X12409D01*
X12114Y4165D02*
Y4362D01*
X12212Y4264D01*
X12081D01*
X7377Y5558D02*
X7409Y5591D01*
X7475D01*
X7508Y5558D01*
Y5427D01*
X7475Y5394D01*
X7409D01*
X7377Y5427D01*
X7180Y5591D02*
X7311D01*
Y5492D01*
X7245Y5525D01*
X7213D01*
X7180Y5492D01*
Y5427D01*
X7213Y5394D01*
X7278D01*
X7311Y5427D01*
X6983Y5591D02*
X7114D01*
Y5492D01*
X7049Y5525D01*
X7016D01*
X6983Y5492D01*
Y5427D01*
X7016Y5394D01*
X7081D01*
X7114Y5427D01*
X2281Y6201D02*
X2478D01*
Y6299D01*
X2445Y6332D01*
X2379D01*
X2346Y6299D01*
Y6201D01*
Y6266D02*
X2281Y6332D01*
X2445Y6398D02*
X2478Y6430D01*
Y6496D01*
X2445Y6529D01*
X2412D01*
X2379Y6496D01*
Y6463D01*
Y6496D01*
X2346Y6529D01*
X2314D01*
X2281Y6496D01*
Y6430D01*
X2314Y6398D01*
Y6594D02*
X2281Y6627D01*
Y6693D01*
X2314Y6726D01*
X2445D01*
X2478Y6693D01*
Y6627D01*
X2445Y6594D01*
X2412D01*
X2379Y6627D01*
Y6726D01*
X6640Y4317D02*
Y4153D01*
X6607Y4120D01*
X6542D01*
X6509Y4153D01*
Y4317D01*
X6443Y4120D02*
X6378D01*
X6410D01*
Y4317D01*
X6443Y4284D01*
X6148Y4120D02*
X6279D01*
X6148Y4251D01*
Y4284D01*
X6181Y4317D01*
X6246D01*
X6279Y4284D01*
D12*
X7180Y7879D02*
G03*
X7180Y7879I-20J0D01*
G01*
X445Y3075D02*
Y5571D01*
Y3075D02*
X1429D01*
Y5571D01*
X445D02*
X1429D01*
D13*
X7067Y7972D02*
Y8327D01*
X6712D02*
X7067D01*
X6712Y7972D02*
Y8327D01*
Y7972D02*
X7067D01*
X2828Y9637D02*
X3193D01*
X2267D02*
X2632D01*
X2828Y9243D02*
X3193D01*
X2267D02*
X2632D01*
X2267D02*
Y9637D01*
X3193Y9243D02*
Y9637D01*
X-217Y8484D02*
Y11437D01*
X1722Y11250D02*
Y11437D01*
Y8484D02*
Y8671D01*
X-522Y14909D02*
X285D01*
X-522D02*
Y15500D01*
X285D01*
X-522Y16287D02*
X-404D01*
X-522Y15697D02*
X-404D01*
X-522Y16067D02*
Y16165D01*
X-293Y15697D02*
X-175D01*
X-293Y16287D02*
X-175D01*
X148D02*
X285D01*
X-73D02*
X45D01*
X-522Y15831D02*
Y15929D01*
X-73Y15697D02*
X45D01*
X148D02*
X285D01*
X-522Y16071D02*
Y16189D01*
X285Y13827D02*
X1663D01*
X285D02*
Y17370D01*
X1663D01*
Y13827D02*
Y17370D01*
X13694Y17652D02*
Y17948D01*
X13006Y17652D02*
Y17948D01*
Y17652D02*
X13252D01*
X13448D02*
X13694D01*
X13006Y17948D02*
X13252D01*
X13448D02*
X13694D01*
X14390Y10433D02*
Y11063D01*
X14980Y10433D02*
Y11063D01*
X4961Y14077D02*
X5217D01*
X5414D02*
X5670D01*
X4961Y14353D02*
X5217D01*
X5414D02*
X5670D01*
Y14077D02*
Y14353D01*
X4961Y14077D02*
Y14353D01*
X5574Y15234D02*
X5968D01*
X5574Y16159D02*
X5968D01*
X5574Y15795D02*
Y16159D01*
Y15234D02*
Y15598D01*
X5968Y15795D02*
Y16159D01*
Y15234D02*
Y15598D01*
X7013Y10153D02*
Y10547D01*
X6087Y10153D02*
Y10547D01*
Y10153D02*
X6452D01*
X6648D02*
X7013D01*
X6087Y10547D02*
X6452D01*
X6648D02*
X7013D01*
X3062Y13758D02*
Y14004D01*
Y13316D02*
Y13562D01*
X3358Y13758D02*
Y14004D01*
Y13316D02*
Y13562D01*
X3062Y13316D02*
X3358D01*
X3062Y14004D02*
X3358D01*
X3750Y14463D02*
X4114D01*
X3189D02*
X3553D01*
X3750Y14069D02*
X4114D01*
X3189D02*
X3553D01*
X3189D02*
Y14463D01*
X4114Y14069D02*
Y14463D01*
X4114Y14519D02*
Y14913D01*
X3189Y14519D02*
Y14913D01*
Y14519D02*
X3553D01*
X3750D02*
X4114D01*
X3189Y14913D02*
X3553D01*
X3750D02*
X4114D01*
X3750Y15363D02*
X4114D01*
X3189D02*
X3553D01*
X3750Y14969D02*
X4114D01*
X3189D02*
X3553D01*
X3189D02*
Y15363D01*
X4114Y14969D02*
Y15363D01*
X5510Y13990D02*
X5645Y13855D01*
X5192Y13206D02*
X5488D01*
X5192Y13894D02*
X5488D01*
X5192Y13648D02*
Y13894D01*
Y13206D02*
Y13452D01*
X5488Y13648D02*
Y13894D01*
Y13206D02*
Y13452D01*
X6724Y15232D02*
Y15528D01*
X6036Y15232D02*
Y15528D01*
Y15232D02*
X6282D01*
X6478D02*
X6724D01*
X6036Y15528D02*
X6282D01*
X6478D02*
X6724D01*
X4160Y14000D02*
X4190D01*
X4060Y13900D02*
X4160Y14000D01*
X4260Y13600D02*
X4440D01*
X4080Y13420D02*
X4260Y13600D01*
X4240Y13830D02*
X4450D01*
X4050Y13640D02*
X4240Y13830D01*
X4252Y14272D02*
Y14548D01*
X4961Y14272D02*
Y14548D01*
X4705D02*
X4961D01*
X4252D02*
X4508D01*
X4705Y14272D02*
X4961D01*
X4252D02*
X4508D01*
X4579Y15789D02*
Y16183D01*
X5504Y15789D02*
Y16183D01*
X5140D02*
X5504D01*
X4579D02*
X4943D01*
X5140Y15789D02*
X5504D01*
X4579D02*
X4943D01*
X6595Y13959D02*
Y14353D01*
X5670Y13959D02*
Y14353D01*
Y13959D02*
X6034D01*
X6231D02*
X6595D01*
X5670Y14353D02*
X6034D01*
X6231D02*
X6595D01*
X13448Y16898D02*
X13694D01*
X13006D02*
X13252D01*
X13448Y16602D02*
X13694D01*
X13006D02*
X13252D01*
X13006D02*
Y16898D01*
X13694Y16602D02*
Y16898D01*
X13448Y18648D02*
X13694D01*
X13006D02*
X13252D01*
X13448Y18352D02*
X13694D01*
X13006D02*
X13252D01*
X13006D02*
Y18648D01*
X13694Y18352D02*
Y18648D01*
X13448Y17598D02*
X13694D01*
X13006D02*
X13252D01*
X13448Y17302D02*
X13694D01*
X13006D02*
X13252D01*
X13006D02*
Y17598D01*
X13694Y17302D02*
Y17598D01*
X13448Y18298D02*
X13694D01*
X13006D02*
X13252D01*
X13448Y18002D02*
X13694D01*
X13006D02*
X13252D01*
X13006D02*
Y18298D01*
X13694Y18002D02*
Y18298D01*
X13448Y17248D02*
X13694D01*
X13006D02*
X13252D01*
X13448Y16952D02*
X13694D01*
X13006D02*
X13252D01*
X13006D02*
Y17248D01*
X13694Y16952D02*
Y17248D01*
X1866Y2874D02*
Y3007D01*
Y2941D01*
X2266D01*
X2199Y2874D01*
D15*
X8621Y16038D02*
G03*
X8621Y16038I-20J0D01*
G01*
X5398Y15703D02*
G03*
X5398Y15703I-20J0D01*
G01*
X12380Y977D02*
G03*
X12380Y977I-30J0D01*
G01*
X2236Y8330D02*
X2944D01*
X2236Y7110D02*
X2944D01*
Y7129D01*
X2236Y7110D02*
Y7129D01*
X2944Y8311D02*
Y8330D01*
X2236Y8311D02*
Y8330D01*
X7999Y14496D02*
X8176D01*
X7999Y15284D02*
X8176Y15284D01*
X8924D02*
X9101Y15284D01*
X8924Y14496D02*
X9101D01*
Y14546D01*
X7999Y14496D02*
Y14546D01*
Y15234D02*
Y15284D01*
X9101Y15234D02*
Y15284D01*
X6991Y5254D02*
Y5304D01*
X5889Y5254D02*
Y5304D01*
Y4516D02*
Y4566D01*
X6991Y4516D02*
Y4566D01*
X6814Y4516D02*
X6991D01*
X6814Y5304D02*
X6991Y5304D01*
X5889D02*
X6066Y5304D01*
X5889Y4516D02*
X6066D01*
X2691Y9558D02*
X2769D01*
X2691Y9322D02*
X2769D01*
X14252Y8720D02*
X15118D01*
X14252Y9626D02*
X15118D01*
X5653Y15657D02*
Y15736D01*
X5889Y15657D02*
Y15736D01*
X6511Y10232D02*
X6589D01*
X6511Y10468D02*
X6589D01*
X3612Y14384D02*
X3691D01*
X3612Y14148D02*
X3691D01*
X3612Y14598D02*
X3691D01*
X3612Y14834D02*
X3691D01*
X3612Y15284D02*
X3691D01*
X3612Y15048D02*
X3691D01*
X5002Y16104D02*
X5081D01*
X5002Y15868D02*
X5081D01*
X6093Y14038D02*
X6172D01*
X6093Y14274D02*
X6172D01*
D16*
X9082Y14339D02*
G03*
X9082Y14339I-20J0D01*
G01*
X9886Y19588D02*
G03*
X9886Y19588I-39J0D01*
G01*
X6870Y4359D02*
G03*
X6870Y4359I-20J0D01*
G01*
X14124Y8563D02*
G03*
X14124Y8563I-49J0D01*
G01*
X14194Y14840D02*
G03*
X14194Y14840I-49J0D01*
G01*
X9656Y11782D02*
G03*
X9656Y11782I-20J0D01*
G01*
X11864Y15990D02*
G03*
X11864Y15990I-49J0D01*
G01*
X8899Y7496D02*
G03*
X8899Y7496I-39J0D01*
G01*
X11693Y11663D02*
G03*
X11693Y11663I-20J0D01*
G01*
X13287D02*
G03*
X13287Y11663I-20J0D01*
G01*
X5941Y9682D02*
G03*
X5941Y9682I-20J0D01*
G01*
X12865Y15448D02*
G03*
X12865Y15448I-20J0D01*
G01*
Y18723D02*
G03*
X12865Y18723I-20J0D01*
G01*
D267*
X6260Y6501D02*
G03*
X6260Y6501I-20J0D01*
G01*
X2098Y7120D02*
G03*
X2098Y7120I-20J0D01*
G01*
X4053Y10314D02*
G03*
X4053Y10314I-20J0D01*
G01*
X4086Y6767D02*
G03*
X4086Y6767I-20J0D01*
G01*
X3633Y6708D02*
Y6728D01*
Y6452D02*
Y6472D01*
X3987Y6708D02*
Y6728D01*
Y6452D02*
Y6472D01*
X3633Y6452D02*
X3987D01*
X3633Y6728D02*
X3987D01*
D268*
X10098Y6988D02*
G03*
X10098Y6988I-79J0D01*
G01*
D269*
X14977Y18712D02*
X15154D01*
Y16192D02*
Y18712D01*
X14977Y16192D02*
X15154D01*
X18770Y14980D02*
Y15157D01*
X16250D02*
X18770D01*
X16250Y14980D02*
Y15157D01*
D270*
X-217Y11437D02*
X207D01*
X-217Y8484D02*
X207D01*
X925D02*
X1722D01*
X925Y11437D02*
X1722D01*
D271*
X-148Y9961D02*
D03*
D272*
X3633Y6698D02*
D03*
Y6482D02*
D03*
D273*
X3938D02*
D03*
D274*
Y6693D02*
D03*
D275*
X18756Y555D02*
D03*
M02*
