G04*
G04 #@! TF.GenerationSoftware,Altium Limited,Altium Designer,21.0.9 (235)*
G04*
G04 Layer_Color=32768*
%FSLAX24Y24*%
%MOIN*%
G70*
G04*
G04 #@! TF.SameCoordinates,7913F74A-1B9B-402C-A4C5-A7CF04877313*
G04*
G04*
G04 #@! TF.FilePolarity,Positive*
G04*
G01*
G75*
%ADD12C,0.0100*%
%ADD125C,0.0057*%
D12*
X11774Y-133D02*
X11541D01*
Y-308D01*
X11658Y-250D01*
X11716D01*
X11774Y-308D01*
Y-425D01*
X11716Y-483D01*
X11599D01*
X11541Y-425D01*
X11891Y-192D02*
X11949Y-133D01*
X12066D01*
X12124Y-192D01*
Y-425D01*
X12066Y-483D01*
X11949D01*
X11891Y-425D01*
Y-192D01*
X12299Y-483D02*
X12416D01*
X12474Y-425D01*
Y-308D01*
X12416Y-250D01*
X12299D01*
X12241Y-308D01*
Y-425D01*
X12299Y-483D01*
X12591Y-133D02*
Y-483D01*
Y-308D01*
X12649Y-250D01*
X12766D01*
X12824Y-308D01*
Y-483D01*
X12940D02*
Y-250D01*
X12999D01*
X13057Y-308D01*
Y-483D01*
Y-308D01*
X13115Y-250D01*
X13174Y-308D01*
Y-483D01*
X13640D02*
X13757D01*
X13699D01*
Y-250D01*
X13640D01*
X13932Y-483D02*
Y-250D01*
X13990D01*
X14048Y-308D01*
Y-483D01*
Y-308D01*
X14107Y-250D01*
X14165Y-308D01*
Y-483D01*
X14282Y-600D02*
Y-250D01*
X14457D01*
X14515Y-308D01*
Y-425D01*
X14457Y-483D01*
X14282D01*
X14807D02*
X14690D01*
X14632Y-425D01*
Y-308D01*
X14690Y-250D01*
X14807D01*
X14865Y-308D01*
Y-367D01*
X14632D01*
X15215Y-133D02*
Y-483D01*
X15040D01*
X14981Y-425D01*
Y-308D01*
X15040Y-250D01*
X15215D01*
X15390D02*
X15506D01*
X15565Y-308D01*
Y-483D01*
X15390D01*
X15331Y-425D01*
X15390Y-367D01*
X15565D01*
X15681Y-483D02*
Y-250D01*
X15856D01*
X15915Y-308D01*
Y-483D01*
X16264Y-250D02*
X16089D01*
X16031Y-308D01*
Y-425D01*
X16089Y-483D01*
X16264D01*
X16556D02*
X16439D01*
X16381Y-425D01*
Y-308D01*
X16439Y-250D01*
X16556D01*
X16614Y-308D01*
Y-367D01*
X16381D01*
X17139Y-192D02*
Y-250D01*
X17081D01*
X17197D01*
X17139D01*
Y-425D01*
X17197Y-483D01*
X17431D02*
X17547D01*
X17606Y-425D01*
Y-308D01*
X17547Y-250D01*
X17431D01*
X17372Y-308D01*
Y-425D01*
X17431Y-483D01*
X17722Y-600D02*
Y-250D01*
X17897D01*
X17956Y-308D01*
Y-425D01*
X17897Y-483D01*
X17722D01*
D125*
X13071Y6820D02*
G03*
X12420Y7471I-651J0D01*
G01*
X12172Y4050D02*
G03*
X12405Y3486I798J0D01*
G01*
X9163Y2136D02*
G03*
X8946Y2353I-217J0D01*
G01*
X12172Y5802D02*
G03*
X11683Y6290I-488J0D01*
G01*
X11878Y1189D02*
G03*
X12138Y929I260J0D01*
G01*
X12863Y2817D02*
G03*
X12713Y3179I-512J0D01*
G01*
X12153Y3069D02*
G03*
X11878Y2794I0J-274D01*
G01*
X12231Y2507D02*
G03*
X12043Y2319I0J-189D01*
G01*
Y1531D02*
G03*
X12193Y1381I150J0D01*
G01*
X13173Y3079D02*
G03*
X13020Y2926I0J-152D01*
G01*
X12705Y2751D02*
G03*
X12388Y3069I-317J0D01*
G01*
X13071Y4102D02*
Y6820D01*
X13465Y3478D02*
Y3836D01*
X13463Y2593D02*
Y2902D01*
X13463Y1806D02*
Y2368D01*
X7834Y2353D02*
X8059D01*
X8391Y2353D02*
X8489D01*
X8286D02*
X8391D01*
X8713D02*
X8946D01*
X9262Y1278D02*
Y1821D01*
X9281Y1262D02*
X9487D01*
X9723Y1250D02*
X10186D01*
X12172Y4050D02*
Y5802D01*
X10069Y7471D02*
X12420D01*
X12043Y1531D02*
Y2319D01*
X14870Y390D02*
X15188D01*
X10069Y6290D02*
X10799D01*
X11878Y1189D02*
Y2794D01*
X12405Y3486D02*
X12713Y3179D01*
X12643Y934D02*
Y1049D01*
X13020Y2751D02*
Y2926D01*
X12863Y2751D02*
Y2817D01*
X13195Y2684D02*
X13281D01*
X13281Y1400D02*
X13463D01*
X12273Y2684D02*
X12530D01*
X12153Y3069D02*
X12388D01*
X12273Y2330D02*
X12530D01*
X12231Y2507D02*
X12530D01*
X12212Y1400D02*
X12444D01*
X12138Y929D02*
X12193D01*
X12637D02*
X12643Y934D01*
X12417Y929D02*
X12637D01*
M02*
